<?xml version="1.0" encoding="utf-8"?>
<!-- Generator: Adobe Illustrator 16.0.0, SVG Export Plug-In . SVG Version: 6.00 Build 0)  -->
<!DOCTYPE svg PUBLIC "-//W3C//DTD SVG 1.1//EN" "http://www.w3.org/Graphics/SVG/1.1/DTD/svg11.dtd">
<svg version="1.1" id="Layer_1" xmlns="http://www.w3.org/2000/svg" xmlns:xlink="http://www.w3.org/1999/xlink" x="0px" y="0px"
	 width="126px" height="126px" viewBox="0 0 126 126" enable-background="new 0 0 126 126" xml:space="preserve">
<g>
	<path d="M41.19,37.526c-5.746,7.14-7.302,17.178-4.164,26.493L7.402,97.083c-1.257,1.403-1.264,3.521-0.021,4.934
		c1.244,1.413,3.349,1.669,4.896,0.6l14.569-10.069c0.31,1.721,0.969,3.404,2.026,4.933c3.957,5.727,11.834,7.166,17.562,3.208
		c5.727-3.957,7.168-11.835,3.21-17.563c-1.057-1.529-2.398-2.741-3.898-3.638l1.375-0.949c3.685,2.981,7.907,4.999,12.269,5.962
		l3.273,4.735c-0.479,0.973-0.444,2.163,0.215,3.117l2.039,2.95c0.97,1.404,2.894,1.755,4.298,0.785
		c0.669-0.463,1.092-1.147,1.253-1.886c0.747,0.112,1.537-0.042,2.208-0.506c1.403-0.969,1.754-2.893,0.784-4.296l-2.038-2.95
		c-0.658-0.955-1.76-1.409-2.839-1.305l-0.127-0.184c3.329-0.406,6.579-1.464,9.57-3.215l1.662,2.407
		c-0.593,1.208-0.55,2.687,0.27,3.873l2.532,3.666c1.205,1.744,3.595,2.18,5.339,0.975c1.743-1.205,2.179-3.594,0.975-5.338
		l-2.533-3.666c-0.818-1.187-2.187-1.75-3.527-1.62l-1.663-2.406c2.411-1.948,4.375-4.286,5.878-6.882
		c-0.287,0.881-0.185,1.875,0.382,2.695l2.04,2.95c0.97,1.403,2.893,1.755,4.296,0.786c0.671-0.464,1.094-1.148,1.254-1.888
		c0.748,0.112,1.538-0.042,2.209-0.506c1.402-0.969,1.753-2.893,0.784-4.295l-2.039-2.951c-0.659-0.954-1.76-1.407-2.838-1.304
		l-2.93-4.241c0.817-4.662,0.473-9.626-1.107-14.408l1.374-0.95c0.309,1.72,0.97,3.404,2.026,4.933
		c3.957,5.727,11.836,7.166,17.563,3.208s7.166-11.836,3.208-17.563c-1.056-1.529-2.396-2.742-3.896-3.639l14.569-10.069
		c1.548-1.069,2.051-3.129,1.17-4.792c-0.881-1.662-2.866-2.404-4.622-1.725l-41.403,16.02c-7.601-6.228-17.54-8.322-26.246-5.476
		L32.671,8.65c-0.754-0.784-1.963-0.909-2.862-0.297c-0.923,0.589-1.222,1.784-0.77,2.772L41.19,37.526z M99.84,42.12
		c2.358-1.63,5.603-1.038,7.232,1.32c1.629,2.359,1.035,5.603-1.321,7.233c-2.357,1.628-5.603,1.037-7.232-1.322
		C96.891,46.993,97.483,43.749,99.84,42.12z M42.215,94.579c-2.358,1.63-5.604,1.038-7.232-1.32c-1.63-2.359-1.037-5.603,1.32-7.233
		c2.358-1.629,5.604-1.036,7.233,1.322C45.164,89.706,44.572,92.95,42.215,94.579z M66.466,33.742l7.485,7.163L44.32,61.381
		l-4.052-9.536L66.466,33.742z"/>
	<rect x="0.544" y="110.422" width="124.826" height="7.612"/>
	<polygon points="12.253,72.21 7.626,84.769 20.323,76.91 18.784,74.422 13.305,77.815 15.913,70.738 9.608,67.674 15.913,65.589 
		15.537,58.128 20.995,61.283 26.468,56.889 25.725,66.308 28.639,66.539 29.917,50.373 20.725,57.75 12.343,52.904 12.881,63.511 
		1.856,67.158 	"/>
</g>
</svg>
