<?xml version="1.0" encoding="utf-8"?>
<!-- Generator: Adobe Illustrator 17.0.0, SVG Export Plug-In . SVG Version: 6.00 Build 0)  -->
<!DOCTYPE svg PUBLIC "-//W3C//DTD SVG 1.1//EN" "http://www.w3.org/Graphics/SVG/1.1/DTD/svg11.dtd">
<svg version="1.1" id="Layer_1" xmlns="http://www.w3.org/2000/svg" xmlns:xlink="http://www.w3.org/1999/xlink" x="0px" y="0px"
	 width="32px" height="32px" viewBox="0 0 32 32" enable-background="new 0 0 32 32" xml:space="preserve">
<g>
	<path d="M30.535,13.256c-0.088-0.8-0.764-1.405-1.568-1.405h-4.94c-0.634,0-1.146,0.513-1.146,1.146v8.463
		c-0.356-0.101-0.733-0.157-1.125-0.157c-0.168,0-0.5,0.027-0.5,0.027v-9.626c0-0.503-0.408-0.911-0.911-0.911h-0.958V8.746
		l-0.169-0.031c-1.341-0.241-2.716-0.23-4.057,0.031v2.048H6.317c-2.945,0-5.335,2.403-5.335,5.347v6.598
		c-0.56,0-1.014,0.454-1.014,1.014v0.987c0,0.51,0.413,0.924,0.924,0.924h0.807c0.002,0.006,0.002,0.013,0.003,0.02
		c0.23,1.956,1.933,3.48,3.995,3.48c2.059,0,3.763-1.524,3.992-3.48c0.001-0.007,0.001-0.014,0.004-0.02h8.066
		c0.001,0.006,0.001,0.013,0.002,0.02c0.231,1.956,1.935,3.48,3.994,3.48c2.061,0,3.766-1.524,3.992-3.48
		c0.003-0.007,0.004-0.014,0.004-0.02h4.118c0.583,0,1.057-0.473,1.057-1.057c0.219,0,0.428-0.094,0.574-0.257
		c0.146-0.164,0.216-0.381,0.192-0.6L30.535,13.256z M8.053,16.36h1.828v-1.868h2.112v1.868h1.868v2.113h-1.868v1.828H9.881v-1.828
		H8.053V16.36z M5.697,26.876c-0.955,0-1.733-0.736-1.733-1.642c0-0.905,0.778-1.641,1.733-1.641c0.954,0,1.73,0.736,1.73,1.641
		C7.428,26.14,6.651,26.876,5.697,26.876z M17.747,25.511L17.747,25.511L17.747,25.511z M24.385,14.582
		c0-0.633,0.513-1.146,1.146-1.146h2.473c0.55,0,1.009,0.417,1.062,0.965l0.492,5.174c0.03,0.321-0.076,0.641-0.293,0.88
		c-0.217,0.239-0.525,0.375-0.849,0.375h-2.885c-0.634,0-1.146-0.514-1.146-1.146V14.582z M21.756,26.876
		c-0.954,0-1.73-0.736-1.73-1.642c0-0.905,0.775-1.641,1.73-1.641c0.955,0,1.73,0.736,1.73,1.641
		C23.486,26.14,22.711,26.876,21.756,26.876z"/>
	<path d="M10.952,9.292h3.163c0.316,0,0.574-0.273,0.574-0.589c0-0.316-0.258-0.588-0.574-0.588h-3.163
		c-0.317,0-0.572,0.272-0.572,0.588C10.38,9.019,10.635,9.292,10.952,9.292z"/>
	<path d="M17.275,7.209c0.315,0,0.568-0.256,0.568-0.573V3.473c0-0.316-0.253-0.572-0.568-0.572c-0.317,0-0.569,0.256-0.569,0.572
		v3.163C16.706,6.953,16.958,7.209,17.275,7.209z"/>
	<path d="M19.446,7.78c0.145,0,0.292-0.056,0.404-0.168l2.237-2.238c0.223-0.223,0.223-0.585,0-0.809
		c-0.224-0.223-0.586-0.223-0.811,0L19.04,6.802c-0.223,0.225-0.223,0.587,0,0.81C19.151,7.724,19.299,7.78,19.446,7.78z"/>
	<path d="M14.831,7.612c0.111,0.111,0.258,0.168,0.404,0.168c0.146,0,0.291-0.056,0.403-0.168c0.226-0.224,0.226-0.585,0-0.81
		l-2.237-2.237c-0.224-0.223-0.586-0.223-0.808,0c-0.225,0.224-0.225,0.586,0,0.809L14.831,7.612z"/>
	<path d="M19.992,8.702c0,0.317,0.255,0.589,0.572,0.589h3.163c0.317,0,0.574-0.273,0.574-0.589c0-0.316-0.257-0.588-0.574-0.588
		h-3.163C20.247,8.114,19.992,8.386,19.992,8.702z"/>
</g>
</svg>
