<?xml version="1.0" encoding="utf-8"?>
<!-- Generator: Adobe Illustrator 16.0.4, SVG Export Plug-In . SVG Version: 6.00 Build 0)  -->
<!DOCTYPE svg PUBLIC "-//W3C//DTD SVG 1.1//EN" "http://www.w3.org/Graphics/SVG/1.1/DTD/svg11.dtd">
<svg version="1.1" id="Layer_1" xmlns="http://www.w3.org/2000/svg" xmlns:xlink="http://www.w3.org/1999/xlink" x="0px" y="0px"
	 width="104.667px" height="72px" viewBox="0 0 104.667 72" enable-background="new 0 0 104.667 72" xml:space="preserve">
<path d="M42.646,37.68l-5.979-13.346h-7.658V43.5l-8.534-19.167h-6.458L5.309,44.236h5.151l1.91-4.445h9.752l1.933,4.445h9.842
	V29.458l6.528,14.779h4.443l6.682-14.527v14.527h4.887V24.333h-7.793L42.646,37.68z M14.212,35.491l2.916-6.958l3.035,6.958H14.212z
	 M93.111,24.375l-5.6,6.174l-5.418-6.216h-19.26v19.904h18.629l5.867-6.58l5.726,6.621h6.196l-8.674-10.214l8.75-9.688H93.111z
	 M78.91,40.061H67.645v-3.935h10.774v-3.779H67.645v-3.729l11.886,0.028l4.756,5.418L78.91,40.061z M97.488,0H7.184
	C3.223,0,0,3.222,0,7.183v57.634C0,68.777,3.223,72,7.184,72h90.3c3.961,0,7.184-3.221,7.184-7.18V7.184
	C104.667,3.223,101.447,0,97.488,0z M102.667,64.82c0,2.855-2.324,5.18-5.184,5.18h-90.3C4.326,70,2,67.676,2,64.816V7.184
	C2,4.326,4.326,2,7.184,2h90.304c2.855,0,5.18,2.325,5.18,5.183V64.82z"/>
</svg>
