<?xml version="1.0" encoding="utf-8"?>
<!-- Generator: Adobe Illustrator 16.0.4, SVG Export Plug-In . SVG Version: 6.00 Build 0)  -->
<!DOCTYPE svg PUBLIC "-//W3C//DTD SVG 1.1//EN" "http://www.w3.org/Graphics/SVG/1.1/DTD/svg11.dtd">
<svg version="1.1" id="Layer_1" xmlns="http://www.w3.org/2000/svg" xmlns:xlink="http://www.w3.org/1999/xlink" x="0px" y="0px"
	 width="104.667px" height="72px" viewBox="0 0 104.667 72" enable-background="new 0 0 104.667 72" xml:space="preserve">
<path d="M94.333,0h-84C4.635,0,0,4.634,0,10.333v51.333C0,67.365,4.636,72,10.333,72h84c5.699,0,10.334-4.635,10.334-10.334V10.333
	C104.667,4.635,100.032,0,94.333,0z M10.333,2h84c4.597,0,8.334,3.738,8.334,8.333V15H2v-4.667C2,5.738,5.738,2,10.333,2z
	 M94.333,70h-84C5.738,70,2,66.262,2,61.666V29h100.666v32.667C102.667,66.262,98.929,70,94.333,70z"/>
</svg>
