<?xml version="1.0" encoding="utf-8"?>
<!-- Generator: Adobe Illustrator 17.0.0, SVG Export Plug-In . SVG Version: 6.00 Build 0)  -->
<!DOCTYPE svg PUBLIC "-//W3C//DTD SVG 1.1//EN" "http://www.w3.org/Graphics/SVG/1.1/DTD/svg11.dtd">
<svg version="1.1" id="Layer_1" xmlns="http://www.w3.org/2000/svg" xmlns:xlink="http://www.w3.org/1999/xlink" x="0px" y="0px"
	 width="32px" height="32px" viewBox="0 0 32 32" enable-background="new 0 0 32 32" xml:space="preserve">
<g>
	<path d="M14.087,1.514c-1.071,0-1.939,0.867-1.939,1.938v16.093c0,1.071,0.868,1.939,1.939,1.939h7.981
		c-0.004,2.988-0.615,5.041-1.867,6.271c-1.85,1.82-5.03,1.759-8.397,1.706c-0.582-0.01-1.165-0.019-1.738-0.019
		c-4.794,0-4.974-4.731-4.974-5.264v-3.688c1.585-0.642,2.735-2.56,2.735-4.826c0-2.794-1.745-5.058-3.898-5.058
		s-3.899,2.264-3.899,5.058c0,2.235,1.119,4.13,2.671,4.798v3.717c0,2.629,1.556,7.602,7.338,7.602c0.561,0,1.157,0.012,1.725,0.021
		c0.587,0.01,1.177,0.019,1.764,0.019c3.118,0,6.168-0.286,8.314-2.394c1.722-1.693,2.559-4.29,2.566-7.94h5.652
		c1.071,0,1.939-0.868,1.939-1.939V3.452c0-1.071-0.868-1.938-1.939-1.938H14.087z M22.422,18.473c-3.862,0-6.992-3.129-6.992-6.991
		c0-3.86,3.13-6.992,6.992-6.992c3.861,0,6.991,3.132,6.991,6.992C29.414,15.344,26.284,18.473,22.422,18.473z"/>
	<path d="M22.448,6.244c-2.903,0-5.263,2.36-5.263,5.263c0,2.903,2.36,5.265,5.263,5.265c2.902,0,5.263-2.361,5.263-5.265
		C27.711,8.604,25.35,6.244,22.448,6.244z M22.448,15.535c-2.221,0-4.029-1.806-4.029-4.028c0-2.222,1.808-4.027,4.029-4.027
		c2.221,0,4.029,1.806,4.029,4.027C26.477,13.729,24.669,15.535,22.448,15.535z"/>
	<circle cx="24.76" cy="9.174" r="0.328"/>
	<path d="M19.905,13.568c-0.129,0.125-0.129,0.333,0,0.463c0.127,0.129,0.334,0.129,0.463,0c0.128-0.13,0.128-0.338,0.001-0.463
		C20.239,13.439,20.032,13.439,19.905,13.568z"/>
	<circle cx="25.718" cy="11.487" r="0.328"/>
	<circle cx="19.178" cy="11.487" r="0.328"/>
	<path d="M24.528,13.568c-0.129,0.125-0.128,0.333,0,0.463c0.128,0.129,0.336,0.129,0.464,0c0.127-0.13,0.127-0.338,0-0.463
		C24.864,13.439,24.656,13.439,24.528,13.568z"/>
	<circle cx="20.135" cy="9.174" r="0.328"/>
	<path d="M22.911,10.71V9.506c0-0.23-0.188-0.416-0.418-0.416c-0.229,0-0.419,0.187-0.419,0.416v1.2
		c-0.359,0.148-0.509,0.452-0.509,0.801c0,0.498,0.394,0.902,0.892,0.902c0.498,0,0.919-0.404,0.919-0.902
		C23.376,11.16,23.151,10.86,22.911,10.71z"/>
	<circle cx="22.448" cy="8.216" r="0.328"/>
	<circle cx="22.448" cy="14.756" r="0.329"/>
</g>
</svg>
