<?xml version="1.0" encoding="utf-8"?>
<!-- Generator: Adobe Illustrator 17.0.0, SVG Export Plug-In . SVG Version: 6.00 Build 0)  -->
<!DOCTYPE svg PUBLIC "-//W3C//DTD SVG 1.1//EN" "http://www.w3.org/Graphics/SVG/1.1/DTD/svg11.dtd">
<svg version="1.1" id="Layer_1" xmlns="http://www.w3.org/2000/svg" xmlns:xlink="http://www.w3.org/1999/xlink" x="0px" y="0px"
	 width="32px" height="32px" viewBox="0 0 32 32" enable-background="new 0 0 32 32" xml:space="preserve">
<g>
	<path d="M8.479,19.081c0-2.656,1.035-5.155,2.913-7.035c1.633-1.632,3.736-2.628,6.006-2.858c-1.751-3.133-3.85-6.249-5.272-8.271
		c-0.375-0.535-0.988-0.853-1.642-0.853S9.218,0.382,8.842,0.916C5.981,4.984,0.386,13.473,0.386,17.624
		c0,5.576,4.522,10.099,10.099,10.099c0.864,0,1.703-0.108,2.503-0.313c-0.568-0.371-1.104-0.804-1.595-1.296
		C9.513,24.234,8.478,21.737,8.479,19.081z M6.938,23.34c-0.277,0.33-0.674,0.5-1.073,0.5c-0.318,0-0.64-0.107-0.903-0.331
		c-3.98-3.352-2.608-8.306-2.547-8.516c0.215-0.744,0.993-1.176,1.737-0.958c0.742,0.214,1.169,0.987,0.959,1.729
		c-0.043,0.161-0.903,3.442,1.658,5.599C7.361,21.864,7.437,22.749,6.938,23.34z"/>
	<path d="M17.945,22.457c-2.187-0.397-2.736-2.508-2.759-2.606c-0.108-0.451-0.556-0.728-1.012-0.625
		c-0.453,0.107-0.734,0.561-0.629,1.013c0.031,0.135,0.805,3.28,4.1,3.878c0.051,0.009,0.101,0.013,0.151,0.013
		c0.399,0,0.755-0.284,0.829-0.691C18.707,22.979,18.403,22.54,17.945,22.457z"/>
	<path d="M30.907,27.989l-3.217-3.218c-0.493-0.493-1.293-0.493-1.787,0h0l-0.874-0.874c2.332-3.193,2.058-7.711-0.825-10.596
		c-1.543-1.544-3.596-2.393-5.779-2.393c-2.184,0-4.235,0.849-5.778,2.393c-1.545,1.545-2.394,3.597-2.394,5.78
		c-0.002,2.183,0.849,4.236,2.394,5.779c1.542,1.543,3.594,2.394,5.778,2.394c1.756,0,3.427-0.55,4.816-1.569l0.873,0.875h0
		c-0.493,0.493-0.493,1.294,0,1.787l3.217,3.216c0.526,0.526,1.379,0.526,1.906,0l1.669-1.67c0.252-0.251,0.394-0.595,0.394-0.951
		C31.301,28.584,31.16,28.242,30.907,27.989z M22.416,23.074c-1.066,1.065-2.484,1.652-3.991,1.652
		c-1.507,0-2.926-0.588-3.991-1.652c-1.065-1.065-1.653-2.484-1.653-3.992c0-0.954,0.236-1.873,0.68-2.689
		c0.256-0.474,0.582-0.912,0.973-1.301c0.056-0.057,0.114-0.111,0.173-0.167c1.043-0.959,2.391-1.487,3.818-1.487
		c1.507,0,2.924,0.589,3.991,1.654c0.206,0.206,0.387,0.428,0.554,0.655C24.59,17.955,24.41,21.079,22.416,23.074z"/>
	<circle cx="14.541" cy="17.522" r="0.826"/>
</g>
</svg>
