<?xml version="1.0" encoding="utf-8"?>
<!-- Generator: Adobe Illustrator 17.0.0, SVG Export Plug-In . SVG Version: 6.00 Build 0)  -->
<!DOCTYPE svg PUBLIC "-//W3C//DTD SVG 1.1//EN" "http://www.w3.org/Graphics/SVG/1.1/DTD/svg11.dtd">
<svg version="1.1" id="Layer_1" xmlns="http://www.w3.org/2000/svg" xmlns:xlink="http://www.w3.org/1999/xlink" x="0px" y="0px"
	 width="32px" height="32px" viewBox="0 0 32 32" enable-background="new 0 0 32 32" xml:space="preserve">
<g>
	<path d="M17.631,1.825c-0.262-0.366-0.686-0.584-1.136-0.584c-0.451,0-0.874,0.217-1.137,0.584
		c-2.808,3.919-9.843,14.227-9.843,19.082c0,6.064,4.915,10.98,10.979,10.98c6.065,0,10.981-4.916,10.981-10.98
		C27.476,16.052,20.438,5.744,17.631,1.825z M12.639,27.122c-0.3,0.358-0.732,0.542-1.167,0.542c-0.345,0-0.695-0.118-0.981-0.358
		c-4.329-3.646-2.835-9.031-2.769-9.26c0.234-0.808,1.073-1.273,1.886-1.042c0.808,0.232,1.274,1.075,1.045,1.881
		c-0.047,0.174-0.982,3.743,1.804,6.088C13.099,25.516,13.182,26.478,12.639,27.122z M15.636,30.151c-0.893,0-1.62-0.726-1.62-1.62
		c0-0.895,0.727-1.621,1.62-1.621c0.896,0,1.62,0.726,1.62,1.621C17.256,29.426,16.531,30.151,15.636,30.151z"/>
</g>
</svg>
