<?xml version="1.0" encoding="utf-8"?>
<!-- Generator: Adobe Illustrator 16.0.4, SVG Export Plug-In . SVG Version: 6.00 Build 0)  -->
<!DOCTYPE svg PUBLIC "-//W3C//DTD SVG 1.1//EN" "http://www.w3.org/Graphics/SVG/1.1/DTD/svg11.dtd">
<svg version="1.1" id="Layer_1" xmlns="http://www.w3.org/2000/svg" xmlns:xlink="http://www.w3.org/1999/xlink" x="0px" y="0px"
	 width="24px" height="24px" viewBox="0 0 24 24" enable-background="new 0 0 24 24" xml:space="preserve">
<path d="M20.566,0H3.434L0,5.723V24h24V5.723L20.566,0z M21.232,5h-8.293l-0.18-3h6.674L21.232,5z M4.566,2h6.673l-0.18,3H2.766
	L4.566,2z M2,22V7h20v15H2z M17,11c0,0.552-0.447,1-1,1H8c-0.552,0-1-0.448-1-1s0.448-1,1-1h8C16.553,10,17,10.448,17,11z"/>
</svg>
