<?xml version="1.0" encoding="utf-8"?>
<!-- Generator: Adobe Illustrator 16.0.4, SVG Export Plug-In . SVG Version: 6.00 Build 0)  -->
<!DOCTYPE svg PUBLIC "-//W3C//DTD SVG 1.1//EN" "http://www.w3.org/Graphics/SVG/1.1/DTD/svg11.dtd">
<svg version="1.1" id="Layer_1" xmlns="http://www.w3.org/2000/svg" xmlns:xlink="http://www.w3.org/1999/xlink" x="0px" y="0px"
	 width="112px" height="94.333px" viewBox="0 0 112 94.333" enable-background="new 0 0 112 94.333" xml:space="preserve">
<path d="M112,57.774V90.44c0,2.15-1.74,3.893-3.893,3.893H3.893C1.741,94.333,0,92.592,0,90.44V57.774
	c0,2.15,1.741,3.893,3.893,3.893h104.215C110.26,61.667,112,59.924,112,57.774z M112,18.892v34.216c0,2.15-1.74,3.891-3.893,3.891
	H3.893C1.741,56.999,0,55.258,0,53.108V18.892C0,16.741,1.741,15,3.893,15h32.44V6.722C36.333,3.015,39.348,0,43.055,0h25.891
	c3.705,0,6.721,3.015,6.721,6.722V15h32.441C110.26,15,112,16.74,112,18.892z M38.333,15h35.333V6.722
	C73.666,4.118,71.548,2,68.945,2H43.055c-2.604,0-4.722,2.118-4.722,4.722V15z M60.666,42.999c0-2.576-2.09-4.666-4.666-4.666
	s-4.667,2.09-4.667,4.666s2.09,4.667,4.667,4.667S60.666,45.575,60.666,42.999z"/>
</svg>
