<?xml version="1.0" encoding="utf-8"?>
<!-- Generator: Adobe Illustrator 17.0.0, SVG Export Plug-In . SVG Version: 6.00 Build 0)  -->
<!DOCTYPE svg PUBLIC "-//W3C//DTD SVG 1.1//EN" "http://www.w3.org/Graphics/SVG/1.1/DTD/svg11.dtd">
<svg version="1.1" id="Layer_1" xmlns="http://www.w3.org/2000/svg" xmlns:xlink="http://www.w3.org/1999/xlink" x="0px" y="0px"
	 width="32px" height="32px" viewBox="0 0 32 32" enable-background="new 0 0 32 32" xml:space="preserve">
<g>
	<path d="M10.04,11.309c1.003,0.971,2.061,1.98,3.123,3.008c1.388-0.204,2.769-0.446,4.168-0.61
		c-1.563-1.696-3.058-3.454-4.491-5.073c-1.442-1.64-2.295-3.64-3.269-5.123C9.095,2.758,8.588,2.135,8.103,1.618
		C7.632,1.089,7.105,0.738,6.6,0.514C5.592,0.072,4.658,0.159,4.658,0.159L2.634,1.006C1.507,1.48,0.934,2.73,1.315,3.892
		c0.061,0.185,0.133,0.381,0.217,0.589C2.263,6.201,4.34,7.302,5.069,7.812C6.507,8.852,8.468,9.793,10.04,11.309z"/>
	<path d="M30.944,25.635c0-1.563-1.222-2.833-2.729-2.833c-0.441,0-0.857,0.108-1.226,0.3c-0.197-0.084-0.385-0.185-0.551-0.311
		c-0.661-0.575-1.321-1.25-2.051-1.939c-0.72-0.691-1.48-1.425-2.266-2.184c-1.225-1.197-2.479-2.5-3.725-3.829
		c-1.395,0.1-2.772,0.321-4.145,0.544c0.233,0.231,0.469,0.452,0.7,0.686c1.639,1.65,3.242,3.338,4.698,4.965
		c0.722,0.818,1.418,1.61,2.081,2.362c0.651,0.758,1.297,1.45,1.843,2.136c0.239,0.35,0.371,0.778,0.484,1.201
		c-0.411,0.547-0.657,1.231-0.657,1.979c0,1.775,1.385,3.214,3.094,3.214c1.708,0,3.095-1.438,3.095-3.214
		c0-0.203-0.019-0.402-0.054-0.596C30.375,27.634,30.944,26.704,30.944,25.635z"/>
	<path d="M20.745,11.098c0.124,0.158,0.308,0.241,0.495,0.241c0.134,0,0.269-0.041,0.383-0.132l5.508-4.276
		c0.273-0.212,0.322-0.605,0.11-0.877c-0.21-0.273-0.604-0.325-0.877-0.11l-5.507,4.275C20.583,10.431,20.533,10.825,20.745,11.098z
		"/>
	<path d="M16.717,9.604c0.056,0.3,0.318,0.51,0.614,0.51c0.038,0,0.076-0.004,0.116-0.01c0.339-0.065,0.563-0.392,0.499-0.731
		l-1.145-6.101c-0.065-0.342-0.391-0.563-0.731-0.501c-0.339,0.063-0.563,0.392-0.498,0.729L16.717,9.604z"/>
	<path d="M21.16,14.251c-0.104,0.329,0.077,0.68,0.406,0.786l5.917,1.881c0.064,0.02,0.128,0.029,0.19,0.029
		c0.266,0,0.512-0.171,0.596-0.436c0.104-0.329-0.077-0.681-0.406-0.786l-5.917-1.882C21.618,13.741,21.264,13.921,21.16,14.251z"/>
	<path d="M19.307,9.999c0.039,0.006,0.076,0.01,0.113,0.01c0.298,0,0.561-0.212,0.615-0.516l0.73-4.014
		c0.062-0.341-0.163-0.666-0.503-0.727c-0.338-0.053-0.667,0.163-0.727,0.504l-0.73,4.015C18.742,9.61,18.968,9.936,19.307,9.999z"
		/>
	<path d="M26.209,13.318c0.013,0.002,0.026,0.002,0.04,0.002c0.328,0,0.603-0.256,0.624-0.585c0.023-0.347-0.239-0.645-0.584-0.665
		l-4.073-0.262c-0.35-0.024-0.642,0.239-0.664,0.585c-0.021,0.346,0.239,0.642,0.584,0.665L26.209,13.318z"/>
	<path d="M11.235,18.335c-0.212-0.272-0.604-0.322-0.878-0.109L4.85,22.502c-0.273,0.212-0.323,0.603-0.111,0.878
		c0.124,0.159,0.309,0.242,0.495,0.242c0.134,0,0.269-0.043,0.383-0.133l5.507-4.275C11.398,19.002,11.448,18.609,11.235,18.335z"/>
	<path d="M15.264,19.829c-0.063-0.34-0.383-0.562-0.73-0.499c-0.34,0.062-0.564,0.391-0.499,0.73l1.145,6.102
		c0.055,0.301,0.318,0.511,0.613,0.511c0.038,0,0.077-0.003,0.117-0.011c0.34-0.064,0.563-0.392,0.5-0.729L15.264,19.829z"/>
	<path d="M10.224,15.618c0.265,0,0.512-0.169,0.597-0.436c0.105-0.328-0.078-0.681-0.407-0.786l-5.917-1.882
		c-0.328-0.101-0.681,0.078-0.787,0.408c-0.105,0.328,0.078,0.679,0.408,0.785l5.917,1.881
		C10.098,15.608,10.162,15.618,10.224,15.618z"/>
	<path d="M12.673,19.435c-0.338-0.055-0.667,0.163-0.728,0.503l-0.731,4.015c-0.062,0.343,0.164,0.666,0.504,0.729
		c0.038,0.007,0.075,0.011,0.112,0.011c0.297,0,0.56-0.212,0.615-0.513l0.731-4.015C13.239,19.822,13.014,19.497,12.673,19.435z"/>
	<path d="M5.772,16.114c-0.337-0.038-0.643,0.24-0.665,0.585c-0.021,0.347,0.24,0.644,0.585,0.665l4.073,0.261
		c0.014,0.001,0.027,0.001,0.041,0.001c0.328,0,0.604-0.255,0.625-0.587c0.022-0.346-0.24-0.642-0.585-0.663L5.772,16.114z"/>
</g>
</svg>
