<?xml version="1.0" encoding="utf-8"?>
<!-- Generator: Adobe Illustrator 17.0.0, SVG Export Plug-In . SVG Version: 6.00 Build 0)  -->
<!DOCTYPE svg PUBLIC "-//W3C//DTD SVG 1.1//EN" "http://www.w3.org/Graphics/SVG/1.1/DTD/svg11.dtd">
<svg version="1.1" id="Layer_1" xmlns="http://www.w3.org/2000/svg" xmlns:xlink="http://www.w3.org/1999/xlink" x="0px" y="0px"
	 width="32px" height="32px" viewBox="0 0 32 32" enable-background="new 0 0 32 32" xml:space="preserve">
<g>
	<path d="M22.828,24.221c-0.814,0-1.475-0.661-1.475-1.475V22.12c0-0.445-0.361-0.806-0.806-0.806v-8.177
		c0-0.565-0.459-1.023-1.024-1.023c-0.563,0-1.022,0.458-1.022,1.023v8.177h-0.699v-6.639c0-0.565-0.459-1.023-1.023-1.023
		c-0.565,0-1.022,0.457-1.022,1.023v6.639h-1.022v-8.177c0-0.565-0.457-1.023-1.022-1.023c-0.565,0-1.021,0.458-1.021,1.023v8.177
		h-0.861v-6.639c0-0.565-0.459-1.023-1.024-1.023c-0.564,0-1.022,0.457-1.022,1.023v6.639H8.763v-8.177
		c0-0.565-0.458-1.023-1.023-1.023c-0.564,0-1.021,0.458-1.021,1.023v8.177H5.965v-6.639c0-0.565-0.457-1.023-1.022-1.023
		c-0.565,0-1.022,0.457-1.022,1.023v6.639H2.898v-8.177c0-0.565-0.458-1.023-1.022-1.023c-0.565,0-1.022,0.458-1.022,1.023v8.177
		c-0.387,0-0.7,0.313-0.7,0.7v2.31c0,2.379,1.929,4.309,4.308,4.309h25.68c0.942,0,1.706-0.764,1.706-1.706v-0.926
		c0-0.983-0.797-1.78-1.781-1.78H22.828z"/>
	<path d="M6.592,10.2c1.774,0.075,3.609,0.1,5.267,0.1c3.318,0,5.93-0.1,5.93-0.1s0.048-0.003,0.137-0.003
		c0.514,0,2.375,0.053,3.76,0.769c0.295,0.152,0.649,0.128,0.92-0.064c0.271-0.19,0.412-0.517,0.368-0.845
		c-0.282-2.086-1.225-5.048-4.226-6.308c-1.145-0.48-2.388-0.649-3.665-0.649c-3.108-0.003-6.429,1.007-9.085,1.007
		c-1.128,0-2.137-0.183-2.959-0.701c0,0-0.609-0.453-1.092-1.273C1.79,1.867,1.489,1.722,1.184,1.764
		c-0.305,0.042-0.555,0.263-0.634,0.56C0.269,3.382,0.133,4.787,0.61,6.339C0.61,6.339,1.632,9.989,6.592,10.2z M1.406,3.163
		c0.492,0.663,0.982,1.034,1.02,1.062c0.022,0.017,0.043,0.03,0.066,0.047c0.916,0.575,2.061,0.854,3.504,0.854
		c1.358,0,2.813-0.235,4.356-0.485c1.571-0.257,3.196-0.521,4.729-0.52c1.283,0,2.354,0.187,3.269,0.57
		c2.422,1.017,3.276,3.43,3.567,5.253c-0.015-0.007-0.029-0.013-0.045-0.019C18.63,3.73,9.889,7.991,5.443,7.263
		C2.531,6.785,1.628,4.863,1.36,3.475C1.373,3.367,1.389,3.264,1.406,3.163z"/>
</g>
</svg>
