<?xml version="1.0" encoding="utf-8"?>
<!-- Generator: Adobe Illustrator 16.0.4, SVG Export Plug-In . SVG Version: 6.00 Build 0)  -->
<!DOCTYPE svg PUBLIC "-//W3C//DTD SVG 1.1//EN" "http://www.w3.org/Graphics/SVG/1.1/DTD/svg11.dtd">
<svg version="1.1" id="Layer_1" xmlns="http://www.w3.org/2000/svg" xmlns:xlink="http://www.w3.org/1999/xlink" x="0px" y="0px"
	 width="20px" height="24px" viewBox="0 0 20 24" enable-background="new 0 0 20 24" xml:space="preserve">
<path d="M10,12c-1.7,0-3,1.3-3,3s1.3,3,3,3s3-1.3,3-3S11.7,12,10,12z M10,16.5c-0.8,0-1.5-0.7-1.5-1.5s0.7-1.5,1.5-1.5
	s1.5,0.7,1.5,1.5S10.8,16.5,10,16.5z M20,11c0-2.8-1.1-6.9-4.6-7.7C16.6,4.3,16.3,6.1,14.8,6.1C13.2,6.1,9.9,3.5,13.5,0
	C6.9,0.4,7.8,6.1,4.9,6.1C4,6.1,2.9,5.2,4.5,3C1.6,4.6,0,8,0,11.3c0,2.757,0.666,4.567,1.212,5.644C2.093,20.996,5.669,24,10,24
	c4.195,0,7.676-2.82,8.691-6.68C19.393,15.877,20,13.864,20,11z M10,22.5c-4.1,0-7.5-3.4-7.5-7.5c0-4.1,3.4-7.5,7.5-7.5
	c4.1,0,7.5,3.4,7.5,7.5C17.5,19.1,14.1,22.5,10,22.5z"/>
</svg>
