<?xml version="1.0" encoding="utf-8"?>
<!-- Generator: Adobe Illustrator 16.0.4, SVG Export Plug-In . SVG Version: 6.00 Build 0)  -->
<!DOCTYPE svg PUBLIC "-//W3C//DTD SVG 1.1//EN" "http://www.w3.org/Graphics/SVG/1.1/DTD/svg11.dtd">
<svg version="1.1" id="Layer_1" xmlns="http://www.w3.org/2000/svg" xmlns:xlink="http://www.w3.org/1999/xlink" x="0px" y="0px"
	 width="20px" height="24px" viewBox="0 0 20 24" enable-background="new 0 0 20 24" xml:space="preserve">
<path d="M0,0v23v1h2v-1h16v1h2v-1V0H0z M2,21V2h16v19H2z M3,8h14V3H3V8z M12,4c0,1.1-0.9,2-2,2S8,5.1,8,4H12z M3,20h14v-5H3V20z
	 M12,16c0,1.1-0.9,2-2,2s-2-0.9-2-2H12z M3,14h14V9H3V14z M12,10c0,1.1-0.9,2-2,2s-2-0.9-2-2H12z"/>
</svg>
