<?xml version="1.0" encoding="utf-8"?>
<!-- Generator: Adobe Illustrator 16.0.0, SVG Export Plug-In . SVG Version: 6.00 Build 0)  -->
<!DOCTYPE svg PUBLIC "-//W3C//DTD SVG 1.1//EN" "http://www.w3.org/Graphics/SVG/1.1/DTD/svg11.dtd">
<svg version="1.1" id="Layer_1" xmlns="http://www.w3.org/2000/svg" xmlns:xlink="http://www.w3.org/1999/xlink" x="0px" y="0px"
	 width="100px" height="100px" viewBox="0 0 100 100" enable-background="new 0 0 100 100" xml:space="preserve">
<g>
	<path d="M59.31,37.803c-0.491-0.506-0.957-1.046-1.421-1.587c-1.035,0.796-2.108,1.493-3.302,2.033
		c1.205,1.672,2.447,3.301,4.071,4.449c1.639,1.192,3.604,1.833,5.622,1.995c1.639,0.167,3.34-0.085,4.596-0.937
		c-1.008-0.235-1.994-0.554-2.945-0.975C63.344,41.662,61.155,39.826,59.31,37.803z"/>
	<path d="M72.038,39.573c-2.894-1.161-5.446-2.948-7.802-4.875c-0.895-0.724-1.765-1.471-2.637-2.208
		c-0.945,1.205-1.993,2.324-3.17,3.294c0.472,0.506,0.943,1.012,1.424,1.501c1.872,1.932,4.006,3.6,6.463,4.58
		c2.449,0.995,5.13,1.303,7.775,1.162c1.339-0.088,2.674-0.142,3.79-0.624c0.86-0.337,1.587-0.881,2.012-1.585
		C77.216,41.025,74.5,40.567,72.038,39.573z"/>
	<path d="M77.802,35.109c-3.265-0.924-6.315-2.388-9.24-3.998c-1.473-0.775-2.898-1.665-4.331-2.517
		c-0.055,0.092-0.109,0.185-0.164,0.276c-0.636,1.055-1.32,2.098-2.064,3.094c0.901,0.721,1.791,1.45,2.699,2.146
		c2.379,1.842,4.912,3.506,7.692,4.534c2.771,1.03,5.778,1.342,8.657,0.792c1.505-0.229,2.87-0.584,3.985-1.388
		c0.854-0.593,1.468-1.434,1.854-2.393C83.849,36.292,80.699,35.93,77.802,35.109z"/>
	<path d="M81.935,29.705c-3.471-0.627-6.812-1.701-10.088-2.887c-1.83-0.638-3.632-1.383-5.441-2.066
		c-0.594,1.122-1.216,2.223-1.853,3.302c1.451,0.815,2.874,1.661,4.363,2.396c2.937,1.526,5.971,2.886,9.143,3.7
		c3.151,0.812,6.501,1.03,9.546,0.056c1.517-0.479,2.93-1.245,4.177-2.231c0.882-0.76,1.574-1.92,1.664-3.056
		c-0.3,0.137-0.605,0.262-0.913,0.375C89.062,30.517,85.379,30.306,81.935,29.705z"/>
	<path d="M99.281,14.362c-1.438,2.083-3.649,3.443-5.853,4.398c-0.422,0.105-0.87,0.207-1.344,0.305
		c-1.216,0.247-2.604,0.423-4.116,0.495c-1.513,0.067-3.151,0.016-4.863-0.185c-1.712-0.206-3.497-0.562-5.3-1.086
		c-1.802-0.525-3.626-1.207-5.42-2.038l-0.676-0.308l-0.667-0.333c-0.458-0.231-0.916-0.462-1.376-0.694
		c-0.975-0.487-1.979-0.922-3.105-1.246c-0.564-0.157-1.159-0.288-1.82-0.323c-0.654-0.029-1.405,0.035-2.142,0.372
		c-0.364,0.168-0.709,0.401-0.998,0.672c-0.288,0.273-0.52,0.577-0.705,0.881c-0.373,0.611-0.564,1.216-0.709,1.787
		c-0.274,1.145-0.363,2.202-0.433,3.226c-0.062,1.022-0.099,2.008-0.15,2.966c-0.089,1.913-0.241,3.721-0.583,5.38
		c-0.334,1.658-0.866,3.161-1.586,4.429c-0.357,0.635-0.755,1.215-1.185,1.728c-0.422,0.521-0.873,0.98-1.327,1.381
		c-0.915,0.798-1.825,1.389-2.606,1.821c-0.532,0.292-0.999,0.52-1.386,0.698V25.299c2.567-0.443,4.523-2.675,4.523-5.369
		c0-3.012-2.442-5.455-5.455-5.455s-5.455,2.443-5.455,5.455c0,2.694,1.955,4.926,4.523,5.369v13.387
		c-0.387-0.178-0.854-0.406-1.385-0.698c-0.782-0.433-1.692-1.023-2.606-1.821c-0.455-0.401-0.906-0.859-1.327-1.381
		c-0.431-0.513-0.828-1.093-1.185-1.728c-0.72-1.268-1.251-2.771-1.586-4.429c-0.342-1.659-0.493-3.467-0.583-5.38
		c-0.05-0.958-0.087-1.944-0.149-2.966c-0.07-1.024-0.16-2.081-0.433-3.226c-0.146-0.571-0.338-1.176-0.709-1.787
		c-0.185-0.304-0.417-0.608-0.705-0.881c-0.289-0.271-0.634-0.504-0.998-0.672c-0.737-0.337-1.489-0.401-2.143-0.372
		c-0.661,0.035-1.256,0.166-1.82,0.323c-1.127,0.324-2.131,0.759-3.106,1.246c-0.46,0.232-0.918,0.463-1.376,0.694l-0.667,0.333
		l-0.676,0.308c-1.793,0.831-3.617,1.513-5.42,2.038c-1.803,0.524-3.588,0.88-5.3,1.086c-1.712,0.201-3.35,0.252-4.862,0.185
		c-1.513-0.072-2.9-0.248-4.117-0.495c-0.473-0.098-0.921-0.199-1.343-0.305c-2.204-0.955-4.415-2.316-5.854-4.398
		c-0.119,1.07-0.027,2.182,0.24,3.243c0.376,1.523,1.718,2.908,3.159,3.801c3.029,1.821,6.812,2.246,10.438,2.307
		c5.804-0.005,11.622-0.899,17.293-2.312c-0.056-0.104-0.108-0.32-0.157-0.599c-0.431-1-0.821-2.015-1.169-3.041
		c0.324-0.155,0.648-0.31,0.974-0.464c0.882-0.409,1.79-0.801,2.661-1.037c0.863-0.245,1.721-0.297,2.125-0.097
		c0.205,0.094,0.367,0.234,0.539,0.506c0.166,0.266,0.313,0.642,0.427,1.055c0.228,0.836,0.337,1.803,0.437,2.77
		c0.092,0.993,0.182,1.974,0.27,2.939c0.101,0.979,0.217,1.954,0.374,2.91c0.163,0.954,0.366,1.889,0.623,2.791
		c0.26,0.899,0.58,1.763,0.954,2.571c0.378,0.807,0.817,1.556,1.299,2.229c0.487,0.671,1.014,1.268,1.559,1.782
		c0.549,0.511,1.113,0.942,1.664,1.305c1.101,0.731,2.153,1.177,3.026,1.479c0.633,0.225,1.178,0.364,1.613,0.463v0.561
		c-0.675-0.203-1.424-0.442-1.574-0.479c-0.463-0.106-0.931-0.289-1.381-0.483c-0.002,0.002-0.004,0.004-0.005,0.007
		c-1.065,1.604-2.205,3.271-3.743,4.579c2.329,0.505,4.822,0.43,6.35-1.433c0.123-0.138,0.24-0.282,0.354-0.431v2.327
		c-0.366-0.076-0.879-0.049-1.388,0.018c-1.141,0.151-1.546,1.255-1.881,1.537c-2.346,1.969-5.904,3.841-5.05,7.012
		c0.769,2.854,4.107,3.662,6.67,4.64c-1.739,0.811-4.853,1.943-4.813,3.974c0.043,2.222,2.451,3.187,4.333,4.074
		c-1.461,0.674-3.158,1.586-3.13,3.028c0.032,1.653,1.508,2.507,2.953,3.202c-1.16,0.576-2.326,1.339-2.304,2.492
		c0.027,1.408,1.193,2.157,2.399,2.757c-0.861,0.469-1.641,1.082-1.624,1.985c0.025,1.318,1.167,1.949,2.266,2.486
		c-0.714,0.562-1.4,1.294-1.334,2.005c0.099,1.659,2.818,2.964,2.901,2.99v0.841l1.863,0.009v-0.853
		c0.078-0.025,2.74-1.281,2.887-2.987c0.066-0.711-0.62-1.444-1.334-2.005c1.099-0.537,2.241-1.168,2.266-2.486
		c0.018-0.903-0.762-1.516-1.624-1.985c1.206-0.601,2.373-1.35,2.399-2.757c0.022-1.153-1.144-1.917-2.304-2.492
		c1.445-0.695,2.921-1.549,2.953-3.202c0.028-1.441-1.668-2.354-3.13-3.028c1.882-0.887,4.29-1.852,4.333-4.074
		c0.039-2.031-3.074-3.164-4.813-3.974c2.563-0.979,5.901-1.787,6.67-4.64c0.854-3.171-2.704-5.042-5.05-7.012
		c-0.335-0.282-0.74-1.386-1.881-1.537c-0.501-0.066-1.008-0.093-1.373-0.021v-2.323c0.113,0.149,0.231,0.293,0.354,0.431
		c1.527,1.862,4.021,1.938,6.35,1.433c-1.54-1.309-2.679-2.975-3.744-4.579c-0.001-0.003-0.003-0.005-0.004-0.007
		c-0.452,0.194-0.919,0.377-1.382,0.483c-0.15,0.036-0.899,0.276-1.574,0.478v-0.561c0.436-0.099,0.979-0.239,1.613-0.463
		c0.874-0.301,1.926-0.748,3.026-1.479c0.551-0.363,1.115-0.794,1.664-1.305c0.546-0.514,1.072-1.111,1.559-1.782
		c0.482-0.673,0.92-1.422,1.299-2.229c0.375-0.808,0.694-1.671,0.955-2.571c0.256-0.901,0.459-1.836,0.622-2.791
		c0.156-0.957,0.273-1.931,0.374-2.91c0.088-0.965,0.179-1.946,0.27-2.939c0.1-0.967,0.209-1.934,0.437-2.77
		c0.113-0.413,0.261-0.789,0.427-1.055c0.171-0.272,0.333-0.412,0.539-0.506c0.404-0.2,1.262-0.148,2.125,0.097
		c0.872,0.236,1.778,0.628,2.661,1.037c0.325,0.155,0.65,0.31,0.975,0.464c-0.349,1.026-0.739,2.04-1.17,3.041
		c-0.048,0.279-0.1,0.495-0.156,0.599c5.67,1.412,11.489,2.306,17.293,2.312c3.626-0.061,7.41-0.485,10.438-2.307
		c1.441-0.893,2.783-2.277,3.16-3.801C99.309,16.544,99.399,15.432,99.281,14.362z M42.588,51.111
		c0.742-2.714,4.702-3.937,6.48-6.15v10.518C47.215,54.744,41.935,53.5,42.588,51.111z M44.499,60.795
		c0.268-0.667,1.607-1.204,2.196-1.508c0.718-0.372,2.314-1.187,2.374-1.243v5.833C49.02,63.835,44.088,61.821,44.499,60.795z
		 M45.696,67.934c0.205-0.511,1.35-0.963,1.801-1.197c0.52-0.27,1.05-0.519,1.571-0.787v4.187
		C48.08,69.679,45.444,68.562,45.696,67.934z M46.341,73.659c0.119-0.296,1.113-0.755,1.481-0.946
		c0.412-0.214,0.832-0.414,1.246-0.623v3.256C48.191,74.939,46.189,74.038,46.341,73.659z M48.708,83.359
		c-0.186-0.136-0.374-0.28-0.528-0.451c-0.024-0.027-0.042-0.048-0.058-0.067c0.171-0.179,0.545-0.485,0.7-0.613
		c0.081-0.066,0.165-0.126,0.247-0.189v1.562C48.947,83.522,48.825,83.445,48.708,83.359z M51.805,82.909
		c-0.155,0.171-0.343,0.315-0.528,0.451c-0.112,0.082-0.229,0.156-0.345,0.232V82.05c0.077,0.059,0.156,0.116,0.232,0.178
		c0.155,0.128,0.529,0.435,0.7,0.613C51.847,82.861,51.83,82.882,51.805,82.909z M50.932,79.486V77.37
		c0.281,0.14,1.838,0.63,1.859,1.042S51.257,79.325,50.932,79.486z M47.182,78.369c0.021-0.412,1.578-0.902,1.859-1.042v2.117
		C48.716,79.282,47.161,78.781,47.182,78.369z M53.645,73.659c0.151,0.377-1.828,1.271-2.713,1.681v-3.242
		c0.41,0.207,0.824,0.405,1.231,0.616C52.532,72.904,53.526,73.363,53.645,73.659z M54.289,67.934
		c0.251,0.625-2.358,1.735-3.357,2.196v-4.173c0.517,0.265,1.042,0.513,1.557,0.779C52.939,66.97,54.084,67.423,54.289,67.934z
		 M53.291,59.287c0.588,0.305,1.928,0.841,2.196,1.508c0.411,1.025-4.51,3.033-4.555,3.071v-5.811
		C50.988,58.107,52.572,58.916,53.291,59.287z M57.397,51.111c0.652,2.382-4.598,3.626-6.465,4.362V44.98
		C52.717,47.181,56.657,48.404,57.397,51.111z"/>
	<path d="M96.521,22.465c-3.446,1.95-7.358,2.248-11.078,2.242c-5.987-0.142-11.865-1.188-17.594-2.759
		c-0.102,0.186-0.209,0.369-0.314,0.553c-0.272,0.571-0.554,1.137-0.844,1.699c1.807,0.636,3.585,1.324,5.404,1.909
		c3.282,1.104,6.611,2.085,10.004,2.614c3.366,0.515,6.892,0.598,10-0.591c1.538-0.599,2.922-1.535,4.01-2.753
		c0.983-0.904,1.215-2.071,0.971-3.277C96.896,22.228,96.709,22.35,96.521,22.465z"/>
	<path d="M45.413,38.25c-1.194-0.541-2.268-1.237-3.302-2.033c-0.464,0.541-0.931,1.081-1.421,1.587
		c-1.845,2.023-4.034,3.858-6.62,4.979c-0.951,0.42-1.938,0.74-2.945,0.975c1.255,0.851,2.957,1.104,4.596,0.937
		c2.017-0.162,3.983-0.802,5.623-1.995C42.965,41.55,44.208,39.921,45.413,38.25z"/>
	<path d="M40.146,37.287c0.481-0.49,0.952-0.995,1.424-1.501c-1.177-0.971-2.225-2.089-3.17-3.294
		c-0.873,0.737-1.743,1.484-2.637,2.208c-2.356,1.926-4.909,3.714-7.802,4.875c-2.461,0.994-5.179,1.452-7.856,1.246
		c0.426,0.704,1.152,1.248,2.012,1.585c1.116,0.482,2.452,0.535,3.79,0.624c2.646,0.142,5.327-0.167,7.775-1.162
		C36.141,40.887,38.275,39.219,40.146,37.287z"/>
	<path d="M27.604,38.646c2.781-1.028,5.313-2.692,7.693-4.534c0.908-0.697,1.798-1.425,2.699-2.146
		c-0.745-0.997-1.429-2.04-2.064-3.094c-0.055-0.091-0.109-0.184-0.164-0.276c-1.432,0.852-2.857,1.742-4.33,2.517
		c-2.926,1.61-5.976,3.074-9.241,3.998c-2.897,0.821-6.048,1.183-9.089,0.548c0.386,0.959,1,1.8,1.854,2.393
		c1.115,0.804,2.48,1.16,3.985,1.388C21.827,39.988,24.833,39.675,27.604,38.646z"/>
	<path d="M21.94,34.149c3.172-0.814,6.207-2.174,9.144-3.7c1.489-0.735,2.913-1.58,4.363-2.396c-0.636-1.079-1.259-2.18-1.853-3.302
		c-1.809,0.683-3.61,1.428-5.441,2.066c-3.276,1.187-6.618,2.26-10.088,2.887c-3.445,0.602-7.126,0.813-10.599-0.413
		c-0.308-0.113-0.613-0.237-0.913-0.375c0.089,1.136,0.782,2.296,1.664,3.056c1.247,0.986,2.661,1.752,4.177,2.231
		C15.439,35.179,18.789,34.961,21.94,34.149z"/>
	<path d="M17.901,28.723c3.393-0.529,6.722-1.511,10.003-2.614c1.818-0.585,3.597-1.272,5.404-1.909
		c-0.291-0.562-0.572-1.128-0.844-1.699c-0.105-0.185-0.212-0.368-0.314-0.553c-5.729,1.571-11.606,2.617-17.594,2.759
		c-3.719,0.006-7.632-0.292-11.078-2.242c-0.189-0.116-0.375-0.237-0.56-0.363c-0.245,1.206-0.011,2.373,0.97,3.277
		c1.09,1.218,2.473,2.154,4.011,2.753C11.009,29.321,14.535,29.238,17.901,28.723z"/>
</g>
</svg>
