<?xml version="1.0" encoding="utf-8"?>
<!-- Generator: Adobe Illustrator 16.0.4, SVG Export Plug-In . SVG Version: 6.00 Build 0)  -->
<!DOCTYPE svg PUBLIC "-//W3C//DTD SVG 1.1//EN" "http://www.w3.org/Graphics/SVG/1.1/DTD/svg11.dtd">
<svg version="1.1" id="Layer_1" xmlns="http://www.w3.org/2000/svg" xmlns:xlink="http://www.w3.org/1999/xlink" x="0px" y="0px"
	 width="108.333px" height="75.658px" viewBox="0 0 108.333 75.658" enable-background="new 0 0 108.333 75.658"
	 xml:space="preserve">
<path d="M94.333,0H43c-6.766,0-10.357,4.461-12.201,8.347c-4.322-0.169-8.117,2.955-13.354,7.276L0,30.874v44.784h22.401
	c14.917,0,19.673-4.994,25.179-10.777c1.31-1.375,2.662-2.787,4.215-4.213h42.539c7.729,0,14-6.271,14-14V28V14
	C108.333,6.271,102.062,0,94.333,0z M43,9.333h51.334C96.91,9.333,99,11.429,99,14H38.333C38.333,11.429,40.423,9.333,43,9.333z
	 M99,46.667c0,2.57-2.09,4.666-4.666,4.666h-32.16c4.589-4.471,8.693-10.043,4.647-15.378c-4.177-5.503-12.372-2.17-19.839,1.815
	l-16.749,8.895c-0.487,0.26-0.673,0.865-0.414,1.354c0.259,0.486,0.862,0.676,1.353,0.414l16.75-8.896
	c6.723-3.59,14.037-6.68,17.306-2.374c2.698,3.559,1.035,7.684-5.548,13.784l-0.432,0.387h-1.002l-8.408,8.426
	c-1.34,1.268-2.543,2.521-3.707,3.742c-5.402,5.674-9.67,10.156-23.73,10.156H2V31.782l16.74-14.635
	c4.936-4.074,8.078-6.525,11.221-6.775C29.229,12.417,29,13.959,29,14v14v18.789l9.334-5.096V28H99V46.667L99,46.667z"/>
</svg>
