<?xml version="1.0" encoding="utf-8"?>
<!-- Generator: Adobe Illustrator 16.0.4, SVG Export Plug-In . SVG Version: 6.00 Build 0)  -->
<!DOCTYPE svg PUBLIC "-//W3C//DTD SVG 1.1//EN" "http://www.w3.org/Graphics/SVG/1.1/DTD/svg11.dtd">
<svg version="1.1" id="Layer_1" xmlns="http://www.w3.org/2000/svg" xmlns:xlink="http://www.w3.org/1999/xlink" x="0px" y="0px"
	 width="112px" height="111.617px" viewBox="0 0 112 111.617" enable-background="new 0 0 112 111.617" xml:space="preserve">
<path d="M21.104,0c9.139,12.495,18.746,19.584,25.563,23.446v-5.162h18.667v5.162c6.816-3.861,16.425-10.95,25.562-23.445
	c7.594,1.787,29.709,32.284-18.41,32.284h-7.047c0,0,39.229-4.074,26.236-21.546c-7.182,9.904-18.404,13.998-26.343,15.689v5.857
	H46.666v-5.858c-7.938-1.691-19.162-5.785-26.344-15.689C7.331,28.21,46.559,32.284,46.559,32.284h-7.047
	C-8.605,32.284,13.51,1.787,21.104,0z M0,36.95v18.667h46.667v-9.333h18.667v9.333H112V36.95H0z M9.333,111.617h37.333v-42h18.667
	v42h37.332V60.283H9.332L9.333,111.617L9.333,111.617z"/>
</svg>
