<?xml version="1.0" encoding="utf-8"?>
<!-- Generator: Adobe Illustrator 16.0.0, SVG Export Plug-In . SVG Version: 6.00 Build 0)  -->
<!DOCTYPE svg PUBLIC "-//W3C//DTD SVG 1.1//EN" "http://www.w3.org/Graphics/SVG/1.1/DTD/svg11.dtd">
<svg version="1.1" id="Layer_1" xmlns="http://www.w3.org/2000/svg" xmlns:xlink="http://www.w3.org/1999/xlink" x="0px" y="0px"
	 width="126px" height="126px" viewBox="0 0 126 126" enable-background="new 0 0 126 126" xml:space="preserve">
<path d="M117.952,37.358l-0.155-3.395l-3.297-0.821C94.845,28.249,94.445,9.707,94.438,8.941V5.325l-3.523-0.822
	C90.227,4.343,73.936,0.572,63,0.572c-10.935,0-27.227,3.771-27.914,3.93l-3.523,0.822v3.616c0,0.784-0.228,19.263-20.063,24.202
	l-3.297,0.821l-0.154,3.395C8.021,37.96,7.45,52.321,13.649,70.225c5.734,16.559,18.589,39.391,47.268,54.133l2.083,1.07l2.083-1.07
	c28.68-14.742,41.533-37.574,47.268-54.133C118.55,52.321,117.979,37.96,117.952,37.358z M40.404,12.674
	c5.088-1.053,15.079-2.919,22.226-2.982v52.938H20.804c-2.737-9.471-3.447-17.467-3.614-21.673
	C33.264,35.415,39.146,21.781,40.404,12.674z M63.37,114.938V63.371h41.614c-0.41,1.375-0.862,2.779-1.362,4.207
	C96.344,88.341,82.804,104.258,63.37,114.938z"/>
</svg>
