<?xml version="1.0" encoding="utf-8"?>
<!-- Generator: Adobe Illustrator 16.0.4, SVG Export Plug-In . SVG Version: 6.00 Build 0)  -->
<!DOCTYPE svg PUBLIC "-//W3C//DTD SVG 1.1//EN" "http://www.w3.org/Graphics/SVG/1.1/DTD/svg11.dtd">
<svg version="1.1" id="Layer_1" xmlns="http://www.w3.org/2000/svg" xmlns:xlink="http://www.w3.org/1999/xlink" x="0px" y="0px"
	 width="112px" height="112.004px" viewBox="0 0 112 112.004" enable-background="new 0 0 112 112.004" xml:space="preserve">
<path d="M65.334,38.334H18.667v-2h46.667V38.334L65.334,38.334z M18.667,52.334H56v-2H18.667V52.334L18.667,52.334z M93.334,36.334
	H74.666v2h18.668V36.334z M112,0H0v23.334h3.667v47.667h15v3.666h16.726l8.602-9.332H18.668v3.666h-13V23.334h100.667v45.667H98
	v-3.666H84.346l-3.07,9.332H98v-3.666h10.334V23.334H112V0z M58.198,71.536c0.182-3.701-1.601-5.781-1.601-5.781L39.055,83.44
	c0.215,2.414,2.021,5.418,4.881,8.252c3.926,3.888,7.201,4.644,8.289,4.793l17.526-17.707c0,0-1.513-1.428-5.397-1.254
	C63.521,75.755,62.738,73.669,58.198,71.536z M28.588,94.31c-1.223,1.582-3.145,4.056-3.439,4.359
	c-1.982,2.012-3.43,6.258,1.719,10.48c5.146,4.219,8.703,2.981,10.514,1.235c0.631-0.604,2.618-2.211,4.079-3.378
	c-1.644-0.104-4.933-0.812-8.549-4.392C29.312,99.056,28.625,96.009,28.588,94.31z M60.689,69.194
	c1.414,0.447,5.102,2.688,6.229,6.22c3.474-0.009,4.284,0.771,4.284,0.771l8.062-20.211l-20.131,8.361
	C59.137,64.335,60.732,67.499,60.689,69.194z M32.736,90.104l-1.908,1.904c0,0-0.663,3.449,4.242,8.35
	c4.82,4.824,8.652,4.699,8.652,4.699l1.996-1.965c0,0-3.816-0.621-8.339-5.105C34.542,95.169,33.007,92.19,32.736,90.104z
	 M36.975,86.329l-1.826,1.824c0,0-0.635,3.301,4.061,7.994c4.609,4.61,8.283,4.494,8.283,4.494l1.908-1.881
	c0,0-3.653-0.593-7.979-4.891C38.706,91.174,37.234,88.327,36.975,86.329z"/>
</svg>
