<?xml version="1.0" encoding="utf-8"?>
<!-- Generator: Adobe Illustrator 16.0.0, SVG Export Plug-In . SVG Version: 6.00 Build 0)  -->
<!DOCTYPE svg PUBLIC "-//W3C//DTD SVG 1.1//EN" "http://www.w3.org/Graphics/SVG/1.1/DTD/svg11.dtd">
<svg version="1.1" id="Layer_1" xmlns="http://www.w3.org/2000/svg" xmlns:xlink="http://www.w3.org/1999/xlink" x="0px" y="0px"
	 width="100px" height="100px" viewBox="0 0 100 100" enable-background="new 0 0 100 100" xml:space="preserve">
<g>
	<path d="M80.549,17.774h-6.5v-9.18c0-2.419-1.968-4.388-4.387-4.388H55.646V3.252c0-1.077-0.873-1.95-1.95-1.95h-18.28
		c-1.077,0-1.95,0.873-1.95,1.95v0.954H19.45c-2.419,0-4.387,1.968-4.387,4.388v72.148c0,2.419,1.968,4.387,4.387,4.387h6.501v9.181
		c0,2.419,1.968,4.387,4.387,4.387h50.211c2.42,0,4.388-1.968,4.388-4.387V22.162C84.937,19.743,82.969,17.774,80.549,17.774z
		 M25.951,22.162v58.093h-6.013V9.082h13.527v0.583c0,1.077,0.873,1.95,1.95,1.95h18.28c1.077,0,1.95-0.873,1.95-1.95V9.082h13.527
		v8.693h-2.64V16.82c0-1.077-0.873-1.95-1.95-1.95h-18.28c-1.077,0-1.95,0.873-1.95,1.95v0.954H30.338
		C27.919,17.774,25.951,19.743,25.951,22.162z M80.062,93.822H30.825V22.649h13.528v0.583c0,1.077,0.873,1.95,1.95,1.95h18.28
		c1.077,0,1.95-0.874,1.95-1.95v-0.583h13.527V93.822z"/>
	<rect x="38.544" y="61.009" width="33.799" height="6.825"/>
	<rect x="38.544" y="74.984" width="33.799" height="6.825"/>
	<polygon points="52.438,53.697 58.45,53.697 58.45,46.059 66.088,46.059 66.088,40.047 58.45,40.047 58.45,32.41 52.438,32.41 
		52.438,40.047 44.801,40.047 44.801,46.059 52.438,46.059 	"/>
</g>
</svg>
