<?xml version="1.0" encoding="utf-8"?>
<!-- Generator: Adobe Illustrator 16.0.4, SVG Export Plug-In . SVG Version: 6.00 Build 0)  -->
<!DOCTYPE svg PUBLIC "-//W3C//DTD SVG 1.1//EN" "http://www.w3.org/Graphics/SVG/1.1/DTD/svg11.dtd">
<svg version="1.1" id="Layer_1" xmlns="http://www.w3.org/2000/svg" xmlns:xlink="http://www.w3.org/1999/xlink" x="0px" y="0px"
	 width="112px" height="112px" viewBox="0 0 112 112" enable-background="new 0 0 112 112" xml:space="preserve">
<path d="M64.596,0L0,64.266V112l47.498-0.111L112,47.609L64.596,0z M16.329,102.666c-3.869,0-6.995-3.131-6.995-6.994
	c0-3.869,3.126-7.006,6.995-7.006c3.868,0,7.005,3.137,7.005,7.006C23.333,99.535,20.197,102.666,16.329,102.666z M78.895,49.719
	c-0.531,3.435-2.432,6.79-5.696,10.053l-5.236-5.231c2.233-2.235,3.603-4.466,4.099-6.683c0.494-2.216-0.016-4.088-1.545-5.614
	c-1.603-1.605-3.338-2.235-5.224-1.895c-1.881,0.331-3.715,1.395-5.502,3.183c-1.685,1.685-2.642,3.435-2.875,5.25
	c-0.231,1.806,0.226,4.289,1.377,7.434c1.976,4.354,2.897,8.139,2.758,11.373c-0.135,3.229-1.684,6.322-4.638,9.281
	c-2.875,2.879-5.982,4.415-9.311,4.597c-3.326,0.183-6.49-0.938-9.5-3.364l-4.976,4.976l-3.378-3.379l4.975-4.97
	c-2.408-3.002-3.561-6.283-3.453-9.853c0.104-3.579,1.975-7.131,5.619-10.673l0.205-0.051l5.055,5.054
	c-2.685,2.679-4.061,5.134-4.141,7.354c-0.078,2.227,0.7,4.157,2.333,5.787c1.685,1.685,3.537,2.436,5.554,2.258
	c2.016-0.183,3.924-1.166,5.711-2.953c1.652-1.652,2.596-3.416,2.834-5.312c0.242-1.891-0.183-4.325-1.266-7.295
	c-2.029-4.368-2.979-8.166-2.852-11.41c0.131-3.239,1.68-6.342,4.652-9.314c2.823-2.823,5.875-4.368,9.18-4.639
	c3.3-0.285,6.431,0.737,9.385,3.038l5.464-5.465l3.379,3.378l-5.487,5.493C78.592,43.083,79.422,46.279,78.895,49.719z"/>
</svg>
