<?xml version="1.0" encoding="utf-8"?>
<!-- Generator: Adobe Illustrator 17.0.0, SVG Export Plug-In . SVG Version: 6.00 Build 0)  -->
<!DOCTYPE svg PUBLIC "-//W3C//DTD SVG 1.1//EN" "http://www.w3.org/Graphics/SVG/1.1/DTD/svg11.dtd">
<svg version="1.1" id="Layer_1" xmlns="http://www.w3.org/2000/svg" xmlns:xlink="http://www.w3.org/1999/xlink" x="0px" y="0px"
	 width="32px" height="32px" viewBox="0 0 32 32" enable-background="new 0 0 32 32" xml:space="preserve">
<g>
	<path d="M12.665,18.512c-0.044,0.154-0.003,0.321,0.108,0.438c0.111,0.116,0.276,0.166,0.433,0.129l1.533-0.358l-1.658-1.663
		L12.665,18.512z"/>
	<polygon points="16.84,12.646 19.353,15.166 20.969,13.646 18.456,11.124 	"/>
	<path d="M30.96,25.87c-0.531-0.532-1.393-0.534-1.927-0.003l-0.807,0.804l-4.367-4.386l-1.069-4.259l-1.851,1.741l0.02,0.083
		c0.076,0.302-0.013,0.621-0.235,0.839c-0.222,0.218-0.542,0.303-0.842,0.223l-0.124-0.033l-1.905,1.809l4.438,1.17l4.363,4.38
		l-0.807,0.802c-0.256,0.255-0.401,0.601-0.401,0.964c-0.001,0.361,0.142,0.708,0.397,0.965l0.02,0.02
		c0.531,0.533,1.393,0.534,1.927,0.003l3.186-3.173c0.256-0.255,0.4-0.602,0.401-0.963c0-0.362-0.142-0.709-0.398-0.965L30.96,25.87
		z"/>
	<path d="M4.112,12.508l0.654-0.653l4.029,4.045l0.695-2.433l0.006-0.007l-0.432-0.436l4.093-4.078L13.706,9.5l1.617-1.523
		l-3.318-3.33l0.715-0.716c0.649-0.645,0.521-1.821-0.284-2.63c-0.805-0.81-1.983-0.94-2.63-0.293L1.196,9.582
		c-0.648,0.645-0.522,1.824,0.283,2.632C2.285,13.021,3.462,13.154,4.112,12.508z M10.772,6.552l1.601,1.607L8.28,12.235
		l-1.603-1.607L10.772,6.552z"/>
	<path d="M27.723,11.86l0.633,0.674c0.628,0.665,1.809,0.573,2.641-0.208c0.831-0.78,0.994-1.954,0.367-2.622l-8.326-8.85
		c-0.627-0.665-1.81-0.573-2.64,0.21c-0.83,0.783-0.995,1.954-0.368,2.62l0.691,0.735l-1.616,1.522l-8.633,8.123l-1.8,6.307
		L8.301,21.67l-4.505,4.24l-0.761-0.809c-0.527-0.56-1.407-0.587-1.967-0.061l-0.221,0.208c-0.426,0.401-0.446,1.071-0.045,1.497
		l3.289,3.496c0.248,0.264,0.59,0.417,0.951,0.429c0.361,0.011,0.712-0.122,0.975-0.37c0.269-0.253,0.426-0.602,0.437-0.971
		c0.011-0.369-0.125-0.728-0.378-0.995l-0.76-0.809l4.503-4.238l1.312-0.306l6.35-1.481l8.626-8.118L27.723,11.86z M16.394,19.475
		l-3.546,0.827c-0.413,0.096-0.845-0.033-1.137-0.34c-0.292-0.307-0.4-0.745-0.284-1.152l1.013-3.547l6.992-6.58l3.959,4.206
		L16.394,19.475z M24.198,12.129l-3.959-4.207l1.654-1.555l3.959,4.208L24.198,12.129z"/>
</g>
</svg>
