<?xml version="1.0" encoding="utf-8"?>
<!-- Generator: Adobe Illustrator 17.0.0, SVG Export Plug-In . SVG Version: 6.00 Build 0)  -->
<!DOCTYPE svg PUBLIC "-//W3C//DTD SVG 1.1//EN" "http://www.w3.org/Graphics/SVG/1.1/DTD/svg11.dtd">
<svg version="1.1" id="Layer_1" xmlns="http://www.w3.org/2000/svg" xmlns:xlink="http://www.w3.org/1999/xlink" x="0px" y="0px"
	 width="32px" height="32px" viewBox="0 0 32 32" enable-background="new 0 0 32 32" xml:space="preserve">
<path d="M30.907,8.336L21.739,0.29c-0.69-0.607-1.862-0.4-2.617,0.46c-0.756,0.86-0.808,2.05-0.119,2.656l0.762,0.668l-9.32,10.619
	l-1.443,7.809L4.905,27.17l-1.007-0.884c-0.234-0.205-0.54-0.309-0.85-0.289c-0.31,0.02-0.6,0.163-0.805,0.397l-0.276,0.315
	c-0.427,0.487-0.378,1.228,0.108,1.655L5.76,31.6c0.487,0.427,1.228,0.379,1.655-0.107l0.276-0.315
	c0.427-0.487,0.379-1.228-0.107-1.655L6.579,28.64l4.096-4.667l7.484-2.519l9.315-10.613l0.698,0.612
	c0.691,0.607,1.863,0.4,2.619-0.46C31.546,10.131,31.598,8.942,30.907,8.336z M16.879,19.534l-3.051,1.026
	c-0.49,0.165-1.03,0.058-1.42-0.28c-0.39-0.338-0.572-0.858-0.478-1.366l0.593-3.213l6.359-7.245l4.36,3.828L16.879,19.534z
	 M23.977,11.446l-4.359-3.827l1.503-1.713l4.359,3.828L23.977,11.446z"/>
</svg>
