<?xml version="1.0" encoding="utf-8"?>
<!-- Generator: Adobe Illustrator 16.0.4, SVG Export Plug-In . SVG Version: 6.00 Build 0)  -->
<!DOCTYPE svg PUBLIC "-//W3C//DTD SVG 1.1//EN" "http://www.w3.org/Graphics/SVG/1.1/DTD/svg11.dtd">
<svg version="1.1" id="Layer_1" xmlns="http://www.w3.org/2000/svg" xmlns:xlink="http://www.w3.org/1999/xlink" x="0px" y="0px"
	 width="112px" height="88.667px" viewBox="0 0 112 88.667" enable-background="new 0 0 112 88.667" xml:space="preserve">
<path d="M111.486,45.892L94.242,20.024c-0.568-0.845-1.525-1.358-2.547-1.358H79.334H68.395h-0.004c-1.475,0-2.709,1.05-2.994,2.445
	c-0.041,0.199-0.062,0.406-0.062,0.617V71.61c0,1.685,1.371,3.058,3.062,3.058h6.27c0,7.731,6.27,14,14,14c7.734,0,14-6.269,14-14
	h6.273c1.688,0,3.061-1.373,3.061-3.062V47.589C112,46.988,111.822,46.395,111.486,45.892z M79.334,46.666V28h11.809l12.443,18.666
	H79.334z M88.666,81.666c-3.859,0-7-3.141-7-7c0-3.858,3.141-7,7-7s7,3.142,7,7C95.666,78.525,92.525,81.666,88.666,81.666z
	 M56.602,9.333h-5.268V0H0v51.333h4.667v19.27c0,2.244,1.819,4.064,4.065,4.064h9.935c0,7.731,6.269,14,14,14
	c7.733,0,14-6.269,14-14h9.935c2.246,0,4.064-1.82,4.064-4.064V13.397C60.666,11.153,58.848,9.333,56.602,9.333z M32.667,81.666
	c-3.858,0-7-3.141-7-7c0-3.858,3.142-7,7-7s7,3.142,7,7C39.667,78.525,36.525,81.666,32.667,81.666z"/>
</svg>
