<?xml version="1.0" encoding="utf-8"?>
<!-- Generator: Adobe Illustrator 17.0.0, SVG Export Plug-In . SVG Version: 6.00 Build 0)  -->
<!DOCTYPE svg PUBLIC "-//W3C//DTD SVG 1.1//EN" "http://www.w3.org/Graphics/SVG/1.1/DTD/svg11.dtd">
<svg version="1.1" id="Layer_1" xmlns="http://www.w3.org/2000/svg" xmlns:xlink="http://www.w3.org/1999/xlink" x="0px" y="0px"
	 width="32px" height="32px" viewBox="0 0 32 32" enable-background="new 0 0 32 32" xml:space="preserve">
<g>
	<path d="M26.052,6.731c0.004-0.289-0.038-0.562-0.121-0.816c-0.411,0.962-0.953,1.756-1.563,2.32
		c-0.752,1.422-2.26,3.064-3.57,4.322c-0.463-0.333-1.021-0.514-1.598-0.515c-0.726,0-1.422,0.289-1.935,0.802L2.468,27.638
		c-0.333,0.332-0.52,0.783-0.52,1.252c0,0.471,0.187,0.921,0.52,1.253l1.066,1.066c0.705,0.707,1.85,0.707,2.555,0l15.045-15.045
		c0.726-0.726,0.876-1.81,0.453-2.685C23.439,11.721,26.018,8.889,26.052,6.731z"/>
	<path d="M21.958,7.909c0.104,0.032,0.211,0.048,0.32,0.048c1.019,0,2.223-1.363,2.819-3.275c0.661-2.117,0.328-4.106-0.745-4.442
		c-0.104-0.033-0.211-0.049-0.32-0.049c-1.018,0.001-2.222,1.365-2.818,3.277C20.552,5.585,20.886,7.574,21.958,7.909z"/>
</g>
</svg>
