<?xml version="1.0" encoding="utf-8"?>
<!-- Generator: Adobe Illustrator 16.0.4, SVG Export Plug-In . SVG Version: 6.00 Build 0)  -->
<!DOCTYPE svg PUBLIC "-//W3C//DTD SVG 1.1//EN" "http://www.w3.org/Graphics/SVG/1.1/DTD/svg11.dtd">
<svg version="1.1" id="Layer_1" xmlns="http://www.w3.org/2000/svg" xmlns:xlink="http://www.w3.org/1999/xlink" x="0px" y="0px"
	 width="108.268px" height="104.662px" viewBox="0 0 108.268 104.662" enable-background="new 0 0 108.268 104.662"
	 xml:space="preserve">
<path d="M102.013,74.218c-3.211-2.627-7.49-4.135-11.736-4.135c-7.307,0-12.025,4.193-12.025,10.686
	c0,7.785,6.865,9.844,10.496,9.844v-2c-0.348,0-8.496-0.09-8.496-7.844c0-5.439,3.748-8.686,10.025-8.686
	c5.531,0,15.99,3.455,15.99,16.533c0,13.887-16.922,14.045-17.643,14.045c-0.012,0-0.02,0-0.027,0
	c-2.553,0-11.166-0.453-16.891-6.17c-3.564-3.561-5.373-8.557-5.373-14.852c0-23.641,18.303-23.641,31.666-23.641l0.555-1.832
	L61.927,31.784c1.039-0.277,2.115-0.511,3.238-0.693L50.46,21.5c-0.081,0.006-0.155,0.019-0.234,0.026L33.45,0.378L32.667,0
	c-26.174,0-29,15.036-29,21.501c0,16.113,9.396,22.284,9.806,22.545l14.622,9.078c-0.07,1.773-0.091,3.477-0.094,5.072H28
	C28,76.759,9.187,75.669,0,75.669c0,0,10.388,6.953,18.741,6.561C14.509,90.104,4.667,94.333,4.667,94.333
	c17.104,0,35.966-1.695,37.258-22.084c0.026,0.027,0.05,0.051,0.076,0.076c0-2.154,0.053-4.201,0.146-6.164l26.504,29.873
	c0.504,0.658,1.051,1.281,1.643,1.871c6.268,6.26,15.557,6.756,18.303,6.756c0.01,0,0.02,0,0.029,0
	c7.295,0,19.643-3.379,19.643-16.045C108.267,80.944,104.866,76.552,102.013,74.218z M14.54,42.354
	c-0.089-0.057-8.873-5.895-8.873-20.854c0-17.261,18.161-19.422,26.519-19.499l15.726,19.823
	c-15.385,2.591-18.923,16.867-19.698,29.048L14.54,42.354z M42.318,63.339c1.332-17.625,6.908-27.012,17.158-30.785l35.238,23.461
	c-12.65,0.16-30.381,2.105-30.381,25.625c0,2.768,0.328,5.311,0.979,7.617L42.318,63.339z"/>
</svg>
