<?xml version="1.0" encoding="utf-8"?>
<!-- Generator: Adobe Illustrator 16.0.4, SVG Export Plug-In . SVG Version: 6.00 Build 0)  -->
<!DOCTYPE svg PUBLIC "-//W3C//DTD SVG 1.1//EN" "http://www.w3.org/Graphics/SVG/1.1/DTD/svg11.dtd">
<svg version="1.1" id="Layer_1" xmlns="http://www.w3.org/2000/svg" xmlns:xlink="http://www.w3.org/1999/xlink" x="0px" y="0px"
	 width="76.667px" height="108.333px" viewBox="0 0 76.667 108.333" enable-background="new 0 0 76.667 108.333"
	 xml:space="preserve">
<path d="M76.667,0v90.667h-29v-2h27V2H2v86.667h8.332v2H0V0H76.667z M15,38.347h46.666v-4.7H15V38.347L15,38.347z M15,19.646v4.7
	h37.332v-4.7H15z M40.736,73.403l-0.099,0.895c-0.162,1.477-1.018,2.791-2.305,3.533c-1.279,0.742-2.853,0.83-4.209,0.229
	L33.297,77.7l-0.537,0.729c-0.877,1.199-2.277,1.904-3.762,1.904s-2.885-0.705-3.762-1.904L24.7,77.7l-0.826,0.359
	c-1.353,0.602-2.92,0.514-4.209-0.229c-1.287-0.742-2.142-2.053-2.306-3.533l-0.098-0.895l-0.896-0.098
	c-0.496-0.059-0.925-0.291-1.369-0.49v35.518l14-9.334l14,9.334V72.815c-0.442,0.199-0.871,0.434-1.367,0.49L40.736,73.403z
	 M39.252,58.917l3.746,2.75l-3.746,2.742l1.871,4.252l-4.619,0.51L36,73.79l-4.252-1.871L29,75.667l-2.75-3.748L22,73.79
	l-0.504-4.619l-4.621-0.504l1.873-4.252L15,61.667l3.748-2.75l-1.873-4.25l4.621-0.505L22,49.542l4.25,1.872L29,47.666l2.748,3.748
	L36,49.542l0.504,4.62l4.619,0.505L39.252,58.917z M34.754,61.667c0-3.18-2.576-5.756-5.754-5.756s-5.754,2.576-5.754,5.756
	c0,3.178,2.576,5.754,5.754,5.754S34.754,64.844,34.754,61.667z"/>
</svg>
