<?xml version="1.0" encoding="utf-8"?>
<!-- Generator: Adobe Illustrator 17.0.0, SVG Export Plug-In . SVG Version: 6.00 Build 0)  -->
<!DOCTYPE svg PUBLIC "-//W3C//DTD SVG 1.1//EN" "http://www.w3.org/Graphics/SVG/1.1/DTD/svg11.dtd">
<svg version="1.1" id="Layer_1" xmlns="http://www.w3.org/2000/svg" xmlns:xlink="http://www.w3.org/1999/xlink" x="0px" y="0px"
	 width="32px" height="32px" viewBox="0 0 32 32" enable-background="new 0 0 32 32" xml:space="preserve">
<g>
	<path d="M22.928,11.492c0,0-1.376-1.428-6.637-1.428c-5.259,0-6.637,1.428-6.637,1.428v10.492
		c-0.707,0.146-1.236,0.304-1.623,0.444c-0.568,0.208-0.946,0.748-0.946,1.354v5.911c0,0.677,0.472,1.264,1.133,1.406
		c1.537,0.333,4.502,0.852,8.074,0.852s6.537-0.519,8.074-0.852c0.663-0.143,1.133-0.729,1.133-1.406v-5.885
		c0-0.602-0.376-1.142-0.941-1.351c-0.397-0.146-0.933-0.312-1.628-0.468V11.492z M12.195,12.277c0.569,0,1.031,0.463,1.031,1.032
		c0,0.57-0.462,1.03-1.031,1.03c-0.569,0-1.031-0.46-1.031-1.03C11.165,12.74,11.627,12.277,12.195,12.277z M11.081,15.942
		c0-0.653,0.49-1.183,1.142-1.183c0.652,0,1.142,0.529,1.142,1.183v6.108c0,0.653-0.489,1.18-1.142,1.18
		c-0.652,0-1.142-0.526-1.142-1.18V15.942z"/>
	<path d="M16.291,8.447c0.652,0,1.214-0.529,1.214-1.183V1.359c0-0.653-0.562-1.183-1.214-1.183c-0.652,0-1.213,0.529-1.213,1.183
		v5.905C15.078,7.918,15.639,8.447,16.291,8.447z"/>
	<path d="M11.345,7.684c0.115,0.114,0.266,0.172,0.418,0.172c0.151,0,0.302-0.058,0.417-0.172c0.23-0.232,0.23-0.607,0-0.834
		L8.003,2.672c-0.23-0.232-0.604-0.232-0.835,0c-0.231,0.23-0.231,0.605,0,0.834L11.345,7.684z"/>
	<path d="M20.821,7.856c0.151,0,0.301-0.058,0.417-0.172l4.176-4.178c0.231-0.229,0.231-0.604,0-0.834
		c-0.23-0.232-0.604-0.232-0.835,0L20.403,6.85c-0.23,0.227-0.23,0.602,0,0.834C20.519,7.798,20.669,7.856,20.821,7.856z"/>
	<path d="M31.991,9.185c-0.105-0.643-0.704-1.082-1.356-0.972l-5.828,0.956c-0.644,0.107-1.08,0.715-0.975,1.358
		c0.095,0.579,0.596,0.988,1.165,0.988c0.064,0,0.126-0.005,0.192-0.016l5.829-0.956C31.661,10.439,32.098,9.83,31.991,9.185z"/>
	<path d="M7.587,11.515c0.569,0,1.069-0.409,1.165-0.988c0.105-0.643-0.331-1.251-0.975-1.358L1.948,8.213
		C1.294,8.097,0.696,8.542,0.592,9.185c-0.107,0.646,0.33,1.254,0.973,1.358l5.828,0.956C7.459,11.51,7.523,11.515,7.587,11.515z"/>
</g>
</svg>
