<?xml version="1.0" encoding="utf-8"?>
<!-- Generator: Adobe Illustrator 16.0.4, SVG Export Plug-In . SVG Version: 6.00 Build 0)  -->
<!DOCTYPE svg PUBLIC "-//W3C//DTD SVG 1.1//EN" "http://www.w3.org/Graphics/SVG/1.1/DTD/svg11.dtd">
<svg version="1.1" id="Layer_1" xmlns="http://www.w3.org/2000/svg" xmlns:xlink="http://www.w3.org/1999/xlink" x="0px" y="0px"
	 width="24px" height="24px" viewBox="0 0 24 24" enable-background="new 0 0 24 24" xml:space="preserve">
<path d="M23.9,12.861c-0.103,0.197-0.199,0.397-0.4,0.6c-0.199,0.199-0.699,0.699-1.398,1.4c-0.602,0.697-1.397,1.5-1.397,1.5
	c-0.103,0.1-0.103,0.1-0.201,0.1c-0.101,0-0.5,0-0.698-0.2c-0.201-0.101-0.5-0.398-0.802-0.601
	c-0.299-0.201-1.299-0.899-1.899-1.199c-0.601-0.301-0.898-0.4-1-0.898C16,13.061,16,10.66,16,10.66s-1-0.201-1.799-0.301
	c-0.801-0.101-1.9-0.2-3.101-0.101c-1.2,0.101-2.3,0.2-3.399,0.601c0,1.399,0,2.601,0,2.9s0,0.4-0.4,0.603
	c-0.4,0.197-1.1,0.5-1.6,0.897c-0.5,0.4-1.101,0.8-1.4,1.103c-0.4,0.197-0.4,0.1-0.6,0.1c-0.2,0-0.5-0.1-0.601-0.2
	c-0.1,0-0.2-0.2-0.899-0.898c-0.601-0.602-1.5-1.5-1.7-1.699c-0.2-0.201-0.2-0.201-0.3-0.4L0,12.861c0-0.103,0.1-0.5,0.3-0.703
	c0.2-0.201,0.9-0.8,1.4-1.2s2-1.3,2.6-1.6c0.6-0.301,2.6-1.301,5.5-1.7c3-0.4,5.901,0.1,7.901,0.7c2,0.699,3.896,1.899,4.799,2.5
	c0.9,0.6,1.201,0.899,1.301,1.199C24,12.358,23.9,12.661,23.9,12.861z"/>
</svg>
