<?xml version="1.0" encoding="utf-8"?>
<!-- Generator: Adobe Illustrator 16.0.4, SVG Export Plug-In . SVG Version: 6.00 Build 0)  -->
<!DOCTYPE svg PUBLIC "-//W3C//DTD SVG 1.1//EN" "http://www.w3.org/Graphics/SVG/1.1/DTD/svg11.dtd">
<svg version="1.1" id="Layer_1" xmlns="http://www.w3.org/2000/svg" xmlns:xlink="http://www.w3.org/1999/xlink" x="0px" y="0px"
	 width="112px" height="112px" viewBox="0 0 112 112" enable-background="new 0 0 112 112" xml:space="preserve">
<path d="M64.596,0L0,64.266V112l47.498-0.111L112,47.609L64.596,0z M16.329,102.666c-3.869,0-6.995-3.131-6.995-6.994
	c0-3.869,3.126-7.006,6.995-7.006c3.868,0,7.005,3.137,7.005,7.006C23.333,99.535,20.197,102.666,16.329,102.666z M76.412,46.9
	c-0.672-0.994-1.419-1.904-2.244-2.734c-1.993-1.988-4.434-2.698-7.322-2.105c-2.889,0.583-5.811,2.352-8.764,5.306l-0.645,0.648
	l10.309,10.309l-3.066,3.07L54.371,51.076l-4.457,4.457l10.309,10.309l-3.065,3.07l-10.31-10.316l-0.232,0.236
	c-2.922,2.918-4.657,5.814-5.208,8.686c-0.552,2.869,0.173,5.307,2.165,7.295c0.859,0.867,1.773,1.623,2.734,2.295
	c0.961,0.678,1.975,1.25,3.043,1.731L45.71,83.3c-1.083-0.563-2.142-1.231-3.183-1.997s-2.017-1.604-2.926-2.516
	c-3.492-3.49-5.093-7.537-4.808-12.133c0.28-4.592,2.478-8.951,6.585-13.053l0.232-0.238l-3.299-3.294l3.066-3.062l3.299,3.299
	l4.461-4.466l-3.299-3.304l3.066-3.061l3.299,3.299l0.593-0.592c4.177-4.182,8.577-6.436,13.211-6.771
	c4.636-0.336,8.688,1.241,12.181,4.732c0.877,0.877,1.672,1.815,2.385,2.8c0.71,0.984,1.434,2.095,2.152,3.336l-4.537,3.719
	C77.672,48.93,77.079,47.894,76.412,46.9z"/>
</svg>
