<?xml version="1.0" encoding="utf-8"?>
<!-- Generator: Adobe Illustrator 16.0.4, SVG Export Plug-In . SVG Version: 6.00 Build 0)  -->
<!DOCTYPE svg PUBLIC "-//W3C//DTD SVG 1.1//EN" "http://www.w3.org/Graphics/SVG/1.1/DTD/svg11.dtd">
<svg version="1.1" id="Layer_1" xmlns="http://www.w3.org/2000/svg" xmlns:xlink="http://www.w3.org/1999/xlink" x="0px" y="0px"
	 width="112px" height="74.667px" viewBox="0 0 112 74.667" enable-background="new 0 0 112 74.667" xml:space="preserve">
<path d="M56.568,74.638c13.511-6.984,22.766-21.055,22.766-37.305c0-16.25-9.255-30.318-22.766-37.305
	c20.348,0.308,36.766,16.889,36.766,37.305C93.334,57.75,76.916,74.332,56.568,74.638z M75.236,0.028
	C88.746,7.015,98,21.083,98,37.333c0,16.25-9.254,30.319-22.764,37.305C95.582,74.332,112,57.75,112,37.333
	S95.582,0.335,75.236,0.028z M37.333,74.667C16.721,74.667,0,57.947,0,37.333C0,16.721,16.721,0,37.333,0
	s37.333,16.721,37.333,37.333C74.666,57.947,57.945,74.667,37.333,74.667z M41.977,20.282c0,0-9.533,4.25-18.567,5.258v7.051h9.329
	V56h9.24V20.282H41.977z"/>
</svg>
