<?xml version="1.0" encoding="utf-8"?>
<!-- Generator: Adobe Illustrator 17.0.0, SVG Export Plug-In . SVG Version: 6.00 Build 0)  -->
<!DOCTYPE svg PUBLIC "-//W3C//DTD SVG 1.1//EN" "http://www.w3.org/Graphics/SVG/1.1/DTD/svg11.dtd">
<svg version="1.1" id="Layer_1" xmlns="http://www.w3.org/2000/svg" xmlns:xlink="http://www.w3.org/1999/xlink" x="0px" y="0px"
	 width="32px" height="32px" viewBox="0 0 32 32" enable-background="new 0 0 32 32" xml:space="preserve">
<g>
	<path d="M14.853,22.192c-0.905-1.318-1.393-2.875-1.393-4.509c0-2.134,0.759-4.216,2.34-5.65c1.532-1.391,3.856-2.219,4.993-2.311
		c-2.081-1.415-4.62-2.557-7.396-2.557c-7.153,0-12.727,7.572-12.96,7.893c-0.312,0.431-0.312,1.014,0,1.444
		c0.233,0.321,5.807,7.895,12.96,7.895c1.068,0,2.101-0.17,3.083-0.458c-0.235-0.189-0.463-0.389-0.68-0.607
		C15.445,22.979,15.131,22.597,14.853,22.192z M12.782,13.182c-0.215,0.027-0.96,0.31-1.44,0.987
		c-0.444,0.627-0.548,1.447-0.308,2.437c0.159,0.659-0.244,1.323-0.904,1.484c-0.098,0.024-0.195,0.035-0.29,0.035
		c-0.556,0-1.058-0.378-1.194-0.94c-0.549-2.254,0.151-3.766,0.836-4.634c0.937-1.188,2.389-1.829,3.283-1.829h0.002
		c0.68,0,1.229,0.553,1.227,1.232C13.993,12.625,13.452,13.174,12.782,13.182z M3.005,15.781c1.098-1.303,3.658-4.033,6.824-5.377
		c-1.831,1.146-3.049,3.181-3.049,5.5c0,1.923,0.838,3.65,2.168,4.837C6.191,19.31,3.998,16.962,3.005,15.781z"/>
	<path d="M21.064,20.396c-1.756-0.32-2.197-2.016-2.215-2.095c-0.088-0.362-0.448-0.584-0.813-0.501
		c-0.364,0.085-0.59,0.449-0.506,0.812c0.025,0.107,0.646,2.635,3.293,3.115c0.041,0.007,0.081,0.011,0.123,0.011
		c0.32,0,0.605-0.229,0.665-0.557C21.677,20.816,21.433,20.462,21.064,20.396z"/>
	<path d="M31.477,24.839l-2.585-2.585c-0.397-0.396-1.038-0.396-1.436,0v0.002l-0.702-0.703c1.875-2.566,1.653-6.195-0.663-8.512
		c-1.239-1.241-2.889-1.924-4.642-1.924c-1.754,0-3.402,0.683-4.643,1.924c-1.24,1.241-1.922,2.889-1.922,4.643
		c-0.002,1.754,0.682,3.403,1.922,4.643c1.24,1.24,2.889,1.925,4.643,1.925c1.41,0,2.753-0.443,3.869-1.262l0.701,0.702h-0.001
		c-0.396,0.396-0.394,1.039,0.001,1.436l2.584,2.585c0.424,0.423,1.108,0.423,1.532,0l1.341-1.342
		C31.9,25.947,31.9,25.262,31.477,24.839z M24.656,20.891c-0.856,0.857-1.994,1.329-3.205,1.329c-1.211,0-2.351-0.473-3.206-1.329
		c-0.856-0.855-1.327-1.995-1.327-3.206c0-0.767,0.189-1.506,0.546-2.16c0.206-0.381,0.468-0.732,0.781-1.046
		c0.046-0.046,0.092-0.09,0.139-0.134c0.839-0.771,1.921-1.194,3.067-1.194c1.211,0,2.349,0.472,3.205,1.328
		c0.172,0.172,0.328,0.356,0.467,0.547C26.406,16.797,26.252,19.296,24.656,20.891z"/>
	<circle cx="18.331" cy="16.43" r="0.664"/>
</g>
</svg>
