<?xml version="1.0" encoding="utf-8"?>
<!-- Generator: Adobe Illustrator 16.0.0, SVG Export Plug-In . SVG Version: 6.00 Build 0)  -->
<!DOCTYPE svg PUBLIC "-//W3C//DTD SVG 1.1//EN" "http://www.w3.org/Graphics/SVG/1.1/DTD/svg11.dtd">
<svg version="1.1" id="Layer_1" xmlns="http://www.w3.org/2000/svg" xmlns:xlink="http://www.w3.org/1999/xlink" x="0px" y="0px"
	 width="126px" height="126px" viewBox="0 0 126 126" enable-background="new 0 0 126 126" xml:space="preserve">
<g>
	<path d="M47.343,72.731c-0.546-0.424-4.877-3.7-16.893-4.497c-0.661-0.055-1.327-0.524-1.914-0.917
		c-0.747-0.497-1.523-1.019-2.089-1.692c-0.92-1.098-1.959-2.022-2.832-3.241c-5.842-8.144-11.567-9.779-12.423-10.102
		c-1.14-0.55-5.507,0.127-3.409,3.039c0.133,0.022,6.68,9.219,7.105,9.954c0.752,1.298,1.603,1.829,2.402,2.74
		c0.73,0.832,1.538,1.597,2.284,2.415c0,0-4.187-2.479-5.19-3.565c-0.447-0.487-0.662-1.184-1.018-1.762
		c-0.412-0.666-0.85-1.315-1.297-1.957c-0.56-0.801-1.123-1.6-1.717-2.375c-0.758-0.987-1.545-1.953-2.326-2.923
		c-0.486-0.604-1.035-1.187-1.436-1.818c-1.98-3.128,0.281-4.999,2.433-5.235c-0.104-0.36-1.094-9.819-1.267-11.407
		c-0.494-4.56-0.982-7.938-3.596-8.857c-0.674-0.238-1.15-0.158-1.652,0.372c-0.594,0.624-0.948,3.936-1.119,6.03
		c0,0-1.143,11.236-0.868,16.479c0.147,2.812,8.882,22.156,11.392,25.145c2.508,2.988,22.139,14.304,22.139,14.304
		c0.656,0.546,4.291,3.345,4.291,7.015v7.967l21.164,0.025l0.018-7.311c0.049-1.351,0.279-2.695,0.441-4.041
		c0.461-1.537,0.092-4.442-0.123-5.57C57.385,79.977,48.332,73.497,47.343,72.731z"/>
	<path d="M124.61,36.933c-0.172-2.095-0.525-5.406-1.119-6.03c-0.502-0.53-0.979-0.61-1.653-0.372
		c-2.612,0.92-3.102,4.298-3.595,8.857c-0.174,1.588-1.163,11.047-1.268,11.407c2.152,0.236,4.414,2.107,2.433,5.235
		c-0.4,0.632-0.948,1.214-1.435,1.818c-0.781,0.97-1.569,1.936-2.327,2.923c-0.594,0.775-1.157,1.574-1.716,2.375
		c-0.447,0.642-0.886,1.291-1.297,1.957c-0.355,0.578-0.57,1.274-1.019,1.762c-1.004,1.087-5.19,3.565-5.19,3.565
		c0.746-0.818,1.555-1.583,2.285-2.415c0.799-0.911,1.649-1.442,2.401-2.74c0.427-0.735,6.974-9.932,7.106-9.954
		c2.098-2.912-2.27-3.589-3.41-3.039c-0.855,0.322-6.58,1.958-12.422,10.102c-0.873,1.219-1.913,2.144-2.832,3.241
		c-0.566,0.674-1.343,1.195-2.09,1.692c-0.587,0.393-1.253,0.862-1.914,0.917c-12.016,0.797-16.346,4.073-16.893,4.497
		c-0.989,0.766-10.041,7.245-12.5,18.214c-0.216,1.128-0.584,4.033-0.123,5.57c0.162,1.346,0.393,2.69,0.441,4.041l0.018,7.311
		l21.164-0.025v-7.967c0-3.67,3.635-6.469,4.291-7.015c0,0,19.63-11.315,22.139-14.304s11.243-22.333,11.391-25.145
		C125.753,48.169,124.61,36.933,124.61,36.933z"/>
	<circle cx="51.633" cy="27.545" r="9.413"/>
	<circle cx="74.366" cy="29.801" r="9.152"/>
	<path d="M73.707,72.36c1.083-0.997,2.106-1.839,2.981-2.502l0.133-0.101c1.02-0.79,3.366-2.262,7.791-3.455l-0.806-5.549v-5.348
		c1.004,2.505,1.876,5.844,2.634,10.453c1.979-0.439,4.306-0.813,7.023-1.065c-2.131-13.114-5.403-18.991-12.938-23.611
		c-0.154-0.095-2.639-1.411-3.806-1.698l-2.281,2.296l-2.21-2.321c-0.008,0.002-0.016,0.004-0.023,0.005
		c-1.691,0.405-5.777,3.044-7.918,5.087c-1.711-2.049-3.781-3.743-6.32-5.302c-0.158-0.097-2.715-1.45-3.916-1.745l-2.344,2.36
		l-2.273-2.387c-0.008,0.002-0.016,0.003-0.023,0.005c-1.617,0.557-3.051,1.391-4.753,2.537
		c-7.126,4.792-10.232,11.133-12.307,24.758c2.804,0.251,5.198,0.632,7.227,1.082c0.721-4.717,1.548-8.229,2.495-10.902v11.507
		c0,0.011,0.002,0.021,0.002,0.033c3.976,1.154,6.143,2.514,7.108,3.263l0.13,0.099c0.878,0.665,1.904,1.51,2.99,2.51
		c2.889-6.467,8.41-7.744,9.203-7.935c0.006,0,0.012-0.001,0.017-0.004L63,65.982l1.477-1.553c0.006,0.003,0.013,0.004,0.018,0.004
		C65.287,64.624,70.819,65.889,73.707,72.36z M63,64.076c-3.491-0.034-6.311-2.873-6.311-6.369c0-3.498,2.819-6.336,6.311-6.369
		c3.49,0.033,6.311,2.871,6.311,6.369C69.311,61.203,66.49,64.042,63,64.076z"/>
</g>
</svg>
