<?xml version="1.0" encoding="utf-8"?>
<!-- Generator: Adobe Illustrator 16.0.4, SVG Export Plug-In . SVG Version: 6.00 Build 0)  -->
<!DOCTYPE svg PUBLIC "-//W3C//DTD SVG 1.1//EN" "http://www.w3.org/Graphics/SVG/1.1/DTD/svg11.dtd">
<svg version="1.1" id="Layer_1" xmlns="http://www.w3.org/2000/svg" xmlns:xlink="http://www.w3.org/1999/xlink" x="0px" y="0px"
	 width="23.85px" height="23.85px" viewBox="0 0 23.85 23.85" enable-background="new 0 0 23.85 23.85" xml:space="preserve">
<path d="M23.851,1.414L22.437,0l-3.293,3.293L15.851,0l-1.414,1.414l3.293,3.293L14.857,7.58c-1.568-1.258-3.552-2.017-5.713-2.017
	C4.101,5.564,0,9.666,0,14.707s4.103,9.143,9.144,9.143c5.042,0,9.143-4.102,9.143-9.143c0-2.161-0.758-4.146-2.016-5.713
	l2.873-2.873l3.293,3.293L23.851,8l-3.293-3.293L23.851,1.414z M9.143,21.564c-3.781,0-6.857-3.075-6.857-6.856
	S5.362,7.85,9.143,7.85c3.782,0,6.856,3.076,6.856,6.857S12.925,21.564,9.143,21.564z"/>
</svg>
