<?xml version="1.0" encoding="utf-8"?>
<!-- Generator: Adobe Illustrator 16.0.4, SVG Export Plug-In . SVG Version: 6.00 Build 0)  -->
<!DOCTYPE svg PUBLIC "-//W3C//DTD SVG 1.1//EN" "http://www.w3.org/Graphics/SVG/1.1/DTD/svg11.dtd">
<svg version="1.1" id="Layer_1" xmlns="http://www.w3.org/2000/svg" xmlns:xlink="http://www.w3.org/1999/xlink" x="0px" y="0px"
	 width="110.805px" height="108.333px" viewBox="0 0 110.805 108.333" enable-background="new 0 0 110.805 108.333"
	 xml:space="preserve">
<path d="M60.667,96.667c0,6.443-5.224,11.666-11.666,11.666c-6.443,0-11.667-5.223-11.667-11.666s5.224-11.668,11.667-11.668
	C55.444,84.999,60.667,90.223,60.667,96.667z M81.667,84.999c-6.443,0-11.666,5.225-11.666,11.668s5.223,11.666,11.666,11.666
	c6.442,0,11.668-5.223,11.668-11.666S88.11,84.999,81.667,84.999z M107.54,44.548l-4.472-1.339l0.958,0.287l-9.947,33.17H36.554
	L17.887,2H0.001V0h19.446l9.335,37.333h3.676l-4.793-7.969l23.669-19.031l27,27h8.814l-14.34-14.909l7.816-6.132l19.729,19.729
	l0.707-2.355h9.743L107.54,44.548z M102.111,42.921l-3.513-1.052l0.762-2.537H29.281l8.833,35.334H92.59L102.111,42.921z"/>
</svg>
