<?xml version="1.0" encoding="utf-8"?>
<!-- Generator: Adobe Illustrator 16.0.4, SVG Export Plug-In . SVG Version: 6.00 Build 0)  -->
<!DOCTYPE svg PUBLIC "-//W3C//DTD SVG 1.1//EN" "http://www.w3.org/Graphics/SVG/1.1/DTD/svg11.dtd">
<svg version="1.1" id="Layer_1" xmlns="http://www.w3.org/2000/svg" xmlns:xlink="http://www.w3.org/1999/xlink" x="0px" y="0px"
	 width="112px" height="80.879px" viewBox="0 0 112 80.879" enable-background="new 0 0 112 80.879" xml:space="preserve">
<path d="M80.216,8.859l-0.882-1.322v1.322H60.666v0.576l-3.885-4.856c-0.381-0.475-1.184-0.475-1.562,0l-3.886,4.857V8.859H32.666
	V7.537l-0.881,1.322h-2.012L17.655,28.247v52.633h76.688V28.247L82.227,8.858h-2.011V8.859z M79.334,10.88v16.646h-4.195
	L61.823,10.88H79.334z M56,6.804l16.577,20.722H39.423L56,6.804z M50.178,10.88L36.861,27.526h-4.194V10.88H50.178z M92.323,78.858
	H19.677V28.827l0.181-0.289h3.476v1.011h65.333v-1.011h3.477l0.182,0.289L92.323,78.858L92.323,78.858z M112,19.204l-14,9.332
	L84,5.203L97.07,0L112,19.204z M28,5.203L14,28.536L0,19.204L14.93,0L28,5.203z M42,46.192h28v2.021H42V46.192z"/>
</svg>
