<?xml version="1.0" encoding="utf-8"?>
<!-- Generator: Adobe Illustrator 17.0.0, SVG Export Plug-In . SVG Version: 6.00 Build 0)  -->
<!DOCTYPE svg PUBLIC "-//W3C//DTD SVG 1.1//EN" "http://www.w3.org/Graphics/SVG/1.1/DTD/svg11.dtd">
<svg version="1.1" id="Layer_1" xmlns="http://www.w3.org/2000/svg" xmlns:xlink="http://www.w3.org/1999/xlink" x="0px" y="0px"
	 width="32px" height="32px" viewBox="0 0 32 32" enable-background="new 0 0 32 32" xml:space="preserve">
<g>
	<path d="M18.69,26.219c-1.494,1.838-3.781,3.012-6.361,3.012c-4.502,0-8.105-3.68-8.105-8.158c0-2.651,1.437-5.005,3.36-6.493
		v-2.791c-3.254,1.766-5.775,5.226-5.775,9.246c0,5.802,4.716,10.599,10.551,10.599c3.767,0,7.035-2.067,8.897-4.929
		c-0.137-0.312-0.292-0.614-0.442-0.919C20.109,25.951,19.402,26.094,18.69,26.219z"/>
	<ellipse cx="12.702" cy="3.745" rx="3.766" ry="3.745"/>
	<path d="M29.054,28.471l-3.933-9.099c-0.461-1.066-1.619-1.65-2.751-1.392l-7.922,1.825l-0.009-8.517
		c-0.002-1.33-1.08-2.43-2.409-2.43c0,0-0.002,0-0.003,0c-1.33,0-2.406,1.105-2.406,2.434l0.012,11.528
		c0,0.733,0.336,1.433,0.91,1.889c0.574,0.457,1.326,0.632,2.038,0.466l8.915-2.052l3.136,7.257c0.394,0.91,1.28,1.454,2.212,1.454
		c0.319,0,0.644-0.063,0.955-0.198C29.02,31.11,29.581,29.692,29.054,28.471z"/>
</g>
</svg>
