<?xml version="1.0" encoding="utf-8"?>
<!-- Generator: Adobe Illustrator 17.0.0, SVG Export Plug-In . SVG Version: 6.00 Build 0)  -->
<!DOCTYPE svg PUBLIC "-//W3C//DTD SVG 1.1//EN" "http://www.w3.org/Graphics/SVG/1.1/DTD/svg11.dtd">
<svg version="1.1" id="Layer_1" xmlns="http://www.w3.org/2000/svg" xmlns:xlink="http://www.w3.org/1999/xlink" x="0px" y="0px"
	 width="32px" height="32px" viewBox="0 0 32 32" enable-background="new 0 0 32 32" xml:space="preserve">
<g>
	<path d="M18.841,24.169c-0.184,0.48-0.664,0.779-1.175,0.725c-0.511-0.05-0.926-0.436-1.014-0.941l-0.925-5.391l-0.079,0.472v0.002
		v-0.001l-0.962,5.285c-0.097,0.538-0.57,0.936-1.116,0.936c-0.004,0-0.009,0-0.013,0c-0.542,0-1.008-0.377-1.117-0.909
		l-0.901-4.397l-0.229,0.375c-0.21,0.333-0.575,0.542-0.968,0.542H4.005c2.334,2.607,6.028,5.668,11.874,8.72
		c0.009,0.017,0.023,0.025,0.044,0.024c5.873-3.057,9.782-6.129,12.123-8.744h-7.94L18.841,24.169z"/>
	<path d="M32.009,13.06v-0.01c0.027-0.276,0.042-0.554,0.042-0.836c0-4.628-3.75-8.377-8.378-8.377
		c-3.406,0-6.338,2.035-7.647,4.955h0c-1.31-2.92-4.241-4.954-7.648-4.954C3.751,3.837,0,7.588,0,12.215
		c0,0.283,0.014,0.563,0.042,0.839L0,13.069c0,0,0,2.225,2.224,5.529h7.485l1.407-2.265c0.248-0.394,0.714-0.603,1.169-0.524
		c0.46,0.083,0.822,0.435,0.916,0.891l0.284,1.39l1.104-6.114l0,0c0.105-0.371,0.27-0.996,0.805-1.049
		c0.001-0.003,0.001-0.006,0.002-0.008c0.109-0.036,0.225-0.062,0.344-0.062c0.002,0,0.003,0,0.004,0
		c0.416,0,0.896,0.258,1.078,0.79H16.82c0.02,0.055,0.036,0.11,0.045,0.17l1.327,7.656l0.063-0.154
		c0.168-0.441,0.592-0.721,1.066-0.721h10.505c2.225-3.304,2.225-5.529,2.225-5.529L32.009,13.06z M8.616,5.684
		c0.759,0,1.375,0.614,1.375,1.374c0,0.759-0.616,1.374-1.375,1.374S7.243,7.817,7.243,7.058C7.243,6.298,7.857,5.684,8.616,5.684z
		 M5.034,14.281c0.168,0.607-0.187,1.236-0.793,1.404c-0.102,0.029-0.205,0.042-0.306,0.042c-0.499,0-0.957-0.33-1.099-0.835
		c-0.209-0.753-0.309-1.441-0.334-2.068C2.385,9.598,4.353,8.026,4.453,7.948c0.498-0.384,1.213-0.296,1.6,0.204
		C6.436,8.646,6.35,9.355,5.862,9.744c-0.075,0.062-1.099,0.954-1.08,2.87l0.007-0.001l-0.007,0.001
		C4.787,13.102,4.86,13.656,5.034,14.281z"/>
</g>
</svg>
