<?xml version="1.0" encoding="utf-8"?>
<!-- Generator: Adobe Illustrator 17.0.0, SVG Export Plug-In . SVG Version: 6.00 Build 0)  -->
<!DOCTYPE svg PUBLIC "-//W3C//DTD SVG 1.1//EN" "http://www.w3.org/Graphics/SVG/1.1/DTD/svg11.dtd">
<svg version="1.1" id="Layer_1" xmlns="http://www.w3.org/2000/svg" xmlns:xlink="http://www.w3.org/1999/xlink" x="0px" y="0px"
	 width="32px" height="32px" viewBox="0 0 32 32" enable-background="new 0 0 32 32" xml:space="preserve">
<g>
	<path d="M6.343,13.793h4.093c0.365,0,0.704-0.192,0.899-0.5l0.308-0.491l0.929,4.517c0.102,0.495,0.538,0.783,1.044,0.783
		c0.004,0,0.008,0,0.012,0c0.51,0,0.946-0.306,1.036-0.809l1.093-5.979l0.983,5.652c0.082,0.474,0.471,0.831,0.949,0.875
		c0.476,0.06,0.929-0.239,1.097-0.689l1.268-3.358h6.535c0.588,0,1.066-0.464,1.066-1.054c0-0.588-0.478-1.051-1.066-1.051h-7.271
		c-0.442,0-0.839,0.284-0.996,0.699l-0.149,0.403l-1.345-7.715c-0.088-0.51-0.529-0.831-1.046-0.831c-0.001,0-0.002,0-0.004,0
		c-0.515,0-0.956,0.315-1.048,0.825l-1.177,6.46l-0.348-1.708c-0.087-0.426-0.424-0.756-0.853-0.834
		C11.927,8.914,11.494,9.1,11.26,9.466l-1.409,2.223H6.343c-0.589,0-1.066,0.463-1.066,1.051
		C5.277,13.329,5.754,13.793,6.343,13.793z"/>
	<path d="M29.181,22.704h1.225c0.89,0,1.517-0.742,1.517-1.636V1.743c0-0.89-0.627-1.562-1.517-1.562H1.415
		C0.527,0.181,0,0.854,0,1.743v19.325c0,0.894,0.527,1.636,1.415,1.636h1.327v0.021v0.81H2.731H1.844
		c-0.911,0-1.649,0.738-1.649,1.649v5.237c0,0.713,0.578,1.291,1.29,1.291h28.95c0.713,0,1.291-0.578,1.291-1.291v-5.597
		c0-0.713-0.578-1.29-1.291-1.29h-1.234h-0.021v-0.81V22.704z M3.035,5.533c0-1.144,0.928-2.071,2.071-2.071h21.466
		c1.143,0,2.07,0.927,2.07,2.071v12.065c0,1.143-0.927,2.07-2.07,2.07H5.106c-1.143,0-2.071-0.927-2.071-2.07V5.533z M15.912,28.07
		c0,0.361-0.293,0.655-0.655,0.655H3.789c-0.362,0-0.655-0.294-0.655-0.655v-0.794c0-0.362,0.293-0.655,0.655-0.655h11.468
		c0.362,0,0.656,0.293,0.656,0.655V28.07z M22.473,28.07c0,0.361-0.293,0.655-0.655,0.655h-2.312c-0.362,0-0.655-0.294-0.655-0.655
		v-0.794c0-0.362,0.293-0.655,0.655-0.655h2.312c0.362,0,0.656,0.293,0.656,0.655V28.07z M28.74,28.07
		c0,0.361-0.293,0.655-0.655,0.655h-2.362c-0.362,0-0.655-0.294-0.655-0.655v-0.794c0-0.362,0.293-0.655,0.655-0.655h2.361
		c0.362,0,0.656,0.293,0.656,0.655V28.07z M20.937,23.535h-9.921v-0.81v-0.021h9.939v0.021v0.81H20.937z"/>
</g>
</svg>
