<?xml version="1.0" encoding="utf-8"?>
<!-- Generator: Adobe Illustrator 16.0.0, SVG Export Plug-In . SVG Version: 6.00 Build 0)  -->
<!DOCTYPE svg PUBLIC "-//W3C//DTD SVG 1.1//EN" "http://www.w3.org/Graphics/SVG/1.1/DTD/svg11.dtd">
<svg version="1.1" id="Layer_1" xmlns="http://www.w3.org/2000/svg" xmlns:xlink="http://www.w3.org/1999/xlink" x="0px" y="0px"
	 width="126px" height="126px" viewBox="0 0 126 126" enable-background="new 0 0 126 126" xml:space="preserve">
<g>
	<path d="M47.343,85.001c-0.546-0.424-4.877-3.7-16.893-4.497c-0.661-0.055-1.327-0.524-1.914-0.917
		c-0.747-0.497-1.523-1.019-2.089-1.692c-0.92-1.098-1.959-2.022-2.832-3.241c-5.842-8.144-11.567-9.779-12.423-10.102
		c-1.14-0.55-5.507,0.127-3.409,3.039c0.133,0.022,6.68,9.219,7.105,9.954c0.752,1.298,1.603,1.829,2.402,2.74
		c0.73,0.832,1.538,1.597,2.284,2.415c0,0-4.187-2.479-5.19-3.565c-0.447-0.487-0.662-1.184-1.018-1.762
		c-0.412-0.666-0.85-1.315-1.297-1.957c-0.56-0.801-1.123-1.6-1.717-2.375c-0.758-0.987-1.545-1.953-2.326-2.923
		c-0.486-0.604-1.035-1.187-1.436-1.818c-1.98-3.128,0.281-4.999,2.433-5.235c-0.104-0.36-1.094-9.819-1.267-11.407
		c-0.494-4.56-0.982-7.938-3.596-8.857c-0.674-0.238-1.15-0.158-1.652,0.372c-0.594,0.624-0.948,3.936-1.119,6.03
		c0,0-1.143,11.236-0.868,16.479c0.147,2.812,8.882,22.156,11.392,25.145c2.508,2.988,22.139,14.304,22.139,14.304
		c0.656,0.546,4.291,3.345,4.291,7.015v7.967l21.164,0.025l0.018-7.311c0.049-1.351,0.279-2.695,0.441-4.041
		c0.461-1.537,0.092-4.442-0.123-5.57C57.385,92.246,48.332,85.767,47.343,85.001z"/>
	<path d="M124.61,49.202c-0.172-2.095-0.525-5.406-1.119-6.03c-0.502-0.53-0.979-0.61-1.653-0.372
		c-2.612,0.92-3.102,4.298-3.595,8.857c-0.174,1.588-1.163,11.047-1.268,11.407c2.152,0.236,4.414,2.107,2.433,5.235
		c-0.4,0.632-0.948,1.214-1.435,1.818c-0.781,0.97-1.569,1.936-2.327,2.923c-0.594,0.775-1.157,1.574-1.716,2.375
		c-0.447,0.642-0.886,1.291-1.297,1.957c-0.355,0.578-0.57,1.274-1.019,1.762c-1.004,1.087-5.19,3.565-5.19,3.565
		c0.746-0.818,1.555-1.583,2.285-2.415c0.799-0.911,1.649-1.442,2.401-2.74c0.427-0.735,6.974-9.932,7.106-9.954
		c2.098-2.912-2.27-3.589-3.41-3.039c-0.855,0.322-6.58,1.958-12.422,10.102c-0.873,1.219-1.913,2.144-2.832,3.241
		c-0.566,0.674-1.343,1.195-2.09,1.692c-0.587,0.393-1.253,0.862-1.914,0.917c-12.016,0.797-16.346,4.073-16.893,4.497
		c-0.989,0.766-10.041,7.245-12.5,18.214c-0.216,1.128-0.584,4.033-0.123,5.57c0.162,1.346,0.393,2.69,0.441,4.041l0.018,7.311
		l21.164-0.025v-7.967c0-3.67,3.635-6.469,4.291-7.015c0,0,19.63-11.315,22.139-14.304s11.243-22.333,11.391-25.145
		C125.753,60.438,124.61,49.202,124.61,49.202z"/>
	<path d="M90.679,45.482l3.5,3.453c1.003,0.985,2.321,1.483,3.642,1.487c1.315,0.001,2.638-0.492,3.642-1.478
		c2.019-1.977,2.024-5.18,0.016-7.16L66.58,7.355c-0.755-0.744-1.726-1.223-2.763-1.403V5.937c-0.25-0.037-0.501-0.073-0.758-0.073
		c-0.02,0-0.041,0.006-0.059,0.006c-0.023,0-0.04-0.006-0.063-0.006c-0.259,0-0.508,0.037-0.759,0.073v0.016
		c-1.036,0.18-2.007,0.66-2.763,1.403L24.522,41.785c-2.009,1.98-2.001,5.183,0.012,7.16c1.004,0.986,2.327,1.479,3.646,1.478
		c1.316-0.004,2.637-0.502,3.639-1.487l3.501-3.453l0.019,29.614l27.663-0.047l27.689,0.047L90.679,45.482z M71.528,68.983
		l-0.033-17.32l-7.742-0.013v-0.001h-0.816h-0.82v0.001l-7.672,0.013l0.025,17.32l-12.278-0.015l-0.018-30.253L63.001,18.17
		l20.823,20.545l0.013,30.253L71.528,68.983z"/>
</g>
</svg>
