<?xml version="1.0" encoding="utf-8"?>
<!-- Generator: Adobe Illustrator 16.0.4, SVG Export Plug-In . SVG Version: 6.00 Build 0)  -->
<!DOCTYPE svg PUBLIC "-//W3C//DTD SVG 1.1//EN" "http://www.w3.org/Graphics/SVG/1.1/DTD/svg11.dtd">
<svg version="1.1" id="Layer_1" xmlns="http://www.w3.org/2000/svg" xmlns:xlink="http://www.w3.org/1999/xlink" x="0px" y="0px"
	 width="24px" height="24px" viewBox="0 0 24 24" enable-background="new 0 0 24 24" xml:space="preserve">
<g>
	<path d="M23,3c-0.553,0-1,0.448-1,1v0.5c-0.3,1.4-5,5.4-12.9,5.4c0.3,0.6,0.4,1.3,0.4,2.1c0,0.7-0.1,1.4-0.4,2C17,14,22,20,22,20
		c0,0.553,0.447,1,1,1s1-0.447,1-1V4C24,3.448,23.553,3,23,3z"/>
	<path d="M4,8c-2.2,0-4,1.8-4,4s1.8,4,4,4s4-1.8,4-4S6.2,8,4,8z M4,14c-1.1,0-2-0.9-2-2c0-1.1,0.9-2,2-2s2,0.9,2,2
		C6,13.1,5.1,14,4,14z"/>
</g>
</svg>
