<?xml version="1.0" encoding="utf-8"?>
<!-- Generator: Adobe Illustrator 17.0.0, SVG Export Plug-In . SVG Version: 6.00 Build 0)  -->
<!DOCTYPE svg PUBLIC "-//W3C//DTD SVG 1.1//EN" "http://www.w3.org/Graphics/SVG/1.1/DTD/svg11.dtd">
<svg version="1.1" id="Layer_1" xmlns="http://www.w3.org/2000/svg" xmlns:xlink="http://www.w3.org/1999/xlink" x="0px" y="0px"
	 width="32px" height="32px" viewBox="0 0 32 32" enable-background="new 0 0 32 32" xml:space="preserve">
<path d="M22.352,17.022h8.292c0.66,0,1.195-0.535,1.195-1.195v-2.779c0-0.66-0.535-1.194-1.195-1.194h-6.449V9.675
	c0-0.66-0.535-1.194-1.195-1.194H9.713c-0.645,0-1.174,0.511-1.195,1.156L8.514,9.783L3.791,5.43
	c-0.233-0.215-0.543-0.328-0.86-0.315C2.614,5.128,2.315,5.267,2.1,5.501L1.456,6.204c-0.374,0.407-0.347,1.04,0.059,1.415
	l4.582,4.234H1.113c-0.66,0-1.195,0.534-1.195,1.194v2.779c0,0.66,0.535,1.195,1.195,1.195h7.984l4.405,4.395l-2.025,2.021
	c-0.405-0.153-0.842-0.241-1.3-0.241c-2.061,0-3.738,1.677-3.738,3.736c0,2.062,1.677,3.738,3.738,3.738
	c2.062,0,3.739-1.677,3.739-3.738c0-0.448-0.082-0.874-0.227-1.271l2.035-2.035l2.035,2.035c-0.144,0.398-0.227,0.823-0.227,1.271
	c0,2.061,1.678,3.739,3.74,3.739c2.061,0,3.738-1.679,3.738-3.739c0-2.06-1.677-3.739-3.738-3.739c-0.458,0-0.894,0.088-1.299,0.237
	l-2.026-2.014L22.352,17.022z M10.177,28.576c-0.906,0-1.643-0.737-1.643-1.644c0-0.906,0.737-1.643,1.643-1.643
	c0.908,0,1.646,0.737,1.646,1.643C11.822,27.839,11.085,28.576,10.177,28.576z M22.915,26.933c0,0.906-0.738,1.644-1.644,1.644
	c-0.907,0-1.644-0.737-1.644-1.644c0-0.906,0.737-1.643,1.644-1.643C22.177,25.289,22.915,26.026,22.915,26.933z M10.547,11.661
	c0.021-0.645,0.549-1.156,1.194-1.156h9.009c0.66,0,1.195,0.534,1.195,1.194v0.152H10.731l-0.184-0.182V11.661z M13.54,17.022h4.368
	l-2.185,2.186L13.54,17.022z"/>
</svg>
