<?xml version="1.0" encoding="utf-8"?>
<!-- Generator: Adobe Illustrator 17.0.0, SVG Export Plug-In . SVG Version: 6.00 Build 0)  -->
<!DOCTYPE svg PUBLIC "-//W3C//DTD SVG 1.1//EN" "http://www.w3.org/Graphics/SVG/1.1/DTD/svg11.dtd">
<svg version="1.1" id="Layer_1" xmlns="http://www.w3.org/2000/svg" xmlns:xlink="http://www.w3.org/1999/xlink" x="0px" y="0px"
	 width="32px" height="32px" viewBox="0 0 32 32" enable-background="new 0 0 32 32" xml:space="preserve">
<g>
	<path d="M18.976,8.769c0-0.479-0.389-0.868-0.869-0.868h-2.503c-0.479,0-0.868,0.389-0.868,0.868v2.382h-2.523
		c-0.479,0-0.868,0.389-0.868,0.868v2.501c0,0.479,0.389,0.869,0.868,0.869h2.523v2.523c0,0.479,0.389,0.869,0.868,0.869h2.503
		c0.479,0,0.869-0.39,0.869-0.869V15.39h2.381c0.479,0,0.869-0.39,0.869-0.869v-2.501c0-0.479-0.389-0.868-0.869-0.868h-2.381V8.769
		z"/>
	<path d="M16.926,0C10.031,0,4.421,5.608,4.421,12.502c0,9.217,10.913,18.482,11.377,18.872c0.614,0.516,1.5,0.549,2.152,0.081
		c0.468-0.337,11.479-8.38,11.479-18.953C29.429,5.608,23.819,0,16.926,0z M18.342,26.536c-0.751,0.703-1.925,0.677-2.644-0.059
		c-3.296-3.367-7.77-9.042-7.77-13.976c0-4.959,4.037-8.996,8.998-8.996c4.959,0,8.996,4.037,8.996,8.996
		C25.921,18.477,21.309,23.758,18.342,26.536z"/>
</g>
</svg>
