<?xml version="1.0" encoding="utf-8"?>
<!-- Generator: Adobe Illustrator 17.0.0, SVG Export Plug-In . SVG Version: 6.00 Build 0)  -->
<!DOCTYPE svg PUBLIC "-//W3C//DTD SVG 1.1//EN" "http://www.w3.org/Graphics/SVG/1.1/DTD/svg11.dtd">
<svg version="1.1" id="Layer_1" xmlns="http://www.w3.org/2000/svg" xmlns:xlink="http://www.w3.org/1999/xlink" x="0px" y="0px"
	 width="32px" height="32px" viewBox="0 0 32 32" enable-background="new 0 0 32 32" xml:space="preserve">
<g>
	<path d="M5.602,0.01C2.784,0.01,0.5,2.294,0.5,5.112v21.774c0,2.818,2.284,5.103,5.102,5.103h20.795
		c2.818,0,5.103-2.285,5.103-5.103V5.112c0-2.818-2.285-5.102-5.103-5.102H5.602z M23.146,23.403c0,0.705-0.572,1.277-1.277,1.277
		h-1.363c-0.705,0-1.276-0.572-1.276-1.277v-5.968h-6.461v5.968c0,0.705-0.572,1.277-1.277,1.277h-1.363
		c-0.705,0-1.276-0.572-1.276-1.277V8.596c0-0.706,0.571-1.277,1.276-1.277h1.362c0.706,0,1.277,0.571,1.277,1.277v5.381h6.461
		V8.596c0-0.706,0.571-1.277,1.276-1.277h1.362c0.706,0,1.277,0.571,1.277,1.277V23.403z"/>
</g>
</svg>
