<?xml version="1.0" encoding="utf-8"?>
<!-- Generator: Adobe Illustrator 17.0.0, SVG Export Plug-In . SVG Version: 6.00 Build 0)  -->
<!DOCTYPE svg PUBLIC "-//W3C//DTD SVG 1.1//EN" "http://www.w3.org/Graphics/SVG/1.1/DTD/svg11.dtd">
<svg version="1.1" id="Layer_1" xmlns="http://www.w3.org/2000/svg" xmlns:xlink="http://www.w3.org/1999/xlink" x="0px" y="0px"
	 width="32px" height="32px" viewBox="0 0 32 32" enable-background="new 0 0 32 32" xml:space="preserve">
<g>
	<path d="M30.146,9.127c0.604,0,1.094-0.49,1.094-1.094v-0.33c0-0.604-0.49-1.094-1.094-1.094h-1.782H21.04V6.606V1.358
		c0-0.754-0.611-1.365-1.365-1.365h-7.112c-0.787,0-1.425,0.638-1.425,1.426v5.187V6.61H3.839H2.031
		c-0.604,0-1.094,0.49-1.094,1.094v0.33c0,0.604,0.49,1.094,1.094,1.094h1.809l0,0v10.03l0,0H2.031c-0.604,0-1.094,0.49-1.094,1.094
		v0.331c0,0.604,0.49,1.094,1.094,1.094h1.809l0,0v9.234c0,0.604,0.49,1.094,1.094,1.094h7.912v-6.36c0-0.707,0.573-1.28,1.28-1.28
		h3.927c0.707,0,1.281,0.573,1.281,1.28v6.36h7.954c0.604,0,1.094-0.49,1.094-1.094v-9.234h1.766c0.604,0,1.094-0.49,1.094-1.094
		v-0.331c0-0.604-0.49-1.094-1.094-1.094h-1.766V9.127H30.146z M12.248,2.53c0-0.788,0.638-1.426,1.425-1.426h4.873
		c0.788,0,1.426,0.638,1.426,1.426v4.08h-7.725V2.53z M23.561,13.567c-0.426,0-0.771-0.346-0.771-0.772v-1.616
		c0-0.426,0.345-0.772,0.771-0.772h1.873c0.426,0,0.772,0.345,0.772,0.772v1.616c0,0.426-0.346,0.772-0.771,0.772H23.561z
		 M25.434,15.488c0.426,0,0.771,0.345,0.771,0.772v1.615c0,0.426-0.346,0.771-0.771,0.771h-1.873c-0.426,0-0.771-0.346-0.771-0.771
		v-1.615c0-0.426,0.345-0.772,0.771-0.772H25.434z M20.269,15.488c0.426,0,0.771,0.345,0.771,0.772v1.615
		c0,0.426-0.346,0.771-0.771,0.771H7.513c-0.426,0-0.771-0.346-0.771-0.771v-1.615c0-0.426,0.345-0.772,0.771-0.772H20.269z
		 M7.513,13.567c-0.426,0-0.771-0.346-0.771-0.772v-1.616c0-0.426,0.345-0.772,0.771-0.772h7.078c0.426,0,0.772,0.345,0.772,0.772
		v1.616c0,0.426-0.346,0.772-0.771,0.772H7.513z M17.97,13.567c-0.426,0-0.771-0.346-0.771-0.772v-1.616
		c0-0.426,0.345-0.772,0.771-0.772h2.298c0.426,0,0.772,0.345,0.772,0.772v1.616c0,0.426-0.346,0.772-0.771,0.772H17.97z
		 M10.156,26.804c0,0.398-0.322,0.72-0.72,0.72H7.461c-0.397,0-0.719-0.322-0.719-0.72v-1.72c0-0.397,0.322-0.719,0.719-0.719h1.975
		c0.398,0,0.72,0.322,0.72,0.719V26.804z M26.206,26.804c0,0.398-0.322,0.72-0.72,0.72h-1.976c-0.398,0-0.719-0.322-0.719-0.72
		v-1.72c0-0.397,0.322-0.719,0.719-0.719h1.976c0.397,0,0.72,0.322,0.72,0.719V26.804z"/>
	<polygon points="16.857,3.366 15.321,3.366 15.321,1.787 14.382,1.787 14.382,5.927 15.321,5.927 15.321,4.177 16.857,4.177 
		16.857,5.927 17.797,5.927 17.797,1.787 16.857,1.787 	"/>
</g>
</svg>
