<?xml version="1.0" encoding="utf-8"?>
<!-- Generator: Adobe Illustrator 16.0.4, SVG Export Plug-In . SVG Version: 6.00 Build 0)  -->
<!DOCTYPE svg PUBLIC "-//W3C//DTD SVG 1.1//EN" "http://www.w3.org/Graphics/SVG/1.1/DTD/svg11.dtd">
<svg version="1.1" id="Layer_1" xmlns="http://www.w3.org/2000/svg" xmlns:xlink="http://www.w3.org/1999/xlink" x="0px" y="0px"
	 width="18px" height="24px" viewBox="0 0 18 24" enable-background="new 0 0 18 24" xml:space="preserve">
<path d="M11,0H0v24h18V7L11,0z M16,22H2V2h8v6h6V22z M10.3,9c-0.6,2.7,2.7,4.3,2.7,7.3c0,1.601-1,3.2-2.5,3.7c0,0,0.9-1.1,0.9-2.1
	c0-1.301-0.9-1.801-1.2-3.2c-0.5,0.6-0.4,1.6-0.4,1.6s-1.2-1.1-0.5-4.2c0,0-2.1,1.6-2.1,4.2C7.2,18.4,8.3,20,8.3,20S5,19.1,5,16.3
	C5,11.7,10.3,9,10.3,9z"/>
</svg>
