<?xml version="1.0" encoding="utf-8"?>
<!-- Generator: Adobe Illustrator 16.0.0, SVG Export Plug-In . SVG Version: 6.00 Build 0)  -->
<!DOCTYPE svg PUBLIC "-//W3C//DTD SVG 1.1//EN" "http://www.w3.org/Graphics/SVG/1.1/DTD/svg11.dtd">
<svg version="1.1" id="Layer_1" xmlns="http://www.w3.org/2000/svg" xmlns:xlink="http://www.w3.org/1999/xlink" x="0px" y="0px"
	 width="126px" height="126px" viewBox="0 0 126 126" enable-background="new 0 0 126 126" xml:space="preserve">
<g>
	<path d="M122.538,65.019L110.197,52.82L95.194,77.201l-0.001,29.884l-18.997,0.022l0.048-26.805l-11.979-0.019h-1.263h-1.27
		L49.86,80.303l-0.059,26.805l-19-0.022L30.774,60.27l32.227-31.788l8.751,8.634l3.651-18.685l-6.863-6.784
		c-1.168-1.153-2.67-1.794-4.276-2.072V9.547c-0.386-0.054-0.774-0.108-1.172-0.108c-0.029,0-0.063,0.009-0.091,0.009
		c-0.036,0-0.061-0.009-0.096-0.009c-0.399,0-0.786,0.055-1.174,0.108v0.027c-1.604,0.278-3.106,1.019-4.276,2.172L3.462,65.019
		c-3.108,3.067-3.097,8.023,0.018,11.082c1.554,1.526,3.601,2.285,5.641,2.285c2.038-0.004,4.081-0.777,5.63-2.304l5.418-5.344
		l0.027,45.823l42.805-0.071l42.797,0.071l0.03-45.823l5.416,5.344c1.552,1.526,3.592,2.3,5.635,2.304
		c2.036,0,4.083-0.759,5.636-2.285C125.637,73.042,125.646,68.086,122.538,65.019z"/>
	<polygon points="72.622,51.477 83.806,49.242 98.016,46.402 87.351,81 111.868,41.159 116.984,32.844 105.914,32.864 
		94.758,32.886 100.936,16.25 79.504,16.25 75.088,38.853 	"/>
</g>
</svg>
