<?xml version="1.0" encoding="utf-8"?>
<!-- Generator: Adobe Illustrator 16.0.4, SVG Export Plug-In . SVG Version: 6.00 Build 0)  -->
<!DOCTYPE svg PUBLIC "-//W3C//DTD SVG 1.1//EN" "http://www.w3.org/Graphics/SVG/1.1/DTD/svg11.dtd">
<svg version="1.1" id="Layer_1" xmlns="http://www.w3.org/2000/svg" xmlns:xlink="http://www.w3.org/1999/xlink" x="0px" y="0px"
	 width="112px" height="84px" viewBox="0 0 112 84" enable-background="new 0 0 112 84" xml:space="preserve">
<path d="M112,0H0v28h10.533L1.134,63.201C-2.852,74.004,3.962,84,16.907,84H56h31.275h7.812c12.945,0,19.765-9.996,15.772-20.799
	L101.466,28H112V0z M16.907,74.666c-3.146,0-5.614-0.956-6.771-2.617c-0.977-1.4-1.064-3.393-0.244-5.609l0.149-0.405l0.112-0.42
	L23.932,14H56v60.666H16.907z M101.962,66.029l0.149,0.404c0.815,2.217,0.731,4.211-0.242,5.609
	c-1.167,1.666-3.637,2.622-6.776,2.622h-9.444L75.066,14h13.002l13.781,51.609L101.962,66.029z"/>
</svg>
