<?xml version="1.0" encoding="utf-8"?>
<!-- Generator: Adobe Illustrator 16.0.0, SVG Export Plug-In . SVG Version: 6.00 Build 0)  -->
<!DOCTYPE svg PUBLIC "-//W3C//DTD SVG 1.1//EN" "http://www.w3.org/Graphics/SVG/1.1/DTD/svg11.dtd">
<svg version="1.1" id="Layer_1" xmlns="http://www.w3.org/2000/svg" xmlns:xlink="http://www.w3.org/1999/xlink" x="0px" y="0px"
	 width="126px" height="126px" viewBox="0 0 126 126" enable-background="new 0 0 126 126" xml:space="preserve">
<g>
	<polygon points="125.684,89.496 111.082,92.625 111.694,95.484 117.996,94.133 113.158,99.92 118.064,104.927 111.425,104.769 
		109.27,111.921 105.191,107.114 98.559,109.409 102.429,100.79 99.762,99.591 93.117,114.385 104.257,110.532 110.519,117.915 
		113.581,107.746 125.19,108.022 117.1,99.765 	"/>
	<path d="M23.969,106.175c0,3.583,2.917,6.498,6.5,6.498c3.582,0,6.497-2.915,6.497-6.498c0-4.3,3.499-7.798,7.798-7.798
		c4.301,0,7.798,3.498,7.798,7.798c0,3.583,2.917,6.498,6.5,6.498s6.497-2.915,6.497-6.498c0-4.3,3.499-7.798,7.798-7.798
		c4.301,0,7.798,3.498,7.798,7.798c0,0.009,0.002,0.018,0.002,0.027l21.709-13.973c0,0-3.581-42.425-14.26-52.021l0.014-0.016
		c-0.026-0.019-0.058-0.034-0.082-0.054s-0.046-0.047-0.07-0.068l-0.014,0.017c-11.692-8.329-53.878-2.572-53.878-2.572
		L11.691,99.803c1.27-0.896,2.812-1.426,4.479-1.426C20.472,98.377,23.969,101.875,23.969,106.175z"/>
	<path d="M88.044,116.008c-6.808,0-12.348-5.539-12.348-12.347c0-1.077-0.872-1.95-1.949-1.95c-1.076,0-1.95,0.873-1.95,1.95
		c0,6.808-5.537,12.347-12.346,12.347c-6.808,0-12.348-5.539-12.348-12.347c0-1.077-0.872-1.95-1.949-1.95
		c-1.076,0-1.949,0.873-1.949,1.95c0,6.808-5.538,12.347-12.347,12.347c-6.808,0-12.348-5.539-12.348-12.347
		c0-1.077-0.872-1.95-1.949-1.95c-1.076,0-1.949,0.873-1.949,1.95c0,6.808-5.538,12.347-12.347,12.347
		c-1.077,0-1.949,0.873-1.949,1.949c0,1.077,0.872,1.949,1.949,1.949c6.17,0,11.547-3.458,14.296-8.537
		c2.751,5.079,8.127,8.537,14.297,8.537s11.547-3.458,14.296-8.537c2.751,5.079,8.127,8.537,14.297,8.537s11.547-3.458,14.296-8.537
		c2.751,5.079,8.127,8.537,14.297,8.537c1.076,0,1.949-0.872,1.949-1.949C89.993,116.881,89.12,116.008,88.044,116.008z"/>
	<path d="M118.13,15.586l-5.547-4.444c-0.028-0.028-0.061-0.058-0.102-0.092l-5.659-4.525c-0.859-0.685-2.21-0.536-2.901,0.324
		c-0.708,0.889-0.563,2.189,0.323,2.897l3.578,2.867l-6.12,7.37l-3.869-3.1c-2.461-1.972-4.554-0.486-6.777,1.439
		c-4.853-3.691-8.746,1.653-13.471,5.33c-5.478-0.345-11.259-0.279-16.588-0.032L49.66,31.386
		c15.977-1.538,36.366-0.928,42.909,3.72c5.963,5.372,11.006,25.139,12.987,41.065l5.11-12.756
		c-0.922-5.256-2.119-10.912-3.649-16.183c2.41-5.105,6.443-9.813,2.979-13.632c1.415-2.62,2.448-5.012-0.036-7.003l-4.135-3.313
		l6.119-7.369l3.605,2.888c0.364,0.292,0.821,0.454,1.289,0.454c0.631,0,1.218-0.282,1.611-0.774
		C119.161,17.597,119.018,16.297,118.13,15.586z"/>
</g>
</svg>
