<?xml version="1.0" encoding="utf-8"?>
<!-- Generator: Adobe Illustrator 16.0.0, SVG Export Plug-In . SVG Version: 6.00 Build 0)  -->
<!DOCTYPE svg PUBLIC "-//W3C//DTD SVG 1.1//EN" "http://www.w3.org/Graphics/SVG/1.1/DTD/svg11.dtd">
<svg version="1.1" id="Layer_1" xmlns="http://www.w3.org/2000/svg" xmlns:xlink="http://www.w3.org/1999/xlink" x="0px" y="0px"
	 width="126px" height="126px" viewBox="0 0 126 126" enable-background="new 0 0 126 126" xml:space="preserve">
<g>
	<path d="M124.68,41.419l-0.268-5.852l-5.684-1.414c-13.067-3.253-13.368-15.431-13.376-15.906v-6.233l-6.077-1.42
		c-1.477-0.341-14.678-3.336-23.876-3.336c-9.196,0-22.398,2.995-23.882,3.336l-6.072,1.42v6.233
		c-0.002,0.513-0.185,12.623-13.374,15.906l-5.684,1.414l-0.269,5.852c-0.022,0.528-0.523,13.099,4.828,28.553
		c4.959,14.321,16.075,34.068,40.861,46.811l3.591,1.844l3.591-1.844c24.788-12.742,35.903-32.489,40.863-46.811
		C125.096,54.829,124.736,42.755,124.68,41.419z M112.086,67.28c-4.458,12.871-14.441,30.607-36.687,42.104
		C53.153,97.888,43.172,80.151,38.715,67.28c-4.485-12.955-4.438-23.388-4.392-25.219c18.042-4.647,19.257-21.04,19.338-23.524
		c2.025-0.457,13.886-3.061,21.738-3.061c7.862,0,19.742,2.61,21.74,3.061c0.091,2.335,1.369,18.895,19.336,23.524
		C116.521,43.916,116.552,54.379,112.086,67.28z"/>
	<path d="M79.257,57.974c-1.991-0.676-3.545-1.271-4.666-1.783c-1.12-0.512-1.905-0.975-2.36-1.39
		c-0.455-0.414-0.682-0.943-0.682-1.578c0-0.733,0.314-1.288,0.941-1.667c0.626-0.374,1.714-0.564,3.261-0.564
		c3.243,0,6.884,0.908,10.92,2.722l3.449-8.254c-3.902-1.68-7.774-2.629-11.619-2.841v-3.911h-5.995v3.969
		c-4.095,0.426-7.167,1.538-9.214,3.335c-2.048,1.793-3.071,4.285-3.071,7.473c0,2.087,0.345,3.827,1.028,5.229
		c0.685,1.401,1.782,2.667,3.289,3.795c1.507,1.131,3.484,2.15,5.938,3.059c2.184,0.789,3.916,1.467,5.2,2.026
		c1.285,0.559,2.202,1.063,2.752,1.508c0.55,0.442,0.828,0.983,0.828,1.621c0,0.926-0.383,1.589-1.146,1.986
		c-0.762,0.395-1.965,0.592-3.606,0.592c-1.988,0-4.297-0.38-6.924-1.144c-2.626-0.765-5.061-1.716-7.3-2.854v9.615
		c3.92,1.702,7.995,2.648,12.226,2.841v5.419h5.995v-5.594c3.94-0.482,6.938-1.735,8.997-3.764c2.057-2.029,3.085-4.665,3.085-7.911
		c0-2.876-0.879-5.229-2.639-7.053C86.188,61.029,83.292,59.402,79.257,57.974z"/>
	<path d="M15.434,60.242h8.512c-0.883-4.239-1.368-7.993-1.625-11.009h-6.887c-0.716,0-1.295,0.579-1.295,1.295v8.419
		C14.139,59.663,14.718,60.242,15.434,60.242z"/>
	<path d="M27.178,71.99c-1.053-3.038-1.89-5.962-2.558-8.725H2.589c-0.716,0-1.295,0.579-1.295,1.295v8.419
		c0,0.716,0.579,1.296,1.295,1.296h25.417C27.716,73.501,27.436,72.737,27.178,71.99z"/>
	<path d="M11.548,79.456v8.419c0,0.716,0.579,1.295,1.295,1.295h22.398c-2.289-3.77-4.151-7.482-5.669-11.01H12.843
		C12.127,78.16,11.548,78.74,11.548,79.456z"/>
	<path d="M37.602,92.838H9.605c-0.716,0-1.296,0.579-1.296,1.296v8.419c0,0.716,0.58,1.295,1.296,1.295h36.87
		C43.042,100.245,40.108,96.534,37.602,92.838z"/>
	<path d="M12.843,107.733c-0.716,0-1.295,0.579-1.295,1.295v8.419c0,0.716,0.579,1.295,1.295,1.295h38.209
		c0.716,0,1.296-0.579,1.296-1.295v-8.002c-0.653-0.566-1.292-1.138-1.915-1.712H12.843z"/>
</g>
</svg>
