<?xml version="1.0" encoding="utf-8"?>
<!-- Generator: Adobe Illustrator 16.0.0, SVG Export Plug-In . SVG Version: 6.00 Build 0)  -->
<!DOCTYPE svg PUBLIC "-//W3C//DTD SVG 1.1//EN" "http://www.w3.org/Graphics/SVG/1.1/DTD/svg11.dtd">
<svg version="1.1" id="Layer_1" xmlns="http://www.w3.org/2000/svg" xmlns:xlink="http://www.w3.org/1999/xlink" x="0px" y="0px"
	 width="126px" height="126px" viewBox="0 0 126 126" enable-background="new 0 0 126 126" xml:space="preserve">
<g>
	<path d="M123.153,65.04l-12.188-12.024c1.079,1.445,1.723,3.231,1.723,5.169c0,2.525-1.103,4.814-2.854,6.404
		c0.016,1.109,0.016,2.111,0.016,2.193c0,0.995-0.102,3.55-0.932,6.65l2.824,2.786c1.568,1.54,3.629,2.319,5.692,2.325
		c2.057,0.002,4.125-0.769,5.695-2.311C126.284,73.144,126.293,68.136,123.153,65.04z"/>
	<path d="M57.729,108.625l-0.002-0.126l0.003-0.125c0.018-0.694,0.496-17.094,6.104-25.418l0.229-0.316
		c0.29-0.37,1.041-1.231,2.265-2.172l-2.149-0.004v-0.002h-1.276h-1.283v0.002l-11.993,0.02l0.04,27.077l-19.245-0.022l0.021-47.296
		l32.56-32.118L82.21,47.075c2.388-1.658,5.25-2.621,8.243-2.621h4.494c4.373,0,8.496,2.02,11.213,5.333
		c1.075,0.273,2.067,0.755,2.94,1.389L68.597,11.217c-1.18-1.163-2.697-1.912-4.319-2.194V8.998
		c-0.391-0.057-0.783-0.114-1.185-0.114c-0.03,0-0.064,0.01-0.092,0.01c-0.037,0-0.062-0.01-0.097-0.01
		c-0.404,0-0.794,0.058-1.187,0.114v0.024c-1.621,0.282-3.137,1.031-4.319,2.194L2.847,65.04c-3.14,3.096-3.128,8.104,0.019,11.193
		c1.57,1.542,3.638,2.313,5.699,2.311c2.059-0.006,4.122-0.785,5.688-2.325l5.474-5.398l-0.021,46.296l43.295-0.073l0.409,0.001
		c-0.52-0.214-1.039-0.433-1.555-0.662C60.528,115.788,57.836,113.93,57.729,108.625z"/>
	<path d="M113.271,83.034c-1.028-0.318-3.521-0.637-6.158-1.162l-3.974-0.998c-1.323-0.429-2.49-0.951-3.291-1.599
		c0.756-0.775,1.447-1.697,2.068-2.759c1.995-3.42,2.707-7.415,2.707-10.013c0-0.037-0.02-3.852-0.083-4.354
		c-0.046-0.366-0.111-0.728-0.194-1.083c1.725-0.026,3.114-1.43,3.114-3.16c0-1.747-1.416-3.164-3.164-3.164h-0.999
		c-1.452-2.997-4.523-5.066-8.078-5.066h-4.494c-3.555,0-6.627,2.069-8.078,5.066h-1c-1.747,0-3.163,1.417-3.163,3.164
		c0,1.73,1.391,3.135,3.116,3.16c-0.057,0.244-0.108,0.488-0.147,0.736c-0.104,0.646-0.131,4.662-0.131,4.701
		c0,2.598,0.71,6.593,2.706,10.013c0.621,1.062,1.312,1.983,2.067,2.759c-0.801,0.647-1.968,1.17-3.291,1.599l-3.974,0.998
		c-2.637,0.525-5.13,0.844-6.158,1.162c-2.521,0.961-3.781,2.427-4.007,2.716c-4.638,6.885-5.163,22.332-5.167,22.485
		c0.042,2.055,0.652,2.758,0.863,2.844c10.322,4.594,22.474,5.759,28.434,5.759c0.057,0,0.118-0.001,0.175-0.001
		c0.057,0,0.119,0.001,0.175,0.001c5.96,0,18.112-1.165,28.435-5.759c0.211-0.086,0.821-0.789,0.863-2.844
		c-0.004-0.153-0.53-15.601-5.167-22.485C117.052,85.461,115.792,83.995,113.271,83.034z M102.617,66.604
		c0,1.931-0.853,2.792-2.763,2.792c-2.746,0-5.427-1.767-5.427-2.792c0-1.514,1.875-2.792,4.095-2.792
		C100.742,63.813,102.617,65.091,102.617,66.604z M87.424,63.813c2.219,0,4.095,1.278,4.095,2.792c0,1.025-2.682,2.792-5.427,2.792
		c-1.911,0-2.764-0.861-2.764-2.792C83.328,65.091,85.203,63.813,87.424,63.813z M92.973,80.656c-3.85,0-6.23-2.693-7.549-4.954
		c-0.908-1.557-1.526-3.242-1.919-4.838c0.747,0.463,1.71,0.729,2.911,0.729c2.39,0,5.025-1.347,6.624-1.347
		c1.599,0,4.101,1.347,6.49,1.347c1.202,0,2.165-0.267,2.911-0.729c-0.393,1.596-1.011,3.281-1.919,4.838
		C99.203,77.963,96.823,80.656,92.973,80.656z"/>
</g>
</svg>
