<?xml version="1.0" encoding="utf-8"?>
<!-- Generator: Adobe Illustrator 16.0.0, SVG Export Plug-In . SVG Version: 6.00 Build 0)  -->
<!DOCTYPE svg PUBLIC "-//W3C//DTD SVG 1.1//EN" "http://www.w3.org/Graphics/SVG/1.1/DTD/svg11.dtd">
<svg version="1.1" id="Layer_1" xmlns="http://www.w3.org/2000/svg" xmlns:xlink="http://www.w3.org/1999/xlink" x="0px" y="0px"
	 width="126px" height="126px" viewBox="0 0 126 126" enable-background="new 0 0 126 126" xml:space="preserve">
<g>
	<path d="M122.704,89.263l-21.168-30.34c-0.584-0.838-1.479-1.41-2.485-1.589c-1.006-0.18-2.043,0.049-2.881,0.634L65.831,79.137
		c-0.144,0.101-0.264,0.219-0.39,0.335c0.226-1.789-0.346-3.715-1.952-5.513c-1.384-1.551-3.192-2.586-5.246-3.224
		c2.993-0.867,5.601-2.302,6.986-4.658c2.798-4.756-3.891-7.152-7.237-7.813c-6.752-1.333-13.97-1.11-20.746-0.102
		c-4.056,0.604-8.587,1.54-12.4,3.548c-1.424-0.609-2.802-1.281-4.108-2.032c-4.161-2.396-3.358-4.868-0.719-7.011
		c0.8,0.246,1.585,0.476,2.34,0.689c9.779,2.781,20.298,3.656,30.427,3.332c8.729-0.28,20.298-1.438,27.323-7.052
		c5.406-4.319-1.216-7.947-5.603-9.432c12.279-2.104,26.053-6.427,18.183-14.369c-3.508-3.54-12.622-5.829-23.755-6.767
		c-17.507-2.397-35.231-7.136-52.944-5.581c-6.014,0.527-12.743,2.299-14.971,8.56c-1.504,4.225,0.865,7.778,4.036,10.261
		c-2.004,2.846-2.412,6.148-0.637,9.933c1.765,3.761,5.319,6.266,9.235,8.065c-4.981,7.292-0.914,12.315,5.878,15.669
		c-6.257,7.76,0.615,13.244,8.557,16.566c-0.04,1.173,0.25,2.39,1.002,3.608c2.067,3.353,6.158,5.294,10.521,6.55
		c-0.38,1.543,0.352,2.993,0.985,4.354c1.155,2.481,1.804,5.036,2.175,7.746c0.534,3.896,6.433,2.231,5.904-1.629
		c-0.376-2.741-1.13-5.268-2.176-7.77c1.752-0.153,3.521-0.215,5.271-0.33c3.252-0.212,4.401-5.396,0.813-6.013
		c-0.982-0.168-7.368-1.424-12.363-2.968c0.112,0.02,0.231,0.042,0.337,0.061c6.24,1.044,13.643,1.768,19.658-0.688
		c1.708-0.696,3.064-1.739,3.979-2.976c0.034,0.699,0.249,1.397,0.679,2.015c1.218,1.745,3.62,2.172,5.366,0.954l3.044-2.123
		l-3.951,22.191l40.973,7.294l3.951-22.19l2.125,3.045c0.609,0.871,1.514,1.415,2.485,1.587c0.971,0.174,2.008-0.024,2.881-0.633
		C123.494,93.41,123.922,91.008,122.704,89.263z M58.667,50.126c-10.104,1.24-20.633,0.429-30.573-1.681
		c2.219-0.843,4.215-1.441,5.265-1.696c11.295-2.752,23.767-3.236,35.273-1.603c1.83,0.26,3.634,0.656,5.405,1.178
		C69.553,48.697,63.474,49.536,58.667,50.126z M61.406,24.843c2.28,0.052,4.654,0.127,7.054,0.283l5.216,0.489
		c4.627,0.589,9.18,1.642,13.187,3.61c0.3,0.147,1.454,0.602,1.403,0.854s-0.718,0.548-1.324,0.883
		c-4.456,2.462-10.303,3.055-15.237,3.79c-16.302,2.431-34.034,1.299-50.063-2.308c-1.408-0.317-3.467-0.729-5.611-1.331
		c4.427-2.105,10.059-3.113,13.25-3.787C39.775,25.108,50.706,24.6,61.406,24.843z M6.769,25.091
		c-1.624-5.254,10.771-5.636,13.22-5.713c5.172-0.165,10.327,0.14,15.47,0.691c-10.646,1.52-20.216,4.229-26.098,8.201
		C8.111,27.398,7.16,26.356,6.769,25.091z M9.663,37.911c0.137-0.893,0.455-1.707,0.917-2.454c6.566,2.868,14.053,4.01,21.038,4.919
		c0.388,0.051,0.777,0.093,1.165,0.141c-5.061,0.986-10.372,2.52-14.479,5.29C13.588,44.092,9.11,41.52,9.663,37.911z
		 M35.351,64.677c6.721-1.464,14.23-1.702,21.014-0.509c0.454,0.08,0.902,0.186,1.348,0.296c-2.837,1.145-6.912,1.217-9.199,1.314
		c-4.337,0.186-8.982-0.142-13.524-1.019C35.127,64.727,35.253,64.698,35.351,64.677z M30.427,77.478
		c-2.836-1.107-5.339-2.625-6.743-4.775c-1.073-1.644,0.004-3.119,1.88-4.345c5.633,1.796,11.78,2.808,16.064,3.263
		c-3.388,1.021-6.446,2.381-8.622,3.745C32.063,75.958,31.179,76.672,30.427,77.478z M59.561,78.666
		c-0.883,4.008-14.958,1.948-17.374,1.581c-1.344-0.205-2.935-0.454-4.616-0.785c3.106-1.582,7.361-2.275,9.82-2.689
		C48.953,76.51,60.115,76.147,59.561,78.666z M106.15,106.86l-9.021-1.605l2.221-12.474l-12.814-2.28l-2.221,12.472l-9.021-1.606
		l3.951-22.19L97.42,66.495l12.681,18.175L106.15,106.86z"/>
	<polygon points="125.443,48.242 114.545,46.036 113.706,33.908 105.885,43.145 94.347,35.192 99.025,50.11 101.946,49.192 
		99.928,42.757 106.431,47.237 111.173,41.637 111.652,48.573 119.318,50.125 114.701,54.843 117.738,61.535 108.378,58.336 
		107.388,61.232 123.453,66.723 118.355,55.486 	"/>
</g>
</svg>
