<?xml version="1.0" encoding="utf-8"?>
<!-- Generator: Adobe Illustrator 16.0.4, SVG Export Plug-In . SVG Version: 6.00 Build 0)  -->
<!DOCTYPE svg PUBLIC "-//W3C//DTD SVG 1.1//EN" "http://www.w3.org/Graphics/SVG/1.1/DTD/svg11.dtd">
<svg version="1.1" id="Layer_1" xmlns="http://www.w3.org/2000/svg" xmlns:xlink="http://www.w3.org/1999/xlink" x="0px" y="0px"
	 width="104.667px" height="72px" viewBox="0 0 104.667 72" enable-background="new 0 0 104.667 72" xml:space="preserve">
<path d="M10.333,23.936v7.393v5.189V57h16.512c4.031,0,8.689-3.781,8.689-8.689V15H19.396C14.24,15,10.333,18.27,10.333,23.936z
	 M24.847,35.883v-8.181h7.238v8.181c0,4.531-5.853,6.925-10.131,6.925c-4.658,0-8.82-2.768-9.703-6.291h3.156
	c0.377,2.143,2.52,3.646,4.908,3.646C22.962,40.162,24.847,38.277,24.847,35.883z M78.645,35.79h5.013
	c1.256,0,2.385,1.128,2.385,2.38c0,1.25-1.129,2.379-2.385,2.379h-5.013V35.79L78.645,35.79z M78.16,15h16.174v23.288h-2.156
	c0-1.876-1.633-3.439-3.766-3.439c1.885,0,3.197-1.871,3.197-3.752c0-1.882-1.635-3.51-3.516-3.51H72.625v14.46h15.791
	c2.133,0,3.767-1.875,3.767-3.756h2.151v9.762c0,4.891-4.75,8.652-8.76,8.652H69.134v-32.81C69.134,18.257,73.017,15,78.16,15z
	 M83.535,33.858h-4.891v-4.76h4.891c1.252,0,2.381,1.119,2.381,2.375C85.916,32.733,84.787,33.858,83.535,33.858z M39.734,23.903
	v32.839h16.549c4.012,0,8.65-3.766,8.65-8.656V15H48.764C43.621,15,39.734,18.262,39.734,23.903z M61.746,27.614v2.646
	c-2.883-0.667-5.642-1.055-7.027-1.055c-3.01,0-5.389,2.511-5.389,5.694c0,3.187,2.379,5.707,5.389,5.707
	c1.382,0,4.146-0.266,7.027-0.934v2.52H49.707c-3.756,0-6.894-3.309-6.894-7.289c0-3.977,3.136-7.289,6.894-7.289H61.746z M97.488,0
	H7.184C3.223,0,0,3.222,0,7.183v57.634C0,68.777,3.223,72,7.184,72h90.3c3.961,0,7.184-3.221,7.184-7.18V7.184
	C104.667,3.223,101.447,0,97.488,0z M102.667,64.82c0,2.855-2.324,5.18-5.184,5.18h-90.3C4.326,70,2,67.676,2,64.816V7.184
	C2,4.326,4.326,2,7.184,2h90.304c2.855,0,5.18,2.325,5.18,5.183V64.82z"/>
</svg>
