<?xml version="1.0" encoding="utf-8"?>
<!-- Generator: Adobe Illustrator 16.0.4, SVG Export Plug-In . SVG Version: 6.00 Build 0)  -->
<!DOCTYPE svg PUBLIC "-//W3C//DTD SVG 1.1//EN" "http://www.w3.org/Graphics/SVG/1.1/DTD/svg11.dtd">
<svg version="1.1" id="Layer_1" xmlns="http://www.w3.org/2000/svg" xmlns:xlink="http://www.w3.org/1999/xlink" x="0px" y="0px"
	 width="24px" height="24px" viewBox="0 0 24 24" enable-background="new 0 0 24 24" xml:space="preserve">
<path d="M24,12c0-0.985-0.132-1.937-0.357-2.854c0.516-1.713,0.815-4.595-1.688-7.1c-2.504-2.506-5.388-2.205-7.103-1.689
	C13.936,0.132,12.984,0,12,0c-0.984,0-1.937,0.132-2.853,0.357C7.435-0.158,4.552-0.459,2.046,2.046s-2.205,5.389-1.689,7.102
	C0.132,10.064,0,11.016,0,12c0,0.984,0.132,1.936,0.357,2.852c-0.515,1.715-0.816,4.598,1.689,7.103
	c1.577,1.578,3.307,2.043,4.8,2.043c0.878,0,1.666-0.162,2.3-0.354C10.063,23.867,11.015,24,12,24c0.984,0,1.938-0.132,2.854-0.357
	c0.635,0.191,1.422,0.354,2.301,0.354c1.492,0,3.223-0.466,4.8-2.043c2.505-2.504,2.204-5.388,1.688-7.101
	C23.867,13.938,24,12.984,24,12z M17.65,10C17.046,8.3,15.7,6.954,14,6.35V2.202c3.912,0.797,7.001,3.886,7.799,7.798H17.65z M12,16
	c-2.206,0-4-1.794-4-4s1.794-4,4-4s4,1.794,4,4S14.206,16,12,16z M10,6.35C8.3,6.954,6.954,8.3,6.35,10H2.202
	C2.999,6.087,6.087,2.999,10,2.202V6.35z M6.35,14c0.604,1.7,1.95,3.046,3.65,3.65v4.147C6.087,21.001,2.999,17.912,2.202,14H6.35z
	 M14,17.65c1.7-0.604,3.046-1.95,3.65-3.65h4.147c-0.798,3.912-3.887,7.001-7.799,7.799L14,17.65L14,17.65z M21.246,2.753
	c1.49,1.491,1.831,3.118,1.756,4.468c-1.208-2.77-3.432-4.996-6.197-6.21C18.154,0.942,19.777,1.284,21.246,2.753z M2.753,2.753
	c1.491-1.492,3.12-1.832,4.47-1.756c-2.77,1.208-4.997,3.431-6.212,6.198C0.942,5.844,1.284,4.223,2.753,2.753z M2.753,21.246
	c-1.491-1.49-1.831-3.118-1.755-4.469c1.208,2.771,3.431,4.996,6.197,6.212C5.845,23.059,4.223,22.716,2.753,21.246z M21.246,21.246
	c-1.49,1.49-3.117,1.831-4.469,1.756c2.771-1.208,4.996-3.43,6.211-6.195C23.059,18.156,22.715,19.777,21.246,21.246z"/>
</svg>
