<?xml version="1.0" encoding="utf-8"?>
<!-- Generator: Adobe Illustrator 17.0.0, SVG Export Plug-In . SVG Version: 6.00 Build 0)  -->
<!DOCTYPE svg PUBLIC "-//W3C//DTD SVG 1.1//EN" "http://www.w3.org/Graphics/SVG/1.1/DTD/svg11.dtd">
<svg version="1.1" id="Layer_1" xmlns="http://www.w3.org/2000/svg" xmlns:xlink="http://www.w3.org/1999/xlink" x="0px" y="0px"
	 width="32px" height="32px" viewBox="0 0 32 32" enable-background="new 0 0 32 32" xml:space="preserve">
<path d="M22.512,6.109V5.491c0-0.879-0.712-1.591-1.591-1.591H18.74c0.196-0.369,0.308-0.782,0.308-1.231
	c0-1.473-1.199-2.664-2.671-2.664c-1.473,0-2.671,1.189-2.671,2.661c0,0.45,0.112,0.866,0.308,1.235h-1.755
	c-0.878,0-1.59,0.712-1.59,1.591v0.618H6.975c-0.943,0-1.707,0.764-1.707,1.707v22.482c0,0.943,0.764,1.708,1.707,1.708h19.229
	c0.943,0,1.707-0.765,1.707-1.708V7.816c0-0.943-0.765-1.707-1.707-1.707H22.512z M14.786,2.669c0-0.877,0.714-1.584,1.591-1.584
	c0.878,0,1.592,0.703,1.592,1.58c0,0.504-0.234,0.989-0.6,1.235h-1.983C15.021,3.654,14.786,3.173,14.786,2.669z M7.415,9.878
	c0-0.896,0.726-1.622,1.622-1.622h1.631c0,0.577,0.467,1.045,1.043,1.045h9.755c0.577,0,1.044-0.468,1.044-1.045h1.63
	c0.896,0,1.623,0.726,1.623,1.622v9.056h-5.182c-0.449,0-0.851,0.28-1.01,0.7l-0.163,0.43l-1.378-7.896
	c-0.089-0.516-0.537-0.843-1.06-0.843c-0.003,0-0.003,0-0.004,0c-0.522,0-0.97,0.322-1.062,0.836l-1.208,6.636l-0.364-1.784
	c-0.088-0.432-0.429-0.764-0.862-0.844c-0.432-0.08-0.872,0.117-1.107,0.488l-1.441,2.278H7.415V9.878z M9.122,29.858
	c-0.943,0-1.707-0.765-1.707-1.708v-7.068h4.099c0.369,0,0.713-0.223,0.91-0.533l0.325-0.545l0.953,4.617
	c0.104,0.504,0.545,0.755,1.058,0.755c0.004,0,0.008,0,0.012,0c0.518,0,0.959-0.268,1.05-0.779l1.124-6.11l1.01,5.815
	c0.084,0.479,0.478,0.845,0.962,0.891c0.491,0.045,0.941-0.234,1.113-0.69l1.296-3.421h4.436v7.068c0,0.943-0.765,1.708-1.708,1.708
	H9.122z"/>
</svg>
