<?xml version="1.0" encoding="utf-8"?>
<!-- Generator: Adobe Illustrator 16.0.0, SVG Export Plug-In . SVG Version: 6.00 Build 0)  -->
<!DOCTYPE svg PUBLIC "-//W3C//DTD SVG 1.1//EN" "http://www.w3.org/Graphics/SVG/1.1/DTD/svg11.dtd">
<svg version="1.1" id="Layer_1" xmlns="http://www.w3.org/2000/svg" xmlns:xlink="http://www.w3.org/1999/xlink" x="0px" y="0px"
	 width="126px" height="126px" viewBox="0 0 126 126" enable-background="new 0 0 126 126" xml:space="preserve">
<path d="M100.016,49.795h-5.667V33.979c0-17.286-14.063-31.35-31.35-31.35c-17.285,0-31.348,14.064-31.348,31.35v15.816h-5.667
	c-3.028,0-5.484,2.456-5.484,5.484v62.607c0,3.029,2.456,5.484,5.484,5.484h74.032c3.028,0,5.484-2.455,5.484-5.484V55.279
	C105.5,52.251,103.044,49.795,100.016,49.795z M44.407,33.979c0-10.253,8.34-18.594,18.592-18.594
	c10.253,0,18.594,8.341,18.594,18.594v15.816H44.407V33.979z M69.5,108c0,3.59-2.91,6.5-6.5,6.5s-6.5-2.91-6.5-6.5V93
	c0-3.59,2.91-6.5,6.5-6.5s6.5,2.91,6.5,6.5V108z M96.5,67.25h-67v-8.5h67V67.25z"/>
</svg>
