<?xml version="1.0" encoding="utf-8"?>
<!-- Generator: Adobe Illustrator 16.0.4, SVG Export Plug-In . SVG Version: 6.00 Build 0)  -->
<!DOCTYPE svg PUBLIC "-//W3C//DTD SVG 1.1//EN" "http://www.w3.org/Graphics/SVG/1.1/DTD/svg11.dtd">
<svg version="1.1" id="Layer_1" xmlns="http://www.w3.org/2000/svg" xmlns:xlink="http://www.w3.org/1999/xlink" x="0px" y="0px"
	 width="24.143px" height="24.143px" viewBox="0 0 24.143 24.143" enable-background="new 0 0 24.143 24.143" xml:space="preserve">
<path d="M13.144,0v2h7.586l-5.873,5.873c-1.568-1.258-3.552-2.017-5.713-2.017C4.101,5.857,0,9.959,0,15s4.103,9.143,9.144,9.143
	c5.042,0,9.143-4.102,9.143-9.143c0-2.161-0.758-4.146-2.016-5.713l5.873-5.873V11h2V0H13.144z M9.143,21.857
	c-3.781,0-6.857-3.075-6.857-6.856s3.076-6.857,6.857-6.857c3.782,0,6.856,3.076,6.856,6.857S12.925,21.857,9.143,21.857z"/>
</svg>
