<?xml version="1.0" encoding="utf-8"?>
<!-- Generator: Adobe Illustrator 16.0.0, SVG Export Plug-In . SVG Version: 6.00 Build 0)  -->
<!DOCTYPE svg PUBLIC "-//W3C//DTD SVG 1.1//EN" "http://www.w3.org/Graphics/SVG/1.1/DTD/svg11.dtd">
<svg version="1.1" id="Layer_1" xmlns="http://www.w3.org/2000/svg" xmlns:xlink="http://www.w3.org/1999/xlink" x="0px" y="0px"
	 width="100px" height="100px" viewBox="0 0 100 100" enable-background="new 0 0 100 100" xml:space="preserve">
<g>
	<path d="M34.788,96.854c2.523,0,4.568-2.047,4.568-4.571v-1.506l-9.133,1.572C30.26,94.843,32.286,96.854,34.788,96.854z"/>
	<polygon points="39.355,77.058 30.216,80.897 30.216,82.023 39.355,80.739 	"/>
	<polygon points="30.217,90.545 39.356,88.972 39.356,87.806 30.216,86.668 	"/>
	<polygon points="30.216,83.829 30.216,84.862 39.356,85.999 39.355,82.545 	"/>
	<path d="M77.718,25.157v-2.916h0.631c1.18,0,2.135-0.956,2.135-2.135V9.829c0-1.179-0.955-2.135-2.135-2.135h-1.684
		c0.018-0.162,0.027-0.332,0.027-0.509c0-0.13-0.01-0.254-0.018-0.376h0.445c1.539,0,2.791-1.252,2.791-2.79H78.96
		c0,1.015-0.826,1.84-1.84,1.84h-0.631c-0.217-0.614-0.598-0.989-1.066-0.989s-0.848,0.375-1.066,0.989h-7.125V2.078h-2.85v3.781
		h-9.82c-1.016,0-1.84-0.825-1.84-1.84h-0.951c0,1.538,1.252,2.79,2.791,2.79h9.82v31.249l-0.536-0.227
		c-6.285-2.284-8.708-5.417-11.252-8.722c-1.76-2.285-4.385-5.233-8.231-7.188l-2.874,18.261c0,0,0.472,1.439,0.472,2.295
		c0,2.448-1.992,4.44-4.441,4.44h-8.064c0,0,0,1.681,0,4.82s0.758,3.766,0.758,3.766l0.002,23.589l9.141-3.841l-0.001-14.747
		c0.18,0.009,0.362,0.022,0.544,0.022c0.036,0,0.07-0.004,0.107-0.004v31.761c0,2.523,2.045,4.57,4.568,4.57s4.571-2.047,4.571-4.57
		V55.481c0,0,0.7-0.674,0.7-3.743s0-13.856,0-13.856c2.778,2.916,6.697,5.825,13.409,7.911c0.808,0.251,1.127,0.231,1.127,0.231
		v40.947h-1.863c-3.02,0-5.602,1.882-6.652,4.532c-1.129,0.344-1.957,1.381-1.957,2.623c0,1.521,1.232,2.755,2.754,2.755
		s2.754-1.233,2.754-2.755c0-0.73-0.289-1.391-0.752-1.884c0.701-1.428,2.156-2.423,3.854-2.423h5.4h1.015
		c1.697,0,3.152,0.995,3.854,2.423c-0.463,0.493-0.752,1.153-0.752,1.884c0,1.521,1.232,2.755,2.754,2.755s2.754-1.233,2.754-2.755
		c0-1.242-0.828-2.279-1.957-2.623c-1.051-2.65-3.633-4.532-6.652-4.532h-0.893h-0.809V45.106c0.57-0.454,1.02-1.071,1.248-1.821
		c0.166-0.542,0.191-1.092,0.117-1.619c2.008,0.423,4.227,1.021,5.166,1.321c0.822,0.271,1.607,0.405,2.326,0.405
		c0.932-0.001,1.754-0.225,2.412-0.67c1.051-0.709,1.664-1.962,1.771-3.621c0.164-2.314-0.68-4.142-1.494-5.909
		c-0.443-0.959-0.9-1.952-1.191-3.013c-0.359-1.302-0.592-3.512-0.543-5.022H77.718z M75.132,6.81h0.584
		c0.012,0.12,0.027,0.235,0.027,0.376c0,0.188-0.014,0.357-0.035,0.509H75.14c-0.021-0.151-0.035-0.32-0.035-0.509
		C75.104,7.045,75.12,6.93,75.132,6.81z M78.243,33.439c0.82,1.777,1.596,3.457,1.443,5.622c-0.098,1.494-0.607,2.562-1.512,3.173
		c-1.02,0.687-2.52,0.756-4.232,0.193c-0.697-0.223-3.219-0.921-5.484-1.385c-0.225-0.692-0.65-1.31-1.227-1.771V6.81h6.941
		c-0.01,0.122-0.02,0.246-0.02,0.376c0,0.177,0.01,0.347,0.027,0.509h-1.682c-1.18,0-2.135,0.956-2.135,2.135v10.277
		c0,1.179,0.955,2.135,2.135,2.135h0.592v1.286h1.621v-1.286h1.383v2.916h0.361c-0.047,1.564,0.193,3.837,0.563,5.179
		C77.323,31.442,77.79,32.458,78.243,33.439z M75.514,17.298c-1.24,0-2.245-1.005-2.245-2.245s2.245-4.755,2.245-4.755
		s2.245,3.515,2.245,4.755S76.754,17.298,75.514,17.298z"/>
	<path d="M32.116,4.051l7.335-3.446C36.52,0.662,33.902,1.984,32.116,4.051z"/>
	<path d="M44.493,1.854l-8.004,3.762l9.695-2.567C45.663,2.596,45.1,2.193,44.493,1.854z"/>
	<path d="M27.265,9.907c-0.098,0.212-0.182,0.416-0.259,0.602c-0.408,0.991-0.546,1.325-1.916,1.576l0.532,2.9
		c2.95-0.541,3.621-2.167,4.109-3.354c0.011-0.025,0.019-0.042,0.026-0.063c0.512,5.023,4.734,8.947,9.892,8.947
		c5.502,0,9.96-4.46,9.96-9.962c0-1.703-0.431-3.307-1.182-4.709L30.916,10.48l-0.2-2.151l5.773-2.713l-5.881,1.557h-0.002
		l-0.35,0.093c-0.004,0.011-0.006,0.021-0.01,0.03c-0.393,0.116-1.002,0.251-1.321,0.136c-0.918-0.337-1.967-1.484-2.288-2.507
		l-2.811,0.884C24.351,7.472,25.736,9.097,27.265,9.907z"/>
	<path d="M42.131,21.093l-2.481,2.498l-2.407-2.525c-0.006,0.003-0.014,0.003-0.023,0.005c-1.27,0.304-4.042,1.748-4.237,1.869
		c-0.02,0.012-0.038,0.025-0.058,0.037l5.252,13.438l5.208-14.922C42.971,21.339,42.554,21.197,42.131,21.093z"/>
	<path d="M41.041,42.478c0-1.736-1.266-3.174-2.921-3.461l-0.001-0.009l-6.053-15.479c-0.08,0.052-0.161,0.103-0.241,0.155
		l-2.403,15.293c-0.698,0.013-0.922-0.007-0.922-0.007l0.451-2.853l1.773-11.673c-1.299,0.928-2.551,1.948-3.701,3.131
		c-3.201,2.782-5.666,7.006-7.211,11.996c-0.419,1.353-0.48,3.265,0.398,4.376c0.935,1.181,1.833,1.759,8.773,2.099
		c0-0.017,8.535-0.049,8.535-0.049C39.461,45.998,41.041,44.419,41.041,42.478z"/>
	<path d="M42.576,26.843l-3.96,11.347c0.763,0.195,1.451,0.578,1.999,1.112L42.576,26.843z"/>
</g>
</svg>
