<?xml version="1.0" encoding="utf-8"?>
<!-- Generator: Adobe Illustrator 16.0.0, SVG Export Plug-In . SVG Version: 6.00 Build 0)  -->
<!DOCTYPE svg PUBLIC "-//W3C//DTD SVG 1.1//EN" "http://www.w3.org/Graphics/SVG/1.1/DTD/svg11.dtd">
<svg version="1.1" id="Layer_1" xmlns="http://www.w3.org/2000/svg" xmlns:xlink="http://www.w3.org/1999/xlink" x="0px" y="0px"
	 width="100px" height="100px" viewBox="0 0 100 100" enable-background="new 0 0 100 100" xml:space="preserve">
<g>
	<g>
		<path d="M45.221,98.565c2.577,0,4.665-2.09,4.665-4.667v-1.537l-9.172,1.605C40.75,96.512,42.667,98.565,45.221,98.565z"/>
		<polygon points="49.884,78.354 40.706,82.274 40.706,83.424 49.884,82.113 		"/>
		<polygon points="40.707,92.124 49.886,90.518 49.886,89.327 40.706,88.166 		"/>
		<polygon points="40.706,85.268 40.706,86.322 49.886,87.483 49.884,83.957 		"/>
	</g>
	<g>
		<path d="M52.805,21.9l-2.511,2.526l-2.436-2.555c-0.006,0.003-0.014,0.003-0.023,0.005c-1.284,0.308-4.089,1.769-4.287,1.892
			c-7.436,4.56-14.068,11.238-12.284,29.078c0.021,0.212,0.066,0.414,0.12,0.614l-1.02,0.044l0.605,2.004l2.133,0.278
			c0.56,0.346,1.211,0.542,1.897,0.569v35.916h-0.349v1.914c-0.578,0.438-0.957,1.124-0.957,1.905v1.88h4.793v-1.88
			c0-0.78-0.379-1.468-0.957-1.905v-1.914h-0.437V55.852c1.299-0.744,2.115-2.197,1.956-3.783
			c-0.591-5.918-0.165-10.06,0.931-13.128c0,0,0,10.891,0,13.964s0.716,3.709,0.716,3.709l0.002,23.966l9.248-3.886l-0.001-14.92
			c0.182,0.01,0.366,0.023,0.551,0.023c0.036,0,0.071-0.004,0.108-0.004v32.133c0,2.553,2.068,4.624,4.622,4.624
			c2.553,0,4.625-2.071,4.625-4.624V56.691c0,0,0.759-0.579,0.759-3.787c0-3.207,0-14.019,0-14.019
			c1.246,4.114,1.104,8.32,1.055,11.765c-0.326,4.73,0.891,5.813,3.26,6.046c0.128,0.013,0.254,0.019,0.38,0.019
			c1.96,0,3.567-1.402,3.831-3.48c0.071-0.561,0.121-1.125,0.187-1.69C70.063,45.203,71.005,28.246,52.805,21.9z"/>
		<circle cx="50.093" cy="11.379" r="9.945"/>
	</g>
</g>
</svg>
