<?xml version="1.0" encoding="utf-8"?>
<!-- Generator: Adobe Illustrator 16.0.0, SVG Export Plug-In . SVG Version: 6.00 Build 0)  -->
<!DOCTYPE svg PUBLIC "-//W3C//DTD SVG 1.1//EN" "http://www.w3.org/Graphics/SVG/1.1/DTD/svg11.dtd">
<svg version="1.1" id="Layer_1" xmlns="http://www.w3.org/2000/svg" xmlns:xlink="http://www.w3.org/1999/xlink" x="0px" y="0px"
	 width="100px" height="100px" viewBox="0 0 100 100" enable-background="new 0 0 100 100" xml:space="preserve">
<g>
	<circle cx="31.54" cy="11.1" r="10.4"/>
	<circle cx="69.223" cy="24.409" r="9.798"/>
	<path d="M95.543,93.767l-0.375-1.397l-8.09,3.737c0.66,2.307,3.041,3.669,5.363,3.043C94.785,98.52,96.174,96.11,95.543,93.767z"/>
	<polygon points="94.424,89.61 85.656,90.836 86.625,94.435 94.715,90.693 	"/>
	<path d="M93.109,84.727l-7.697,3.276c0.012-0.022,0.021-0.046,0.033-0.068c0.016-0.221,0.025-0.443,0.045-0.662
		c0.035-0.427,0.104-0.844,0.197-1.253l6.975-2.968l-4.508-17.199c-0.156-0.59-0.438-1.116-0.791-1.578
		c0.047,0,0.094,0.003,0.145,0.003c2.098,0,3.801-1.703,3.801-3.804c0-2.1-1.703-3.804-3.801-3.804
		c-5.734,0-9.428-2.364-11.342-14.452c-0.045-0.274-0.117-0.536-0.215-0.785c-0.475-3.521-3.709-5.879-6.732-6.62
		c0,0-1.029-0.31-2.127-0.285c-1.051,0.024-2.223,0.268-2.223,0.268L64.842,34.8c-3.295,0.808-6.807,3.493-6.807,7.523v19.604
		L55.16,41.538c-0.227-1.704-1.799-2.899-3.496-2.673c-1.705,0.227-2.902,1.792-2.672,3.496l0.146,1.07
		c-0.072-0.014-0.139-0.043-0.213-0.054c-6.328-0.866-10.197-1.374-12.09-3.744c-1.463-1.833-2.207-11.001-2.418-11.4
		c-0.627-2.847-2.957-5.162-5.377-6.335c0,0-1.004-0.55-2.148-0.769c-1.094-0.208-2.363-0.215-2.363-0.215l-0.031-0.002
		c-3.6,0.104-7.842,2.112-8.738,6.294l-4.809,22.446c-0.477,2.226,0.146,4.277,1.383,5.943l-1.045,15.929L4.652,88.688
		c-1.023,2.647,0.293,5.623,2.939,6.646c0.609,0.235,1.236,0.348,1.854,0.348c2.059,0,4.006-1.249,4.793-3.287l6.92-17.896
		c0.189-0.485,0.303-0.997,0.336-1.517l0.607-9.271l6.105,9.65l4.744,17.781c0.611,2.299,2.689,3.816,4.961,3.816
		c0.438,0,0.883-0.057,1.328-0.175c2.742-0.731,4.371-3.546,3.641-6.289l-4.945-18.54c-0.133-0.503-0.342-0.984-0.621-1.424
		l-8.313-13.139c0.264-0.53,0.48-1.105,0.613-1.739l1.49-7.618c2.18,2.647,12.924,5.555,18.033,5.573
		c0.383-0.019,0.756-0.086,1.107-0.206l2.551,18.328c-1.684,2.813-2.654,6.099-2.654,9.608c0,10.344,8.414,18.759,18.758,18.759
		c6.836,0,12.828-3.675,16.105-9.153l0.002,0.005c0.025-0.072,0.057-0.142,0.082-0.214l0.117,0.426l8.766-1.226L93.109,84.727z
		 M73.842,58.412c1.953,1.735,4.158,3.242,6.646,4.476l-6.646-0.031V58.412z M68.9,91.697c-6.814,0-12.361-5.545-12.361-12.361
		c0-1.55,0.299-3.027,0.824-4.395c0.221,0.033,0.443,0.056,0.672,0.056h22.424c0.512,1.353,0.805,2.812,0.805,4.339
		C81.264,86.152,75.717,91.697,68.9,91.697z"/>
</g>
</svg>
