<?xml version="1.0" encoding="utf-8"?>
<!-- Generator: Adobe Illustrator 16.0.0, SVG Export Plug-In . SVG Version: 6.00 Build 0)  -->
<!DOCTYPE svg PUBLIC "-//W3C//DTD SVG 1.1//EN" "http://www.w3.org/Graphics/SVG/1.1/DTD/svg11.dtd">
<svg version="1.1" id="Layer_1" xmlns="http://www.w3.org/2000/svg" xmlns:xlink="http://www.w3.org/1999/xlink" x="0px" y="0px"
	 width="100px" height="100px" viewBox="0 0 100 100" enable-background="new 0 0 100 100" xml:space="preserve">
<g>
	<path d="M53.671,90.697l-8.914,3.459c0.547,2.514,3.009,4.134,5.538,3.622c2.553-0.518,4.201-3.006,3.685-5.558L53.671,90.697z"/>
	<polygon points="50.861,76.823 42.405,82.577 42.635,83.715 51.615,80.545 	"/>
	<polygon points="53.063,87.69 43.586,88.412 44.381,92.332 53.301,88.871 	"/>
	<polygon points="51.984,82.372 43.006,85.542 43.216,86.586 52.693,85.864 	"/>
	<path d="M71.712,51.179c0.407-0.54,0.696-1.182,0.794-1.9c0.305-2.235-1.26-4.295-3.495-4.601
		c-12.383-1.693-12.777-3.921-14.246-14.262c-0.023-0.167-0.074-0.32-0.117-0.478c-0.315-3.266-2.885-5.957-5.569-7.259
		c0,0-1.016-0.556-2.173-0.778c-1.108-0.211-2.392-0.218-2.392-0.218l-0.031-0.002c-3.644,0.105-7.933,2.137-8.84,6.368
		l-4.867,22.712c-0.63,2.947,0.638,5.592,2.723,7.457l-5.961,34.301c-0.506,2.904,1.44,5.667,4.345,6.172
		c0.31,0.054,0.617,0.08,0.92,0.08c2.546,0,4.802-1.83,5.252-4.425l3.11-17.893l0.87,4.299l8.457-5.755l-3.259-16.154
		c1.168-0.987,2.06-2.319,2.427-4.036l1.843-8.599c2.403,2.806,6.088,4.631,12.097,5.848l0.193,0.64l2.175,0.285
		c0.57,0.352,1.234,0.552,1.935,0.58v38.176h-0.355v1.952c-0.589,0.446-0.977,1.147-0.977,1.943v1.916h4.89v-1.916
		c0-0.796-0.387-1.497-0.977-1.943v-1.952h-0.445V53.045C70.783,52.618,71.369,51.96,71.712,51.179z"/>
	<circle cx="51.42" cy="11.755" r="10.522"/>
</g>
</svg>
