<?xml version="1.0" encoding="utf-8"?>
<!-- Generator: Adobe Illustrator 16.0.4, SVG Export Plug-In . SVG Version: 6.00 Build 0)  -->
<!DOCTYPE svg PUBLIC "-//W3C//DTD SVG 1.1//EN" "http://www.w3.org/Graphics/SVG/1.1/DTD/svg11.dtd">
<svg version="1.1" id="Layer_1" xmlns="http://www.w3.org/2000/svg" xmlns:xlink="http://www.w3.org/1999/xlink" x="0px" y="0px"
	 width="104.667px" height="72px" viewBox="0 0 104.667 72" enable-background="new 0 0 104.667 72" xml:space="preserve">
<path d="M64,15c-4.316,0-8.328,1.308-11.666,3.542C48.998,16.307,44.985,15,40.667,15c-11.599,0-21,9.401-21,21
	c0,11.598,9.401,21,21,21c4.317,0,8.33-1.309,11.666-3.541C55.671,55.691,59.682,57,64,57c11.599,0,21-9.404,21-21
	C85,24.403,75.598,15,64,15z M64,47.666c-1.845,0-3.584-0.441-5.139-1.209c1.775-3.082,2.807-6.646,2.807-10.457
	c0-3.812-1.03-7.376-2.807-10.458c1.553-0.767,3.293-1.21,5.139-1.21c6.433,0,11.668,5.236,11.668,11.667
	C75.667,42.43,70.432,47.666,64,47.666z M97.488,0H7.184C3.223,0,0,3.222,0,7.183v57.634C0,68.777,3.223,72,7.184,72h90.3
	c3.961,0,7.184-3.221,7.184-7.18V7.184C104.667,3.223,101.447,0,97.488,0z M102.667,64.82c0,2.855-2.324,5.18-5.184,5.18h-90.3
	C4.326,70,2,67.676,2,64.816V7.184C2,4.326,4.326,2,7.184,2h90.304c2.855,0,5.18,2.325,5.18,5.183V64.82z"/>
</svg>
