<?xml version="1.0" encoding="utf-8"?>
<!-- Generator: Adobe Illustrator 17.0.0, SVG Export Plug-In . SVG Version: 6.00 Build 0)  -->
<!DOCTYPE svg PUBLIC "-//W3C//DTD SVG 1.1//EN" "http://www.w3.org/Graphics/SVG/1.1/DTD/svg11.dtd">
<svg version="1.1" id="Layer_1" xmlns="http://www.w3.org/2000/svg" xmlns:xlink="http://www.w3.org/1999/xlink" x="0px" y="0px"
	 width="32px" height="32px" viewBox="0 0 32 32" enable-background="new 0 0 32 32" xml:space="preserve">
<g>
	<path d="M15.101,8.064C12.901,4.194,7.98,2.842,4.113,5.042c-3.87,2.201-5.221,7.119-3.022,10.988
		c2.202,3.868,7.12,5.221,10.99,3.021C15.947,16.85,17.299,11.931,15.101,8.064z M12.668,10.988L4.772,15.36
		c-0.196,0.109-0.411,0.161-0.621,0.161c-0.455,0-0.895-0.24-1.13-0.665c-0.345-0.622-0.12-1.408,0.502-1.752l7.895-4.372
		c0.622-0.344,1.407-0.12,1.753,0.504C13.518,9.858,13.291,10.644,12.668,10.988z"/>
	<path d="M17.247,19.018c-2.657,2.755-2.577,7.142,0.18,9.797c2.756,2.656,7.145,2.574,9.799-0.181
		c2.655-2.756,2.573-7.143-0.183-9.799C24.289,16.181,19.901,16.261,17.247,19.018z M25.918,27.456
		c-0.252,0.255-0.584,0.384-0.918,0.384c-0.327,0-0.652-0.124-0.905-0.371l-5.529-5.448c-0.506-0.5-0.51-1.316-0.013-1.824
		c0.499-0.507,1.316-0.513,1.825-0.013l5.527,5.448C26.413,26.131,26.418,26.948,25.918,27.456z"/>
	<path d="M25.055,0.374c-3.826-0.057-6.975,2.999-7.032,6.825c-0.057,3.828,3,6.975,6.825,7.032
		c3.826,0.058,6.975-2.998,7.033-6.825C31.936,3.58,28.882,0.431,25.055,0.374z M28.833,8.693c-0.014,0-0.023,0-0.035,0l-7.76-0.204
		c-0.712-0.018-1.274-0.61-1.256-1.322c0.02-0.7,0.594-1.255,1.289-1.255c0.013,0,0.023,0,0.034,0.001l7.759,0.203
		c0.712,0.018,1.274,0.611,1.256,1.323C30.102,8.139,29.527,8.693,28.833,8.693z"/>
</g>
</svg>
