<?xml version="1.0" encoding="utf-8"?>
<!-- Generator: Adobe Illustrator 17.0.0, SVG Export Plug-In . SVG Version: 6.00 Build 0)  -->
<!DOCTYPE svg PUBLIC "-//W3C//DTD SVG 1.1//EN" "http://www.w3.org/Graphics/SVG/1.1/DTD/svg11.dtd">
<svg version="1.1" id="Layer_1" xmlns="http://www.w3.org/2000/svg" xmlns:xlink="http://www.w3.org/1999/xlink" x="0px" y="0px"
	 width="32px" height="32px" viewBox="0 0 32 32" enable-background="new 0 0 32 32" xml:space="preserve">
<g>
	<path d="M29.453,2.551C27.344,0.442,25.364,0,24.072,0c-1.037,0-1.708,0.281-1.83,0.338L22.04,0.43L2.364,20.105l1.067,5.879
		c-0.042,0.034-0.081,0.07-0.121,0.109l-2.489,2.487c-0.719,0.719-0.719,1.883,0,2.6c0.359,0.36,0.829,0.538,1.299,0.538
		c0.471,0,0.941-0.178,1.302-0.538l2.488-2.487c0.038-0.039,0.075-0.079,0.109-0.121l5.878,1.067L31.574,9.963l0.093-0.2
		C31.73,9.622,33.189,6.287,29.453,2.551z M29.482,8.588L11.072,27l-5.133-0.935l-0.935-5.133l9.946-9.946l1.733,1.733
		c0.12,0.12,0.276,0.18,0.434,0.18c0.157,0,0.312-0.06,0.434-0.18c0.238-0.239,0.238-0.627,0-0.867l-1.734-1.733l1.733-1.734
		l1.734,1.734c0.12,0.12,0.275,0.181,0.433,0.181c0.157,0,0.314-0.061,0.434-0.181c0.238-0.238,0.238-0.626,0-0.865l-1.733-1.735
		l1.733-1.733l1.733,1.733C22.003,7.639,22.16,7.7,22.318,7.7c0.155,0,0.312-0.062,0.433-0.182c0.238-0.238,0.238-0.626,0-0.866
		l-1.732-1.733l2.392-2.394c0.554-0.133,2.263-0.287,4.309,1.759C29.813,6.377,29.61,8.076,29.482,8.588z"/>
	<path d="M7.531,20.9c-0.479,0.479-0.067,1.666,0.92,2.651c0.985,0.987,2.174,1.399,2.651,0.92l6.383-6.383l-3.571-3.57L7.531,20.9z
		"/>
</g>
</svg>
