<?xml version="1.0" encoding="utf-8"?>
<!-- Generator: Adobe Illustrator 17.0.0, SVG Export Plug-In . SVG Version: 6.00 Build 0)  -->
<!DOCTYPE svg PUBLIC "-//W3C//DTD SVG 1.1//EN" "http://www.w3.org/Graphics/SVG/1.1/DTD/svg11.dtd">
<svg version="1.1" id="Layer_1" xmlns="http://www.w3.org/2000/svg" xmlns:xlink="http://www.w3.org/1999/xlink" x="0px" y="0px"
	 width="32px" height="32px" viewBox="0 0 32 32" enable-background="new 0 0 32 32" xml:space="preserve">
<path d="M32.012,14.915c0-0.031-0.003-0.052-0.008-0.083c-0.002-0.059-0.006-0.092-0.006-0.092h-0.021
	c-0.263-0.774-2.071-1.467-4.845-1.973l4.329-6.953c0.567-0.912,0.35-2.106-0.502-2.759l-0.588-0.45
	c-0.817-0.625-1.968-0.563-2.711,0.148l-9.612,9.194c-0.644-0.016-1.299-0.023-1.963-0.023c-8.448,0-15.359,1.242-15.894,2.814
	H0.168c0,0-0.003,0.032-0.005,0.09c-0.006,0.032-0.01,0.059-0.01,0.091c0,0.017,0.002,0.031,0.003,0.048
	c-0.001,0.062-0.003,0.117-0.003,0.15c0,8.798,7.132,15.985,15.929,15.985s15.929-7.216,15.929-16.014
	c0-0.03-0.001-0.079-0.002-0.13C32.01,14.945,32.012,14.931,32.012,14.915z M26.807,5.043c0.419,0,0.759,0.34,0.759,0.758
	c0,0.419-0.339,0.758-0.759,0.758c-0.418,0-0.758-0.339-0.758-0.758C26.049,5.383,26.389,5.043,26.807,5.043z M24.748,6.794
	c0.234-0.234,0.615-0.234,0.849,0.002c0.234,0.235,0.234,0.615-0.001,0.849l-6.842,6.825c-0.118,0.118-0.271,0.175-0.424,0.175
	c-0.154,0-0.308-0.058-0.425-0.176c-0.235-0.234-0.235-0.615,0.001-0.849L24.748,6.794z M16.083,17.927
	c-7.257,0-13.14-1.019-13.14-2.276c0-1.256,5.883-2.275,13.14-2.275c0.157,0,0.312,0,0.468,0.001l-3.179,3.041
	c0,0,5.971,0.622,11.601-0.184l1.263-2.027c1.866,0.393,2.987,0.896,2.987,1.444C29.223,16.908,23.34,17.927,16.083,17.927z"/>
</svg>
