<?xml version="1.0" encoding="utf-8"?>
<!-- Generator: Adobe Illustrator 16.0.0, SVG Export Plug-In . SVG Version: 6.00 Build 0)  -->
<!DOCTYPE svg PUBLIC "-//W3C//DTD SVG 1.1//EN" "http://www.w3.org/Graphics/SVG/1.1/DTD/svg11.dtd">
<svg version="1.1" id="Layer_1" xmlns="http://www.w3.org/2000/svg" xmlns:xlink="http://www.w3.org/1999/xlink" x="0px" y="0px"
	 width="126px" height="126px" viewBox="0 0 126 126" enable-background="new 0 0 126 126" xml:space="preserve">
<g>
	<path d="M47.343,84.782c-0.546-0.424-4.877-3.7-16.893-4.497c-0.661-0.055-1.327-0.524-1.914-0.917
		c-0.747-0.497-1.523-1.019-2.089-1.692c-0.919-1.098-1.959-2.022-2.832-3.241c-5.842-8.144-11.567-9.779-12.423-10.102
		c-1.14-0.55-5.507,0.127-3.41,3.039c0.133,0.022,6.68,9.219,7.106,9.954c0.752,1.298,1.602,1.829,2.402,2.74
		c0.73,0.832,1.538,1.597,2.284,2.415c0,0-4.186-2.479-5.19-3.565c-0.448-0.487-0.663-1.184-1.019-1.762
		c-0.411-0.666-0.85-1.315-1.296-1.957c-0.56-0.801-1.123-1.6-1.716-2.375c-0.758-0.987-1.546-1.953-2.327-2.923
		c-0.486-0.604-1.034-1.187-1.435-1.818c-1.981-3.128,0.28-4.999,2.432-5.235c-0.104-0.36-1.094-9.819-1.267-11.407
		c-0.493-4.56-0.982-7.938-3.595-8.857c-0.675-0.238-1.151-0.158-1.653,0.372c-0.593,0.624-0.948,3.936-1.119,6.03
		c0,0-1.143,11.236-0.868,16.479c0.148,2.812,8.882,22.156,11.391,25.145s22.139,14.304,22.139,14.304
		c0.656,0.546,4.291,3.345,4.291,7.015v7.967l21.165,0.025l0.017-7.311c0.049-1.351,0.279-2.695,0.441-4.041
		c0.461-1.537,0.093-4.442-0.123-5.57C57.384,92.027,48.333,85.547,47.343,84.782z"/>
	<path d="M124.61,48.983c-0.172-2.095-0.525-5.406-1.119-6.03c-0.502-0.53-0.979-0.61-1.653-0.372
		c-2.612,0.92-3.102,4.298-3.595,8.857c-0.174,1.588-1.163,11.047-1.268,11.407c2.152,0.236,4.414,2.107,2.433,5.235
		c-0.4,0.632-0.948,1.214-1.435,1.818c-0.781,0.97-1.569,1.936-2.327,2.923c-0.594,0.775-1.157,1.574-1.716,2.375
		c-0.447,0.642-0.886,1.291-1.297,1.957c-0.355,0.578-0.57,1.274-1.019,1.762c-1.004,1.087-5.19,3.565-5.19,3.565
		c0.746-0.818,1.555-1.583,2.285-2.415c0.799-0.911,1.649-1.442,2.401-2.74c0.427-0.735,6.974-9.932,7.106-9.954
		c2.098-2.912-2.27-3.589-3.41-3.039c-0.855,0.322-6.58,1.958-12.422,10.102c-0.873,1.219-1.913,2.144-2.832,3.241
		c-0.566,0.674-1.343,1.195-2.09,1.692c-0.587,0.393-1.253,0.862-1.914,0.917c-12.016,0.797-16.346,4.073-16.893,4.497
		c-0.989,0.766-10.041,7.245-12.5,18.214c-0.216,1.128-0.584,4.033-0.123,5.57c0.162,1.346,0.393,2.69,0.441,4.041l0.018,7.311
		l21.164-0.025v-7.967c0-3.67,3.635-6.469,4.291-7.015c0,0,19.63-11.315,22.139-14.304s11.243-22.333,11.391-25.145
		C125.753,60.219,124.61,48.983,124.61,48.983z"/>
	<path d="M72.037,66.361c0.182,2.604-1.283,5.59-4.127,8.41c-1.59,1.575-1.601,4.14-0.024,5.729
		c0.792,0.799,1.834,1.199,2.877,1.199c1.032,0,2.063-0.391,2.853-1.174c4.609-4.571,6.859-9.666,6.504-14.73
		c-0.193-2.755-1.779-6.055-4.852-10.088c-0.154-0.203-0.3-0.39-0.446-0.58l-1.777-11.191v-4.062l-0.019-0.581
		c2.234,2.283,4.333,5.1,5.708,8.467c0.619,1.517,2.082,2.436,3.626,2.436c0.491,0,0.994-0.094,1.478-0.292
		c2.002-0.818,2.961-3.103,2.144-5.104c-4.02-9.846-12.42-15.799-17.07-18.473c2.812-2.031,4.648-5.328,4.648-9.062
		c0-6.176-5.008-11.183-11.184-11.183c-6.176,0-11.183,5.007-11.183,11.183c0,3.733,1.836,7.03,4.648,9.062
		C51.19,29.001,42.79,34.955,38.769,44.8c-0.817,2,0.143,4.285,2.144,5.104c0.484,0.198,0.985,0.292,1.478,0.292
		c1.543,0,3.006-0.918,3.625-2.436c1.375-3.367,3.474-6.184,5.708-8.467l-0.019,0.581v4.062l-1.778,11.191
		c-0.146,0.19-0.291,0.376-0.445,0.58c-3.072,4.034-4.659,7.333-4.852,10.088c-0.355,5.065,1.895,10.159,6.505,14.73
		c0.79,0.783,1.821,1.174,2.853,1.174c1.042,0,2.084-0.4,2.876-1.199c1.575-1.589,1.565-4.154-0.024-5.729
		c-2.844-2.82-4.31-5.807-4.127-8.41c0.076-1.078,1.309-3.171,2.925-5.356c2.096-1.361,4.325-1.957,6.736-1.957
		s4.641,0.596,6.736,1.957C70.728,63.19,71.96,65.283,72.037,66.361z M55.386,57.852l-2.703-3.029l1.028-8.418h7.546h2.236h7.546
		l1.028,8.418l-2.703,3.029c0,0-2.796-1.538-6.989-1.538C58.181,56.314,55.386,57.852,55.386,57.852z"/>
</g>
</svg>
