<?xml version="1.0" encoding="utf-8"?>
<!-- Generator: Adobe Illustrator 16.0.0, SVG Export Plug-In . SVG Version: 6.00 Build 0)  -->
<!DOCTYPE svg PUBLIC "-//W3C//DTD SVG 1.1//EN" "http://www.w3.org/Graphics/SVG/1.1/DTD/svg11.dtd">
<svg version="1.1" id="Layer_1" xmlns="http://www.w3.org/2000/svg" xmlns:xlink="http://www.w3.org/1999/xlink" x="0px" y="0px"
	 width="100px" height="100px" viewBox="0 0 100 100" enable-background="new 0 0 100 100" xml:space="preserve">
<g>
	<path d="M49.99,21.983c5.209,0,9.434-4.224,9.434-9.434c0-2.18-0.756-4.171-1.999-5.765h-3.052V5.353h1.675
		c-0.586-0.493-1.224-0.928-1.919-1.268c-0.717-1.574-2.297-2.677-4.137-2.677c-1.838,0-3.416,1.101-4.135,2.673
		c-0.697,0.341-1.337,0.776-1.926,1.271h1.915v1.432h-3.29c-1.242,1.594-1.999,3.585-1.999,5.765
		C40.558,17.759,44.78,21.983,49.99,21.983z M49.992,3.4c1.413,0,2.563,1.149,2.563,2.563s-1.149,2.563-2.563,2.563
		S47.43,7.375,47.43,5.962S48.579,3.4,49.992,3.4z"/>
	<g>
		<path d="M50,31.102c2.285,0,4.606-3.834,4.938-7.887c-0.799-0.406-1.634-0.739-2.487-0.949l-2.5,2.517l-2.424-2.544
			c-0.008,0.002-0.017,0.002-0.024,0.004c-0.839,0.2-1.663,0.512-2.449,0.904C45.365,27.225,47.701,31.102,50,31.102z"/>
		<path d="M56.426,23.845c-0.025-0.016-0.053-0.024-0.079-0.039c-0.475,4.129-2.745,8.211-5.746,8.7
			c-0.426,2.082,0.313,2.921,1.177,3.863c1.576,1.718,2.477,3.349-0.261,7.855c0.193,0.289,0.307,0.637,0.307,1.011
			c0,1.007-0.816,1.823-1.823,1.823s-1.823-0.816-1.823-1.823c0-1.007,0.816-1.824,1.823-1.824c0.1,0,0.195,0.014,0.291,0.029
			c2.386-3.911,1.509-4.89,0.411-6.086c-0.926-1.009-2.052-2.248-1.582-4.912c-2.834-0.683-4.97-4.564-5.457-8.524
			c-0.146,0.063-0.292,0.123-0.431,0.208c-7.402,4.54-14.008,11.19-12.23,28.955c0.201,2.009,1.896,3.508,3.872,3.508
			c0.13,0,0.261-0.006,0.393-0.02c2.142-0.214,3.703-2.124,3.489-4.264c-0.59-5.893-0.165-10.017,0.925-13.073
			c0,0,0,13.317,0,13.906c0,3.039,0.085,2.948,0.713,3.692l0.002,37.156c0,2.543,2.161,4.604,4.704,4.604
			c2.543,0,4.505-2.062,4.505-4.604l-0.002-32.016c0.183,0.008,0.364,0.023,0.548,0.023c0.036,0,0.072-0.004,0.108-0.004
			l-0.002,31.998c0,2.543,2.161,4.604,4.704,4.604s4.505-2.061,4.505-4.604l0.002-37.178c0.579-0.722,0.755-0.891,0.755-3.669
			c0-0.328,0-14.145,0-14.145c1.151,3.047,1.617,7.136,1.034,12.958c-0.214,2.141,1.349,4.05,3.489,4.264
			c0.132,0.013,0.263,0.02,0.393,0.02c1.977,0,3.671-1.499,3.872-3.508C70.764,35.203,63.998,28.489,56.426,23.845z"/>
	</g>
</g>
</svg>
