<?xml version="1.0" encoding="utf-8"?>
<!-- Generator: Adobe Illustrator 17.0.0, SVG Export Plug-In . SVG Version: 6.00 Build 0)  -->
<!DOCTYPE svg PUBLIC "-//W3C//DTD SVG 1.1//EN" "http://www.w3.org/Graphics/SVG/1.1/DTD/svg11.dtd">
<svg version="1.1" id="Layer_1" xmlns="http://www.w3.org/2000/svg" xmlns:xlink="http://www.w3.org/1999/xlink" x="0px" y="0px"
	 width="32px" height="32px" viewBox="0 0 32 32" enable-background="new 0 0 32 32" xml:space="preserve">
<path d="M28.331,12.5c-1.762,0-3.247,1.191-3.7,2.81l-4.566-0.284c-0.396-0.909-1.246-1.582-3.028-1.851
	c0.036-0.147,0.053-0.299,0.053-0.457c0-0.367-0.1-0.712-0.271-1.008h13.79c0.316,0,0.569-0.247,0.569-0.561
	c0-0.315-0.254-0.561-0.569-0.561H16.189c-0.067-0.543-0.529-0.962-1.092-0.962c-0.562,0-1.024,0.419-1.092,0.962H1.012
	c-0.314,0-0.569,0.246-0.569,0.561c0,0.314,0.255,0.561,0.569,0.561h12.369c-0.175,0.296-0.275,0.641-0.275,1.008
	c0,0.149,0.018,0.294,0.048,0.434c-4.427,0.632-9.935,4.567-9.935,7.677c0,2.739,3.025,3.823,6.65,4.112
	c0,0-0.116,1.845-0.108,1.892c-1.691-0.211-1.721-1.086-1.718-1.203c0.021-0.308-0.212-0.577-0.521-0.603
	c-0.287-0.031-0.588,0.207-0.615,0.52c-0.006,0.077-0.046,0.769,0.521,1.417c0.553,0.629,1.462,0.981,2.703,1.043
	c0.369,0.018,0.817,0.026,1.32,0.026c1.884,0,4.531-0.112,6.546-0.214c0.047-0.002,0.093-0.005,0.139-0.007
	c1.515-0.077,2.641-0.147,2.761-0.155c0.314-0.018,0.551-0.288,0.534-0.603c-0.021-0.312-0.258-0.55-0.604-0.533
	c-0.027,0.002-0.938,0.059-2.236,0.126c0,0-0.098-3.369-0.112-3.415c-0.047-0.164-0.034-0.164,0.013,0
	c1.007-0.827,1.641-1.953,1.854-3.416l0,0l4.569-1.749c0.633,1.253,1.926,2.116,3.424,2.116c2.118,0,3.839-1.724,3.839-3.842
	C32.177,14.223,30.449,12.5,28.331,12.5z M10.863,26.891c0.013-0.041,0.142-1.884,0.142-1.884c0.379,0.014,0.746,0.021,1.127,0.021
	c1.99,0,3.832-0.342,5.223-1.078v0.001l0.085,2.756C15.272,26.812,12.568,26.919,10.863,26.891z M17.46,19.952
	c0,0.406-0.329,0.735-0.735,0.735h-1.242v1.188c0,0.406-0.329,0.735-0.735,0.735H14.24c-0.406,0-0.734-0.329-0.734-0.735v-1.188
	h-1.188c-0.406,0-0.734-0.329-0.734-0.735v-0.508c0-0.406,0.328-0.734,0.734-0.734h1.188v-1.242c0-0.406,0.328-0.734,0.734-0.734
	h0.507c0.406,0,0.735,0.329,0.735,0.734v1.242h1.242c0.406,0,0.735,0.329,0.735,0.734V19.952z M28.331,17.907
	c-0.526,0-0.992-0.262-1.275-0.66c-0.001-0.002-0.003-0.004-0.004-0.006l0.831-0.319c0.255-0.098,0.423-0.342,0.423-0.614v-0.149
	c0-0.347-0.271-0.635-0.617-0.657l-0.649-0.041v0c0.282-0.412,0.756-0.683,1.292-0.683c0.862,0,1.566,0.702,1.566,1.565
	C29.897,17.205,29.193,17.907,28.331,17.907z"/>
</svg>
