<?xml version="1.0" encoding="utf-8"?>
<!-- Generator: Adobe Illustrator 16.0.0, SVG Export Plug-In . SVG Version: 6.00 Build 0)  -->
<!DOCTYPE svg PUBLIC "-//W3C//DTD SVG 1.1//EN" "http://www.w3.org/Graphics/SVG/1.1/DTD/svg11.dtd">
<svg version="1.1" id="Layer_1" xmlns="http://www.w3.org/2000/svg" xmlns:xlink="http://www.w3.org/1999/xlink" x="0px" y="0px"
	 width="100px" height="100px" viewBox="0 0 100 100" enable-background="new 0 0 100 100" xml:space="preserve">
<g>
	<path d="M52.931,46.822c-10.848,2.372-16.271-2.68-16.552-2.95c-1.37-1.367-3.587-1.379-4.97-0.021
		c-1.393,1.366-1.414,3.604-0.048,4.996c0.271,0.276,5.706,5.671,16.019,5.671c2.144,0,4.499-0.232,7.061-0.793
		c1.906-0.417,3.112-2.301,2.695-4.206C56.72,47.612,54.837,46.407,52.931,46.822z"/>
	<path d="M94.381,70.162L79.497,64.15c-0.516-0.207-1.067-0.315-1.621-0.315h-3.793v-0.824c0-0.421-0.11-0.814-0.291-1.165
		l14.032,3.829c0.371,0.101,0.744,0.15,1.111,0.15c1.85,0,3.545-1.23,4.056-3.101c0.612-2.242-0.709-4.556-2.951-5.167
		l-18.485-5.046c-0.367-0.1-0.727-0.149-1.129-0.148l-12.601,0.063c-0.587,1.386-1.813,2.479-3.391,2.825
		c-2.079,0.455-4.194,0.686-6.292,0.686c-10.229,0-17.198-5.469-17.489-5.702c-1.002-0.799-1.634-1.941-1.777-3.215
		c-0.145-1.275,0.216-2.53,1.017-3.534c0.916-1.15,2.286-1.809,3.757-1.809c1.074,0,2.131,0.367,2.976,1.034
		c0.142,0.11,2.877,2.199,7.226,3.151l-7.761-5.004c-0.208-0.134-0.513-0.488-0.513-0.488c-0.821-0.704-2.216-2.47-3.335-3.889
		c-0.414-0.524-0.794-1.006-1.111-1.391c-1.118-1.297-1.505-3.236-0.938-4.716c0.306-0.8,0.865-1.399,1.641-1.781h7.786v-4.269
		h-2.203V5.75H8.766v18.575H6.764v2.005c-1.697,0.148-3.052,0.921-3.416,2.071c-0.184,0.578-0.339,2.071,2.171,3.459
		c0.83,0.435,1.872,0.608,2.88,0.775c1.223,0.204,2.488,0.414,3.264,1.066c0.597,0.552,0.923,1.31,1.237,2.042
		c0.06,0.14,0.121,0.271,0.182,0.406c-0.576,3.08,0.707,6.34,3.503,8.145c3.688,2.377,8.607,1.317,10.985-2.373
		c2.38-3.689,1.317-8.607-2.371-10.986c-3.688-2.379-8.608-1.317-10.987,2.371c-0.282,0.438-0.513,0.894-0.699,1.36
		c-0.282-0.595-0.634-1.203-1.188-1.715c-1.002-0.844-2.404-1.077-3.761-1.303c-0.974-0.162-1.892-0.314-2.569-0.669
		c-1.306-0.722-1.922-1.552-1.692-2.276c0.207-0.653,1.133-1.241,2.463-1.376v1.267h23.398c-0.387,0.403-0.695,0.876-0.905,1.424
		c-0.691,1.808-0.232,4.162,1.108,5.717c0.307,0.372,0.682,0.849,1.091,1.366c0.761,0.965,1.644,2.08,2.414,2.949
		c-2.175-0.279-4.415,0.747-5.888,2.14c0,0-0.664,0.567-1.13,1.326c-0.446,0.726-0.794,1.631-0.794,1.631l-0.011,0.021
		c-0.899,2.602-0.61,6.175,2.136,7.947l14.744,9.508c0.175,0.113,0.354,0.214,0.532,0.304c0,0.028-0.008,0.055-0.008,0.083v0.824
		H39.26L19.647,50.223c0.097-0.107,0.19-0.22,0.27-0.346c0.72-1.151,0.371-2.668-0.78-3.389l-6.677-4.182
		c-1.121-0.703-2.584-0.384-3.327,0.698c-1.888-0.923-4.214-0.372-5.449,1.407c-1.363,1.964-0.876,4.662,1.089,6.025l30.665,21.285
		c0.724,0.504,1.586,0.773,2.468,0.773h5.717c0.364,0.981,1.302,1.683,2.407,1.683h5.439V94.5h-2.649
		c-1.146,0-2.074,0.929-2.074,2.075c0,1.147,0.929,2.076,2.074,2.076h19.927c1.146,0,2.075-0.929,2.075-2.076
		c0-1.146-0.93-2.075-2.075-2.075h-2.679V74.177h5.439c1.106,0,2.043-0.702,2.408-1.683h3.119l14.105,5.697
		c0.531,0.214,1.08,0.316,1.619,0.316c1.715,0,3.336-1.024,4.016-2.709C97.669,73.58,96.598,71.057,94.381,70.162z M11.164,8.146
		h23.855v8.25v0.822v6.307H11.164V8.146z"/>
	<path d="M35.066,35.828c0,1.86,1.508,3.367,3.366,3.367c7.871,0,12.233-2.105,15.077-4.597v5.456
		c-0.254,1.096-0.72,3.132-1.27,5.574c0.211-0.042,0.419-0.076,0.63-0.122c0.342-0.075,0.688-0.112,1.033-0.112
		c2.246,0,4.227,1.594,4.708,3.791c0.14,0.642,0.144,1.283,0.032,1.893l11.99-0.06c0.527,0,0.989,0.062,1.474,0.193l1.756,0.48
		c-0.998-4.874-2.133-9.672-2.601-11.613v-6.485c1.288,2.681,2.091,6.522,2.009,12.41c-0.026,1.858,1.46,3.387,3.319,3.413
		c0.017,0,0.032,0,0.048,0c1.837,0,3.34-1.476,3.364-3.32c0.224-16.004-5.669-22.637-15.5-26.364
		c-0.008-0.002-0.016-0.002-0.021-0.004l-2.096,2.199l-2.16-2.175c-1.202,0.295-3.464,1.591-3.492,1.607
		c-2.289,1.404-3.715,3.33-4.97,5.03c-2.409,3.259-4.49,6.072-13.331,6.072C36.574,32.461,35.066,33.969,35.066,35.828z"/>
	<path d="M62.512,19.071c4.488,0,8.128-3.638,8.128-8.127c0-1.877-0.651-3.592-1.724-4.965h-2.628V4.746h1.444
		c-0.506-0.425-1.055-0.799-1.654-1.092c-0.616-1.356-1.979-2.305-3.564-2.305c-1.582,0-2.941,0.947-3.561,2.302
		c-0.601,0.293-1.152,0.669-1.659,1.095h1.65v1.233H56.11c-1.068,1.373-1.722,3.088-1.722,4.965
		C54.388,15.433,58.026,19.071,62.512,19.071z M62.514,3.063c1.219,0,2.208,0.99,2.208,2.208s-0.989,2.208-2.208,2.208
		c-1.216,0-2.206-0.99-2.206-2.208S61.298,3.063,62.514,3.063z"/>
	<path d="M25.262,10.96c-0.816,0-1.551,0.344-2.071,0.893c-0.521-0.549-1.255-0.893-2.071-0.893c-1.578,0-2.857,1.279-2.857,2.858
		c0,3.963,4.929,6.476,4.929,6.476s4.929-2.512,4.929-6.476C28.12,12.239,26.84,10.96,25.262,10.96z"/>
</g>
</svg>
