<?xml version="1.0" encoding="utf-8"?>
<!-- Generator: Adobe Illustrator 16.0.0, SVG Export Plug-In . SVG Version: 6.00 Build 0)  -->
<!DOCTYPE svg PUBLIC "-//W3C//DTD SVG 1.1//EN" "http://www.w3.org/Graphics/SVG/1.1/DTD/svg11.dtd">
<svg version="1.1" id="Layer_1" xmlns="http://www.w3.org/2000/svg" xmlns:xlink="http://www.w3.org/1999/xlink" x="0px" y="0px"
	 width="100px" height="100px" viewBox="0 0 100 100" enable-background="new 0 0 100 100" xml:space="preserve">
<g>
	<circle cx="50.517" cy="12.084" r="10.564"/>
	<path d="M53.095,23.236c-0.009-0.002-0.019-0.002-0.027-0.004l-2.552,2.678l-2.63-2.648c-3.754,1.31-18.352,10.119-20.422,33.549
		c-0.309,2.243,1.258,4.31,3.501,4.62c0.19,0.027,0.379,0.04,0.567,0.04c2.015,0,3.772-1.486,4.058-3.537
		c0.599-4.306,2.013-10.182,4.115-15.25v5.305l-6.41,28.442c0,0,0.707,2.323,7.259,3.541l0,13.947c0,2.52,2.042,4.562,4.561,4.562
		c2.52,0,4.563-2.043,4.562-4.562l0-13.224c0.093,0,0.18,0.002,0.274,0.002c0.128,0,0.247-0.002,0.373-0.003l0,13.225
		c0,2.519,2.041,4.562,4.561,4.562c0.001,0,0.001,0,0.001,0c2.52,0,4.561-2.042,4.561-4.562l0.001-13.959
		c6.537-1.219,7.333-3.524,7.333-3.524l-4.666-25.099c0,0,0.653-0.024,0.738-0.024c3.587,0,7.966-0.853,9.433-4.995
		C74.693,39.519,61.586,25.288,53.095,23.236z M42.526,37.873c0-0.66,0.535-1.195,1.194-1.195h3.025v-0.523
		c0-0.66,0.535-1.195,1.194-1.195h5.152c0.661,0,1.195,0.536,1.195,1.195v0.523h3.024c0.66,0,1.195,0.536,1.195,1.195v4.931
		c-0.676-0.135-1.452-0.313-2.38-0.56c-2.191-0.586-4.437,0.718-5.02,2.906c-0.583,2.189,0.718,4.436,2.907,5.02
		c1.698,0.452,3.159,0.762,4.492,0.953v6.912c0,0.659-0.535,1.195-1.195,1.195H43.72c-0.659,0-1.194-0.536-1.194-1.195V37.873z
		 M61.329,43.026V39.18c1.303,1.456,2.336,2.83,2.831,3.848C63.568,43.096,62.658,43.128,61.329,43.026z"/>
</g>
</svg>
