<?xml version="1.0" encoding="utf-8"?>
<!-- Generator: Adobe Illustrator 16.0.0, SVG Export Plug-In . SVG Version: 6.00 Build 0)  -->
<!DOCTYPE svg PUBLIC "-//W3C//DTD SVG 1.1//EN" "http://www.w3.org/Graphics/SVG/1.1/DTD/svg11.dtd">
<svg version="1.1" id="Layer_1" xmlns="http://www.w3.org/2000/svg" xmlns:xlink="http://www.w3.org/1999/xlink" x="0px" y="0px"
	 width="100px" height="100px" viewBox="0 0 100 100" enable-background="new 0 0 100 100" xml:space="preserve">
<g>
	<path d="M49.999,23.716c5.758,0,10.428-4.668,10.428-10.427c0-2.409-0.836-4.609-2.21-6.371h-3.373V5.335h1.852
		c-0.648-0.545-1.353-1.025-2.121-1.401c-0.793-1.739-2.54-2.958-4.573-2.958c-2.032,0-3.776,1.217-4.57,2.954
		c-0.771,0.377-1.478,0.858-2.128,1.405h2.117v1.583h-3.637c-1.374,1.762-2.209,3.962-2.209,6.371
		C39.573,19.048,44.24,23.716,49.999,23.716z M50.001,3.176c1.562,0,2.833,1.271,2.833,2.833c0,1.562-1.271,2.832-2.833,2.832
		s-2.833-1.271-2.833-2.832C47.169,4.446,48.439,3.176,50.001,3.176z"/>
	<path d="M47.479,24.291c-0.009,0.003-0.019,0.006-0.027,0.007c-1.055,0.252-2.08,0.68-3.039,1.226
		c0.572,4.378,3.098,8.343,5.586,8.343c2.492,0,5.022-3.98,5.588-8.367c-0.946-0.526-1.961-0.924-2.991-1.178l-2.598,2.615
		L47.479,24.291z"/>
	<path d="M67.592,61.236v-2.76c1.35-0.554,2.302-1.878,2.302-3.427c0-19.981-10.279-27.235-12.792-28.621
		c-0.754,4.4-3.235,8.521-6.448,9.045c-0.488,2.384,0.358,3.346,1.348,4.424c1.806,1.968,2.836,3.836-0.299,8.997
		c0.222,0.331,0.352,0.729,0.352,1.157c0,1.153-0.935,2.088-2.088,2.088c-1.154,0-2.089-0.935-2.089-2.088s0.935-2.088,2.089-2.088
		c0.114,0,0.224,0.016,0.333,0.033c2.732-4.479,1.728-5.601,0.471-6.97c-1.06-1.155-2.35-2.574-1.812-5.625
		c-3.034-0.73-5.368-4.662-6.115-8.876c-0.093,0.044-0.186,0.084-0.274,0.141c-0.51,0.328-12.486,8.276-12.486,27.865
		c0,2.048,1.66,3.707,3.707,3.707c2.048,0,3.707-1.659,3.707-3.707c0-4.451,0.744-9.598,1.796-12.568v9.11l-3.793,21.431h4.327
		l0.003,21.735c0,2.643,2.142,4.785,4.783,4.784c2.643,0,4.783-2.142,4.783-4.784l-0.001-21.735h0.681L50.074,94.24
		c0,2.643,2.142,4.784,4.783,4.784c2.644,0,4.785-2.142,4.785-4.784l0.001-21.735h3.107v9.621h7.167v-20.89H67.592z M62.751,61.236
		v3.79l-2.113-13.772v-9.397c1.41,3.245,1.842,7.811,1.842,13.193c0,1.658,1.096,3.045,2.597,3.519v2.668H62.751z"/>
</g>
</svg>
