<?xml version="1.0" encoding="utf-8"?>
<!-- Generator: Adobe Illustrator 16.0.4, SVG Export Plug-In . SVG Version: 6.00 Build 0)  -->
<!DOCTYPE svg PUBLIC "-//W3C//DTD SVG 1.1//EN" "http://www.w3.org/Graphics/SVG/1.1/DTD/svg11.dtd">
<svg version="1.1" id="Layer_1" xmlns="http://www.w3.org/2000/svg" xmlns:xlink="http://www.w3.org/1999/xlink" x="0px" y="0px"
	 width="24px" height="20px" viewBox="0 0 24 20" enable-background="new 0 0 24 20" xml:space="preserve">
<path d="M20,0c-0.512,0-0.971,0.181-1.379,0.503L1.83,7.033C1.646,6.701,1.432,6.5,1.2,6.5C0.537,6.5,0,8.067,0,10
	c0,1.934,0.537,3.5,1.2,3.5c0.231,0,0.445-0.199,0.628-0.529l3.105,1.238c0.219,1.607,1.423,3.172,3,3.764
	c0.458,0.16,0.905,0.241,1.327,0.241c0.538,0,1.033-0.132,1.454-0.392c0.374-0.231,0.66-0.564,0.866-0.963L19.2,19.9
	c0,0-0.03-0.037-0.076-0.102C19.396,19.925,19.688,20,20,20c2.748,0,4-5.184,4-10C24,5.184,22.748,0,20,0z M10.188,16.973
	c-0.488,0.301-1.169,0.32-1.913,0.061c-1.006-0.379-1.854-1.34-2.205-2.369l4.585,1.829C10.536,16.689,10.381,16.854,10.188,16.973z
	 M20,18c-0.514,0-2-2.751-2-8c0-5.25,1.486-8,2-8s2,2.75,2,8C22,15.249,20.514,18,20,18z"/>
</svg>
