<?xml version="1.0" encoding="utf-8"?>
<!-- Generator: Adobe Illustrator 16.0.4, SVG Export Plug-In . SVG Version: 6.00 Build 0)  -->
<!DOCTYPE svg PUBLIC "-//W3C//DTD SVG 1.1//EN" "http://www.w3.org/Graphics/SVG/1.1/DTD/svg11.dtd">
<svg version="1.1" id="Layer_1" xmlns="http://www.w3.org/2000/svg" xmlns:xlink="http://www.w3.org/1999/xlink" x="0px" y="0px"
	 width="24px" height="24px" viewBox="0 0 24 24" enable-background="new 0 0 24 24" xml:space="preserve">
<path d="M22,9V1c0-0.434-0.279-0.818-0.693-0.951c-0.41-0.133-0.865,0.016-1.119,0.369C20.141,0.482,15.372,7,8,7H1.8
	c-1,0-1.8,0.8-1.8,1.8v4.401C0,14.201,0.8,15,1.8,15H8c7.372,0,12.141,6.518,12.188,6.582C20.379,21.849,20.684,22,21,22
	c0.104,0,0.205-0.017,0.307-0.049C21.721,21.818,22,21.435,22,21v-8c1.1,0,2-0.9,2-2S23.1,9,22,9z M20,18.354
	c-2.089-2.063-5.898-4.976-11-5.317V8.965c5.102-0.344,8.911-3.254,11-5.319V18.354z M8.9,22.701C9,23.1,8.8,24,7.7,24H5.3
	C4.6,24,4,23.4,4,22.701C4,21.9,3.2,19.4,2,17v-1h3.6c0,0-0.1,3.301,2.3,5C8.6,21.5,8.9,22.201,8.9,22.701z"/>
</svg>
