<?xml version="1.0" encoding="utf-8"?>
<!-- Generator: Adobe Illustrator 16.0.4, SVG Export Plug-In . SVG Version: 6.00 Build 0)  -->
<!DOCTYPE svg PUBLIC "-//W3C//DTD SVG 1.1//EN" "http://www.w3.org/Graphics/SVG/1.1/DTD/svg11.dtd">
<svg version="1.1" id="Layer_1" xmlns="http://www.w3.org/2000/svg" xmlns:xlink="http://www.w3.org/1999/xlink" x="0px" y="0px"
	 width="112px" height="112px" viewBox="0 0 112 112" enable-background="new 0 0 112 112" xml:space="preserve">
<path d="M29.131,15.872c-2.15-3.13-0.965-6.538,3.536-6.538c0.778,0,1.545,0.009,2.296,0.009c4.326,0,8.036-0.252,9.268-3.687
	C45.841,1.18,48.529,0.022,51.334,0c0.02,0,0.042,0,0.061,0l-0.014,4.667c-0.947,0.009-1.838,0.019-2.753,2.567
	c-2.431,6.776-9.733,6.776-13.659,6.776l-1.152-0.004H33.65c2.691,3.306,6.813,8.588,11.926,7.653
	c2.557-0.467,2.953-4.644,5.759-4.667c2.506-0.023,2.935,5.427,7.075,5.54c2.229,0.059,3.966-1.062,5.318-2.498
	c1.377-3.134,3.381-6.511,6.024-10.121l0.164-0.229c-0.31,0.033-0.761,0.117-1.367,0.304c-0.215,0.135-0.448,0.317-0.7,0.499
	c-1.438,1.05-3.611,2.632-6.322,2.632c-1.387,0-4.82-0.485-6.781-4.965c-0.695-1.591-1.844-3.486-3.352-3.486V0
	c2.498,0,5.465,1.344,7.625,6.281c0.705,1.61,1.578,2.17,2.502,2.17c1.918,0,4.051-2.398,5.334-2.823
	c1.324-0.438,2.455-0.63,3.406-0.63c4.891,0,5.123,5.035,3.514,7.308c0,0.001-0.002,0.003-0.002,0.004
	c0.002-0.001,0.004-0.002,0.006-0.004c-0.95,1.334-8.268,10.752-7.567,17.934c0.378,3.873-7.625,5.903-12.577,6.062
	c-0.012,0-0.025,0-0.037,0c-0.271,0.009-0.553,0.014-0.84,0.014c-0.017,0-0.035-0.001-0.052-0.001c-0.092,0-0.188-0.003-0.281-0.004
	c-0.233-0.002-0.468-0.005-0.709-0.014c-0.108-0.003-0.221-0.01-0.331-0.015c-0.232-0.01-0.464-0.021-0.701-0.035
	c-0.117-0.008-0.235-0.018-0.354-0.026c-0.233-0.017-0.468-0.035-0.705-0.056c-0.125-0.011-0.25-0.025-0.375-0.037
	c-0.231-0.023-0.462-0.048-0.694-0.075c-0.132-0.016-0.263-0.033-0.394-0.05c-0.228-0.029-0.453-0.06-0.681-0.093
	c-0.135-0.021-0.27-0.042-0.404-0.063c-0.221-0.035-0.438-0.072-0.656-0.111c-0.137-0.024-0.271-0.05-0.408-0.076
	c-0.213-0.041-0.423-0.084-0.632-0.128c-0.136-0.029-0.271-0.059-0.405-0.09c-0.201-0.046-0.398-0.095-0.596-0.145
	c-0.135-0.034-0.268-0.068-0.4-0.104c-0.188-0.052-0.373-0.105-0.556-0.16c-0.129-0.039-0.258-0.078-0.383-0.118
	c-0.176-0.057-0.345-0.116-0.513-0.176c-0.121-0.043-0.243-0.086-0.36-0.131c-0.162-0.062-0.313-0.128-0.467-0.194
	c-0.11-0.047-0.222-0.094-0.327-0.143c-0.146-0.068-0.281-0.141-0.416-0.212c-0.098-0.051-0.197-0.101-0.288-0.154
	c-0.13-0.076-0.246-0.156-0.364-0.235c-0.078-0.053-0.164-0.104-0.236-0.159c-0.118-0.09-0.219-0.184-0.319-0.277
	c-0.054-0.049-0.116-0.096-0.164-0.146c-0.142-0.146-0.261-0.296-0.356-0.451c-0.17-0.275-0.387-0.631-0.641-1.051
	c-2.455-4.067-8.41-14.197-9.458-15.707C29.13,15.875,29.13,15.874,29.131,15.872z M112,88.666C112,109.285,86.926,112,56,112
	S0,109.285,0,88.666c0-17.4,17.887-41.924,42.057-49.171c4.643,1.428,9.822,1.493,10.705,1.493l1.021-0.019
	c2.852-0.093,7.598-0.803,11.35-2.665C91.705,43.499,112,70.127,112,88.666z M53.598,69.691c0-1.236,0.229-2.227,0.68-2.967
	c0.453-0.742,1.201-1.115,2.24-1.115c1,0,1.778,0.438,2.344,1.311c0.564,0.873,0.85,2.129,0.85,3.762h6.268
	c0-2.754-0.666-4.971-1.996-6.664s-3.164-2.729-5.498-3.113V56.16H55.25v4.657c-2.439,0.279-4.373,1.209-5.8,2.791
	c-1.429,1.582-2.142,3.604-2.142,6.059c0,2.707,0.705,4.787,2.119,6.244c1.413,1.455,3.606,2.758,6.579,3.904
	c1.367,0.725,2.313,1.447,2.843,2.176c0.526,0.729,0.793,1.717,0.793,2.969c0,1.223-0.258,2.195-0.778,2.936
	c-0.523,0.732-1.33,1.102-2.433,1.102c-1.185,0-2.137-0.416-2.842-1.236c-0.705-0.822-1.061-2.199-1.061-4.127h-6.112l-0.046,0.113
	c-0.061,3.131,0.705,5.506,2.296,7.125s3.64,2.566,6.138,2.848v4.344h3.258v-4.367c2.438-0.279,4.362-1.176,5.768-2.701
	c1.404-1.525,2.109-3.553,2.109-6.08c0-2.693-0.725-4.805-2.166-6.334s-3.607-2.822-6.49-3.881c-1.443-0.811-2.418-1.561-2.922-2.25
	C53.857,71.758,53.602,70.836,53.598,69.691z"/>
</svg>
