<?xml version="1.0" encoding="utf-8"?>
<!-- Generator: Adobe Illustrator 17.0.0, SVG Export Plug-In . SVG Version: 6.00 Build 0)  -->
<!DOCTYPE svg PUBLIC "-//W3C//DTD SVG 1.1//EN" "http://www.w3.org/Graphics/SVG/1.1/DTD/svg11.dtd">
<svg version="1.1" id="Layer_1" xmlns="http://www.w3.org/2000/svg" xmlns:xlink="http://www.w3.org/1999/xlink" x="0px" y="0px"
	 width="32px" height="32px" viewBox="0 0 32 32" enable-background="new 0 0 32 32" xml:space="preserve">
<g>
	<path d="M16.314,9.098c2.38,0,4.308-1.996,4.308-4.454c0-2.463-1.928-4.459-4.308-4.459C13.932,0.185,12,2.181,12,4.644
		C12,7.102,13.932,9.098,16.314,9.098z"/>
	<path d="M23.958,12.877c-0.214-0.65-1.436-2.621-4.752-2.639l-6.491,0.017c-3.219-0.18-4.504,1.722-4.705,2.565
		c0,0-2.174,6.941-1.801,8.548c0.231,0.999,1.963,2.22,3.807,3.127L7.56,31.979h17.318l-2.389-7.745
		c1.646-0.871,3.092-1.958,3.301-2.865C26.168,19.742,23.958,12.877,23.958,12.877z M13.41,20.526
		c-0.301,0.134-0.634,0.211-0.983,0.211c-1.354,0-2.45-1.115-2.45-2.487c0-1.374,1.097-2.487,2.45-2.487
		c1.329,0,2.421,1.076,2.457,2.418c0.422-0.302,0.854-0.445,1.178-0.504c0,0.002,0,0.004,0,0.007c0.487-0.092,0.865,0,0.865,0
		c1.633,0.362,5.245,1.964,5.245,1.964s-1.938,2.4-5.458,2.384c-0.092,0-0.182-0.002-0.267-0.005h-0.001
		c-0.324-0.008-0.615-0.029-0.877-0.06C13.907,21.771,13.431,21.151,13.41,20.526z"/>
</g>
</svg>
