<?xml version="1.0" encoding="utf-8"?>
<!-- Generator: Adobe Illustrator 17.0.0, SVG Export Plug-In . SVG Version: 6.00 Build 0)  -->
<!DOCTYPE svg PUBLIC "-//W3C//DTD SVG 1.1//EN" "http://www.w3.org/Graphics/SVG/1.1/DTD/svg11.dtd">
<svg version="1.1" id="Layer_1" xmlns="http://www.w3.org/2000/svg" xmlns:xlink="http://www.w3.org/1999/xlink" x="0px" y="0px"
	 width="32px" height="32px" viewBox="0 0 32 32" enable-background="new 0 0 32 32" xml:space="preserve">
<g>
	<path d="M28.035,4.123c-2.396-2.878-9.158-4.914-14.867-3.285c-6.224,1.775-9.24,5.751-9.455,12.864l-1.924,3.925
		c-0.107,0.219-0.113,0.472-0.02,0.696c0.095,0.225,0.281,0.396,0.512,0.474l1.338,0.429c-0.014,0.551-0.025,1.046-0.033,1.536
		h7.632h3.889c2.172,0,6.278,1.02,6.278,4.822l0.289,3.076c0.024-0.014,0.049-0.024,0.073-0.038
		c2.196-1.273,4.653-2.742,6.097-4.904l-0.787-3.637C30.628,16.599,31.361,8.114,28.035,4.123z"/>
	<path d="M15.103,23.134h-3.326H3.62c0.218,3.352,1.432,4.362,6.456,4.362c0.935,0,1.939-0.174,2.679-0.36l0.006,0.025l1.153,4.736
		c1.894-0.569,3.76-1.244,5.55-2.079l-0.384-4.092C19.076,23.168,15.266,23.134,15.103,23.134z"/>
</g>
</svg>
