<?xml version="1.0" encoding="utf-8"?>
<!-- Generator: Adobe Illustrator 16.0.0, SVG Export Plug-In . SVG Version: 6.00 Build 0)  -->
<!DOCTYPE svg PUBLIC "-//W3C//DTD SVG 1.1//EN" "http://www.w3.org/Graphics/SVG/1.1/DTD/svg11.dtd">
<svg version="1.1" id="Layer_1" xmlns="http://www.w3.org/2000/svg" xmlns:xlink="http://www.w3.org/1999/xlink" x="0px" y="0px"
	 width="126px" height="126px" viewBox="0 0 126 126" enable-background="new 0 0 126 126" xml:space="preserve">
<g>
	<path d="M58.601,20.091C46.277,19.617,8.573,32.699,2.685,37.479c-1.911,1.551-1.135,4.474-0.269,5.455
		c3.525,4.493,29.15-3.731,31.068-4.232c6.02-1.498,24.223-5.452,24.917,0.971c-13.448,0.668-19.365,4.438-19.46,6.519
		c-0.128,2.809,3.107,3.342,5.703,3.585c5.618,0.528,13.061-0.633,19.646,0.299c14.809,2.096,20.24,1.036,30.826-5.495
		c2.092-1.291,7.566-2.224,12.733-2.652v-24.59c-11.064,1.856-24.001,2.854-29.425,2.83C71.813,20.131,65.198,20.345,58.601,20.091z
		"/>
	<path d="M110.448,11.39v33.975H124.5V11.39H110.448z M117.841,20.126c-1.715,0-3.104-1.39-3.104-3.104s1.39-3.104,3.104-3.104
		s3.105,1.39,3.105,3.104S119.556,20.126,117.841,20.126z"/>
	<path d="M70.532,77.729l-3.633-2.979l-3.271,2.979l-3.198-2.906l-4.143,2.906V57.46H31.5v57.15h63V57.46H70.532V77.729z
		 M82.412,90.137l7.433,7.431h-4.646v12.306h-5.572V97.567h-4.644L82.412,90.137z M67.736,97.567v12.306h-5.572V97.567H57.52
		l7.431-7.431l7.431,7.431H67.736z"/>
</g>
</svg>
