<?xml version="1.0" encoding="utf-8"?>
<!-- Generator: Adobe Illustrator 17.0.0, SVG Export Plug-In . SVG Version: 6.00 Build 0)  -->
<!DOCTYPE svg PUBLIC "-//W3C//DTD SVG 1.1//EN" "http://www.w3.org/Graphics/SVG/1.1/DTD/svg11.dtd">
<svg version="1.1" id="Layer_1" xmlns="http://www.w3.org/2000/svg" xmlns:xlink="http://www.w3.org/1999/xlink" x="0px" y="0px"
	 width="32px" height="32px" viewBox="0 0 32 32" enable-background="new 0 0 32 32" xml:space="preserve">
<g>
	<path d="M23.45,6.088V5.015c0-0.598-0.485-1.082-1.082-1.082h-2.154C20.397,3.565,20.5,3.166,20.5,2.735
		c0-1.472-1.197-2.668-2.667-2.668c-1.469,0-2.665,1.196-2.665,2.668c0,0.431,0.103,0.829,0.285,1.197h-2.8
		c-0.597,0-1.082,0.484-1.082,1.082v1.073H7.894c-0.93,0-1.684,0.754-1.684,1.684v22.544C6.21,31.245,6.964,32,7.894,32h19.232
		c0.93,0,1.684-0.755,1.684-1.685V7.772c0-0.93-0.754-1.684-1.684-1.684H23.45z M16.246,2.735c0-0.878,0.712-1.59,1.587-1.59
		c0.877,0,1.589,0.71,1.589,1.59c0,0.477-0.212,0.934-0.545,1.197H16.79C16.457,3.67,16.246,3.213,16.246,2.735z M26.656,28.746
		c0,0.607-0.492,1.1-1.099,1.1H9.463c-0.607,0-1.099-0.492-1.099-1.1V9.342c0-0.607,0.492-1.099,1.099-1.099h2.108v0.021
		c0,0.597,0.484,1.082,1.082,1.082h9.715c0.598,0,1.083-0.485,1.083-1.082V8.243h2.107c0.607,0,1.099,0.491,1.099,1.099V28.746z"/>
	<path d="M19.923,17.851c0.144-0.152,0.222-0.356,0.215-0.566c-0.006-0.21-0.095-0.408-0.248-0.553l-0.416-0.392
		c-0.318-0.301-0.819-0.286-1.119,0.032l-0.892,0.946l-0.946-0.894c-0.153-0.145-0.357-0.223-0.567-0.216
		c-0.21,0.006-0.409,0.096-0.553,0.248l-0.394,0.418c-0.299,0.318-0.285,0.818,0.033,1.118l0.946,0.893l-0.892,0.945
		c-0.144,0.152-0.222,0.356-0.216,0.566c0.006,0.21,0.096,0.408,0.248,0.553l0.416,0.393c0.318,0.3,0.819,0.285,1.119-0.033
		l0.893-0.946l0.945,0.892c0.153,0.144,0.356,0.222,0.566,0.216c0.21-0.007,0.409-0.096,0.553-0.248l0.393-0.417
		c0.3-0.318,0.286-0.818-0.033-1.119l-0.945-0.892L19.923,17.851z"/>
	<path d="M17.507,10.95c-4.346,0-7.881,3.539-7.881,7.892c0,4.351,3.535,7.893,7.881,7.893c4.347,0,7.882-3.542,7.882-7.893
		C25.389,14.489,21.854,10.95,17.507,10.95z M17.507,24.576c-3.156,0-5.726-2.572-5.726-5.734c0-3.163,2.569-5.736,5.726-5.736
		c3.158,0,5.727,2.573,5.727,5.736C23.234,22.004,20.665,24.576,17.507,24.576z"/>
</g>
</svg>
