<?xml version="1.0" encoding="utf-8"?>
<!-- Generator: Adobe Illustrator 16.0.4, SVG Export Plug-In . SVG Version: 6.00 Build 0)  -->
<!DOCTYPE svg PUBLIC "-//W3C//DTD SVG 1.1//EN" "http://www.w3.org/Graphics/SVG/1.1/DTD/svg11.dtd">
<svg version="1.1" id="Layer_1" xmlns="http://www.w3.org/2000/svg" xmlns:xlink="http://www.w3.org/1999/xlink" x="0px" y="0px"
	 width="24.032px" height="22.02px" viewBox="0 0 24.032 22.02" enable-background="new 0 0 24.032 22.02" xml:space="preserve">
<path d="M16,0.32c0.5-0.6,4.199-0.6,4.699,2.2c0.801,0,4.6,1.7,2.899,6.5c0,0,0.601-4.9-3.699-5.8C20.1,1.22,17,0.119,16,0.32z
	 M16.4,6.419c3,0.4,4.199,0.7,4.601,2.5c0.199-2.6-2.201-3.1-4.301-3.399c-5.5-0.601-4-5.2-3.9-5.5
	C12.5,0.32,9.899,5.619,16.4,6.419z M18,14.02v-4H11l-8-8H1L21,22.02h2l-8-8H18z M0,10.02v4h11l-4-4H0z M22,14.02h2v-4h-2V14.02z
	 M19,14.02h2v-4h-2V14.02z"/>
</svg>
