<?xml version="1.0" encoding="utf-8"?>
<!-- Generator: Adobe Illustrator 16.0.4, SVG Export Plug-In . SVG Version: 6.00 Build 0)  -->
<!DOCTYPE svg PUBLIC "-//W3C//DTD SVG 1.1//EN" "http://www.w3.org/Graphics/SVG/1.1/DTD/svg11.dtd">
<svg version="1.1" id="Layer_1" xmlns="http://www.w3.org/2000/svg" xmlns:xlink="http://www.w3.org/1999/xlink" x="0px" y="0px"
	 width="93.333px" height="74.667px" viewBox="0 0 93.333 74.667" enable-background="new 0 0 93.333 74.667" xml:space="preserve">
<path d="M93.333,37.333c0,20.417-16.416,36.999-36.765,37.305c13.511-6.984,22.765-21.055,22.765-37.305
	c0-16.25-9.254-30.318-22.765-37.305C76.917,0.335,93.333,16.917,93.333,37.333z M37.333,74.667C16.721,74.667,0,57.947,0,37.333
	C0,16.721,16.721,0,37.333,0c20.612,0,37.334,16.72,37.334,37.333C74.667,57.947,57.945,74.667,37.333,74.667z M41.976,20.282
	c0,0-9.534,4.25-18.569,5.258v7.051h9.329V56h9.24V20.282z"/>
</svg>
