<?xml version="1.0" encoding="utf-8"?>
<!-- Generator: Adobe Illustrator 17.0.0, SVG Export Plug-In . SVG Version: 6.00 Build 0)  -->
<!DOCTYPE svg PUBLIC "-//W3C//DTD SVG 1.1//EN" "http://www.w3.org/Graphics/SVG/1.1/DTD/svg11.dtd">
<svg version="1.1" id="Layer_1" xmlns="http://www.w3.org/2000/svg" xmlns:xlink="http://www.w3.org/1999/xlink" x="0px" y="0px"
	 width="32px" height="32px" viewBox="0 0 32 32" enable-background="new 0 0 32 32" xml:space="preserve">
<g>
	<path d="M16.002,7.214c2.897,0,5.578,0.933,7.758,2.516c0.42,0.305,0.979,0.336,1.431,0.08c0.451-0.257,0.711-0.753,0.664-1.27
		l-0.368-4.061c-0.118-1.298-0.94-2.431-2.138-2.943C21.056,0.555,18.582,0,16.002,0c-2.598,0-5.087,0.616-7.392,1.67
		C7.466,2.193,6.685,3.284,6.556,4.536L6.144,8.527C6.091,9.047,6.348,9.549,6.801,9.81c0.452,0.26,1.016,0.229,1.438-0.077
		C10.418,8.148,13.102,7.214,16.002,7.214z M13.923,2.932h1.311v-1.31h1.603v1.31h1.164v1.604h-1.164V5.7h-1.603V4.535h-1.311V2.932
		z"/>
	<path d="M13.418,22.61c-0.198-0.348-0.641-0.473-0.987-0.279l-3.896,2.175c-0.35,0.195-0.476,0.637-0.279,0.987
		c0.133,0.236,0.379,0.371,0.633,0.371c0.121,0,0.242-0.029,0.354-0.093l3.896-2.174C13.485,23.401,13.613,22.96,13.418,22.61z"/>
	<path d="M13.536,25.492l-2.443,1.268c-0.357,0.184-0.495,0.622-0.312,0.979c0.13,0.247,0.383,0.391,0.645,0.391
		c0.113,0,0.226-0.024,0.334-0.081l2.446-1.269c0.354-0.186,0.495-0.623,0.31-0.979C14.33,25.447,13.894,25.307,13.536,25.492z"/>
	<path d="M22.924,24.506l-3.897-2.175c-0.347-0.193-0.789-0.068-0.986,0.279c-0.194,0.35-0.068,0.791,0.278,0.987l3.896,2.174
		c0.111,0.063,0.233,0.093,0.353,0.093c0.253,0,0.499-0.135,0.633-0.371C23.398,25.143,23.272,24.701,22.924,24.506z"/>
	<path d="M20.368,26.76l-2.446-1.268c-0.357-0.186-0.792-0.045-0.978,0.309c-0.185,0.355-0.046,0.793,0.309,0.979l2.446,1.269
		c0.108,0.057,0.222,0.081,0.334,0.081c0.262,0,0.515-0.144,0.645-0.391C20.86,27.382,20.723,26.944,20.368,26.76z"/>
	<path d="M28.064,15.026c-0.383-0.155-0.783-0.242-1.172-0.242c-0.246,0-0.486,0.034-0.717,0.097
		c-1.978-3.584-5.791-6.014-10.174-6.014c-4.384,0-8.2,2.431-10.176,6.017c-0.233-0.064-0.478-0.1-0.728-0.1
		c-0.384,0-0.778,0.084-1.155,0.234c-1.329,0.533-2.433,1.907-1.987,3.412c0.296,1.007,0.555,1.75,0.838,2.296
		c0.434,0.841,0.93,1.204,1.704,1.312c0.075,0.555,0.188,1.096,0.338,1.624c1.385,4.863,5.857,8.426,11.167,8.426
		c5.222,0,9.639-3.447,11.099-8.191c0.185-0.601,0.318-1.223,0.405-1.861c0.775-0.111,1.269-0.484,1.705-1.339
		c0.278-0.542,0.533-1.279,0.824-2.267C30.477,16.932,29.386,15.564,28.064,15.026z M16.002,30.64c-4.721,0-8.699-3.234-9.835-7.604
		l6.031-2.604c0.92-0.397,1.912-0.601,2.914-0.601h1.854c1.111,0,2.209,0.252,3.209,0.736l5.592,2.712
		C24.548,27.523,20.634,30.64,16.002,30.64z"/>
</g>
</svg>
