<?xml version="1.0" encoding="utf-8"?>
<!-- Generator: Adobe Illustrator 16.0.4, SVG Export Plug-In . SVG Version: 6.00 Build 0)  -->
<!DOCTYPE svg PUBLIC "-//W3C//DTD SVG 1.1//EN" "http://www.w3.org/Graphics/SVG/1.1/DTD/svg11.dtd">
<svg version="1.1" id="Layer_1" xmlns="http://www.w3.org/2000/svg" xmlns:xlink="http://www.w3.org/1999/xlink" x="0px" y="0px"
	 width="112px" height="112px" viewBox="0 0 112 112" enable-background="new 0 0 112 112" xml:space="preserve">
<path d="M50.965,63.84c0.555,0.541,0.831,1.293,0.831,2.25c0,1.003-0.28,1.744-0.84,2.23c-0.56,0.494-1.456,0.731-2.679,0.731h-3.08
	v-6.024h3.242C49.574,63.027,50.414,63.303,50.965,63.84z M97.011,66.99L104.496,84l-18.471,2.025L84,104.496l-17.01-7.48L56,112
	L45.01,97.011L28,104.496l-2.025-18.471L7.504,84l7.48-17.01L0,56l14.988-10.99L7.504,28l18.471-2.025L28,7.504l17.01,7.481L56,0
	l10.99,14.989L84,7.504l2.025,18.471L104.496,28l-7.48,17.01L112,56L97.011,66.99z M39.605,60.484H27.889v18.998h3.051V71.38h7.379
	v-2.547h-7.379v-5.808h8.662h0.004V60.484z M55.748,79.18c-0.312-0.275-0.537-0.678-0.667-1.209s-0.201-1.072-0.201-1.629V74.76
	c0-1.129-0.233-2.076-0.687-2.842c-0.457-0.77-1.198-1.316-2.229-1.661c0.938-0.425,1.652-0.993,2.142-1.704
	c0.496-0.713,0.737-1.559,0.737-2.537c0-1.773-0.556-3.142-1.671-4.098c-1.115-0.957-2.691-1.438-4.727-1.438h-6.301v18.998h3.053
	v-7.884h3.607c0.932,0,1.67,0.289,2.206,0.863c0.542,0.574,0.812,1.351,0.812,2.324v1.526c0,0.605,0.048,1.217,0.141,1.823
	c0.094,0.611,0.303,1.06,0.639,1.349h3.142h0.005V79.18L55.748,79.18z M60.709,51.59V23.744l-14.188,4.984v4.009h4.695V51.59H60.709
	z M70.027,76.949h-8.445v-6.016h7.168v-2.539h-7.168v-5.361h8.357v-2.549H58.525v18.998h11.502V76.949z M84.279,79.482v-2.533
	h-8.445v-6.016h7.168v-2.539h-7.168v-5.361h8.361v-2.549H72.781v18.998H84.279z"/>
</svg>
