<?xml version="1.0" encoding="utf-8"?>
<!-- Generator: Adobe Illustrator 17.0.0, SVG Export Plug-In . SVG Version: 6.00 Build 0)  -->
<!DOCTYPE svg PUBLIC "-//W3C//DTD SVG 1.1//EN" "http://www.w3.org/Graphics/SVG/1.1/DTD/svg11.dtd">
<svg version="1.1" id="Layer_1" xmlns="http://www.w3.org/2000/svg" xmlns:xlink="http://www.w3.org/1999/xlink" x="0px" y="0px"
	 width="32px" height="32px" viewBox="0 0 32 32" enable-background="new 0 0 32 32" xml:space="preserve">
<g>
	<path d="M18.838,13.201l7.918-10.087c0.18-0.23,0.171-0.554-0.019-0.772c-0.194-0.219-0.514-0.268-0.764-0.118l-5.959,3.546
		c-2.408,1.431-4.434,3.415-5.92,5.785l1.871,1.645H18.838z"/>
	<path d="M12.799,19.176l-1.919-2.028l-1.628,2.846c-0.471-0.139-0.966-0.21-1.471-0.21c-1.618,0-3.118,0.729-4.117,2.001
		c-1.778,2.268-1.381,5.561,0.887,7.341c0.928,0.73,2.044,1.116,3.224,1.116c1.619,0,3.119-0.727,4.117-1.999
		c1.478-1.885,1.454-4.475,0.103-6.319l2.109-2.688L12.799,19.176z M10.253,26.958c-1.039,1.32-3.089,1.576-4.416,0.529
		c-1.367-1.069-1.605-3.054-0.535-4.419c0.601-0.765,1.504-1.204,2.479-1.204c0.71,0,1.381,0.233,1.943,0.673
		C11.087,23.608,11.326,25.592,10.253,26.958z"/>
	<path d="M32.085,15.126c-0.045-0.287-0.291-0.502-0.579-0.509l-15.911-0.394h-0.021l-5.418-4.592
		c0.369-0.807,0.526-1.7,0.446-2.608c-0.12-1.392-0.775-2.651-1.845-3.55C7.813,2.681,6.62,2.245,5.392,2.245
		c-1.546,0-3.007,0.68-4.005,1.864c-1.851,2.209-1.564,5.513,0.64,7.367c0.941,0.792,2.136,1.227,3.364,1.227
		c0.875,0,1.721-0.219,2.471-0.62l0,0l5.382,6.047c0.5,0.029,13.152,0.35,13.9-0.002l4.546-2.34
		C31.964,15.691,32.131,15.413,32.085,15.126z M7.8,9.501c-1.072,1.275-3.151,1.459-4.435,0.382
		C2.039,8.768,1.868,6.776,2.981,5.447c0.6-0.712,1.479-1.121,2.411-1.121c0.74,0,1.459,0.263,2.025,0.74
		c0.644,0.541,1.037,1.298,1.112,2.135C8.6,8.039,8.342,8.856,7.8,9.501z M15.377,16.435c-0.409,0.558-1.178,0.692-1.752,0.321
		h-0.002c-0.021-0.014-0.043-0.027-0.065-0.042c-0.219-0.162-0.373-0.38-0.456-0.62c-0.132-0.39-0.08-0.836,0.183-1.193
		c0.425-0.579,1.237-0.701,1.812-0.276c0.006,0.003,0.011-0.002,0.016,0.002c0.288,0.218,0.46,0.539,0.504,0.871
		C15.66,15.817,15.585,16.156,15.377,16.435z"/>
</g>
</svg>
