<?xml version="1.0" encoding="utf-8"?>
<!-- Generator: Adobe Illustrator 16.0.0, SVG Export Plug-In . SVG Version: 6.00 Build 0)  -->
<!DOCTYPE svg PUBLIC "-//W3C//DTD SVG 1.1//EN" "http://www.w3.org/Graphics/SVG/1.1/DTD/svg11.dtd">
<svg version="1.1" id="Layer_1" xmlns="http://www.w3.org/2000/svg" xmlns:xlink="http://www.w3.org/1999/xlink" x="0px" y="0px"
	 width="100px" height="100px" viewBox="0 0 100 100" enable-background="new 0 0 100 100" xml:space="preserve">
<g>
	<circle cx="68.414" cy="28.354" r="9.281"/>
	<path d="M93.346,94.052l-0.355-1.324l-1.355-5.042l-1.397-5.233l-3.89-14.843c-0.148-0.559-0.414-1.058-0.75-1.495
		c0.045,0,0.09,0.003,0.137,0.003c1.988,0,3.602-1.613,3.602-3.603c0-1.989-1.613-3.603-3.602-3.603
		c-5.432,0-8.93-2.24-10.742-13.689c-0.043-0.26-0.111-0.508-0.205-0.744c-0.449-3.334-3.512-5.569-6.377-6.271
		c0,0-0.975-0.293-2.014-0.27c-0.996,0.023-2.105,0.253-2.105,0.253l-0.027,0.003c-3.121,0.765-6.447,3.309-6.447,7.126v11.207
		c-0.345,0.004-0.691,0.006-1.037,0.005l-1.686-11.955c-0.215-1.614-1.705-2.747-3.313-2.532c-1.615,0.214-2.748,1.697-2.531,3.312
		l1.189,8.562l0.298,2.143c-2.742-0.528-5.201-1.61-6.935-3.788c-1.329-1.738-1.305-3.301-1.279-4.955
		c0.033-2.139,0.068-4.352-3.085-6.529c-0.958-0.657-1.799-1.157-2.542-1.599c-2.641-1.571-3.846-2.289-4.497-6.564
		c-0.431-2.799-0.514-5.548-0.274-8.845h0.331v-2.916h0.631c1.18,0,2.135-0.956,2.135-2.135V8.455c0-1.178-0.955-2.135-2.135-2.135
		h-1.684c0.018-0.162,0.027-0.332,0.027-0.508c0-0.13-0.01-0.254-0.018-0.376h0.445c1.539,0,2.791-1.252,2.791-2.79H33.7
		c0,1.015-0.826,1.84-1.84,1.84h-0.631c-0.217-0.614-0.598-0.989-1.066-0.989s-0.848,0.375-1.066,0.989h-7.125V0.704h-2.85v3.781
		h-9.82c-1.016,0-1.84-0.825-1.84-1.84H6.51c0,1.538,1.252,2.79,2.791,2.79h9.82v81.957l-0.056,0.112h-1.893
		c-3.066,0-5.688,1.912-6.756,4.604c-1.147,0.348-1.988,1.402-1.988,2.664c0,1.545,1.252,2.798,2.797,2.798
		c1.546,0,2.797-1.252,2.797-2.798c0-0.743-0.293-1.413-0.763-1.913c0.712-1.451,2.189-2.461,3.913-2.461h5.485h1.031
		c1.724,0,3.201,1.01,3.914,2.461c-0.47,0.5-0.764,1.17-0.764,1.913c0,1.545,1.251,2.798,2.797,2.798
		c1.545,0,2.797-1.252,2.797-2.798c0-1.262-0.841-2.316-1.988-2.664c-1.067-2.692-3.69-4.604-6.756-4.604h-0.907h-0.811V5.436h6.941
		c-0.01,0.123-0.02,0.246-0.02,0.376c0,0.177,0.01,0.346,0.027,0.508h-1.682c-1.18,0-2.135,0.957-2.135,2.135v10.277
		c0,1.179,0.955,2.135,2.135,2.135h0.592v1.286h1.621v-1.286h1.383v2.916h0.289c-0.239,3.342-0.15,6.141,0.289,8.996
		c0.722,4.742,2.232,5.641,4.974,7.272c0.729,0.434,1.556,0.926,2.486,1.564c2.712,1.873,2.685,3.641,2.652,5.689
		c-0.026,1.67-0.056,3.563,1.491,5.585c1.998,2.509,4.794,3.688,7.869,4.225l1.971,14.166c-1.596,2.665-2.516,5.777-2.516,9.102
		c0,9.799,7.971,17.77,17.77,17.77c6.475,0,12.15-3.481,15.256-8.67l0.002,0.005c0.023-0.066,0.052-0.131,0.077-0.198l1.884,6.98
		c0.625,2.185,2.881,3.475,5.08,2.883C92.629,98.555,93.943,96.272,93.346,94.052z M30.448,6.32h-0.568
		C29.858,6.169,29.844,6,29.844,5.812c0-0.141,0.016-0.256,0.027-0.376h0.584c0.012,0.12,0.027,0.235,0.027,0.376
		C30.483,6,30.469,6.169,30.448,6.32z M72.789,60.563c1.852,1.644,3.939,3.071,6.297,4.24l-6.297-0.029V60.563z M57.816,57.529
		v6.363l-0.896-6.357C57.219,57.534,57.519,57.533,57.816,57.529z M68.109,92.092c-6.455,0-11.709-5.252-11.709-11.709
		c0-1.468,0.283-2.868,0.779-4.163c0.209,0.031,0.42,0.053,0.637,0.053h21.242c0.484,1.281,0.762,2.663,0.762,4.11
		C79.82,86.839,74.566,92.092,68.109,92.092z"/>
</g>
</svg>
