<?xml version="1.0" encoding="utf-8"?>
<!-- Generator: Adobe Illustrator 16.0.4, SVG Export Plug-In . SVG Version: 6.00 Build 0)  -->
<!DOCTYPE svg PUBLIC "-//W3C//DTD SVG 1.1//EN" "http://www.w3.org/Graphics/SVG/1.1/DTD/svg11.dtd">
<svg version="1.1" id="Layer_1" xmlns="http://www.w3.org/2000/svg" xmlns:xlink="http://www.w3.org/1999/xlink" x="0px" y="0px"
	 width="111.154px" height="112px" viewBox="0 0 111.154 112" enable-background="new 0 0 111.154 112" xml:space="preserve">
<path d="M110.359,53.592c-3.911,18.299-18.515,29.064-35.984,29.064H56.126L49.868,112H24.313l2.78-12.801h0.178h6.912l1.441-6.758
	l4.816-22.586h11.34c7.148,0,13.791-1.465,19.674-4.153h0.309c6.076,0,12.102-4.7,14.164-10.79
	c4.904-5.656,8.441-12.726,10.183-20.878c0.672-3.146,0.93-6.006,0.946-8.675C106.288,29.055,113.644,38.201,110.359,53.592z
	 M25.55,88.561H0L19.292,0h43.544c12.777,0,27.637,9.427,23.208,30.151c-3.906,18.298-18.513,29.063-35.98,29.063H31.813
	L25.55,88.561z M35.467,42.261h11.989c6.521,0,13.04-5.376,14.603-12.11c1.824-6.725-2.348-12.115-8.606-12.115H40.941
	L35.467,42.261z"/>
</svg>
