<?xml version="1.0" encoding="utf-8"?>
<!-- Generator: Adobe Illustrator 16.0.0, SVG Export Plug-In . SVG Version: 6.00 Build 0)  -->
<!DOCTYPE svg PUBLIC "-//W3C//DTD SVG 1.1//EN" "http://www.w3.org/Graphics/SVG/1.1/DTD/svg11.dtd">
<svg version="1.1" id="Layer_1" xmlns="http://www.w3.org/2000/svg" xmlns:xlink="http://www.w3.org/1999/xlink" x="0px" y="0px"
	 width="100px" height="100px" viewBox="0 0 100 100" enable-background="new 0 0 100 100" xml:space="preserve">
<g>
	<path d="M89.438,61.472H11.409c-1.825,0-3.306,1.48-3.306,3.306c0,1.827,1.48,3.307,3.306,3.307h9.126v3.603h12.828v18.219h-9.125
		v4.497h2.698c-0.025,0.174-0.054,0.348-0.054,0.529c0,2.045,1.658,3.703,3.703,3.703s3.703-1.658,3.703-3.703
		c0-0.181-0.028-0.355-0.054-0.529h32.377c-0.026,0.174-0.054,0.348-0.054,0.529c0,2.045,1.658,3.703,3.703,3.703
		c2.044,0,3.702-1.658,3.702-3.703c0-0.181-0.027-0.355-0.054-0.529h2.568v-4.497H66.161V71.687h12.564v-3.603h10.712
		c1.826,0,3.307-1.48,3.307-3.307C92.744,62.952,91.264,61.472,89.438,61.472z"/>
	<path d="M33.662,46.702c-2.397,0.703-4.018,3.029-4.574,5.227c0,0-0.019,0.061-0.045,0.163c-0.531-3.827-3.793-6.79-7.772-6.819
		c-4.369-0.032-7.94,3.486-7.972,7.857c-0.032,4.371,3.485,7.94,7.853,7.974c3.82,0.027,7.024-2.651,7.798-6.24
		c0.05,0.343,0.098,0.58,0.098,0.58l0.004,0.024c0.632,2.665,2.78,5.519,6.037,5.542l17.472,0.129
		c2.159,0.015,3.857-1.197,4.929-2.888l26.386,0.064c0.004,0,0.004,0,0.013,0c2.306,0,4.181-1.869,4.189-4.179
		c0.004-2.315-1.867-4.196-4.182-4.201l-23.107-0.057c0.302,0.436,0.534,0.934,0.636,1.484c0.407,2.117-0.987,4.171-3.103,4.578
		c-0.33,0.063-8.096,1.536-15.682,1.536c-2.451,0-4.633-0.156-6.525-0.46c0.006-0.039,0.013-0.077,0.018-0.117
		c0.008-0.237,0.034-0.472,0.063-0.705c2.039,0.341,4.292,0.475,6.559,0.475c7.483,0,15.096-1.438,15.522-1.521
		c1.667-0.319,2.761-1.93,2.442-3.595c-0.318-1.667-1.929-2.759-3.594-2.44c-0.128,0.023-11.809,2.226-19.453,1.093
		c0.058-0.277,0.108-0.556,0.146-0.838c1.378,0.195,2.979,0.293,4.785,0.293c6.088,0,12.602-1.106,13.988-1.357
		c-0.353-0.359-0.749-0.673-1.184-0.933c2.634-3.341,3.186-6.723,3.064-9.244c-0.267-5.514-3.798-12.673-12.24-16.238l-2.151,2.167
		l-2.089-2.19c-0.006,0.001-0.013,0.001-0.021,0.003c-1.319,0.315-11.498,4.335-12.807,14.882
		C29.039,39.331,29.796,43.009,33.662,46.702z M47.34,44.871c2.479-1.871,3.58-3.859,3.464-6.254
		c-0.142-2.946-1.285-6.287-3.46-8.106l0.276,0.09c2.131,1.969,4.008,4.932,4.148,7.851c0.126,2.612-1.145,4.887-3.885,6.955
		c-0.42,0.318-0.723,0.722-0.938,1.164l-0.935-0.007C46.307,45.904,46.747,45.318,47.34,44.871z M39.687,30.91l0.196-0.058
		c-2.209,1.735-2.762,4.211-2.868,6.397c-0.083,1.719,1.057,3.482,3.387,5.241c1.298,0.98,1.87,2.538,1.683,4.044l-1.209-0.009
		c0.328-1.269-0.092-2.66-1.204-3.499c-2.621-1.979-3.901-3.98-3.807-5.951C35.968,34.938,37.636,32.681,39.687,30.91z"/>
	<path d="M36.537,16.277c0-2.909,2.357-5.268,5.269-5.268h4.058c2.91,0,5.268,2.359,5.268,5.268c0,0.698-0.143,1.361-0.388,1.97
		c1.233-1.494,1.976-3.409,1.976-5.499c0-4.771-3.87-8.64-8.641-8.64c-4.771,0-8.639,3.869-8.639,8.64
		c0,1.586,0.435,3.068,1.181,4.346C36.577,16.826,36.537,16.557,36.537,16.277z"/>
	<path d="M45.779,11.548h-3.708c-2.662,0-4.817,2.156-4.817,4.816c0,2.661,2.155,4.816,4.817,4.816h3.708
		c2.66,0,4.815-2.156,4.815-4.816C50.595,13.704,48.439,11.548,45.779,11.548z"/>
	<path d="M20.154,20.982c7.083,0,12.83-2.189,12.895-4.9c0,0.016,0.004,0.03,0.004,0.046v-3.93c0-3.256-5.293-4.418-11.245-4.856
		V1.366h-2.974V7.32C12.715,7.707,7.256,8.898,7.256,12.198v3.93c0-0.016,0.003-0.031,0.003-0.046
		C7.324,18.793,13.071,20.982,20.154,20.982z M11.697,14.264c2.197-0.842,5.28-1.326,8.457-1.326c3.178,0,6.261,0.483,8.458,1.326
		c1.977,0.758,2.592,1.564,2.592,1.771c0,0.208-0.615,1.013-2.592,1.771c-2.197,0.843-5.28,1.327-8.458,1.327
		c-3.177,0-6.26-0.483-8.457-1.327c-1.979-0.758-2.592-1.563-2.592-1.771C9.105,15.828,9.719,15.022,11.697,14.264z"/>
	<ellipse cx="20.32" cy="14.143" rx="3.144" ry="0.835"/>
	<ellipse cx="20.32" cy="17.782" rx="3.144" ry="0.835"/>
	<ellipse cx="15.498" cy="16.084" rx="3.144" ry="0.835"/>
	<ellipse cx="25.292" cy="16.083" rx="3.144" ry="0.835"/>
</g>
</svg>
