<?xml version="1.0" encoding="utf-8"?>
<!-- Generator: Adobe Illustrator 17.0.0, SVG Export Plug-In . SVG Version: 6.00 Build 0)  -->
<!DOCTYPE svg PUBLIC "-//W3C//DTD SVG 1.1//EN" "http://www.w3.org/Graphics/SVG/1.1/DTD/svg11.dtd">
<svg version="1.1" id="Layer_1" xmlns="http://www.w3.org/2000/svg" xmlns:xlink="http://www.w3.org/1999/xlink" x="0px" y="0px"
	 width="32px" height="32px" viewBox="0 0 32 32" enable-background="new 0 0 32 32" xml:space="preserve">
<g>
	<path d="M31.665,23.714v-1.491c0-1.511-0.577-2.4-1.068-2.879c-0.943-0.923-2.099-0.939-2.279-0.939H28.06l3.002-11.646
		c0.128-0.495,0.02-1.022-0.294-1.425c-0.313-0.404-0.796-0.641-1.308-0.641H12.104c-0.48,0-0.937,0.209-1.252,0.573
		c-0.313,0.364-0.454,0.847-0.383,1.322l1.753,11.809l-1.365-0.001c-0.773-0.001-1.431-0.57-1.541-1.336L7.755,6.238
		C7.605,5.2,6.833,4.359,5.811,4.122L2.113,3.263C1.387,3.094,0.66,3.546,0.491,4.273C0.391,4.704,0.466,5.157,0.7,5.533
		c0.233,0.376,0.607,0.644,1.039,0.744l1.377,0.319C4.138,6.834,4.91,7.675,5.06,8.714L6.7,20.08
		c0.11,0.766,0.768,1.335,1.542,1.335l20.113,0.012c0,0,0.105,0.037,0.147,0.078c0.079,0.079,0.175,0.308,0.175,0.718v1.554
		l-0.004,0.136c0.012,0.16-0.038,0.429-0.108,0.502c-0.017,0.017-0.122,0.074-0.368,0.074h-0.5c-0.001-0.005-0.003-0.01-0.005-0.016
		c-0.587-1.355-1.938-2.308-3.508-2.308c-1.569,0-2.921,0.952-3.508,2.308c0,0.006-0.004,0.011-0.005,0.016H14.56
		c-0.002-0.005-0.004-0.01-0.007-0.016c-0.587-1.355-1.938-2.308-3.506-2.308c-1.57,0-2.92,0.952-3.508,2.308
		c-0.003,0.006-0.004,0.011-0.005,0.016H7.153v2.99h0.378c0.004,0.005,0.005,0.011,0.008,0.017c0.588,1.357,1.937,2.31,3.508,2.31
		c1.568,0,2.919-0.953,3.506-2.31c0.003-0.006,0.005-0.012,0.007-0.017h6.11c0.003,0.005,0.006,0.011,0.007,0.017
		c0.587,1.357,1.938,2.31,3.508,2.31c1.57,0,2.921-0.953,3.508-2.31c0.002-0.006,0.005-0.012,0.006-0.017h0.499
		c1.364,0,2.167-0.574,2.605-1.062C31.705,25.414,31.731,24.14,31.665,23.714z M17.185,10.539h2.06V8.481h2.724v2.059h2.126v2.724
		h-2.126v2.059h-2.724v-2.059h-2.06V10.539z M7.229,25.735c-0.006,0.083-0.008,0.166-0.008,0.249c0-0.001,0-0.001,0-0.001
		C7.222,25.9,7.224,25.818,7.229,25.735z M12.031,27.495c-0.283,0.186-0.621,0.294-0.984,0.294c-0.365,0-0.703-0.108-0.987-0.294
		c-0.492-0.322-0.817-0.879-0.817-1.511c0-0.633,0.325-1.188,0.817-1.512c0.284-0.185,0.622-0.293,0.987-0.293
		c0.363,0,0.701,0.108,0.984,0.293c0.494,0.323,0.82,0.879,0.82,1.512C12.852,26.616,12.525,27.173,12.031,27.495z M25.172,27.495
		c-0.285,0.186-0.624,0.294-0.987,0.294c-0.362,0-0.702-0.108-0.986-0.294c-0.492-0.322-0.817-0.879-0.817-1.511
		c0-0.633,0.325-1.188,0.817-1.512c0.284-0.185,0.624-0.293,0.986-0.293c0.363,0,0.702,0.108,0.987,0.293
		c0.492,0.323,0.817,0.879,0.817,1.512C25.989,26.616,25.664,27.173,25.172,27.495z"/>
</g>
</svg>
