<?xml version="1.0" encoding="utf-8"?>
<!-- Generator: Adobe Illustrator 17.0.0, SVG Export Plug-In . SVG Version: 6.00 Build 0)  -->
<!DOCTYPE svg PUBLIC "-//W3C//DTD SVG 1.1//EN" "http://www.w3.org/Graphics/SVG/1.1/DTD/svg11.dtd">
<svg version="1.1" id="Layer_1" xmlns="http://www.w3.org/2000/svg" xmlns:xlink="http://www.w3.org/1999/xlink" x="0px" y="0px"
	 width="32px" height="32px" viewBox="0 0 32 32" enable-background="new 0 0 32 32" xml:space="preserve">
<g>
	<path fill="none" d="M6.602,30.164c0.003-0.005,0.004-0.008,0.005-0.012L6.39,30.527C6.46,30.422,6.531,30.301,6.602,30.164z"/>
	<path d="M27.084,4.889c-0.748-0.973-1.7-1.778-2.729-2.411c-0.521-0.315-1.053-0.579-1.616-0.809
		c-0.28-0.104-0.634-0.246-0.858-0.311l-0.367-0.113l-0.241-0.071L21.06,1.122c-1.13-0.284-2.337-0.436-3.574-0.374
		c-1.22,0.082-2.562-0.046-3.983,0.183c-1.412,0.213-2.709,0.993-3.425,2.16c-0.671,1.173-1.151,3.707,0.396,4.573
		c1.153,0.516,3.163-0.114,3.903-0.411c0.7-0.301,1.067-0.753,1.49-1.438c0.418-0.659,1.08-1.311,1.894-1.382
		c0.803-0.087,1.648-0.025,2.503,0.146l0.161,0.03c-0.055-0.018,0.089,0.021,0.126,0.03l0.371,0.096
		c0.267,0.064,0.387,0.123,0.591,0.18c0.385,0.135,0.781,0.305,1.143,0.502c0.725,0.398,1.388,0.896,1.919,1.519
		c1.092,1.222,1.646,2.906,1.63,4.621c-0.025,1.719-0.609,3.459-1.645,4.903c-0.132,0.177-0.259,0.361-0.41,0.526l-0.202,0.238
		L23.688,17.5c-0.282,0.29-0.638,0.615-0.985,0.885c-0.706,0.554-1.493,1.016-2.332,1.388c-1.178,0.52-2.454,0.856-3.777,1.065
		c6.364-2.379,5.541-9.049,5.541-9.049c-0.342-0.955-4.544-1.708-9.676-1.708c-5.133,0-9.334,0.754-9.677,1.708H2.769
		c0,0-0.003,0.029-0.004,0.07c-0.004,0.018-0.005,0.037-0.005,0.056c0,0.009,0,0.019,0.001,0.029
		C2.76,11.981,2.76,12.015,2.76,12.035c0,4.271,2.762,7.92,6.595,9.224c-0.165,0.028-0.341,0.06-0.576,0.146
		c-0.192,0.085-0.575,0.211-0.892,0.688l0.011-0.017c-0.226,0.34-0.234,0.461-0.287,0.682c-0.037,0.204-0.026,0.388-0.001,0.576
		c0.064,0.343,0.209,0.606,0.346,0.791c0.135,0.184,0.276,0.321,0.4,0.419c0.137,0.124,0.241,0.179,0.363,0.263
		c0.124,0.085,0.221,0.124,0.333,0.186c0.112,0.06,0.216,0.105,0.316,0.147c0.206,0.094,0.404,0.162,0.6,0.227
		c0.439,0.145,0.867,0.256,1.287,0.349v0.365c-2.433,0.469-4.361,2.333-4.945,4.725c-0.004,0.009-0.008,0.026-0.008,0.036
		c-0.001,0.008-0.004,0.032-0.007,0.032h0.004c-0.001,0-0.004,0.01-0.004,0.019c0,0.691,2.75,1.246,6.146,1.246
		c3.395,0,6.145-0.553,6.145-1.245c0-0.008-0.002-0.021-0.004-0.021h0.038c-0.335-1.434-1.151-2.684-2.271-3.56
		c0.125-0.173,0.243-0.396,0.312-0.702c0.121-0.464-0.013-0.985-0.176-1.262c-0.171-0.314-0.337-0.469-0.487-0.615
		c-0.154-0.139-0.294-0.239-0.426-0.325c-0.528-0.332-0.975-0.512-1.428-0.689c-0.029-0.01-0.06-0.021-0.088-0.031
		c0.333-0.012,0.664-0.029,1-0.052c2.122-0.146,4.312-0.523,6.378-1.405c1.03-0.438,2.026-1.003,2.935-1.696
		c0.46-0.354,0.868-0.708,1.304-1.146l0.267-0.275l0.297-0.341c0.195-0.212,0.366-0.442,0.549-0.666
		c1.404-1.826,2.283-4.091,2.4-6.455C29.294,9.298,28.607,6.823,27.084,4.889z M12.459,13.673c-4.177,0-7.563-0.588-7.563-1.31
		c0-0.724,3.386-1.311,7.563-1.311c4.176,0,7.562,0.587,7.562,1.311C20.021,13.085,16.635,13.673,12.459,13.673z"/>
</g>
</svg>
