<?xml version="1.0" encoding="utf-8"?>
<!-- Generator: Adobe Illustrator 16.0.4, SVG Export Plug-In . SVG Version: 6.00 Build 0)  -->
<!DOCTYPE svg PUBLIC "-//W3C//DTD SVG 1.1//EN" "http://www.w3.org/Graphics/SVG/1.1/DTD/svg11.dtd">
<svg version="1.1" id="Layer_1" xmlns="http://www.w3.org/2000/svg" xmlns:xlink="http://www.w3.org/1999/xlink" x="0px" y="0px"
	 width="19.7px" height="20px" viewBox="0 0 19.7 20" enable-background="new 0 0 19.7 20" xml:space="preserve">
<path d="M19.7,1.4c0,0.3,0,1.1,0,2.2s0,2.4,0,2.4c0,0.1,0,0.1-0.1,0.2C19.5,6.3,19.2,6.6,19,6.6s-0.7,0-1.101,0.1
	c-0.5,0.1-1.7,0.3-2.5,0.6c-0.7,0.3-1.1,0.4-1.5,0.1c-0.5-0.3-2.399-2.2-2.399-2.2s-1,0.5-1.601,1.1C9.1,6.9,8.1,7.7,7.3,8.7
	c-0.9,1-1.7,2.1-2.2,3.2c1.1,1.1,2,2,2.2,2.3C7.5,14.5,7.6,14.5,7.4,15s-0.5,1.2-0.6,2C6.7,17.7,6.6,18.5,6.5,19
	c-0.1,0.5-0.1,0.5-0.3,0.6C6,19.8,5.7,20,5.6,20c-0.101,0-0.4,0-1.4,0S1.8,20,1.5,20c-0.3,0-0.3,0-0.5-0.1
	C0.8,19.799,0.3,19.7,0.3,19.7C0.2,19.7,0,19.2,0,18.9C0,18.6,0,17.5,0.1,16.799c0.1-0.701,0.5-2.6,0.8-3.3c0.2-0.7,1-3,3.1-5.8
	C6.1,5,8.799,3.1,11,2c2.199-1.1,4.601-1.6,5.8-1.8C18,0,18.5,0,18.799,0c0.301,0.1,0.6,0.4,0.7,0.6C19.6,0.8,19.7,1.1,19.7,1.4z"/>
</svg>
