<?xml version="1.0" encoding="utf-8"?>
<!-- Generator: Adobe Illustrator 16.0.4, SVG Export Plug-In . SVG Version: 6.00 Build 0)  -->
<!DOCTYPE svg PUBLIC "-//W3C//DTD SVG 1.1//EN" "http://www.w3.org/Graphics/SVG/1.1/DTD/svg11.dtd">
<svg version="1.1" id="Layer_1" xmlns="http://www.w3.org/2000/svg" xmlns:xlink="http://www.w3.org/1999/xlink" x="0px" y="0px"
	 width="19.9px" height="19.6px" viewBox="0 0 19.9 19.6" enable-background="new 0 0 19.9 19.6" xml:space="preserve">
<path d="M19.9,14c0,0.101,0,0.399,0,1.399s0,2.4,0,2.7s0,0.3-0.102,0.5c-0.1,0.2-0.199,0.7-0.199,0.7c0,0.1-0.5,0.3-0.801,0.3
	c-0.3,0-1.398,0-2.1-0.101C16,19.401,14.1,19,13.4,18.7c-0.7-0.199-3-1-5.8-3.1C5,13.601,3.1,10.901,2,8.7c-1.1-2.2-1.7-4.6-1.8-5.8
	C0,1.7,0,1.2,0,0.901c0.101-0.3,0.4-0.6,0.601-0.7C0.8,0.101,1.1,0,1.4,0s1.1,0,2.2,0C4.7,0,6,0,6,0C6.1,0,6.1,0,6.2,0.101
	C6.3,0.2,6.6,0.5,6.6,0.7s0,0.7,0.1,1.101c0.2,0.5,0.4,1.8,0.7,2.5C7.7,5,7.8,5.401,7.5,5.801C7.2,6.301,5.3,8.2,5.3,8.2
	s0.5,1,1.101,1.601c0.5,0.699,1.3,1.699,2.3,2.5c1,0.898,2.1,1.699,3.2,2.199c1.1-1.101,2-2,2.3-2.199c0.3-0.2,0.3-0.301,0.8-0.102
	c0.5,0.2,1.2,0.5,2,0.602c0.7,0.1,1.5,0.199,2,0.3c0.5,0.1,0.5,0.1,0.601,0.3C19.8,13.601,19.9,13.901,19.9,14z"/>
</svg>
