<?xml version="1.0" encoding="utf-8"?>
<!-- Generator: Adobe Illustrator 16.0.4, SVG Export Plug-In . SVG Version: 6.00 Build 0)  -->
<!DOCTYPE svg PUBLIC "-//W3C//DTD SVG 1.1//EN" "http://www.w3.org/Graphics/SVG/1.1/DTD/svg11.dtd">
<svg version="1.1" id="Layer_1" xmlns="http://www.w3.org/2000/svg" xmlns:xlink="http://www.w3.org/1999/xlink" x="0px" y="0px"
	 width="23.854px" height="23.859px" viewBox="0 0 23.854 23.859" enable-background="new 0 0 23.854 23.859" xml:space="preserve">
<path d="M23.615,9.21l-6.8,4.2l-6.4-6.4l4.2-6.8c0.1-0.2,0.5-0.301,0.7-0.101l8.399,8.4C23.914,8.71,23.914,9.01,23.615,9.21z
	 M9.415,8.21l6.299,6.1l-11.899,9.4c-0.2,0.199-0.5,0.199-0.7,0l-3-3c-0.1-0.2-0.2-0.5,0-0.7L9.415,8.21z M9.915,14.01
	c-0.399-0.5-1.1-0.5-1.6,0c-0.2,0.2-0.9,0.899-1.101,1.1c-0.5,0.4-0.399,1.101,0,1.601c0.4,0.5,1.101,0.5,1.601,0
	c0.2-0.301,0.899-0.9,1.1-1.102C10.415,15.21,10.415,14.51,9.915,14.01z"/>
</svg>
