<?xml version="1.0" encoding="utf-8"?>
<!-- Generator: Adobe Illustrator 16.0.4, SVG Export Plug-In . SVG Version: 6.00 Build 0)  -->
<!DOCTYPE svg PUBLIC "-//W3C//DTD SVG 1.1//EN" "http://www.w3.org/Graphics/SVG/1.1/DTD/svg11.dtd">
<svg version="1.1" id="Layer_1" xmlns="http://www.w3.org/2000/svg" xmlns:xlink="http://www.w3.org/1999/xlink" x="0px" y="0px"
	 width="24.062px" height="23.932px" viewBox="0 0 24.062 23.932" enable-background="new 0 0 24.062 23.932" xml:space="preserve">
<path d="M9.931,8.2c5.899-2.3,0.7-6.8,8.1-8.2c-3.3,3.601-0.5,3.601,0.8,8c0.602,1.9,0.102,2.2-0.3,2.7
	C15.531,11,12.231,9.7,9.931,8.2z M23.647,17.316c-0.374-0.664-0.951-1.131-1.606-1.396c0.08-0.304,0.133-0.616,0.119-0.946
	c-0.069-1.781-1.54-3.187-3.354-3.102C14.32,12.038,9.423,10.366,8.51,9.746c-1.401-1.086-3.419-0.84-4.519,0.558
	c-1.103,1.401-0.858,3.434,0.543,4.536c1.203,0.945,3.686,1.927,6.558,2.608c-3.922-0.168-6.207-1.329-6.305-1.379
	c-1.551-0.854-3.503-0.3-4.372,1.247c-0.875,1.556-0.322,3.524,1.232,4.398c0.404,0.229,4.118,2.217,10.384,2.217
	s9.98-1.987,10.384-2.215C23.969,20.842,24.521,18.872,23.647,17.316z"/>
</svg>
