<?xml version="1.0" encoding="utf-8"?>
<!-- Generator: Adobe Illustrator 17.0.0, SVG Export Plug-In . SVG Version: 6.00 Build 0)  -->
<!DOCTYPE svg PUBLIC "-//W3C//DTD SVG 1.1//EN" "http://www.w3.org/Graphics/SVG/1.1/DTD/svg11.dtd">
<svg version="1.1" id="Layer_1" xmlns="http://www.w3.org/2000/svg" xmlns:xlink="http://www.w3.org/1999/xlink" x="0px" y="0px"
	 width="32px" height="32px" viewBox="0 0 32 32" enable-background="new 0 0 32 32" xml:space="preserve">
<path d="M25.848,3.651c-0.159,0.233-0.293,0.476-0.392,0.723c-0.271,0.695-0.237,1.323,0.104,1.864
	c0.63,0.998,1.584,2.934,0.866,4.672c-0.468,1.137-1.528,1.901-3.151,2.272c-0.263,0.06-0.5,0.13-0.709,0.209
	c-0.223,0.083-0.373,0.292-0.384,0.528c-0.01,0.237,0.123,0.458,0.337,0.56c0.588,0.281,1.13,0.598,1.601,0.938
	c0.629,0.015,1.277,0.162,1.878,0.534c1.475,0.914,2.112,2.813,1.895,5.647c-0.058,0.758-0.691,1.333-1.439,1.333
	c-0.038,0-0.076-0.001-0.114-0.004c-0.796-0.061-1.39-0.756-1.329-1.551c0.018-0.25,0.029-0.482,0.033-0.698
	c0.003-0.163-0.096-0.31-0.247-0.37c-0.151-0.059-0.324-0.02-0.434,0.101c-1.915,2.105-4.379,3.818-9.311,3.513
	c-5.144-0.319-8.333-4.221-7.417-7.464c0-0.001,0-0.002,0-0.003c0.072-0.262-0.046-0.538-0.284-0.668
	c-1.527-0.837-2.548-2.471-2.515-4.332c0.05-2.672,2.255-4.798,4.927-4.75c2.673,0.048,3.899,3.04,3.849,5.711
	c-0.007,0.308-0.029,0.598-0.068,0.87c-0.032,0.223,0.061,0.444,0.243,0.577c0.182,0.132,0.422,0.153,0.624,0.054
	c0.085-0.042,0.172-0.085,0.26-0.131c0.09-0.045,0.18-0.087,0.274-0.127c0.325-0.891,0.48-1.79,0.197-2.316
	c-0.38-0.703-0.118-1.579,0.586-1.958c0.699-0.38,1.578-0.117,1.958,0.584c0.402,0.749,0.524,1.57,0.479,2.383
	c-0.026,0.5,0.327,0.941,0.821,1.022c0.258,0.042,0.517,0.093,0.774,0.151c0.235,0.053,0.477-0.047,0.606-0.25
	c0.447-0.707,1.315-1.21,2.587-1.5c1.14-0.261,1.857-0.737,2.138-1.415c0.342-0.831,0.068-2.053-0.752-3.35
	c-0.584-0.926-0.665-2.05-0.228-3.164c0.142-0.359,0.336-0.711,0.569-1.043c-2.425-1.593-5.312-2.543-8.43-2.602
	C7.473,0.043,0.23,7.027,0.068,15.804c-0.159,8.777,6.824,16.022,15.601,16.184c8.777,0.16,16.023-6.826,16.183-15.602
	C31.947,11.242,29.586,6.625,25.848,3.651z"/>
</svg>
