<?xml version="1.0" encoding="utf-8"?>
<!-- Generator: Adobe Illustrator 16.0.4, SVG Export Plug-In . SVG Version: 6.00 Build 0)  -->
<!DOCTYPE svg PUBLIC "-//W3C//DTD SVG 1.1//EN" "http://www.w3.org/Graphics/SVG/1.1/DTD/svg11.dtd">
<svg version="1.1" id="Layer_1" xmlns="http://www.w3.org/2000/svg" xmlns:xlink="http://www.w3.org/1999/xlink" x="0px" y="0px"
	 width="112px" height="111.998px" viewBox="0 0 112 111.998" enable-background="new 0 0 112 111.998" xml:space="preserve">
<path d="M112,83.722c0,30.354-25.074,28.245-56,28.245S0,114.076,0,83.722C0,51.53,35.374,37.334,56,37.334
	C76.627,37.333,112,51.529,112,83.722z M5.295,47.444C5.523,47.26,28.443,29,56,29c27.184,0,50.479,18.265,50.712,18.449
	l1.244-1.565c-0.218-0.173-20.235-15.87-45.042-18.501c3.232-1.593,6.113-4.342,8.518-8.186c0.192-0.309,0.377-0.618,0.557-0.925
	c0.849,0.254,1.746,0.395,2.679,0.395c5.155,0,9.334-4.179,9.334-9.333C84,4.179,79.82,0,74.666,0s-9.332,4.179-9.332,9.333
	c0,3.499,1.928,6.542,4.775,8.141C67.352,22.134,62.836,27,56,27c-6.835,0-11.35-4.866-14.109-9.526
	c2.849-1.598,4.776-4.643,4.776-8.141C46.667,4.178,42.488,0,37.334,0S28,4.179,28,9.333s4.18,9.333,9.333,9.333
	c0.933,0,1.83-0.141,2.679-0.395c0.178,0.308,0.363,0.616,0.557,0.925c2.398,3.839,5.277,6.585,8.505,8.179
	C24.01,29.988,4.252,45.714,4.037,45.888L5.295,47.444z"/>
</svg>
