<?xml version="1.0" encoding="utf-8"?>
<!-- Generator: Adobe Illustrator 16.0.4, SVG Export Plug-In . SVG Version: 6.00 Build 0)  -->
<!DOCTYPE svg PUBLIC "-//W3C//DTD SVG 1.1//EN" "http://www.w3.org/Graphics/SVG/1.1/DTD/svg11.dtd">
<svg version="1.1" id="Layer_1" xmlns="http://www.w3.org/2000/svg" xmlns:xlink="http://www.w3.org/1999/xlink" x="0px" y="0px"
	 width="112px" height="112px" viewBox="0 0 112 112" enable-background="new 0 0 112 112" xml:space="preserve">
<path d="M42,0H0v42h42V0z M32.667,32.667H9.334V9.333h23.333V32.667L32.667,32.667z M28,28H14V14h14V28z M60.666,9.333h-9.333V0
	h9.333V9.333L60.666,9.333z M60.666,37.333h-9.333V28v-9.333h9.333V28V37.333L60.666,37.333z M9.333,46.667V56H0v-9.333H9.333z
	 M102.666,56H112v9.334h-9.334h-9.332H84V56h9.334v-9.333h9.332V56z M70,84v9.334h-9.334v9.332h-9.333v-9.332V84h9.333v-9.334H70
	h9.334V84H70z M102.666,74.666H112V84v9.334h-9.334v9.332H98V112h-9.334v-9.334h4.668v-9.332h-4.668v9.332h-9.332V112H70v-9.334
	v-9.332h9.334V84h9.332v-9.334h4.668H98H102.666z M102.666,112v-9.334H112V112H102.666z M84,46.667V56h-9.334v9.334H70h-4.666
	h-4.668H56h-4.667h-4.667h-9.333V56h-4.667H28v9.334h-9.333H9.334V56h9.333v-9.333H28h4.667h4.667H42h4.667H56V56h4.666v-9.333
	h4.668H70h4.666H84z M0,112h42V70H0V112z M9.333,79.334h23.333v23.332H9.333V79.334L9.333,79.334z M14,84h14v14H14V84z M70,0v42h42
	V0H70z M102.666,32.667H79.334V9.333h23.332V32.667z M98,28H84V14h14V28z"/>
</svg>
