<?xml version="1.0" encoding="utf-8"?>
<!-- Generator: Adobe Illustrator 16.0.4, SVG Export Plug-In . SVG Version: 6.00 Build 0)  -->
<!DOCTYPE svg PUBLIC "-//W3C//DTD SVG 1.1//EN" "http://www.w3.org/Graphics/SVG/1.1/DTD/svg11.dtd">
<svg version="1.1" id="Layer_1" xmlns="http://www.w3.org/2000/svg" xmlns:xlink="http://www.w3.org/1999/xlink" x="0px" y="0px"
	 width="23.707px" height="23.914px" viewBox="0 0 23.707 23.914" enable-background="new 0 0 23.707 23.914" xml:space="preserve">
<path d="M23.707,1.707l-1.414-1.414L19.75,2.836l-2.343-2.343l-1.414,1.414l2.343,2.343l-3.029,3.029C14.424,6.493,13.271,6,12,6
	c-1.273,0-2.423,0.493-3.307,1.279L7.414,6l1.293-1.293L7.293,3.293L6,4.586L3.414,2H7V0H0v7h2V3.414L4.586,6L3.293,7.293
	l1.414,1.414L6,7.414l1.481,1.481C7.18,9.537,7,10.246,7,11c0,2.414,1.721,4.436,4,4.898v4.188l-2.293-2.293l-1.414,1.414L12,23.914
	l4.707-4.707l-1.414-1.414L13,20.086v-4.188c2.279-0.465,4-2.484,4-4.898c0-0.754-0.182-1.463-0.48-2.105l3.23-3.231l2.243,2.243
	l1.414-1.414L21.164,4.25L23.707,1.707z M12,14c-1.654,0-3-1.346-3-3c0-1.654,1.346-3,3-3c1.654,0,3,1.346,3,3
	C15,12.654,13.654,14,12,14z"/>
</svg>
