<?xml version="1.0" encoding="utf-8"?>
<!-- Generator: Adobe Illustrator 16.0.4, SVG Export Plug-In . SVG Version: 6.00 Build 0)  -->
<!DOCTYPE svg PUBLIC "-//W3C//DTD SVG 1.1//EN" "http://www.w3.org/Graphics/SVG/1.1/DTD/svg11.dtd">
<svg version="1.1" id="Layer_1" xmlns="http://www.w3.org/2000/svg" xmlns:xlink="http://www.w3.org/1999/xlink" x="0px" y="0px"
	 width="110.805px" height="112px" viewBox="0 0 110.805 112" enable-background="new 0 0 110.805 112" xml:space="preserve">
<path d="M60.666,100.334C60.666,106.777,55.443,112,49,112c-6.443,0-11.667-5.223-11.667-11.666S42.557,88.666,49,88.666
	C55.443,88.666,60.666,93.891,60.666,100.334z M81.666,88.666C75.223,88.666,70,93.891,70,100.334S75.223,112,81.666,112
	c6.442,0,11.668-5.223,11.668-11.666S88.109,88.666,81.666,88.666z M110.805,37.333h-9.743l-2.464,8.204l3.513,1.052L92.59,78.334
	H38.114L19.447,3.667H0v2h17.886l18.667,74.667h57.525l9.947-33.17l-0.958-0.287l4.472,1.339L110.805,37.333z M56,15h9.334
	c8.505,0,13,4.495,13,13v18.667h2V28c0-9.533-5.468-15-15-15H56V0L36.899,14.005L56,28V15z"/>
</svg>
