<?xml version="1.0" encoding="utf-8"?>
<!-- Generator: Adobe Illustrator 16.0.4, SVG Export Plug-In . SVG Version: 6.00 Build 0)  -->
<!DOCTYPE svg PUBLIC "-//W3C//DTD SVG 1.1//EN" "http://www.w3.org/Graphics/SVG/1.1/DTD/svg11.dtd">
<svg version="1.1" id="Layer_1" xmlns="http://www.w3.org/2000/svg" xmlns:xlink="http://www.w3.org/1999/xlink" x="0px" y="0px"
	 width="24.014px" height="24.014px" viewBox="0 0 24.014 24.014" enable-background="new 0 0 24.014 24.014" xml:space="preserve">
<path d="M24.013,0.001c0,0-3.601-0.101-7.2,1.7c-1.1,0.5-2.3,1.3-3.3,2.3c-1.617,1.617-4.129,4.594-6.107,7H3.013l-2,3l3.392,0.917
	c0.009,0.121,0.042,0.292,0.135,0.524l-0.526,1.158c0,0-0.2,0.4,1.3,2c1.6,1.601,2.1,1.4,2.1,1.4l1.243-0.565
	c0.186,0.058,0.325,0.078,0.415,0.078l0.942,3.487l3-2v-4.528c2.423-1.959,5.396-4.42,7-5.972c1-1,1.8-2.2,2.399-3.3
	C24.113,3.601,24.013,0.001,24.013,0.001z M17.013,9.001c-1.101,0-2-0.9-2-2c0-1.101,0.899-2,2-2c1.1,0,2,0.899,2,2
	C19.013,8.101,18.113,9.001,17.013,9.001z M6.513,21.001c0.2,0.1,0.3,0.2,0.5,0.3c-0.2,0.2-0.4,0.5-0.601,0.7
	c-2.3,2.3-6.399,2-6.399,2s-0.3-4.101,2-6.4c0.2-0.2,0.5-0.399,0.7-0.6c0.1,0.2,0.199,0.3,0.3,0.5c-1.5,1.899-1.3,4.8-1.3,4.8
	S4.613,22.501,6.513,21.001z"/>
</svg>
