<?xml version="1.0" encoding="utf-8"?>
<!-- Generator: Adobe Illustrator 16.0.4, SVG Export Plug-In . SVG Version: 6.00 Build 0)  -->
<!DOCTYPE svg PUBLIC "-//W3C//DTD SVG 1.1//EN" "http://www.w3.org/Graphics/SVG/1.1/DTD/svg11.dtd">
<svg version="1.1" id="Layer_1" xmlns="http://www.w3.org/2000/svg" xmlns:xlink="http://www.w3.org/1999/xlink" x="0px" y="0px"
	 width="24px" height="21px" viewBox="0 0 24 21" enable-background="new 0 0 24 21" xml:space="preserve">
<path d="M24,7c0,1.104-0.896,2-2,2c-0.141,0-0.277-0.016-0.411-0.043L19.9,17H4.1L2.411,8.957C2.278,8.985,2.141,9,2,9
	C0.896,9,0,8.104,0,7s0.896-2,2-2s2,0.896,2,2c0,0.487-0.181,0.928-0.471,1.274L8,12l3.258-8.146C10.522,3.559,10,2.842,10,2
	c0-1.104,0.896-2,2-2c1.104,0,2,0.896,2,2c0,0.842-0.521,1.559-1.258,1.854L16,12l4.471-3.726C20.182,7.928,20,7.487,20,7
	c0-1.104,0.896-2,2-2S24,5.896,24,7z M4,21h16v-3H4V21z"/>
</svg>
