<?xml version="1.0" encoding="utf-8"?>
<!-- Generator: Adobe Illustrator 16.0.4, SVG Export Plug-In . SVG Version: 6.00 Build 0)  -->
<!DOCTYPE svg PUBLIC "-//W3C//DTD SVG 1.1//EN" "http://www.w3.org/Graphics/SVG/1.1/DTD/svg11.dtd">
<svg version="1.1" id="Layer_1" xmlns="http://www.w3.org/2000/svg" xmlns:xlink="http://www.w3.org/1999/xlink" x="0px" y="0px"
	 width="112px" height="98px" viewBox="0 0 112 98" enable-background="new 0 0 112 98" xml:space="preserve">
<path d="M84,44.334c0,9.02-7.312,16.332-16.334,16.332c-9.02,0-16.333-7.312-16.333-16.332C51.333,35.313,58.646,28,67.666,28
	C76.688,28,84,35.312,84,44.334z M112,6.09v76.486c0,3.365-2.725,6.09-6.09,6.09H6.09c-3.365,0-6.09-2.725-6.09-6.09V6.09
	C0,2.726,2.725,0,6.09,0h99.82C109.275,0,112,2.726,112,6.09z M93.334,44.834v-1h4.652c-0.129-7.999-3.352-15.241-8.525-20.588
	l-3.292,3.292l-0.707-0.707l3.292-3.292c-5.348-5.175-12.59-8.396-20.588-8.526v4.654h-1v-4.654
	c-7.998,0.13-15.24,3.352-20.586,8.526l3.292,3.292l-0.707,0.707l-3.292-3.292c-5.175,5.347-8.396,12.589-8.525,20.588H42v1h-4.654
	c0.131,7.998,3.353,15.24,8.526,20.587l3.292-3.292l0.707,0.707l-3.292,3.292c5.347,5.174,12.588,8.396,20.586,8.524V70h1v4.652
	c7.998-0.129,15.239-3.352,20.588-8.525l-3.292-3.291l0.707-0.707l3.292,3.291c5.175-5.347,8.396-12.588,8.526-20.586H93.334z
	 M20.533,44.334L9.333,35v18.666L20.533,44.334z M4.667,93.604c0,2.429,1.97,4.396,4.396,4.396h5.209
	c2.427,0,4.396-1.969,4.396-4.396v-0.27h-14V93.604L4.667,93.604z M93.334,93.604c0,2.429,1.969,4.396,4.396,4.396h5.207
	c2.427,0,4.396-1.969,4.396-4.396v-0.27h-14V93.604z"/>
</svg>
