<?xml version="1.0" encoding="utf-8"?>
<!-- Generator: Adobe Illustrator 16.0.4, SVG Export Plug-In . SVG Version: 6.00 Build 0)  -->
<!DOCTYPE svg PUBLIC "-//W3C//DTD SVG 1.1//EN" "http://www.w3.org/Graphics/SVG/1.1/DTD/svg11.dtd">
<svg version="1.1" id="Layer_1" xmlns="http://www.w3.org/2000/svg" xmlns:xlink="http://www.w3.org/1999/xlink" x="0px" y="0px"
	 width="112px" height="112px" viewBox="0 0 112 112" enable-background="new 0 0 112 112" xml:space="preserve">
<path d="M42.971,47.852c-1.693,0-2.996-0.555-3.906-1.666c-0.91-1.106-1.361-2.459-1.361-4.055v-2.879
	c0-1.62,0.447-2.992,1.344-4.111c0.896-1.12,2.18-1.68,3.85-1.68c1.647,0,2.922,0.56,3.832,1.68c0.91,1.12,1.362,2.492,1.362,4.111
	v2.879c0,1.619-0.438,2.977-1.325,4.074C45.883,47.301,44.618,47.852,42.971,47.852z M69.066,64.111c-1.67,0-2.953,0.56-3.851,1.68
	c-0.896,1.119-1.344,2.479-1.344,4.074v2.916c0,1.596,0.467,2.953,1.399,4.074c0.934,1.119,2.226,1.68,3.867,1.68
	c1.746,0,3.043-0.541,3.889-1.629c0.85-1.082,1.27-2.459,1.27-4.129v-2.918c0-1.596-0.451-2.953-1.361-4.073
	C72.025,64.671,70.736,64.111,69.066,64.111z M97.011,66.99L104.496,84l-18.471,2.025L84,104.496l-17.01-7.48L56,112L45.01,97.011
	L28,104.496l-2.025-18.471L7.504,84l7.48-17.01L0,56l14.988-10.99L7.504,28l18.471-2.025L28,7.504l17.01,7.481L56,0l10.99,14.989
	L84,7.504l2.025,18.471L104.496,28l-7.48,17.01L112,56L97.011,66.99z M34.486,50.111c2.068,2.132,4.896,3.196,8.484,3.196
	c3.537,0,6.334-1.064,8.391-3.196c2.059-2.128,3.084-4.788,3.084-7.98v-2.879c0-3.215-1.025-5.894-3.084-8.036
	c-2.053-2.142-4.875-3.215-8.465-3.215c-3.561,0-6.375,1.078-8.428,3.234c-2.058,2.156-3.084,4.826-3.084,8.018v2.879
	C31.383,45.323,32.419,47.982,34.486,50.111z M71.424,36.601l-4.672-2.692L40.171,76.45l4.671,2.692L71.424,36.601z M80.617,69.869
	c0-3.188-1.027-5.855-3.085-7.998c-2.054-2.143-4.878-3.217-8.466-3.217c-3.537,0-6.342,1.078-8.409,3.234
	c-2.067,2.155-3.103,4.815-3.103,7.979v2.917c0,3.188,1.034,5.855,3.103,7.999c2.067,2.142,4.896,3.215,8.483,3.215
	c3.537,0,6.338-1.063,8.392-3.197c2.058-2.127,3.085-4.801,3.085-8.017V69.869z"/>
</svg>
