<?xml version="1.0" encoding="utf-8"?>
<!-- Generator: Adobe Illustrator 16.0.4, SVG Export Plug-In . SVG Version: 6.00 Build 0)  -->
<!DOCTYPE svg PUBLIC "-//W3C//DTD SVG 1.1//EN" "http://www.w3.org/Graphics/SVG/1.1/DTD/svg11.dtd">
<svg version="1.1" id="Layer_1" xmlns="http://www.w3.org/2000/svg" xmlns:xlink="http://www.w3.org/1999/xlink" x="0px" y="0px"
	 width="112px" height="112px" viewBox="0 0 112 112" enable-background="new 0 0 112 112" xml:space="preserve">
<path d="M49.009,54.11l1.946,7.201h-3.984l1.945-7.201H49.009z M97.011,66.99L104.496,84l-18.471,2.025L84,104.496l-17.01-7.48
	L56,112L45.01,97.011L28,104.496l-2.025-18.471L7.504,84l7.48-17.01L0,56l14.988-10.99L7.504,28l18.471-2.025L28,7.504l17.01,7.481
	L56,0l10.99,14.989L84,7.504l2.025,18.471L104.496,28l-7.48,17.01L112,56L97.011,66.99z M38.557,63.761
	c0-1.876-0.584-3.374-1.746-4.485c-1.162-1.108-2.875-2.028-5.139-2.758c-1.33-0.586-2.268-1.134-2.814-1.633
	c-0.545-0.5-0.821-1.129-0.821-1.899c0-0.831,0.243-1.526,0.724-2.082c0.48-0.555,1.157-0.835,2.025-0.835
	c1.008,0,1.783,0.303,2.324,0.91s0.812,1.498,0.812,2.669h4.405l0.033-0.093c0.041-2.1-0.631-3.766-2.012-5.017
	s-3.209-1.872-5.482-1.872c-2.146,0-3.911,0.583-5.292,1.75c-1.386,1.167-2.077,2.684-2.077,4.541c0,1.871,0.607,3.322,1.82,4.363
	c1.213,1.035,3.019,1.965,5.422,2.785c1.232,0.5,2.091,1.014,2.566,1.537c0.477,0.521,0.715,1.235,0.715,2.142
	c0,0.862-0.244,1.554-0.733,2.071c-0.49,0.519-1.224,0.778-2.198,0.778c-1.162,0-2.035-0.308-2.632-0.933
	c-0.593-0.626-0.892-1.646-0.892-3.071h-4.424l-0.033,0.095c-0.051,2.449,0.709,4.274,2.287,5.475
	C26.973,69.398,28.868,70,31.089,70c2.254,0,4.06-0.555,5.423-1.666S38.557,65.697,38.557,63.761z M57.975,69.674l-6.646-22.681
	H46.63l-6.646,22.681h4.731l1.321-4.904h5.852l1.334,4.904H57.975z M73.127,66.243h-8.736v-19.25h-4.535v22.681h13.271V66.243z
	 M88.956,66.248h-8.573v-6.59h7.159v-3.425h-7.159v-5.796h8.541v-3.444H75.848v22.681h13.108V66.248z"/>
</svg>
