<?xml version="1.0" encoding="utf-8"?>
<!-- Generator: Adobe Illustrator 16.0.4, SVG Export Plug-In . SVG Version: 6.00 Build 0)  -->
<!DOCTYPE svg PUBLIC "-//W3C//DTD SVG 1.1//EN" "http://www.w3.org/Graphics/SVG/1.1/DTD/svg11.dtd">
<svg version="1.1" id="Layer_1" xmlns="http://www.w3.org/2000/svg" xmlns:xlink="http://www.w3.org/1999/xlink" x="0px" y="0px"
	 width="18px" height="24px" viewBox="0 0 18 24" enable-background="new 0 0 18 24" xml:space="preserve">
<path d="M16.969,3H18V0H0v3h1.032c0.317,4.895,2.914,7.797,4.409,9.078C4.008,13.523,1.407,16.703,1.045,21H0v3h18v-3h-1.046
	c-0.36-4.288-2.951-7.463-4.388-8.913C14.07,10.818,16.654,7.944,16.969,3z M10.375,12.781c0.044,0.033,4.07,3.312,4.573,8.219
	h-0.161c-0.821-2.188-3.895-5-5.787-5s-4.966,2.812-5.787,5H3.052c0.504-4.885,4.531-8.186,4.574-8.221l1.117-0.9l-1.229-0.737
	C7.473,11.117,3.478,8.647,3.043,3h11.915c-0.419,5.671-4.289,8.034-4.46,8.135l-1.264,0.733L10.375,12.781z M11,8c0,0.9-1.1,3-2,3
	S7,8.9,7,8H11z"/>
</svg>
