<?xml version="1.0" encoding="utf-8"?>
<!-- Generator: Adobe Illustrator 17.0.0, SVG Export Plug-In . SVG Version: 6.00 Build 0)  -->
<!DOCTYPE svg PUBLIC "-//W3C//DTD SVG 1.1//EN" "http://www.w3.org/Graphics/SVG/1.1/DTD/svg11.dtd">
<svg version="1.1" id="Layer_1" xmlns="http://www.w3.org/2000/svg" xmlns:xlink="http://www.w3.org/1999/xlink" x="0px" y="0px"
	 width="32px" height="32px" viewBox="0 0 32 32" enable-background="new 0 0 32 32" xml:space="preserve">
<path d="M27.892,5.721c-0.724-0.823-1.766-1.295-2.862-1.295h-4.936c-1.932,0-3.24,1.12-4.095,2.356
	c-0.855-1.236-2.162-2.356-4.093-2.356H6.966c-1.097,0-2.139,0.472-2.863,1.296l-4,4.56c0.204,2.784,2.503,4.985,5.339,4.985
	c2.836,0,5.134-2.201,5.339-4.985L7.526,6.687h4.379c0.902,0,1.571,0.524,2.093,1.185v14.934h-3.902
	c-1.08,0-1.956,0.876-1.956,1.957v0.711H7.603c-1.08,0-1.956,0.876-1.956,1.957v1.637h20.062v-1.637
	c0-1.081-0.877-1.957-1.957-1.957h-0.479v-0.711c0-1.081-0.877-1.957-1.957-1.957H17.36V8.881c0.521-1.04,1.406-2.193,2.734-2.193
	h4.378l-3.255,3.595c0.205,2.784,2.504,4.985,5.339,4.985c2.839,0,5.134-2.201,5.341-4.985L27.892,5.721z M3.285,10.282L5.48,7.786
	l2.197,2.497H3.285z M24.321,10.282l2.198-2.497l2.194,2.497H24.321z"/>
</svg>
