<?xml version="1.0" encoding="utf-8"?>
<!-- Generator: Adobe Illustrator 16.0.4, SVG Export Plug-In . SVG Version: 6.00 Build 0)  -->
<!DOCTYPE svg PUBLIC "-//W3C//DTD SVG 1.1//EN" "http://www.w3.org/Graphics/SVG/1.1/DTD/svg11.dtd">
<svg version="1.1" id="Layer_1" xmlns="http://www.w3.org/2000/svg" xmlns:xlink="http://www.w3.org/1999/xlink" x="0px" y="0px"
	 width="110.99px" height="111.959px" viewBox="0 0 110.99 111.959" enable-background="new 0 0 110.99 111.959"
	 xml:space="preserve">
<path d="M92.98,0H18.313v51.333H92.98V0z M69.646,14h-28V9.333h28V14z M105.376,85.271c-3.394,2.394-35.701,21.498-40.26,24.121
	c-5.345,3.08-6.734,3.422-14.854,0.85c-5.362-1.698-13.034-4.209-18.56-6.799c-4.924-2.312-8.443-2.381-12.186,0l-6.249,3.803
	L-0.001,77.808c0,0,10.906-5.17,17.523-7.689c10.706-4.079,13.936-2.166,19.885,1.554c2.516,1.572,10.711,7.556,10.711,7.556
	S53.216,84,63.751,84c6.459,0,10.562,0.694,10.562,4.666c0,4.341-8.082,4.658-8.115,4.658H50.98c-6.757,0-16.25-3.894-16.25-3.894
	s8.036,8.644,16.25,8.644h15.26c4.41-0.089,12.74-2.234,12.74-9.408c0-9.332-8.494-9.332-19.25-9.332
	c-0.841,0-1.603-0.136-2.353-0.295c0.41-0.22,0.82-0.435,1.33-0.724c1.918-1.082,4.492-2.633,7.414-4.446
	c7.668-4.751,11.611-5.354,15.438-0.312c2.664-2.707,6.021-3.449,8.892-3.449c3.237,0,5.981,2.137,5.211,5.591
	c8.315-4.914,12.418-2.937,14.243-0.565C112.318,78.265,110.667,81.531,105.376,85.271z"/>
</svg>
