<?xml version="1.0" encoding="utf-8"?>
<!-- Generator: Adobe Illustrator 16.0.4, SVG Export Plug-In . SVG Version: 6.00 Build 0)  -->
<!DOCTYPE svg PUBLIC "-//W3C//DTD SVG 1.1//EN" "http://www.w3.org/Graphics/SVG/1.1/DTD/svg11.dtd">
<svg version="1.1" id="Layer_1" xmlns="http://www.w3.org/2000/svg" xmlns:xlink="http://www.w3.org/1999/xlink" x="0px" y="0px"
	 width="107.333px" height="108.333px" viewBox="0 0 107.333 108.333" enable-background="new 0 0 107.333 108.333"
	 xml:space="preserve">
<path d="M91.001,29H16.333L0,108.333h107.334L91.001,29z M37.333,52.333c-3.863,0-7-3.136-7-7s3.137-7,7-7c3.865,0,7,3.136,7,7
	S41.199,52.333,37.333,52.333z M70.001,52.333c-3.865,0-7-3.136-7-7s3.135-7,7-7c3.862,0,7,3.136,7,7S73.864,52.333,70.001,52.333z
	 M40.667,24.333h-2V15c0-8.271,6.729-15,15-15c8.271,0,15,6.729,15,15v9.333h-2V15c0-7.168-5.832-13-13-13s-13,5.832-13,13V24.333z"
	/>
</svg>
