<?xml version="1.0" encoding="utf-8"?>
<!-- Generator: Adobe Illustrator 16.0.4, SVG Export Plug-In . SVG Version: 6.00 Build 0)  -->
<!DOCTYPE svg PUBLIC "-//W3C//DTD SVG 1.1//EN" "http://www.w3.org/Graphics/SVG/1.1/DTD/svg11.dtd">
<svg version="1.1" id="Layer_1" xmlns="http://www.w3.org/2000/svg" xmlns:xlink="http://www.w3.org/1999/xlink" x="0px" y="0px"
	 width="112px" height="94.333px" viewBox="0 0 112 94.333" enable-background="new 0 0 112 94.333" xml:space="preserve">
<path d="M73.959,34.374c-0.391-0.392-0.391-1.023,0-1.414l32.668-32.667c0.391-0.391,1.023-0.391,1.414,0s0.391,1.023,0,1.414
	L75.373,34.374c-0.195,0.194-0.451,0.293-0.707,0.293S74.154,34.568,73.959,34.374z M112,29v18.668h-4.666L98,94.333H14
	L4.667,47.667H0V29h19.469l11.266,11.265c1.82,1.824,4.209,2.734,6.6,2.734c2.389,0,4.777-0.91,6.6-2.734
	c3.057-3.057,3.514-7.695,1.441-11.265h21.252c-2.077,3.57-1.613,8.208,1.441,11.265c1.82,1.824,4.209,2.734,6.599,2.734
	c2.392,0,4.778-0.91,6.601-2.734L92.533,29H112z M42,47.667h-9.333V85H42V47.667z M60.666,47.667h-9.333V85h9.333V47.667
	L60.666,47.667z M79.334,47.667H70V85h9.334V47.667z M36.626,34.374c0.194,0.194,0.451,0.293,0.707,0.293s0.513-0.099,0.707-0.293
	c0.392-0.392,0.392-1.023,0-1.414L5.373,0.292c-0.391-0.391-1.023-0.391-1.414,0s-0.391,1.023,0,1.414L36.626,34.374z"/>
</svg>
