<?xml version="1.0" encoding="utf-8"?>
<!-- Generator: Adobe Illustrator 16.0.4, SVG Export Plug-In . SVG Version: 6.00 Build 0)  -->
<!DOCTYPE svg PUBLIC "-//W3C//DTD SVG 1.1//EN" "http://www.w3.org/Graphics/SVG/1.1/DTD/svg11.dtd">
<svg version="1.1" id="Layer_1" xmlns="http://www.w3.org/2000/svg" xmlns:xlink="http://www.w3.org/1999/xlink" x="0px" y="0px"
	 width="110.805px" height="108.333px" viewBox="0 0 110.805 108.333" enable-background="new 0 0 110.805 108.333"
	 xml:space="preserve">
<path d="M60.666,96.667c0,6.443-5.224,11.666-11.666,11.666c-6.443,0-11.667-5.223-11.667-11.666S42.557,84.999,49,84.999
	C55.443,84.999,60.666,90.223,60.666,96.667z M81.666,84.999C75.223,84.999,70,90.223,70,96.667s5.223,11.666,11.666,11.666
	c6.442,0,11.668-5.223,11.668-11.666S88.109,84.999,81.666,84.999z M107.539,44.548l-4.472-1.339l0.958,0.287l-9.947,33.17H36.553
	L17.886,2H0V0h19.446l9.335,37.333H99.96l1.102-3.667h9.743L107.539,44.548z M102.11,42.921l-3.513-1.052l0.762-2.537H29.28
	l8.833,35.334h54.477L102.11,42.921z"/>
</svg>
