<?xml version="1.0" encoding="utf-8"?>
<!-- Generator: Adobe Illustrator 16.0.4, SVG Export Plug-In . SVG Version: 6.00 Build 0)  -->
<!DOCTYPE svg PUBLIC "-//W3C//DTD SVG 1.1//EN" "http://www.w3.org/Graphics/SVG/1.1/DTD/svg11.dtd">
<svg version="1.1" id="Layer_1" xmlns="http://www.w3.org/2000/svg" xmlns:xlink="http://www.w3.org/1999/xlink" x="0px" y="0px"
	 width="24.032px" height="24px" viewBox="0 0 24.032 24" enable-background="new 0 0 24.032 24" xml:space="preserve">
<path d="M16,5.31c0.5-0.6,4.199-0.6,4.699,2.2c0.801,0,4.6,1.7,2.897,6.5c0,0,0.603-4.898-3.699-5.799C20.1,6.21,17,5.109,16,5.31z
	 M16.7,10.51c-5.5-0.601-4-5.2-3.9-5.5c-0.299,0.3-2.899,5.6,3.602,6.399c3,0.399,4.199,0.7,4.602,2.5
	C21.2,11.31,18.799,10.81,16.7,10.51z M0,19.01h18v-4H0V19.01z M22,19.01h2v-4h-2V19.01z M19,19.01h2v-4h-2V19.01z"/>
</svg>
