<?xml version="1.0" encoding="utf-8"?>
<!-- Generator: Adobe Illustrator 16.0.0, SVG Export Plug-In . SVG Version: 6.00 Build 0)  -->
<!DOCTYPE svg PUBLIC "-//W3C//DTD SVG 1.1//EN" "http://www.w3.org/Graphics/SVG/1.1/DTD/svg11.dtd">
<svg version="1.1" id="Layer_1" xmlns="http://www.w3.org/2000/svg" xmlns:xlink="http://www.w3.org/1999/xlink" x="0px" y="0px"
	 width="100px" height="100px" viewBox="0 0 100 100" enable-background="new 0 0 100 100" xml:space="preserve">
<g>
	<circle cx="50.952" cy="10.869" r="10.099"/>
	<path d="M53.467,21.554l-2.515,2.532l-2.439-2.561c-0.008,0.002-0.017,0.003-0.025,0.005c-6.917,2.688-19.183,13.338-17.854,18.78
		c1.061,4.349,6.08,6.253,9.398,7.078c0.057,0.022,0.106,0.055,0.165,0.075c0.14,0.047,0.279,0.089,0.419,0.133v5.026
		c0,2.939,0.667,3.814,0.667,3.814l0.002,37.292c0.001,2.559,2.075,4.633,4.634,4.633c2.56,0,4.634-2.075,4.634-4.633L50.55,61.51
		c0.184,0.009,0.367,0.023,0.552,0.023c0.036,0,0.071-0.004,0.107-0.004l-0.001,32.201c0,2.559,2.075,4.633,4.634,4.633
		s4.634-2.074,4.634-4.633l0.001-37.312c0.607-1.125,0.812-2.398,0.812-3.794v-4.446c0.225-0.068,0.449-0.138,0.673-0.214
		c0.031-0.011,0.057-0.029,0.088-0.04c3.35-0.756,8.209-2.623,9.321-7.187C72.675,35.388,61.781,24.172,53.467,21.554z
		 M61.288,35.757c1.87,1.756,2.319,2.772,2.421,3.11c-0.353,0.367-1.284,0.803-2.421,1.151V35.757z M40.509,39.919
		c-1.137-0.348-2.068-0.785-2.421-1.151c0.102-0.337,0.551-1.354,2.421-3.11V39.919z M58.018,51.204
		c0,0.583-0.474,1.057-1.057,1.057h-12.02c-0.583,0-1.057-0.473-1.057-1.057v-2.833c0.641,0.104,1.221,0.172,1.692,0.207
		c0.097,0.007,0.191,0.011,0.286,0.011c2.037,0,3.758-1.575,3.906-3.639c0.156-2.16-1.469-4.037-3.628-4.192
		c-0.444-0.032-1.301-0.147-2.257-0.381v-7.004c0-0.583,0.474-1.056,1.057-1.056h2.675v-0.462c0-0.583,0.473-1.057,1.056-1.057
		h4.559c0.583,0,1.056,0.473,1.056,1.057v0.462h2.675c0.583,0,1.057,0.473,1.057,1.056v7.063c-0.852,0.194-1.598,0.292-2.002,0.321
		c-2.159,0.156-3.784,2.033-3.628,4.192c0.148,2.063,1.869,3.639,3.906,3.639c0.095,0,0.19-0.003,0.286-0.011
		c0.407-0.029,0.9-0.086,1.438-0.168V51.204z"/>
</g>
</svg>
