<?xml version="1.0" encoding="utf-8"?>
<!-- Generator: Adobe Illustrator 17.0.0, SVG Export Plug-In . SVG Version: 6.00 Build 0)  -->
<!DOCTYPE svg PUBLIC "-//W3C//DTD SVG 1.1//EN" "http://www.w3.org/Graphics/SVG/1.1/DTD/svg11.dtd">
<svg version="1.1" id="Layer_1" xmlns="http://www.w3.org/2000/svg" xmlns:xlink="http://www.w3.org/1999/xlink" x="0px" y="0px"
	 width="32px" height="32px" viewBox="0 0 32 32" enable-background="new 0 0 32 32" xml:space="preserve">
<g>
	<path d="M27.793,15.871c-1.488,0-2.8,0.775-3.546,1.943c-0.713-0.017-1.346,0.114-1.906,0.391c-1.71,0.846-2.261,2.767-2.796,4.624
		c-0.783,2.729-1.389,4.409-3.876,4.562c-1.18,0.074-2.105-0.236-2.805-0.945c-1.034-1.048-1.441-3.631-1.585-4.955
		c-0.054-0.491,0.158-0.972,0.556-1.265c5.206-3.832,7.678-7.524,7.35-10.984c-0.31-3.29-3.046-5.307-4.467-6.142
		c0.121,0.288,0.121,0.288,0,0c-0.366-0.858-1.216-1.46-2.205-1.46c-1.324,0-2.398,1.073-2.398,2.397s1.074,2.398,2.398,2.398
		c0.748,0,1.417-0.345,1.857-0.884l0,0c1.076,0.78,2.407,2.094,2.578,3.901c0.132,1.388-0.444,2.911-1.694,4.537L3.982,13.994
		c-1.231-1.628-1.803-3.141-1.677-4.518C2.46,7.807,4.656,5.737,4.656,5.737c0.433,0.432,1.028,0.699,1.69,0.699
		c1.322,0,2.393-1.074,2.393-2.398S7.667,1.641,6.344,1.641c-1.111,0-2.045,0.755-2.317,1.778c0,0.001,0,0.002,0,0.002
		c-1.483,0.976-3.68,2.895-3.954,5.823c-0.353,3.693,2.505,7.624,8.438,11.758c0.646,0.451,0.846,5.079,2.747,7.016
		c1.066,1.084,2.436,1.63,4.077,1.63c0.155,0,0.313-0.004,0.475-0.015c4.193-0.257,5.178-3.682,5.896-6.183
		c0.417-1.453,0.812-2.825,1.633-3.231c0.076-0.038,0.173,0.217,0.261,0.193c0.028,2.301,1.887,3.872,4.194,3.872
		c2.324,0,4.207-1.883,4.207-4.207C32,17.753,30.117,15.871,27.793,15.871z M6.065,16.196h7.125
		c-0.913,0.876-1.795,1.568-2.64,2.182c-0.552,0.399-1.297,0.398-1.846-0.005C7.712,17.646,6.831,16.932,6.065,16.196z
		 M29.902,21.182c0.024-0.13,0.037-0.264,0.037-0.402c0-1.187-0.959-2.148-2.146-2.148c-1.187,0-2.149,0.962-2.149,2.148
		c0,0.138,0.013,0.272,0.038,0.402c-0.172-0.33-0.271-0.705-0.271-1.104c0-1.315,1.066-2.381,2.382-2.381
		c1.313,0,2.381,1.066,2.381,2.381C30.174,20.477,30.074,20.852,29.902,21.182z"/>
</g>
</svg>
