<?xml version="1.0" encoding="utf-8"?>
<!-- Generator: Adobe Illustrator 16.0.4, SVG Export Plug-In . SVG Version: 6.00 Build 0)  -->
<!DOCTYPE svg PUBLIC "-//W3C//DTD SVG 1.1//EN" "http://www.w3.org/Graphics/SVG/1.1/DTD/svg11.dtd">
<svg version="1.1" id="Layer_1" xmlns="http://www.w3.org/2000/svg" xmlns:xlink="http://www.w3.org/1999/xlink" x="0px" y="0px"
	 width="24.1px" height="24px" viewBox="0 0 24.1 24" enable-background="new 0 0 24.1 24" xml:space="preserve">
<path d="M24.1,7.5c-0.014-0.192-0.05-0.377-0.1-0.556V6.7C24,5.731,23.227,5,22.2,5h-0.7H13.4H1.7C0.747,5,0,5.747,0,6.7v10.6
	c0,0.411,0.142,0.802,0.396,1.097c0.289,0.332,0.708,0.523,1.15,0.523c0.082,0,0.165-0.007,0.247-0.02h11.03
	c0.216,0.059,0.438,0.1,0.675,0.1h8.1c0.235,0,0.458-0.041,0.673-0.1H22.3c0.953,0,1.7-0.748,1.7-1.7v-0.027
	c0.059-0.215,0.1-0.438,0.1-0.673V7.5z M2,7h9.049C11.018,7.162,11,7.328,11,7.5v9.1c0,0.104,0.018,0.201,0.032,0.301H2V7z"/>
</svg>
