<?xml version="1.0" encoding="utf-8"?>
<!-- Generator: Adobe Illustrator 17.0.0, SVG Export Plug-In . SVG Version: 6.00 Build 0)  -->
<!DOCTYPE svg PUBLIC "-//W3C//DTD SVG 1.1//EN" "http://www.w3.org/Graphics/SVG/1.1/DTD/svg11.dtd">
<svg version="1.1" id="Layer_1" xmlns="http://www.w3.org/2000/svg" xmlns:xlink="http://www.w3.org/1999/xlink" x="0px" y="0px"
	 width="32px" height="32px" viewBox="0 0 32 32" enable-background="new 0 0 32 32" xml:space="preserve">
<path d="M31.818,7.884l-7.361-7.361c-0.452-0.452-1.184-0.452-1.635,0c-0.453,0.452-0.453,1.183,0,1.636l2.862,2.862l-2.781,2.781
	l-2.626-2.627c-0.279-0.279-0.658-0.437-1.054-0.437c-0.395,0-0.774,0.157-1.054,0.437L5.786,17.558
	c-0.81,0.81-1.199,1.951-1.052,3.087l0.61,4.716l-4.605,4.604c-0.452,0.453-0.452,1.184,0,1.636
	c0.226,0.226,0.521,0.338,0.817,0.338s0.592-0.113,0.819-0.338l4.676-4.676l4.671,0.656c1.152,0.162,2.312-0.228,3.133-1.052
	l12.313-12.359c0.58-0.582,0.579-1.524-0.002-2.105l-2.628-2.628l2.78-2.781l2.862,2.863C30.407,9.746,30.704,9.859,31,9.859
	c0.295,0,0.591-0.113,0.818-0.339C32.269,9.067,32.269,8.336,31.818,7.884z M7.768,23.898c-0.331,0.331-0.866,0.331-1.196,0
	c-0.331-0.33-0.331-0.866,0-1.196c0.33-0.33,0.865-0.33,1.196,0C8.098,23.033,8.098,23.568,7.768,23.898z M12.182,17.377l-3.35,3.35
	c-0.226,0.226-0.522,0.339-0.817,0.339c-0.296,0-0.592-0.113-0.818-0.339c-0.452-0.452-0.452-1.184,0-1.635l3.35-3.35
	c0.451-0.452,1.184-0.452,1.635,0C12.635,16.194,12.635,16.926,12.182,17.377z M12.694,13.921l0.248-0.248l1.023,1.023
	c0.112,0.113,0.26,0.168,0.408,0.168c0.149,0,0.296-0.056,0.409-0.168c0.226-0.227,0.226-0.592,0-0.819l-1.021-1.022l0.568-0.568
	l1.023,1.023c0.113,0.113,0.26,0.168,0.408,0.168c0.148,0,0.296-0.056,0.409-0.168c0.226-0.226,0.226-0.592,0-0.818l-1.022-1.023
	l0.568-0.568l1.022,1.022c0.113,0.113,0.261,0.17,0.409,0.17c0.148,0,0.296-0.057,0.409-0.17c0.226-0.225,0.226-0.592,0-0.817
	l-1.023-1.023l0.569-0.569l1.022,1.022c0.113,0.113,0.262,0.17,0.409,0.17c0.149,0,0.295-0.057,0.409-0.17
	c0.226-0.226,0.226-0.591,0-0.817l-1.022-1.022l0.667-0.667c0.352-0.352,0.921-0.352,1.273,0l1.409,1.409l-6.507,6.507
	L12.694,13.921z M24.31,12.481c0.169,0.169,0.264,0.398,0.264,0.637c0.001,0.239-0.095,0.468-0.264,0.637l-5.834,5.834l-2.066-2.025
	l6.491-6.491L24.31,12.481z"/>
</svg>
