<?xml version="1.0" encoding="utf-8"?>
<!-- Generator: Adobe Illustrator 17.0.0, SVG Export Plug-In . SVG Version: 6.00 Build 0)  -->
<!DOCTYPE svg PUBLIC "-//W3C//DTD SVG 1.1//EN" "http://www.w3.org/Graphics/SVG/1.1/DTD/svg11.dtd">
<svg version="1.1" id="Layer_1" xmlns="http://www.w3.org/2000/svg" xmlns:xlink="http://www.w3.org/1999/xlink" x="0px" y="0px"
	 width="32px" height="32px" viewBox="0 0 32 32" enable-background="new 0 0 32 32" xml:space="preserve">
<g>
	<path d="M21.061,10.153h-8.17l-4.468,2.231c-0.871,0.435-1.421,1.325-1.421,2.298v13.944c0,0.93,0.582,1.761,1.457,2.077
		c1.59,0.575,4.408,1.345,8.096,1.345c3.769,0,6.842-0.805,8.563-1.383c0.9-0.302,1.504-1.145,1.505-2.094V14.641
		c0-0.952-0.527-1.826-1.368-2.271L21.061,10.153z M8.31,14.422c0-0.507,0.296-0.97,0.756-1.184l4.354-2.036
		c0.656-0.304,1.434-0.024,1.74,0.63c0.305,0.654,0.022,1.432-0.632,1.738l-3.601,1.684v8.298c0,0.721-0.587,1.307-1.308,1.307
		c-0.722,0-1.308-0.586-1.308-1.307V14.422z M9.841,28.889c-0.782,0-1.416-0.633-1.416-1.417c0-0.782,0.633-1.416,1.416-1.416
		c0.782,0,1.415,0.634,1.415,1.416C11.256,28.256,10.623,28.889,9.841,28.889z M20.581,26.531c0,0.518-0.42,0.938-0.939,0.938
		h-5.661c-0.518,0-0.938-0.42-0.938-0.938v-8.028c0-0.518,0.42-0.938,0.938-0.938h5.661c0.518,0,0.939,0.42,0.939,0.938V26.531z"/>
	<path d="M25.315,0h-1.001c-1.069,0.186-1.193,0.763-1.193,0.763C23.065,0.256,22.27,0.062,21.61,0h-1.432
		c-1.069,0.186-1.193,0.763-1.193,0.763c-0.057-0.507-0.85-0.701-1.51-0.763h-1.432c-1.068,0.186-1.192,0.763-1.192,0.763
		C14.794,0.256,14,0.062,13.34,0h-1.431c-1.069,0.186-1.194,0.763-1.194,0.763C10.659,0.256,9.864,0.062,9.205,0H8.31v7.189
		C8.31,8,8.968,8.659,9.779,8.659h14.066c0.812,0,1.47-0.658,1.47-1.469V0z M11.923,5.797c0,0.722-0.587,1.308-1.309,1.308
		c-0.721,0-1.308-0.586-1.308-1.308V3.535c0-0.722,0.587-1.308,1.308-1.308c0.722,0,1.309,0.586,1.309,1.308V5.797z"/>
</g>
</svg>
