<?xml version="1.0" encoding="utf-8"?>
<!-- Generator: Adobe Illustrator 16.0.4, SVG Export Plug-In . SVG Version: 6.00 Build 0)  -->
<!DOCTYPE svg PUBLIC "-//W3C//DTD SVG 1.1//EN" "http://www.w3.org/Graphics/SVG/1.1/DTD/svg11.dtd">
<svg version="1.1" id="Layer_1" xmlns="http://www.w3.org/2000/svg" xmlns:xlink="http://www.w3.org/1999/xlink" x="0px" y="0px"
	 width="112px" height="112px" viewBox="0 0 112 112" enable-background="new 0 0 112 112" xml:space="preserve">
<path d="M64.596,0L0,64.266V112l47.498-0.111L112,47.609L64.596,0z M16.329,102.666c-3.869,0-6.995-3.131-6.995-6.994
	c0-3.869,3.126-7.006,6.995-7.006c3.868,0,7.005,3.137,7.005,7.006C23.333,99.535,20.197,102.666,16.329,102.666z M19.488,71.479
	l44.291-44.505l6.248,6.282L25.736,77.766L19.488,71.479z M39.639,91.723l-6.258-6.285l44.016-44.234l6.258,6.286L39.639,91.723z"/>
</svg>
