<?xml version="1.0" encoding="utf-8"?>
<!-- Generator: Adobe Illustrator 16.0.4, SVG Export Plug-In . SVG Version: 6.00 Build 0)  -->
<!DOCTYPE svg PUBLIC "-//W3C//DTD SVG 1.1//EN" "http://www.w3.org/Graphics/SVG/1.1/DTD/svg11.dtd">
<svg version="1.1" id="Layer_1" xmlns="http://www.w3.org/2000/svg" xmlns:xlink="http://www.w3.org/1999/xlink" x="0px" y="0px"
	 width="24px" height="24px" viewBox="0 0 24 24" enable-background="new 0 0 24 24" xml:space="preserve">
<path d="M23,3h-3v2h-4V3H8v2H4V3H1C0.4,3,0,3.4,0,4v3c0,0.6,0.4,1,1,1v16h22V8c0.6,0,1-0.4,1-1V4C24,3.4,23.6,3,23,3z M21,22H3V8h18
	V22z M7,4H5V0h2V4z M19,4h-2V0h2V4z M7,12H5v-2h2V12z M11,12H9v-2h2V12z M15,12h-2v-2h2V12z M19,12h-2v-2h2V12z M7,16H5v-2h2V16z
	 M11,16H9v-2h2V16z M16,17h-4v-4h4V17z M19,16h-2v-2h2V16z M7,20H5v-2h2V20z M11,20H9v-2h2V20z M13,18h2v2h-2V18z M19,20h-2v-2h2V20
	z"/>
</svg>
