<?xml version="1.0" encoding="utf-8"?>
<!-- Generator: Adobe Illustrator 17.0.0, SVG Export Plug-In . SVG Version: 6.00 Build 0)  -->
<!DOCTYPE svg PUBLIC "-//W3C//DTD SVG 1.1//EN" "http://www.w3.org/Graphics/SVG/1.1/DTD/svg11.dtd">
<svg version="1.1" id="Layer_1" xmlns="http://www.w3.org/2000/svg" xmlns:xlink="http://www.w3.org/1999/xlink" x="0px" y="0px"
	 width="32px" height="32px" viewBox="0 0 32 32" enable-background="new 0 0 32 32" xml:space="preserve">
<path d="M28.57,5.372c-0.643-2.089-2.629-3.698-4.123-4.654c-1.02-0.651-2.324-0.666-3.357-0.039l-2.667,1.616
	c-1.207,0.731-2.719,0.731-3.925,0l-2.666-1.616c-1.035-0.627-2.338-0.612-3.357,0.039C6.979,1.674,4.993,3.283,4.35,5.372
	c-1.076,3.494-2.688,7.794,1.343,12.632c0,0-2.149,9.139,2.956,13.439c0,0,3.73,1.679,3.226-1.613
	c-0.327-2.138-0.303-10.058,4.585-10.445c4.889,0.387,4.913,8.308,4.585,10.445c-0.503,3.292,3.225,1.613,3.225,1.613
	c5.107-4.3,2.957-13.439,2.957-13.439C31.259,13.167,29.646,8.866,28.57,5.372z"/>
</svg>
