<?xml version="1.0" encoding="utf-8"?>
<!-- Generator: Adobe Illustrator 16.0.4, SVG Export Plug-In . SVG Version: 6.00 Build 0)  -->
<!DOCTYPE svg PUBLIC "-//W3C//DTD SVG 1.1//EN" "http://www.w3.org/Graphics/SVG/1.1/DTD/svg11.dtd">
<svg version="1.1" id="Layer_1" xmlns="http://www.w3.org/2000/svg" xmlns:xlink="http://www.w3.org/1999/xlink" x="0px" y="0px"
	 width="24px" height="24px" viewBox="0 0 24 24" enable-background="new 0 0 24 24" xml:space="preserve">
<path d="M10.035,12.341L5.6,5.6l6.741,4.435C13.279,10.198,14,11.017,14,12c0,1.1-0.9,2-2,2C11.017,14,10.198,13.279,10.035,12.341z
	 M12,0h-1v5h2V2.05c5.046,0.503,9,4.774,9,9.95c0,5.514-4.486,10-10,10C6.486,22,2,17.514,2,12c0-2.766,1.034-5.213,2.99-7.076
	L3.61,3.476C1.249,5.726,0,8.673,0,12c0,6.617,5.383,12,12,12s12-5.383,12-12S18.617,0,12,0z"/>
</svg>
