<?xml version="1.0" encoding="utf-8"?>
<!-- Generator: Adobe Illustrator 17.0.0, SVG Export Plug-In . SVG Version: 6.00 Build 0)  -->
<!DOCTYPE svg PUBLIC "-//W3C//DTD SVG 1.1//EN" "http://www.w3.org/Graphics/SVG/1.1/DTD/svg11.dtd">
<svg version="1.1" id="Layer_1" xmlns="http://www.w3.org/2000/svg" xmlns:xlink="http://www.w3.org/1999/xlink" x="0px" y="0px"
	 width="32px" height="32px" viewBox="0 0 32 32" enable-background="new 0 0 32 32" xml:space="preserve">
<g>
	<path d="M9.923,16.25h-4.63c-0.455,0-0.887,0.199-1.182,0.545C3.816,17.142,3.688,17.6,3.76,18.049
		c0.515,3.219,2.266,6.024,4.75,7.913c0.357,0.271,0.814,0.375,1.254,0.285c0.439-0.091,0.82-0.366,1.04-0.758
		c0.893-1.583,1.737-3.071,2.298-4.056C11.252,20.427,9.985,18.489,9.923,16.25z"/>
	<path d="M16.016,9.977c1.04,0,2.017,0.262,2.873,0.72l2.529-3.816c0.257-0.388,0.326-0.87,0.189-1.314
		c-0.136-0.444-0.464-0.806-0.894-0.981c-1.449-0.595-3.035-0.921-4.697-0.921c-1.556,0-3.042,0.285-4.413,0.806
		c-0.431,0.164-0.767,0.511-0.916,0.946c-0.15,0.436-0.099,0.915,0.14,1.31c0.986,1.634,1.855,3.078,2.375,3.942
		C14.043,10.229,15.001,9.977,16.016,9.977z"/>
	<path d="M22.072,15.377c0.026,0.229,0.042,0.462,0.042,0.699c0,2.176-1.143,4.087-2.858,5.164l2.18,3.835
		c0.251,0.442,0.704,0.733,1.212,0.779c0.506,0.046,0.954-0.206,1.329-0.552c2.675-2.464,3.96-5.615,4.184-7.981
		c0.04-0.417-0.013-0.837-0.268-1.169c-0.258-0.33-0.646-0.533-1.064-0.551C24.931,15.517,23.164,15.431,22.072,15.377z"/>
	<path d="M16.016,11.789c-1.022,0-1.957,0.358-2.693,0.951c-0.972,0.787-1.596,1.989-1.596,3.336c0,0.059,0.004,0.116,0.006,0.174
		c0.077,1.925,1.423,3.522,3.226,3.981c0.337,0.087,0.69,0.133,1.058,0.133c0.391,0,0.77-0.054,1.128-0.15
		c1.82-0.496,3.159-2.159,3.159-4.138C20.303,13.709,18.382,11.789,16.016,11.789z"/>
	<path d="M32.089,15.814c-0.094-5.684-3.146-10.656-7.682-13.443C21.964,0.868,19.089,0,16.016,0c-2.902,0-5.627,0.773-7.98,2.125
		C3.202,4.9-0.061,10.114-0.061,16.076c0,0.059,0.004,0.116,0.004,0.174c0.062,5.964,3.39,11.156,8.275,13.88
		c2.31,1.287,4.97,2.022,7.797,2.022c2.981,0,5.776-0.816,8.171-2.237c4.728-2.802,7.906-7.955,7.906-13.838
		C32.093,15.988,32.089,15.9,32.089,15.814z M22.99,27.81c-2.043,1.22-4.427,1.92-6.975,1.92c-2.401,0-4.663-0.624-6.625-1.719
		c-4.143-2.307-6.964-6.706-7.026-11.761c-0.001-0.058-0.001-0.115-0.001-0.174c0-5.087,2.794-9.533,6.931-11.882
		c1.986-1.127,4.278-1.771,6.722-1.771c2.581,0,4.994,0.72,7.054,1.966c3.86,2.338,6.474,6.532,6.596,11.334
		c0.004,0.116,0.004,0.235,0.004,0.354C29.669,21.059,26.988,25.425,22.99,27.81z"/>
</g>
</svg>
