<?xml version="1.0" encoding="utf-8"?>
<!-- Generator: Adobe Illustrator 16.0.0, SVG Export Plug-In . SVG Version: 6.00 Build 0)  -->
<!DOCTYPE svg PUBLIC "-//W3C//DTD SVG 1.1//EN" "http://www.w3.org/Graphics/SVG/1.1/DTD/svg11.dtd">
<svg version="1.1" id="Layer_1" xmlns="http://www.w3.org/2000/svg" xmlns:xlink="http://www.w3.org/1999/xlink" x="0px" y="0px"
	 width="126px" height="126px" viewBox="0 0 126 126" enable-background="new 0 0 126 126" xml:space="preserve">
<g>
	<path d="M124.732,82.391l-23.211-22.899c-0.502-0.495-1.147-0.813-1.838-0.934v-0.011c-0.166-0.023-0.333-0.048-0.504-0.048
		c-0.013,0-0.027,0.004-0.039,0.004c-0.016,0-0.026-0.004-0.041-0.004c-0.172,0-0.338,0.024-0.505,0.048v0.011
		c-0.689,0.12-1.335,0.438-1.838,0.934L73.548,82.391c-1.336,1.317-1.331,3.448,0.008,4.763c0.668,0.656,1.548,0.983,2.425,0.982
		c0.876-0.002,1.754-0.334,2.42-0.989l2.329-2.297l0.033,19.697l18.378-0.031l18.375,0.031l0.034-19.697l2.328,2.297
		c0.667,0.655,1.544,0.987,2.422,0.989c0.875,0.001,1.755-0.326,2.423-0.982C126.064,85.839,126.068,83.708,124.732,82.391z
		 M112.957,100.493l-8.145-0.012l0.021-11.521l-5.149-0.008v-0.001h-0.543h-0.546v0.001l-5.103,0.008l-0.025,11.521l-8.146,0.012
		L85.288,80.35l13.853-13.665l13.851,13.665L112.957,100.493z"/>
	<path d="M110.833,50.947c-3.485-13.254-17.543-25.218-33.425-28.446c-15.521-3.154-30.503,0.841-43.329,11.549
		C20.072,45.745,10.565,63.965,6.957,79.476c-1.077,0.233-2.052,0.553-2.877,0.99c-1.051,0.519-1.859,1.149-2.423,1.745
		c-0.58,0.571-0.898,1.142-1.104,1.503c-0.198,0.372-0.248,0.593-0.248,0.593s0.817-0.401,2.186-0.543
		c0.673-0.082,1.469-0.104,2.342,0.005c0.393,0.033,0.807,0.104,1.231,0.197c0,0,3.401,0.786,6.625,2.753
		c0,0,0.909,0.529,1.368,0.809c1.311,0.752,2.553,1.53,4.326,2.31c1.696,0.711,3.41,1.379,5.597,1.676
		c0.536,0.074,1.133,0.094,1.696,0.128c0.597,0.002,1.221-0.042,1.839-0.111c1.266-0.193,2.587-0.598,3.687-1.23
		c1.094-0.606,1.996-1.348,2.644-2c0.695-0.67,1.209-1.236,1.673-1.778c0,0,1.082-1.238,1.771-1.622
		c0.966-0.552,1.831-0.592,2.873-0.681c2.112-0.185,4.162-0.019,5.6,0.101c1.493,0.139,2.345,0.218,2.345,0.218
		s-0.125-0.184-0.386-0.503c-0.267-0.31-0.648-0.795-1.208-1.318c-0.549-0.545-1.27-1.142-2.161-1.774
		c-0.9-0.615-1.987-1.238-3.321-1.757c-1.333-0.5-2.93-0.798-4.895-0.821c-1.687-0.02-3.742,0.612-7.602,3.632
		c-0.504,0.395-1.264,0.949-2.67,0.854c-0.237-0.035-0.453-0.032-0.713-0.071c-1.025-0.11-2.381-0.521-3.656-0.908
		c-0.645-0.23-1.233-0.369-2.012-0.672c-0.366-0.136-0.73-0.269-1.093-0.401l-1.109-0.363c-0.814-0.26-1.586-0.557-2.423-0.707
		c-0.253-0.057-0.501-0.109-0.751-0.163c3.551-13.775,12.173-29.931,24.435-40.167c11.305-9.438,23.914-12.826,37.48-10.071
		c12.071,2.456,21.135,9.905,25.578,17.518c-18.76-3.735-32.56,0.365-41.062,12.249c-4.812,6.72-6.511,13.542-5.056,20.277
		c0.7,3.244,2.083,6.114,3.732,8.605c-0.725-0.204-1.48-0.384-2.315-0.497c-0.538-0.074-1.133-0.095-1.696-0.128
		c-0.597-0.003-1.221,0.042-1.838,0.111c-1.268,0.193-2.59,0.598-3.689,1.23c-1.093,0.606-1.994,1.348-2.643,1.999
		c-0.694,0.671-1.208,1.236-1.672,1.779c0,0-0.968,1.612-4.644,2.303c-2.085,0.392-4.163,0.02-5.6-0.101
		c-1.493-0.138-2.347-0.217-2.347-0.217s0.127,0.183,0.388,0.502c0.267,0.31,0.648,0.795,1.207,1.317
		c0.55,0.546,1.271,1.143,2.162,1.775c0.899,0.615,1.987,1.238,3.32,1.758c1.334,0.499,2.933,0.921,4.896,0.82
		c0.496-0.04,0.993-0.066,1.521-0.211l0.791-0.197c0.279-0.081,0.621-0.234,0.929-0.369l0.474-0.219l0.394-0.197l0.483-0.276
		l0.246-0.138l0.298-0.229l0.063-0.046l0.128-0.092l0.514-0.368c0.662-0.465,1.264-0.96,1.761-1.29
		c0.526-0.367,0.918-0.55,1.231-0.674c0.301-0.132,0.554-0.121,0.869-0.178c0.181,0.003,0.364,0.004,0.569-0.002
		c0.24,0.034,0.454,0.032,0.714,0.071c1.025,0.11,2.382,0.521,3.657,0.908c0.646,0.23,1.234,0.369,2.012,0.671l1.59,0.564
		l0.613,0.202c0.814,0.259,1.583,0.556,2.422,0.706c0.814,0.18,1.6,0.374,2.419,0.437c1.582,0.227,3.175,0.167,4.593-0.013
		c1.435-0.239,2.718-0.609,3.766-1.165c1.05-0.519,1.858-1.149,2.422-1.745c0.581-0.57,0.899-1.142,1.104-1.502
		c0.2-0.373,0.25-0.595,0.25-0.595s-0.817,0.402-2.186,0.544c-0.672,0.082-1.47,0.104-2.342-0.005
		c-0.186-0.015-0.375-0.042-0.567-0.073c-0.59-0.972-1.97-2.583-5.206-5.037c-2.176-1.65-6.857-6.918-7.993-12.246
		c-0.582-2.724-0.385-5.525,0.574-8.375c0.516-1.746,3.036-7.689,8.012-8.618c3.078-0.574,6.536,0.925,9.487,4.121
		c0.688,0.746,1.821,0.866,2.648,0.277c0.826-0.588,1.088-1.699,0.612-2.593c-1.732-3.252-3.903-5.981-6.475-8.185
		c7.469-2.961,17.202-2.72,29.389,0.693c1.203,0.341,2.491,0.005,3.38-0.871C110.8,53.44,111.151,52.153,110.833,50.947z"/>
	<path d="M15.264,94.832c-0.267-0.309-0.648-0.795-1.209-1.318c-0.549-0.544-1.27-1.141-2.161-1.773
		c-0.9-0.616-1.987-1.239-3.32-1.758c-1.334-0.5-2.933-0.922-4.896-0.821c-0.497,0.04-0.992,0.065-1.521,0.211l-0.791,0.196
		c-0.279,0.082-0.621,0.235-0.931,0.369l-0.167,0.078v10.071c0.429-0.333,0.805-0.672,1.12-0.988c0,0,3.959-4.002,6.316-4.082
		c1.295-0.063,4.161-0.019,5.599,0.102c1.493,0.138,2.345,0.217,2.345,0.217S15.523,95.152,15.264,94.832z"/>
</g>
</svg>
