<?xml version="1.0" encoding="iso-8859-1"?>
<!-- Generator: Adobe Illustrator 16.0.4, SVG Export Plug-In . SVG Version: 6.00 Build 0)  -->
<!DOCTYPE svg PUBLIC "-//W3C//DTD SVG 1.1//EN" "http://www.w3.org/Graphics/SVG/1.1/DTD/svg11.dtd">
<svg version="1.1" id="Capa_1" xmlns="http://www.w3.org/2000/svg" xmlns:xlink="http://www.w3.org/1999/xlink" x="0px" y="0px"
	 width="40px" height="44.438px" viewBox="0 0 40 44.438" style="enable-background:new 0 0 40 44.438;" xml:space="preserve">
<g id="_x33_50._Repeat">
	<g>
		<path d="M9.976,34.678C6.332,31.746,4,27.251,4,22.21C4,14.758,9.103,8.514,16,6.734V2.612C6.871,4.465,0,12.535,0,22.21
			c0,5.978,2.625,11.34,6.782,15.004C10,40.211,12,36.211,9.976,34.678z M33.049,7.061C31,5.211,28,8.211,29.967,9.697
			C33.644,12.628,36,17.144,36,22.21c0,7.453-5.104,13.697-12,15.476v4.123c9.129-1.854,16-9.923,16-19.599
			C40,16.152,37.304,10.728,33.049,7.061z M17.767,10.189l6.511-3.898c0.947-0.568,0.949-1.491,0.004-2.063l-6.57-3.976
			c-0.945-0.571-1.708-0.14-1.703,0.965l0.035,8C16.047,10.321,16.819,10.757,17.767,10.189z M22.289,34.252l-6.571,3.976
			c-0.945,0.572-0.943,1.495,0.005,2.063l6.51,3.898c0.947,0.567,1.72,0.132,1.725-0.973l0.034-8
			C23.996,34.112,23.233,33.681,22.289,34.252z"/>
	</g>
</g>
<g>
</g>
<g>
</g>
<g>
</g>
<g>
</g>
<g>
</g>
<g>
</g>
<g>
</g>
<g>
</g>
<g>
</g>
<g>
</g>
<g>
</g>
<g>
</g>
<g>
</g>
<g>
</g>
<g>
</g>
</svg>
