<?xml version="1.0" encoding="utf-8"?>
<!-- Generator: Adobe Illustrator 16.0.4, SVG Export Plug-In . SVG Version: 6.00 Build 0)  -->
<!DOCTYPE svg PUBLIC "-//W3C//DTD SVG 1.1//EN" "http://www.w3.org/Graphics/SVG/1.1/DTD/svg11.dtd">
<svg version="1.1" id="Layer_1" xmlns="http://www.w3.org/2000/svg" xmlns:xlink="http://www.w3.org/1999/xlink" x="0px" y="0px"
	 width="24px" height="24.1px" viewBox="0 0 24 24.1" enable-background="new 0 0 24 24.1" xml:space="preserve">
<path d="M11,13.101h2v7c0,2.242-1.757,4-4,4s-4-1.758-4-4c0-0.555,0.448-1,1-1s1,0.445,1,1c0,1.141,0.86,2,2,2s2-0.859,2-2V13.101z
	 M13,2.146V0h-2v2.146C4.864,2.613,0,7.312,0,13.101L0.6,12.8c2.1-1,4.6-1,6.7,0L8,13.101L8.7,12.8c2.1-1.1,4.6-1.1,6.7,0l0.6,0.301
	l0.7-0.301c2.1-1.1,4.6-1.1,6.7,0l0.6,0.301C24,7.312,19.137,2.613,13,2.146z"/>
</svg>
