<?xml version="1.0" encoding="utf-8"?>
<!-- Generator: Adobe Illustrator 17.0.0, SVG Export Plug-In . SVG Version: 6.00 Build 0)  -->
<!DOCTYPE svg PUBLIC "-//W3C//DTD SVG 1.1//EN" "http://www.w3.org/Graphics/SVG/1.1/DTD/svg11.dtd">
<svg version="1.1" id="Layer_1" xmlns="http://www.w3.org/2000/svg" xmlns:xlink="http://www.w3.org/1999/xlink" x="0px" y="0px"
	 width="32px" height="32px" viewBox="0 0 32 32" enable-background="new 0 0 32 32" xml:space="preserve">
<g>
	<path d="M29.76,18.434c2.592-2.516,3.129-8.644,0.726-11.525c-1.731-2.079-6.604-3.549-10.728-2.373
		c-4.494,1.282-6.668,4.154-6.824,9.291l-1.386,2.836c-0.078,0.157-0.081,0.34-0.013,0.502c0.067,0.162,0.203,0.287,0.37,0.342
		l0.967,0.32c-0.009,0.366-0.017,0.709-0.023,1.034c1.111,0.265,1.886,0.862,1.886,1.559c0,0.649-0.67,1.211-1.655,1.499
		c0.428,1.417,1.572,1.858,4.455,1.858c0.767,0,1.397-0.078,1.938-0.23l0.833,3.422c1.962-0.591,3.885-1.333,5.658-2.359
		c1.587-0.919,3.34-1.983,4.383-3.545L29.76,18.434L29.76,18.434z"/>
	<path d="M10.866,18.526l-1.543-0.404c-0.283-0.079-0.575,0.095-0.65,0.379c-0.075,0.284,0.096,0.575,0.379,0.649l0.273,0.071
		l1.271,0.334c0.044,0.013,0.09,0.017,0.135,0.017c0.236,0,0.452-0.156,0.514-0.396c0.043-0.16,0.004-0.322-0.086-0.446
		C11.09,18.635,10.99,18.56,10.866,18.526z"/>
	<path d="M4.6,17.983l2.227,0.584c0.045,0.013,0.091,0.018,0.135,0.018c0.236,0,0.452-0.158,0.515-0.396
		c0.075-0.286-0.095-0.575-0.379-0.649L4.87,16.955c-0.284-0.079-0.575,0.095-0.649,0.379C4.146,17.618,4.315,17.909,4.6,17.983z"/>
	<path d="M0.83,16.993l1.544,0.405c0.045,0.014,0.091,0.019,0.136,0.019c0.236,0,0.451-0.158,0.514-0.398
		c0.075-0.283-0.095-0.574-0.379-0.649l-1.544-0.405c-0.283-0.078-0.577,0.096-0.65,0.38C0.376,16.629,0.545,16.918,0.83,16.993z"/>
	<path d="M2.374,24.105L0.83,24.51c-0.285,0.075-0.454,0.365-0.379,0.65c0.062,0.238,0.278,0.396,0.514,0.396
		c0.045,0,0.091-0.004,0.136-0.017l1.544-0.405c0.284-0.074,0.454-0.365,0.379-0.649C2.95,24.198,2.657,24.025,2.374,24.105z"/>
	<path d="M6.827,22.938l-2.226,0.583c-0.285,0.073-0.455,0.364-0.381,0.65c0.063,0.238,0.279,0.396,0.515,0.396
		c0.045,0,0.089-0.005,0.135-0.018l2.227-0.583c0.285-0.074,0.455-0.365,0.38-0.649C7.402,23.031,7.111,22.86,6.827,22.938z"/>
	<path d="M11.124,22.105c-0.129-0.142-0.329-0.212-0.527-0.158l-0.202,0.054l-1.343,0.352c-0.284,0.075-0.454,0.366-0.379,0.649
		c0.062,0.24,0.278,0.398,0.514,0.398c0.044,0,0.09-0.005,0.136-0.019l1.543-0.405c0.285-0.075,0.454-0.366,0.38-0.649
		C11.223,22.242,11.18,22.168,11.124,22.105z"/>
	<path d="M3.698,20.202H0.505c-0.294,0-0.533,0.225-0.533,0.52c0,0.293,0.238,0.518,0.533,0.518h3.192
		c0.294,0,0.533-0.225,0.533-0.518C4.23,20.427,3.992,20.202,3.698,20.202z"/>
	<path d="M6.359,20.722c0,0.293,0.238,0.518,0.532,0.518h1.921h1.271c0.294,0,0.532-0.225,0.532-0.518
		c0-0.295-0.238-0.52-0.532-0.52H8.442H6.891C6.597,20.202,6.359,20.427,6.359,20.722z"/>
</g>
</svg>
