<?xml version="1.0" encoding="utf-8"?>
<!-- Generator: Adobe Illustrator 17.0.0, SVG Export Plug-In . SVG Version: 6.00 Build 0)  -->
<!DOCTYPE svg PUBLIC "-//W3C//DTD SVG 1.1//EN" "http://www.w3.org/Graphics/SVG/1.1/DTD/svg11.dtd">
<svg version="1.1" id="Layer_1" xmlns="http://www.w3.org/2000/svg" xmlns:xlink="http://www.w3.org/1999/xlink" x="0px" y="0px"
	 width="32px" height="32px" viewBox="0 0 32 32" enable-background="new 0 0 32 32" xml:space="preserve">
<g>
	<path d="M14.431,24.934h-2.225v-2.102c4.412-0.796,7.753-4.655,7.753-9.281c0-1.251-0.24-2.445-0.685-3.538
		c-0.486-0.183-1.004-0.281-1.539-0.281c-0.849,0-1.657,0.241-2.354,0.689c0.585,0.903,0.925,1.977,0.925,3.13
		c0,3.184-2.587,5.772-5.771,5.772c-3.182,0-5.77-2.588-5.77-5.772c0-2.423,1.501-4.499,3.62-5.354
		c0.432-0.678,0.941-1.314,1.523-1.895c0.794-0.793,1.69-1.451,2.661-1.96c-0.654-0.144-1.334-0.222-2.03-0.222
		c-5.199,0-9.446,4.232-9.446,9.431c0,4.523,3.208,8.31,7.437,9.22v2.164H6.457c-1.011,0-1.831,0.829-1.831,1.838
		c0,1.011,0.82,1.84,1.831,1.84H8.53v1.461c0,1.009,0.828,1.829,1.838,1.829c1.011,0,1.838-0.82,1.838-1.829v-1.461h2.225
		c1.011,0,1.829-0.829,1.829-1.84C16.26,25.763,15.441,24.934,14.431,24.934z"/>
	<path d="M29.877,0.518c-0.084-0.004-5.846,0.062-5.846,0.062c-1.025,0.012-1.849,1.016-1.834,2.044
		c0.012,1.018,0.842,1.996,1.857,1.996c0.006,0,0.016,0,0.024,0l1.074-0.177L23.196,6.32c-1.593-1.108-3.479-1.753-5.458-1.753
		c-2.56,0-4.966,0.977-6.776,2.786C8.07,10.244,7.418,14.53,9,18.055c0.102,0.034,0.205,0.066,0.31,0.095
		c0.349,0.094,0.709,0.146,1.068,0.158c0.052,0.002,0.105,0.003,0.158,0.003c0.882,0,1.742-0.245,2.492-0.709
		c-1.703-2.294-1.517-5.558,0.564-7.64c1.106-1.107,2.579-1.718,4.146-1.718c1.566,0,3.039,0.61,4.146,1.718
		c2.289,2.288,2.289,6.01,0,8.296c-0.844,0.846-1.902,1.401-3.054,1.616c-0.079,0.104-0.16,0.208-0.242,0.309
		c-1.078,1.309-2.455,2.335-4.004,2.989c1.001,0.347,2.063,0.528,3.154,0.528c2.559,0,4.965-1.001,6.776-2.81
		c3.248-3.249,3.784-8.269,1.385-11.981l2.21-2.092v1.299c0,1.026,0.811,1.859,1.838,1.859c1.026,0,1.839-0.833,1.839-1.859V2.362
		C31.786,1.865,31.702,0.631,29.877,0.518z"/>
</g>
</svg>
