<?xml version="1.0" encoding="utf-8"?>
<!-- Generator: Adobe Illustrator 16.0.4, SVG Export Plug-In . SVG Version: 6.00 Build 0)  -->
<!DOCTYPE svg PUBLIC "-//W3C//DTD SVG 1.1//EN" "http://www.w3.org/Graphics/SVG/1.1/DTD/svg11.dtd">
<svg version="1.1" id="Layer_1" xmlns="http://www.w3.org/2000/svg" xmlns:xlink="http://www.w3.org/1999/xlink" x="0px" y="0px"
	 width="112px" height="112px" viewBox="0 0 112 112" enable-background="new 0 0 112 112" xml:space="preserve">
<path d="M101.443,28H19.889c-6.318,0-8.932-2.954-9.949-4.723L98,14v-3.444C98,4.728,93.271,0,87.443,0L10.557,14.299
	C4.152,15.456,0,19.026,0,24.854v76.589C0,107.271,4.729,112,10.557,112h90.893c5.822,0,10.551-4.729,10.551-10.557V38.556
	C112,32.728,107.271,28,101.443,28z M93.334,79.334C88.177,79.334,84,75.156,84,70s4.177-9.334,9.334-9.334
	c5.156,0,9.332,4.178,9.332,9.334S98.49,79.334,93.334,79.334z"/>
</svg>
