<?xml version="1.0" encoding="utf-8"?>
<!-- Generator: Adobe Illustrator 17.0.0, SVG Export Plug-In . SVG Version: 6.00 Build 0)  -->
<!DOCTYPE svg PUBLIC "-//W3C//DTD SVG 1.1//EN" "http://www.w3.org/Graphics/SVG/1.1/DTD/svg11.dtd">
<svg version="1.1" id="Layer_1" xmlns="http://www.w3.org/2000/svg" xmlns:xlink="http://www.w3.org/1999/xlink" x="0px" y="0px"
	 width="32px" height="32px" viewBox="0 0 32 32" enable-background="new 0 0 32 32" xml:space="preserve">
<path d="M30.17,14.257H30.06v-0.938c0-0.895-0.726-1.621-1.621-1.621h-0.467v-1.305c0-0.895-0.727-1.621-1.621-1.621h-2.713
	c-0.895,0-1.62,0.726-1.62,1.621v3.864H9.901v-3.864c0-0.895-0.727-1.621-1.621-1.621H5.567c-0.894,0-1.62,0.726-1.62,1.621v1.305
	h-0.47c-0.894,0-1.62,0.726-1.62,1.621v0.938H1.644c-0.926,0-1.68,0.744-1.68,1.672c0,0.927,0.754,1.671,1.68,1.671h0.213v0.938
	c0,0.895,0.726,1.621,1.62,1.621h0.47v1.304c0,0.895,0.726,1.621,1.62,1.621H8.28c0.894,0,1.621-0.726,1.621-1.621V17.6h12.117
	v3.863c0,0.895,0.725,1.621,1.62,1.621h2.713c0.895,0,1.621-0.726,1.621-1.621v-1.304h0.467c0.895,0,1.621-0.726,1.621-1.621V17.6
	h0.109c0.928,0,1.681-0.744,1.681-1.671C31.851,15.001,31.098,14.257,30.17,14.257z"/>
</svg>
