<?xml version="1.0" encoding="utf-8"?>
<!-- Generator: Adobe Illustrator 16.0.0, SVG Export Plug-In . SVG Version: 6.00 Build 0)  -->
<!DOCTYPE svg PUBLIC "-//W3C//DTD SVG 1.1//EN" "http://www.w3.org/Graphics/SVG/1.1/DTD/svg11.dtd">
<svg version="1.1" id="Layer_1" xmlns="http://www.w3.org/2000/svg" xmlns:xlink="http://www.w3.org/1999/xlink" x="0px" y="0px"
	 width="100px" height="100px" viewBox="0 0 100 100" enable-background="new 0 0 100 100" xml:space="preserve">
<g>
	<path d="M51.613,45.076c-0.201-0.013-0.377,0.015-0.535,0.064V23.571c1.17-0.438,2.005-1.562,2.005-2.885
		c0-1.704-1.38-3.084-3.083-3.084s-3.083,1.38-3.083,3.084c0,1.323,0.835,2.447,2.005,2.885v21.6
		c-0.182-0.074-0.393-0.112-0.639-0.096c-3.274,0.208-7.687,1.494-7.972,5.451c-0.224,3.103,1.904,5.266,4.444,6.638
		c-3.184,2.882-2.86,7.976,0.776,10.735c-1.309,1.338-2.245,2.975-1.95,4.979c0.376,2.57,2.285,4.362,4.549,5.432
		c0.275,0.129,0.542,0.165,0.792,0.142v0.989v0.535v1.341c0,0.596,0.483,1.079,1.078,1.079s1.078-0.483,1.078-1.079v-1.341v-0.535
		v-0.981c0.221,0.003,0.452-0.039,0.688-0.15c2.264-1.07,4.173-2.862,4.549-5.432c0.294-2.004-0.641-3.641-1.951-4.979
		c3.634-2.758,3.959-7.847,0.782-10.73c2.387-1.288,4.314-3.263,4.471-6.192C59.843,46.771,54.88,45.284,51.613,45.076z
		 M43.265,51.507c-0.797-2.673,3.342-3.393,5.019-3.499c0.245-0.016,0.457-0.082,0.639-0.18v7.985
		c-0.144-0.115-0.312-0.211-0.512-0.273C46.296,54.88,43.95,53.804,43.265,51.507z M48.41,58.368
		c0.201-0.064,0.369-0.162,0.512-0.28v8.391c-0.051-0.031-0.103-0.061-0.162-0.085C45.014,64.754,43.857,59.831,48.41,58.368z
		 M48.76,68.925c0.057-0.042,0.11-0.09,0.162-0.142v6.627C46.134,73.764,45.758,71.168,48.76,68.925z M51.078,75.345v-6.469
		c0.02,0.017,0.038,0.035,0.058,0.049C54.099,71.14,53.768,73.695,51.078,75.345z M51.136,66.393
		c-0.021,0.008-0.038,0.021-0.058,0.031v-8.258c0.12,0.083,0.255,0.152,0.408,0.202C56.039,59.831,54.882,64.754,51.136,66.393z
		 M51.486,55.54c-0.154,0.048-0.288,0.117-0.408,0.197v-7.862c0.159,0.07,0.334,0.121,0.535,0.134c1.862,0.118,4.9,0.583,5.072,2.97
		C56.867,53.51,53.354,54.957,51.486,55.54z"/>
	<path d="M97.687,43.662c-7.492-0.697-13.818-4.218-19.663-8.761c-4.913-3.819-9.968-9.556-16.322-10.781
		c-4.137-0.797-10.812,1.552-10.619,6.589c0.075,1.958,1.051,3.83,1.637,5.667c0.84,2.636,0.558,4.939-1.127,7.169
		c-0.856,1.134,1.057,2.229,1.901,1.112c2.81-3.718,1.875-7.449,0.433-11.49c-0.647-1.812-1.114-3.536,0.438-4.999
		c2.683-2.527,6.84-2.355,9.928-0.871c2.891,1.389,5.478,3.666,7.927,5.706c2.497,2.08,5.018,4.128,7.668,6.01
		c4.4,3.123,9.203,5.337,14.418,6.359c-10.113,3.668-20.98-6.366-31.192-6.335c-1.42,0.004-1.42,2.206,0,2.202
		c6.17-0.019,12.103,3.411,17.828,5.329c2.455,0.823,5.008,1.442,7.544,1.612c-4.202,1.139-8.605,1.083-13.249-0.001
		c-5.292-1.233-10.469-3.694-15.986-3.667c-1.42,0.007-1.42,2.209,0,2.202c6.062-0.03,11.863,2.972,17.757,4.087
		c7.347,1.39,14.333-0.127,20.457-4.404c0.036-0.025,0.938-0.681,1.021-0.81C99.005,45.016,98.735,43.76,97.687,43.662z"/>
	<path d="M40.75,44.513c-5.518-0.027-10.695,2.434-15.986,3.667c-4.644,1.083-9.046,1.14-13.249,0.001
		c2.537-0.17,5.089-0.789,7.544-1.612c5.725-1.918,11.657-5.348,17.828-5.329c1.42,0.004,1.42-2.198,0-2.202
		c-10.213-0.031-21.08,10.003-31.192,6.335c5.215-1.022,10.018-3.236,14.418-6.359c2.65-1.881,5.171-3.93,7.668-6.01
		c2.45-2.04,5.036-4.317,7.927-5.706c3.088-1.484,7.245-1.656,9.928,0.871c1.552,1.463,1.085,3.187,0.438,4.999
		c-1.442,4.041-2.377,7.771,0.433,11.49c0.845,1.118,2.758,0.022,1.901-1.112c-1.685-2.23-1.968-4.533-1.127-7.169
		c0.586-1.837,1.562-3.709,1.637-5.667c0.193-5.038-6.482-7.386-10.619-6.589c-6.354,1.226-11.409,6.962-16.322,10.781
		c-5.845,4.543-12.171,8.064-19.664,8.761c-1.048,0.098-1.319,1.354-0.798,1.926c0.083,0.129,0.985,0.785,1.021,0.81
		c6.123,4.277,13.109,5.794,20.456,4.404c5.894-1.115,11.695-4.118,17.757-4.087C42.17,46.722,42.17,44.52,40.75,44.513z"/>
</g>
</svg>
