<?xml version="1.0" encoding="utf-8"?>
<!-- Generator: Adobe Illustrator 16.0.0, SVG Export Plug-In . SVG Version: 6.00 Build 0)  -->
<!DOCTYPE svg PUBLIC "-//W3C//DTD SVG 1.1//EN" "http://www.w3.org/Graphics/SVG/1.1/DTD/svg11.dtd">
<svg version="1.1" id="Layer_1" xmlns="http://www.w3.org/2000/svg" xmlns:xlink="http://www.w3.org/1999/xlink" x="0px" y="0px"
	 width="50px" height="50px" viewBox="0 0 50 50" enable-background="new 0 0 50 50" xml:space="preserve">
<g>
	<path d="M40.289,36.097v-12.33c0-0.22-0.144-0.414-0.354-0.478l-5.708-1.75c0-0.013,0.004-0.024,0.004-0.037
		c0-1.011-0.822-1.833-1.833-1.833c-0.621,0-1.168,0.312-1.5,0.784v-9.639c0-0.276-0.224-0.5-0.5-0.5h-9.391
		c-0.133,0-0.26,0.053-0.354,0.146s-0.146,0.221-0.146,0.354l0.001,5.283c-0.768,0.219-1.334,0.918-1.334,1.755
		c0,0.311,0.085,0.599,0.222,0.855l-6.067-3.467c-0.154-0.088-0.345-0.088-0.499,0.001c-0.154,0.09-0.249,0.254-0.249,0.433v5.056
		c-0.739,0.237-1.278,0.922-1.278,1.738c0,0.933,0.702,1.696,1.604,1.81l-3.003,2.325c-0.123,0.095-0.194,0.241-0.194,0.396v9.098
		c-0.768,0.22-1.333,0.919-1.333,1.755c0,1.011,0.822,1.833,1.834,1.833c1.011,0,1.833-0.822,1.833-1.833
		c0-0.837-0.566-1.537-1.334-1.756v-8.852l4.852-3.756l0.001,12.608c-0.768,0.219-1.334,0.918-1.334,1.755
		c0,1.011,0.822,1.833,1.834,1.833c1.011,0,1.833-0.822,1.833-1.833c0-0.836-0.566-1.536-1.333-1.755l-0.001-13.628
		c0-0.191-0.108-0.365-0.28-0.449c-0.168-0.084-0.375-0.063-0.525,0.053l-0.81,0.627c0.01-0.077,0.023-0.152,0.023-0.231
		c0-0.857-0.593-1.573-1.389-1.773v-4.16l6.927,3.958l0.001,15.603c-0.768,0.219-1.334,0.918-1.334,1.755
		c0,1.011,0.822,1.833,1.834,1.833c1.011,0,1.833-0.822,1.833-1.833c0-0.836-0.566-1.536-1.333-1.755l-0.001-15.893
		c0-0.179-0.096-0.345-0.252-0.434l-0.163-0.093c0.972-0.045,1.749-0.842,1.749-1.825c0-0.836-0.566-1.536-1.333-1.755l-0.001-4.783
		h8.391v24.783c-0.768,0.219-1.334,0.918-1.334,1.755c0,1.011,0.822,1.833,1.834,1.833c1.011,0,1.833-0.822,1.833-1.833
		c0-0.836-0.566-1.536-1.333-1.755V22.551c0.332,0.473,0.879,0.784,1.5,0.784c0.645,0,1.21-0.336,1.536-0.84l5.354,1.641v11.96
		c-0.768,0.219-1.334,0.918-1.334,1.755c0,1.011,0.822,1.833,1.834,1.833c1.011,0,1.833-0.822,1.833-1.833
		C41.622,37.016,41.056,36.316,40.289,36.097z M11.044,37.852c0,0.459-0.374,0.833-0.833,0.833c-0.46,0-0.834-0.374-0.834-0.833
		s0.374-0.833,0.834-0.833C10.67,37.019,11.044,37.393,11.044,37.852z M16.063,37.019c0.459,0,0.833,0.374,0.833,0.833
		s-0.374,0.833-0.833,0.833c-0.46,0-0.834-0.374-0.834-0.833S15.603,37.019,16.063,37.019z M13.97,22.469
		c0,0.459-0.374,0.833-0.833,0.833c-0.46,0-0.834-0.374-0.834-0.833s0.374-0.833,0.834-0.833
		C13.596,21.635,13.97,22.009,13.97,22.469z M21.842,37.852c0,0.459-0.374,0.833-0.833,0.833c-0.46,0-0.834-0.374-0.834-0.833
		s0.374-0.833,0.834-0.833C21.468,37.019,21.842,37.393,21.842,37.852z M21.842,17.852c0,0.459-0.374,0.833-0.833,0.833
		c-0.46,0-0.834-0.374-0.834-0.833s0.374-0.833,0.834-0.833C21.468,17.019,21.842,17.393,21.842,17.852z M31.231,37.852
		c0,0.459-0.374,0.833-0.833,0.833c-0.46,0-0.834-0.374-0.834-0.833s0.374-0.833,0.834-0.833
		C30.857,37.019,31.231,37.393,31.231,37.852z M32.398,22.335c-0.46,0-0.834-0.374-0.834-0.833s0.374-0.833,0.834-0.833
		c0.459,0,0.833,0.374,0.833,0.833S32.857,22.335,32.398,22.335z M39.789,38.686c-0.46,0-0.834-0.374-0.834-0.833
		s0.374-0.833,0.834-0.833c0.459,0,0.833,0.374,0.833,0.833S40.248,38.686,39.789,38.686z"/>
	<rect x="23.294" y="12.625" width="1.833" height="1.833"/>
	<rect x="23.294" y="15.458" width="1.833" height="1.833"/>
	<rect x="23.294" y="18.291" width="1.833" height="1.833"/>
	<rect x="23.294" y="21.124" width="1.833" height="1.833"/>
	<rect x="23.294" y="23.957" width="1.833" height="1.833"/>
	<rect x="23.294" y="26.79" width="1.833" height="1.833"/>
	<rect x="23.294" y="29.623" width="1.833" height="1.833"/>
	<rect x="23.294" y="32.456" width="1.833" height="1.833"/>
	<rect x="23.294" y="35.289" width="1.833" height="1.833"/>
	<rect x="26.127" y="12.625" width="1.833" height="1.833"/>
	<rect x="26.127" y="15.458" width="1.833" height="1.833"/>
	<rect x="26.127" y="18.291" width="1.833" height="1.833"/>
	<rect x="26.127" y="21.124" width="1.833" height="1.833"/>
	<rect x="26.127" y="23.957" width="1.833" height="1.833"/>
	<rect x="26.127" y="26.79" width="1.833" height="1.833"/>
	<rect x="26.127" y="29.623" width="1.833" height="1.833"/>
	<rect x="26.127" y="32.456" width="1.833" height="1.833"/>
	<rect x="26.127" y="35.289" width="1.833" height="1.833"/>
	<rect x="32.794" y="23.957" width="1.833" height="1.833"/>
	<rect x="32.794" y="26.79" width="1.833" height="1.833"/>
	<rect x="32.794" y="29.623" width="1.833" height="1.833"/>
	<rect x="32.794" y="32.456" width="1.833" height="1.833"/>
	<rect x="32.794" y="35.289" width="1.833" height="1.833"/>
	<rect x="35.627" y="23.957" width="1.833" height="1.833"/>
	<rect x="35.627" y="26.79" width="1.833" height="1.833"/>
	<rect x="35.627" y="29.623" width="1.833" height="1.833"/>
	<rect x="35.627" y="32.456" width="1.833" height="1.833"/>
	<rect x="35.627" y="35.289" width="1.833" height="1.833"/>
	<rect x="17.669" y="21.124" width="1.833" height="1.833"/>
	<rect x="17.669" y="23.957" width="1.833" height="1.833"/>
	<rect x="17.669" y="26.79" width="1.833" height="1.833"/>
	<rect x="17.669" y="29.623" width="1.833" height="1.833"/>
	<rect x="17.669" y="32.456" width="1.833" height="1.833"/>
	<rect x="12.669" y="26.79" width="1.833" height="1.833"/>
	<rect x="12.669" y="29.623" width="1.833" height="1.833"/>
	<rect x="12.669" y="32.456" width="1.833" height="1.833"/>
</g>
<g id="Ribbon_6">
	<g id="Regal_Vector_Pack_02">
	</g>
</g>
</svg>
