<?xml version="1.0" encoding="utf-8"?>
<!-- Generator: Adobe Illustrator 16.0.0, SVG Export Plug-In . SVG Version: 6.00 Build 0)  -->
<!DOCTYPE svg PUBLIC "-//W3C//DTD SVG 1.1//EN" "http://www.w3.org/Graphics/SVG/1.1/DTD/svg11.dtd">
<svg version="1.1" id="Layer_4" xmlns="http://www.w3.org/2000/svg" xmlns:xlink="http://www.w3.org/1999/xlink" x="0px" y="0px"
	 width="100px" height="100px" viewBox="0 0 100 100" enable-background="new 0 0 100 100" xml:space="preserve">
<g>
	<path d="M84.701,90.36l-7.283-35.186l-2.979-1.132l-3.366,1.286l-0.875-5.372l-6.183-2.41l-2.079-20.185l3.21-3.125l-12.984-8.421
		L51.278,1.228l-1.194,13.241l-0.649-0.422v0.013l-10.17,13.153l2.396,1.75L40.36,39.373l-1.982-0.306l-1.448,2.157L35.24,51.487
		l-7.028-1.447v-0.002l-0.003,0.002l-0.01-0.002l-0.004,0.015l-2.396,2.231l-1.137,5.136l-1.354,1.115l-7.855,28.455l-0.153,0.325
		l4.155,4.078l0.089,0.09l10.648-1.033l-0.397,2.153l5.21,2.254l1.209-0.334l-0.054,0.011l0.294-0.08l-0.081,0.964l8.415,3.354
		l0.008-0.004l17.064-2.719v-0.886l2.325,0.324l-0.075-0.147l0.003,0.059l-0.011-0.073l0.008,0.014l9.133-1.545l-0.244-1.913
		l0.166,0.074l2.719,0.724l3.761-0.724l-0.113-0.643L84.701,90.36z M19.176,90.413l-3.266-3.205l0.019-0.04l0.013-0.042
		l7.812-28.301l1.23-1.013l0.136-0.112l0.037-0.17l1.104-4.982l1.108-1.041L19.176,90.413z M48.08,50.337l-0.193-0.057l-0.607-0.176
		l-0.039,0.632l-2.916,47.307l-7.409-2.953l2.193-20.577l3.276-10.607l0.02-0.057l0.002-0.059l0.327-4.971l0.022-0.323l-0.286-0.155
		l-2.818-1.525l-0.489-0.265l-0.161-0.136l-0.006,0.045l-0.089-0.049v0.82l-0.015,0.117l-4.32,36.769l-4.206-1.819l6.305-34.25
		l1.62-0.985l0.146-0.07l0.248-0.121l0.033-0.272l3.447-27.576l0.037-0.295l-0.24-0.176l-1.977-1.444l9.095-11.763l0.327,2.745
		L48.08,50.337z M59.885,56.27l-1.708-0.624l-0.167-5.12l2.41,0.634l0.235,4.035l-0.806,0.377L59.885,56.27z M58.177,49.086
		l-0.167-4.494l2.41,1.034l0.32,4.412L58.177,49.086z M59.699,33.524l-2.166-1.115v-3.297l2.083,1.14L59.699,33.524z M53.208,21.99
		l2.168,1.116l0.082,3.605l-2.25-1.205V21.99z M53.292,26.874l2.312,1.213l0.082,3.354l-2.478-1.188L53.292,26.874z M55.686,32.799
		l0.158,3.532l-2.552-1.204l-0.084-3.524L55.686,32.799z M56.01,42.103l-2.718-1.115v-4.656l2.552,1.205L56.01,42.103z
		 M56.252,55.174l-0.566-0.163l-0.001,0.004l0.082-1.844l-2.475-0.744v-3.676l2.96,1.213V55.174z M53.292,47.148l0.061-4.647
		l2.739,1.123l0.16,4.648L53.292,47.148z M57.293,24.156l1.998,1.033l0.167,3.614l-2.083-1.042L57.293,24.156z M57.533,33.768
		l2.238,1.131l0.248,3.435l-2.323-1.042L57.533,33.768z M57.781,38.586l2.312,1.114l0.327,4.323l-2.492-1.033L57.781,38.586z
		 M58.177,63.102l-0.167-5.21l1.999,0.845l0.258,5.067L58.177,63.102z M62.336,94.719l-1.963-38.831l0.739-0.347l2.41,39.343
		L62.336,94.719z M75.902,92.161l-2.451-0.653l-0.515-3.237l-0.085-0.527l-0.521,0.111l-0.644,0.137l-3.709-31.842l-0.04-0.352
		l-0.344-0.083l-2.296-0.55l-0.694-6.845l5.139,2.002l1.4,9.016l0.047,0.305l0.292,0.098l2.123,0.71l5.454,31.102L75.902,92.161z"/>
	<path d="M40.256,49.465l-0.179,0.125l-0.03,0.214l-0.168,1.124l-0.172,1.163l0.964-0.674l6.647-4.646l0.217-0.152v-0.264v-1.034
		v-0.975l-0.798,0.561L40.256,49.465z M47.029,46.356l-6.649,4.647l0.166-1.124l6.483-4.558V46.356z"/>
	<path d="M47.782,35.253l0.14-0.134l0.016-0.193l0.085-1.106l0.102-1.304l-0.953,0.896l-5.616,5.283l-0.132,0.124l-0.022,0.18
		l-0.168,1.286l-0.184,1.425l1.037-0.994L47.782,35.253z M41.901,39.063l5.617-5.282l-0.085,1.107l-5.698,5.461L41.901,39.063z"/>
	<path d="M48.265,25.802l0.154-0.149v-0.215v-1.196v-1.204l-0.86,0.843l-4.729,4.631l-0.126,0.125l-0.022,0.177l-0.153,1.294
		l-0.17,1.416l1.024-0.992L48.265,25.802z M43.184,28.873l4.729-4.631v1.196l-4.883,4.729L43.184,28.873z"/>
	<path d="M48.028,30.527l0.14-0.136l0.011-0.195l0.072-1.294l0.077-1.36l-0.946,0.979l-5.197,5.38l-0.101,0.105l-0.03,0.143
		l-0.253,1.205l-0.343,1.64l1.193-1.175L48.028,30.527z M42.549,34.252l5.197-5.38l-0.073,1.294l-5.376,5.29L42.549,34.252z"/>
	<path d="M40.945,43.8l-0.16,0.132l-0.021,0.205l-0.104,0.971l-0.13,1.206l0.948-0.756l6.033-4.813l0.174-0.138l0.015-0.221
		l0.069-0.969V39.41l0.002-0.007l0.007-0.146l0.052-1.139l-0.88,0.726L40.945,43.8z M47.266,39.38l-0.07,0.968l-6.033,4.813
		l0.104-0.972l6.006-4.956L47.266,39.38z"/>
</g>
</svg>
