<?xml version="1.0" encoding="utf-8"?>
<!-- Generator: Adobe Illustrator 16.0.4, SVG Export Plug-In . SVG Version: 6.00 Build 0)  -->
<!DOCTYPE svg PUBLIC "-//W3C//DTD SVG 1.1//EN" "http://www.w3.org/Graphics/SVG/1.1/DTD/svg11.dtd">
<svg version="1.1" id="Capa_1" xmlns="http://www.w3.org/2000/svg" xmlns:xlink="http://www.w3.org/1999/xlink" x="0px" y="0px"
	 width="200px" height="200px" viewBox="0 0 200 200" enable-background="new 0 0 200 200" xml:space="preserve">
<g>
	<path fill-rule="evenodd" clip-rule="evenodd" fill="#010002" d="M132.037,127.41c-3.441,0.827-11.912,3.783-27.86,5.526
		c-7.352,0.805-22.958,1.9-40.299-0.052c-9.835-1.106-23.539-4.353-23.539-4.353s1.82,12.519,12.627,24.379
		c10.691,11.731,21.697,13.467,21.697,13.467s29.322,9.739,64.58-5.298c10.28-5.235,19.221-12.856,23.695-19.471
		c11.504-16.997,9.033-32.291,9.033-32.291S152.398,122.524,132.037,127.41z"/>
	<path fill-rule="evenodd" clip-rule="evenodd" fill="#010002" d="M80.176,130.801c27.435-0.681,41.247-3.147,55.567-7.472
		c21.133-6.375,36.104-17.081,36.104-17.081s-10.136-22.189-13.945-26.778c-3.809-4.594-16.4-26.214-41.923-29.328
		c-6.53-0.796-41.034,0.547-61.743,19.73c-2.062,1.908-12.561,11.131-16.055,28.311c-2.704,13.297,1.741,28.289,1.741,28.289
		S62.876,131.23,80.176,130.801z M136.354,71.161c7.302-0.465,13.589,5.039,14.041,12.3s-5.107,13.526-12.408,13.993
		c-7.302,0.467-13.589-5.041-14.041-12.302C123.493,77.893,129.048,71.63,136.354,71.161z M56.416,92.822
		c-0.717-11.535,8.111-21.49,19.716-22.232c11.605-0.744,21.596,8.009,22.312,19.546c0.717,11.535-8.108,21.487-19.715,22.23
		C67.124,113.112,57.135,104.358,56.416,92.822z"/>
	<path fill-rule="evenodd" clip-rule="evenodd" fill="#010002" d="M46.611,74.998l-4.939-3.91c0,0-6.854,4.235-12.524,13.541
		c-1.281-1.396-1.585-3.785-2.855-5.442c-1.461-1.906-1.838-0.77-5.193-0.779c-1.399-0.003-2.227-0.276-2.791-0.651
		c0.544-0.831,0.846-1.826,0.78-2.889c-0.162-2.631-2.439-4.625-5.085-4.456c-2.647,0.169-4.66,2.439-4.495,5.068
		c0.162,2.63,2.439,4.627,5.085,4.456c0.427-0.028,0.829-0.127,1.217-0.257c0.548,0.824,1.629,1.821,3.699,1.945
		c3.592,0.215,3.481-1.557,5.026,1.678c0.809,1.696,2.031,3.178,3.014,4.208c-4.185,8.692-3.615,18.511-3.615,18.511l11.43,3.944
		c0,0-0.384-9.761,1.572-17.893C38.892,83.941,46.611,74.998,46.611,74.998z"/>
	<path fill-rule="evenodd" clip-rule="evenodd" fill="#010002" d="M95.354,49.42c10.862-1.584,24.564-0.682,24.564-0.682
		l1.008-5.401c0,0-7.334-3.372-19.654-2.477l-1.053-2.822c3.749-0.696,6.478-4.076,6.237-7.951c-0.258-4.191-3.888-7.37-8.104-7.1
		c-4.213,0.269-7.421,3.884-7.158,8.076c0.215,3.48,2.76,6.256,6.032,6.942l1.17,3.134c-2.479,0.301-5.129,0.773-7.939,1.476
		c-8.12,2.031-13.247,6.408-13.247,6.408l2.349,5.408C79.56,54.431,84.492,51.004,95.354,49.42z"/>
	<path fill-rule="evenodd" clip-rule="evenodd" fill="#010002" d="M179.229,61.845c2.647-0.171,4.662-2.439,4.5-5.068
		c-0.169-2.631-2.444-4.625-5.088-4.456c-2.647,0.171-4.662,2.439-4.497,5.068c0.029,0.46,0.143,0.892,0.292,1.305
		c-2.326,2.123-1.195,5.738-1.071,7.752c0.126,2.042-1.889,2.503-3.561,3.189c-0.016-0.022-0.03-0.045-0.046-0.067
		c-5.901-8.517-15.129-13.042-15.129-13.042l-6.662,7.987c0,0,6.901,6.673,12.008,13.241c5.106,6.568,8.525,14.8,8.525,14.8
		l10.993-6.708c0,0-2.938-5.943-7.625-13.135c2.573-1.263,4.196-2.393,4.029-5.093c-0.186-3.002-0.67-4.322,0.81-6.32
		C177.46,61.69,178.319,61.903,179.229,61.845z"/>
</g>
</svg>
