<?xml version="1.0" encoding="iso-8859-1"?>
<!-- Generator: Adobe Illustrator 18.0.0, SVG Export Plug-In . SVG Version: 6.00 Build 0)  -->
<!DOCTYPE svg PUBLIC "-//W3C//DTD SVG 1.1//EN" "http://www.w3.org/Graphics/SVG/1.1/DTD/svg11.dtd">
<svg version="1.1" id="Capa_1" xmlns="http://www.w3.org/2000/svg" xmlns:xlink="http://www.w3.org/1999/xlink" x="0px" y="0px"
	 viewBox="0 0 42.606 42.122" style="enable-background:new 0 0 42.606 42.122;" xml:space="preserve">
<g id="linkedin">
	<g>
		<path style="fill-rule:evenodd;clip-rule:evenodd;" d="M9.299,11.766H1.228c-0.552,0-1,0.448-1,1V40.98c0,0.552,0.448,1,1,1h8.072
			c0.552,0,1-0.448,1-1V12.766C10.299,12.213,9.852,11.766,9.299,11.766z M8.299,39.98H2.227V13.766h6.072V39.98z M31.803,11.423
			c-3.919,0-6.483,1.691-7.972,3.162l-0.184-1.915c-0.05-0.514-0.482-0.904-0.995-0.904h-0.02l-7.358,0.141
			c-0.27,0.005-0.526,0.119-0.71,0.316c-0.185,0.197-0.282,0.46-0.27,0.729c0.092,2.06,0.089,4.468,0.085,7.256l-0.001,20.914
			c0,0.552,0.448,1,1,1h8.072c0.552,0,1-0.448,1-1v-16.31c0-0.833,0.072-1.435,0.215-1.794c0.503-1.281,2.163-2.605,4.069-2.605
			c2.469,0,3.942,1.878,3.942,5.025v15.684c0,0.552,0.448,1,1,1h7.93c0.552,0,1-0.448,1-1V24.414
			C42.606,16.279,38.567,11.423,31.803,11.423z M40.606,40.122h-5.93V25.438c0-4.268-2.333-7.025-5.942-7.025
			c-2.864,0-5.193,1.996-5.928,3.869c-0.243,0.607-0.356,1.412-0.356,2.53v15.31h-6.072l0.001-19.911
			c0.003-2.368,0.006-4.464-0.049-6.324l5.415-0.104l0.311,3.225c0.05,0.513,0.481,0.904,0.996,0.904h0.17
			c0.345,0,0.665-0.177,0.848-0.47c0.59-0.943,2.891-4.019,7.734-4.019c5.595,0,8.803,4.006,8.803,10.991V40.122z M5.602,0
			C2.356,0,0,2.237,0,5.32c0,3.081,2.309,5.317,5.49,5.317c3.279,0,5.659-2.236,5.659-5.341C11.076,2.178,8.795,0,5.602,0z
			 M5.49,8.637C3.435,8.637,2,7.273,2,5.32C2,3.334,3.448,2,5.602,2c2.107,0,3.5,1.312,3.547,3.32
			C9.149,7.304,7.678,8.637,5.49,8.637z"/>
	</g>
</g>
<g>
</g>
<g>
</g>
<g>
</g>
<g>
</g>
<g>
</g>
<g>
</g>
<g>
</g>
<g>
</g>
<g>
</g>
<g>
</g>
<g>
</g>
<g>
</g>
<g>
</g>
<g>
</g>
<g>
</g>
</svg>
