<?xml version="1.0" encoding="iso-8859-1"?>
<!-- Generator: Adobe Illustrator 17.0.2, SVG Export Plug-In . SVG Version: 6.00 Build 0)  -->
<!DOCTYPE svg PUBLIC "-//W3C//DTD SVG 1.1//EN" "http://www.w3.org/Graphics/SVG/1.1/DTD/svg11.dtd">
<svg version="1.1" id="Capa_1" xmlns="http://www.w3.org/2000/svg" xmlns:xlink="http://www.w3.org/1999/xlink" x="0px" y="0px"
	 width="64px" height="64px" viewBox="0 0 64 64" style="enable-background:new 0 0 64 64;" xml:space="preserve">
<g>
	<path d="M41.196,37.027c-0.429-0.352-1.529-0.139-1.795,0.36c-2.578,4.817-9.039-2.434-11.294-4.65
		c-2.88-2.83-0.78-5.482-0.372-8.14c0.168-1.092,0.135-2.051,0.37-2.244c0.185-0.152,0.253-0.32,0.09-0.458
		c-3.021-2.554-9.983-14.639-14.918-7.286c-6.618,9.86,3.196,20.532,10.075,26.907c5.272,4.886,13.448,13.105,21.493,11.001
		c1.068-0.28,2.098-0.748,2.367-0.837c0.27-0.09,0.59-0.285,0.722-0.421c0.132-0.136,1.021-0.707,1.803-1.487
		C54.562,44.962,45.254,40.37,41.196,37.027z M48.88,49.13c-0.832,0.726-1.924,0.999-2.182,0.977
		c-0.258-0.02-0.603,0.087-0.773,0.258c-0.169,0.17-0.879,0.473-1.6,0.614c-0.72,0.141-0.978-0.13-0.565-0.546
		c0.412-0.416,0.683-0.771,0.606-0.797c-0.077-0.025-0.487,0.321-0.915,0.773c-0.428,0.451-1.38,0.889-2.129,0.893
		c-0.524,0.004-0.986-0.028-1.35-0.098c-0.022-0.004-0.045-0.01-0.067-0.017c-0.037-0.01,0.432-0.55,1.048-1.209
		c0.616-0.659,0.616-1.419,0.02-1.739c-0.596-0.319-1.655-0.011-2.383,0.724c-0.729,0.735-2.132,0.957-3.081,0.393
		c-0.134-0.08-0.267-0.161-0.399-0.243c-0.939-0.583-1.034-1.739-0.254-2.521c0.023-0.023,0.045-0.045,0.068-0.067
		c0.78-0.781,1.245-1.551,1.039-1.718c-0.207-0.168-1.034,0.297-1.849,1.043c-0.041,0.037-0.082,0.075-0.123,0.112
		c-0.815,0.745-1.322,1.471-1.131,1.616c0.191,0.145,0.231,0.179,0.086,0.076c-0.088-0.062-0.176-0.125-0.262-0.187
		c-2.723-1.957-5.108-4.406-7.539-6.702c-5.26-4.968-10.446-10.135-11.887-17.519c-0.47-2.407,0.402-8.003,2.961-9.072
		c1.019-0.426,1.308,0.663,0.519,1.436c-0.406,0.397-0.814,0.797-1.224,1.198c-0.789,0.773-1.434,1.415-1.439,1.437
		c-0.005,0.021,0.632-0.586,1.426-1.354c2.223-2.154,3.497-3.368,2.162-1.994c-0.371,0.357-1.126,1.086-2.186,2.11
		c-0.794,0.768-1.562,1.897-1.664,2.532c-0.064,0.403-0.11,0.792-0.138,1.154c0,0.009,0,0.017,0,0.026
		c0,0.014,0.627-0.612,1.403-1.398c0.567-0.575,1.133-1.148,1.698-1.72c0.776-0.786,1.502-1.81,1.659-2.274
		c0.157-0.466,0.671-0.629,1.064-0.318c0.22,0.175,0.447,0.374,0.68,0.6c1.427,1.384,2.574,3.015,3.834,4.544
		c0.702,0.852,1.204,1.579,1.15,1.738c-0.031,0.093-0.021,0.19,0.051,0.286c1.634,2.217-0.246,4.302-0.777,6.366
		c-0.352,1.368,0.354,2.768,1.004,3.89c1.373,2.369,4.446,4.464,6.598,6.126c2.303,1.779,4.832,2.432,6.864,1.319
		c0.969-0.53,2.221-0.739,3.106-0.078c2.47,1.845,4.933,3.613,7.009,6.097C50.118,47.208,49.846,48.288,48.88,49.13z"/>
	<path d="M19.199,30.134c-0.148,0.152-0.296,0.306-0.445,0.459c-0.768,0.793-1.195,1.729-0.943,2.083
		c0.253,0.354,1.102,0.008,1.888-0.768c0.128-0.126,0.256-0.253,0.384-0.379c0.787-0.775,1.209-1.718,0.956-2.111
		C20.786,29.023,19.967,29.34,19.199,30.134z"/>
	<path d="M18.309,28.535c0.772-0.791,1.174-1.869,0.935-2.424c-0.239-0.555-1.046-0.386-1.833,0.389
		c-0.21,0.207-0.42,0.414-0.63,0.621c-0.787,0.775-1.215,1.856-0.93,2.403c0.286,0.548,1.166,0.337,1.937-0.454
		C17.962,28.891,18.136,28.712,18.309,28.535z"/>
	<path d="M24.36,33.783c-0.229-0.258-1.044,0.161-1.827,0.94c-0.091,0.091-0.182,0.182-0.273,0.273
		c-0.783,0.778-1.218,1.629-0.968,1.896c0.251,0.267,1.079-0.162,1.848-0.955c0.082-0.084,0.164-0.169,0.245-0.253
		C24.155,34.892,24.589,34.042,24.36,33.783z"/>
	<path d="M17.484,22.107c0.236-0.237,0.389-0.675,0.359-0.98c-0.03-0.306-0.678,0.082-1.455,0.867
		c-0.336,0.34-0.673,0.681-1.01,1.021c-0.776,0.786-1.366,1.621-1.311,1.864c0.055,0.243,0.752-0.183,1.548-0.948
		c0.48-0.462,0.96-0.925,1.441-1.395C17.199,22.393,17.342,22.25,17.484,22.107z"/>
	<path d="M27.314,36.861c-0.082-0.079-0.782,0.49-1.562,1.272c-0.06,0.061-0.121,0.121-0.182,0.183
		c-0.78,0.781-1.37,1.456-1.316,1.506c0.054,0.05,0.751-0.521,1.558-1.275c0.063-0.059,0.127-0.118,0.19-0.177
		C26.809,37.614,27.396,36.94,27.314,36.861z"/>
	<path d="M27.415,39.693c-0.061,0.057-0.121,0.113-0.182,0.169c-0.81,0.752-1.17,1.64-0.807,1.982
		c0.363,0.344,1.315,0.016,2.128-0.732c0.065-0.06,0.129-0.118,0.193-0.178c0.812-0.749,1.171-1.638,0.803-1.982
		C29.182,38.608,28.224,38.942,27.415,39.693z"/>
	<path d="M31.401,43.754c-0.79,0.771-0.77,0.792,0.036,0.036c0.057-0.053,0.113-0.106,0.17-0.159
		c0.805-0.756,1.44-1.387,1.421-1.404c-0.018-0.018-0.674,0.595-1.463,1.366C31.511,43.646,31.456,43.7,31.401,43.754z"/>
	<path d="M32.208,23.815c-0.293,0.233-0.243,0.555,0.159,0.593c3.424,0.323,5.55,3.053,6.494,6.162
		c0.182,0.601,2.107,0.061,1.932-0.518c-1.043-3.438-3.488-6.251-7.218-6.604C33.108,23.404,32.581,23.518,32.208,23.815z"/>
	<path d="M45.244,33.269c-0.02,0.796,1.915,0.387,1.931-0.244c0.222-8.9-6.893-15.524-15.483-16.261
		c-0.732-0.063-2.058,0.975-0.754,1.086C38.92,18.535,45.447,25.134,45.244,33.269z"/>
	<path d="M30.732,11.512c-0.798-0.06-2.036,1.089-0.727,1.188C41.174,13.54,48.553,23.324,51.39,33.406
		c0.209,0.743,2.139,0.219,1.932-0.518C50.312,22.193,42.427,12.393,30.732,11.512z"/>
</g>
</svg>
